<?xml version="1.0" encoding="utf-8"?>
<svg xmlns="http://www.w3.org/2000/svg" xmlns:xlink="http://www.w3.org/1999/xlink" width="600" height="400" viewBox="0 0 2400 1600">
<defs>
  <clipPath id="clip630">
    <rect x="0" y="0" width="2400" height="1600"/>
  </clipPath>
</defs>
<path clip-path="url(#clip630)" d="M0 1600 L2400 1600 L2400 0 L0 0  Z" fill="#ffffff" fill-rule="evenodd" fill-opacity="1"/>
<defs>
  <clipPath id="clip631">
    <rect x="480" y="0" width="1681" height="1600"/>
  </clipPath>
</defs>
<path clip-path="url(#clip630)" d="M156.598 1486.45 L2352.76 1486.45 L2352.76 47.2441 L156.598 47.2441  Z" fill="#ffffff" fill-rule="evenodd" fill-opacity="1"/>
<defs>
  <clipPath id="clip632">
    <rect x="156" y="47" width="2197" height="1440"/>
  </clipPath>
</defs>
<polyline clip-path="url(#clip632)" style="stroke:#000000; stroke-linecap:round; stroke-linejoin:round; stroke-width:2; stroke-opacity:0.1; fill:none" points="218.754,1486.45 218.754,47.2441 "/>
<polyline clip-path="url(#clip632)" style="stroke:#000000; stroke-linecap:round; stroke-linejoin:round; stroke-width:2; stroke-opacity:0.1; fill:none" points="654.221,1486.45 654.221,47.2441 "/>
<polyline clip-path="url(#clip632)" style="stroke:#000000; stroke-linecap:round; stroke-linejoin:round; stroke-width:2; stroke-opacity:0.1; fill:none" points="1089.69,1486.45 1089.69,47.2441 "/>
<polyline clip-path="url(#clip632)" style="stroke:#000000; stroke-linecap:round; stroke-linejoin:round; stroke-width:2; stroke-opacity:0.1; fill:none" points="1525.16,1486.45 1525.16,47.2441 "/>
<polyline clip-path="url(#clip632)" style="stroke:#000000; stroke-linecap:round; stroke-linejoin:round; stroke-width:2; stroke-opacity:0.1; fill:none" points="1960.62,1486.45 1960.62,47.2441 "/>
<polyline clip-path="url(#clip632)" style="stroke:#000000; stroke-linecap:round; stroke-linejoin:round; stroke-width:2; stroke-opacity:0.1; fill:none" points="156.598,1445.72 2352.76,1445.72 "/>
<polyline clip-path="url(#clip632)" style="stroke:#000000; stroke-linecap:round; stroke-linejoin:round; stroke-width:2; stroke-opacity:0.1; fill:none" points="156.598,1117.08 2352.76,1117.08 "/>
<polyline clip-path="url(#clip632)" style="stroke:#000000; stroke-linecap:round; stroke-linejoin:round; stroke-width:2; stroke-opacity:0.1; fill:none" points="156.598,788.448 2352.76,788.448 "/>
<polyline clip-path="url(#clip632)" style="stroke:#000000; stroke-linecap:round; stroke-linejoin:round; stroke-width:2; stroke-opacity:0.1; fill:none" points="156.598,459.814 2352.76,459.814 "/>
<polyline clip-path="url(#clip632)" style="stroke:#000000; stroke-linecap:round; stroke-linejoin:round; stroke-width:2; stroke-opacity:0.1; fill:none" points="156.598,131.18 2352.76,131.18 "/>
<polyline clip-path="url(#clip630)" style="stroke:#000000; stroke-linecap:round; stroke-linejoin:round; stroke-width:4; stroke-opacity:1; fill:none" points="156.598,1486.45 2352.76,1486.45 "/>
<polyline clip-path="url(#clip630)" style="stroke:#000000; stroke-linecap:round; stroke-linejoin:round; stroke-width:4; stroke-opacity:1; fill:none" points="218.754,1486.45 218.754,1467.55 "/>
<polyline clip-path="url(#clip630)" style="stroke:#000000; stroke-linecap:round; stroke-linejoin:round; stroke-width:4; stroke-opacity:1; fill:none" points="654.221,1486.45 654.221,1467.55 "/>
<polyline clip-path="url(#clip630)" style="stroke:#000000; stroke-linecap:round; stroke-linejoin:round; stroke-width:4; stroke-opacity:1; fill:none" points="1089.69,1486.45 1089.69,1467.55 "/>
<polyline clip-path="url(#clip630)" style="stroke:#000000; stroke-linecap:round; stroke-linejoin:round; stroke-width:4; stroke-opacity:1; fill:none" points="1525.16,1486.45 1525.16,1467.55 "/>
<polyline clip-path="url(#clip630)" style="stroke:#000000; stroke-linecap:round; stroke-linejoin:round; stroke-width:4; stroke-opacity:1; fill:none" points="1960.62,1486.45 1960.62,1467.55 "/>
<path clip-path="url(#clip630)" d="M165.282 1532.02 L194.957 1532.02 L194.957 1535.95 L165.282 1535.95 L165.282 1532.02 Z" fill="#000000" fill-rule="nonzero" fill-opacity="1" /><path clip-path="url(#clip630)" d="M205.096 1514.29 L223.453 1514.29 L223.453 1518.22 L209.379 1518.22 L209.379 1526.7 Q210.397 1526.35 211.416 1526.19 Q212.434 1526 213.453 1526 Q219.24 1526 222.619 1529.17 Q225.999 1532.34 225.999 1537.76 Q225.999 1543.34 222.527 1546.44 Q219.055 1549.52 212.735 1549.52 Q210.559 1549.52 208.291 1549.15 Q206.045 1548.78 203.638 1548.04 L203.638 1543.34 Q205.721 1544.47 207.944 1545.03 Q210.166 1545.58 212.643 1545.58 Q216.647 1545.58 218.985 1543.48 Q221.323 1541.37 221.323 1537.76 Q221.323 1534.15 218.985 1532.04 Q216.647 1529.94 212.643 1529.94 Q210.768 1529.94 208.893 1530.35 Q207.041 1530.77 205.096 1531.65 L205.096 1514.29 Z" fill="#000000" fill-rule="nonzero" fill-opacity="1" /><path clip-path="url(#clip630)" d="M235.212 1542.97 L240.096 1542.97 L240.096 1548.85 L235.212 1548.85 L235.212 1542.97 Z" fill="#000000" fill-rule="nonzero" fill-opacity="1" /><path clip-path="url(#clip630)" d="M260.281 1517.37 Q256.67 1517.37 254.841 1520.93 Q253.036 1524.47 253.036 1531.6 Q253.036 1538.71 254.841 1542.27 Q256.67 1545.82 260.281 1545.82 Q263.915 1545.82 265.721 1542.27 Q267.55 1538.71 267.55 1531.6 Q267.55 1524.47 265.721 1520.93 Q263.915 1517.37 260.281 1517.37 M260.281 1513.66 Q266.091 1513.66 269.147 1518.27 Q272.226 1522.85 272.226 1531.6 Q272.226 1540.33 269.147 1544.94 Q266.091 1549.52 260.281 1549.52 Q254.471 1549.52 251.392 1544.94 Q248.337 1540.33 248.337 1531.6 Q248.337 1522.85 251.392 1518.27 Q254.471 1513.66 260.281 1513.66 Z" fill="#000000" fill-rule="nonzero" fill-opacity="1" /><path clip-path="url(#clip630)" d="M601.247 1532.02 L630.923 1532.02 L630.923 1535.95 L601.247 1535.95 L601.247 1532.02 Z" fill="#000000" fill-rule="nonzero" fill-opacity="1" /><path clip-path="url(#clip630)" d="M645.043 1544.91 L661.362 1544.91 L661.362 1548.85 L639.418 1548.85 L639.418 1544.91 Q642.08 1542.16 646.663 1537.53 Q651.27 1532.88 652.45 1531.53 Q654.696 1529.01 655.575 1527.27 Q656.478 1525.51 656.478 1523.82 Q656.478 1521.07 654.534 1519.33 Q652.612 1517.6 649.511 1517.6 Q647.311 1517.6 644.858 1518.36 Q642.427 1519.13 639.649 1520.68 L639.649 1515.95 Q642.474 1514.82 644.927 1514.24 Q647.381 1513.66 649.418 1513.66 Q654.788 1513.66 657.983 1516.35 Q661.177 1519.03 661.177 1523.52 Q661.177 1525.65 660.367 1527.57 Q659.58 1529.47 657.473 1532.07 Q656.895 1532.74 653.793 1535.95 Q650.691 1539.15 645.043 1544.91 Z" fill="#000000" fill-rule="nonzero" fill-opacity="1" /><path clip-path="url(#clip630)" d="M671.177 1542.97 L676.061 1542.97 L676.061 1548.85 L671.177 1548.85 L671.177 1542.97 Z" fill="#000000" fill-rule="nonzero" fill-opacity="1" /><path clip-path="url(#clip630)" d="M686.293 1514.29 L704.649 1514.29 L704.649 1518.22 L690.575 1518.22 L690.575 1526.7 Q691.594 1526.35 692.612 1526.19 Q693.631 1526 694.649 1526 Q700.436 1526 703.816 1529.17 Q707.195 1532.34 707.195 1537.76 Q707.195 1543.34 703.723 1546.44 Q700.251 1549.52 693.932 1549.52 Q691.756 1549.52 689.487 1549.15 Q687.242 1548.78 684.834 1548.04 L684.834 1543.34 Q686.918 1544.47 689.14 1545.03 Q691.362 1545.58 693.839 1545.58 Q697.844 1545.58 700.182 1543.48 Q702.519 1541.37 702.519 1537.76 Q702.519 1534.15 700.182 1532.04 Q697.844 1529.94 693.839 1529.94 Q691.964 1529.94 690.089 1530.35 Q688.237 1530.77 686.293 1531.65 L686.293 1514.29 Z" fill="#000000" fill-rule="nonzero" fill-opacity="1" /><path clip-path="url(#clip630)" d="M1067.07 1517.37 Q1063.46 1517.37 1061.63 1520.93 Q1059.83 1524.47 1059.83 1531.6 Q1059.83 1538.71 1061.63 1542.27 Q1063.46 1545.82 1067.07 1545.82 Q1070.71 1545.82 1072.51 1542.27 Q1074.34 1538.71 1074.34 1531.6 Q1074.34 1524.47 1072.51 1520.93 Q1070.71 1517.37 1067.07 1517.37 M1067.07 1513.66 Q1072.88 1513.66 1075.94 1518.27 Q1079.02 1522.85 1079.02 1531.6 Q1079.02 1540.33 1075.94 1544.94 Q1072.88 1549.52 1067.07 1549.52 Q1061.26 1549.52 1058.18 1544.94 Q1055.13 1540.33 1055.13 1531.6 Q1055.13 1522.85 1058.18 1518.27 Q1061.26 1513.66 1067.07 1513.66 Z" fill="#000000" fill-rule="nonzero" fill-opacity="1" /><path clip-path="url(#clip630)" d="M1087.23 1542.97 L1092.12 1542.97 L1092.12 1548.85 L1087.23 1548.85 L1087.23 1542.97 Z" fill="#000000" fill-rule="nonzero" fill-opacity="1" /><path clip-path="url(#clip630)" d="M1112.3 1517.37 Q1108.69 1517.37 1106.86 1520.93 Q1105.06 1524.47 1105.06 1531.6 Q1105.06 1538.71 1106.86 1542.27 Q1108.69 1545.82 1112.3 1545.82 Q1115.94 1545.82 1117.74 1542.27 Q1119.57 1538.71 1119.57 1531.6 Q1119.57 1524.47 1117.74 1520.93 Q1115.94 1517.37 1112.3 1517.37 M1112.3 1513.66 Q1118.11 1513.66 1121.17 1518.27 Q1124.25 1522.85 1124.25 1531.6 Q1124.25 1540.33 1121.17 1544.94 Q1118.11 1549.52 1112.3 1549.52 Q1106.49 1549.52 1103.42 1544.94 Q1100.36 1540.33 1100.36 1531.6 Q1100.36 1522.85 1103.42 1518.27 Q1106.49 1513.66 1112.3 1513.66 Z" fill="#000000" fill-rule="nonzero" fill-opacity="1" /><path clip-path="url(#clip630)" d="M1496.89 1544.91 L1513.21 1544.91 L1513.21 1548.85 L1491.27 1548.85 L1491.27 1544.91 Q1493.93 1542.16 1498.51 1537.53 Q1503.12 1532.88 1504.3 1531.53 Q1506.55 1529.01 1507.42 1527.27 Q1508.33 1525.51 1508.33 1523.82 Q1508.33 1521.07 1506.38 1519.33 Q1504.46 1517.6 1501.36 1517.6 Q1499.16 1517.6 1496.71 1518.36 Q1494.28 1519.13 1491.5 1520.68 L1491.5 1515.95 Q1494.32 1514.82 1496.78 1514.24 Q1499.23 1513.66 1501.27 1513.66 Q1506.64 1513.66 1509.83 1516.35 Q1513.03 1519.03 1513.03 1523.52 Q1513.03 1525.65 1512.22 1527.57 Q1511.43 1529.47 1509.32 1532.07 Q1508.74 1532.74 1505.64 1535.95 Q1502.54 1539.15 1496.89 1544.91 Z" fill="#000000" fill-rule="nonzero" fill-opacity="1" /><path clip-path="url(#clip630)" d="M1523.03 1542.97 L1527.91 1542.97 L1527.91 1548.85 L1523.03 1548.85 L1523.03 1542.97 Z" fill="#000000" fill-rule="nonzero" fill-opacity="1" /><path clip-path="url(#clip630)" d="M1538.14 1514.29 L1556.5 1514.29 L1556.5 1518.22 L1542.42 1518.22 L1542.42 1526.7 Q1543.44 1526.35 1544.46 1526.19 Q1545.48 1526 1546.5 1526 Q1552.29 1526 1555.67 1529.17 Q1559.04 1532.34 1559.04 1537.76 Q1559.04 1543.34 1555.57 1546.44 Q1552.1 1549.52 1545.78 1549.52 Q1543.61 1549.52 1541.34 1549.15 Q1539.09 1548.78 1536.68 1548.04 L1536.68 1543.34 Q1538.77 1544.47 1540.99 1545.03 Q1543.21 1545.58 1545.69 1545.58 Q1549.69 1545.58 1552.03 1543.48 Q1554.37 1541.37 1554.37 1537.76 Q1554.37 1534.15 1552.03 1532.04 Q1549.69 1529.94 1545.69 1529.94 Q1543.81 1529.94 1541.94 1530.35 Q1540.09 1530.77 1538.14 1531.65 L1538.14 1514.29 Z" fill="#000000" fill-rule="nonzero" fill-opacity="1" /><path clip-path="url(#clip630)" d="M1927.79 1514.29 L1946.14 1514.29 L1946.14 1518.22 L1932.07 1518.22 L1932.07 1526.7 Q1933.09 1526.35 1934.11 1526.19 Q1935.13 1526 1936.14 1526 Q1941.93 1526 1945.31 1529.17 Q1948.69 1532.34 1948.69 1537.76 Q1948.69 1543.34 1945.22 1546.44 Q1941.75 1549.52 1935.43 1549.52 Q1933.25 1549.52 1930.98 1549.15 Q1928.74 1548.78 1926.33 1548.04 L1926.33 1543.34 Q1928.41 1544.47 1930.64 1545.03 Q1932.86 1545.58 1935.33 1545.58 Q1939.34 1545.58 1941.68 1543.48 Q1944.01 1541.37 1944.01 1537.76 Q1944.01 1534.15 1941.68 1532.04 Q1939.34 1529.94 1935.33 1529.94 Q1933.46 1529.94 1931.58 1530.35 Q1929.73 1530.77 1927.79 1531.65 L1927.79 1514.29 Z" fill="#000000" fill-rule="nonzero" fill-opacity="1" /><path clip-path="url(#clip630)" d="M1957.9 1542.97 L1962.79 1542.97 L1962.79 1548.85 L1957.9 1548.85 L1957.9 1542.97 Z" fill="#000000" fill-rule="nonzero" fill-opacity="1" /><path clip-path="url(#clip630)" d="M1982.97 1517.37 Q1979.36 1517.37 1977.53 1520.93 Q1975.73 1524.47 1975.73 1531.6 Q1975.73 1538.71 1977.53 1542.27 Q1979.36 1545.82 1982.97 1545.82 Q1986.61 1545.82 1988.41 1542.27 Q1990.24 1538.71 1990.24 1531.6 Q1990.24 1524.47 1988.41 1520.93 Q1986.61 1517.37 1982.97 1517.37 M1982.97 1513.66 Q1988.78 1513.66 1991.84 1518.27 Q1994.92 1522.85 1994.92 1531.6 Q1994.92 1540.33 1991.84 1544.94 Q1988.78 1549.52 1982.97 1549.52 Q1977.16 1549.52 1974.08 1544.94 Q1971.03 1540.33 1971.03 1531.6 Q1971.03 1522.85 1974.08 1518.27 Q1977.16 1513.66 1982.97 1513.66 Z" fill="#000000" fill-rule="nonzero" fill-opacity="1" /><polyline clip-path="url(#clip630)" style="stroke:#000000; stroke-linecap:round; stroke-linejoin:round; stroke-width:4; stroke-opacity:1; fill:none" points="156.598,1486.45 156.598,47.2441 "/>
<polyline clip-path="url(#clip630)" style="stroke:#000000; stroke-linecap:round; stroke-linejoin:round; stroke-width:4; stroke-opacity:1; fill:none" points="156.598,1445.72 175.496,1445.72 "/>
<polyline clip-path="url(#clip630)" style="stroke:#000000; stroke-linecap:round; stroke-linejoin:round; stroke-width:4; stroke-opacity:1; fill:none" points="156.598,1117.08 175.496,1117.08 "/>
<polyline clip-path="url(#clip630)" style="stroke:#000000; stroke-linecap:round; stroke-linejoin:round; stroke-width:4; stroke-opacity:1; fill:none" points="156.598,788.448 175.496,788.448 "/>
<polyline clip-path="url(#clip630)" style="stroke:#000000; stroke-linecap:round; stroke-linejoin:round; stroke-width:4; stroke-opacity:1; fill:none" points="156.598,459.814 175.496,459.814 "/>
<polyline clip-path="url(#clip630)" style="stroke:#000000; stroke-linecap:round; stroke-linejoin:round; stroke-width:4; stroke-opacity:1; fill:none" points="156.598,131.18 175.496,131.18 "/>
<path clip-path="url(#clip630)" d="M63.4226 1431.51 Q59.8115 1431.51 57.9828 1435.08 Q56.1773 1438.62 56.1773 1445.75 Q56.1773 1452.86 57.9828 1456.42 Q59.8115 1459.96 63.4226 1459.96 Q67.0569 1459.96 68.8624 1456.42 Q70.6911 1452.86 70.6911 1445.75 Q70.6911 1438.62 68.8624 1435.08 Q67.0569 1431.51 63.4226 1431.51 M63.4226 1427.81 Q69.2328 1427.81 72.2883 1432.42 Q75.367 1437 75.367 1445.75 Q75.367 1454.48 72.2883 1459.08 Q69.2328 1463.67 63.4226 1463.67 Q57.6125 1463.67 54.5338 1459.08 Q51.4782 1454.48 51.4782 1445.75 Q51.4782 1437 54.5338 1432.42 Q57.6125 1427.81 63.4226 1427.81 Z" fill="#000000" fill-rule="nonzero" fill-opacity="1" /><path clip-path="url(#clip630)" d="M83.5845 1457.12 L88.4688 1457.12 L88.4688 1463 L83.5845 1463 L83.5845 1457.12 Z" fill="#000000" fill-rule="nonzero" fill-opacity="1" /><path clip-path="url(#clip630)" d="M108.654 1431.51 Q105.043 1431.51 103.214 1435.08 Q101.409 1438.62 101.409 1445.75 Q101.409 1452.86 103.214 1456.42 Q105.043 1459.96 108.654 1459.96 Q112.288 1459.96 114.094 1456.42 Q115.922 1452.86 115.922 1445.75 Q115.922 1438.62 114.094 1435.08 Q112.288 1431.51 108.654 1431.51 M108.654 1427.81 Q114.464 1427.81 117.52 1432.42 Q120.598 1437 120.598 1445.75 Q120.598 1454.48 117.52 1459.08 Q114.464 1463.67 108.654 1463.67 Q102.844 1463.67 99.765 1459.08 Q96.7095 1454.48 96.7095 1445.75 Q96.7095 1437 99.765 1432.42 Q102.844 1427.81 108.654 1427.81 Z" fill="#000000" fill-rule="nonzero" fill-opacity="1" /><path clip-path="url(#clip630)" d="M64.6495 1102.88 Q61.0384 1102.88 59.2097 1106.45 Q57.4041 1109.99 57.4041 1117.12 Q57.4041 1124.22 59.2097 1127.79 Q61.0384 1131.33 64.6495 1131.33 Q68.2837 1131.33 70.0892 1127.79 Q71.9179 1124.22 71.9179 1117.12 Q71.9179 1109.99 70.0892 1106.45 Q68.2837 1102.88 64.6495 1102.88 M64.6495 1099.18 Q70.4596 1099.18 73.5152 1103.78 Q76.5938 1108.37 76.5938 1117.12 Q76.5938 1125.84 73.5152 1130.45 Q70.4596 1135.03 64.6495 1135.03 Q58.8393 1135.03 55.7606 1130.45 Q52.7051 1125.84 52.7051 1117.12 Q52.7051 1108.37 55.7606 1103.78 Q58.8393 1099.18 64.6495 1099.18 Z" fill="#000000" fill-rule="nonzero" fill-opacity="1" /><path clip-path="url(#clip630)" d="M84.8114 1128.48 L89.6956 1128.48 L89.6956 1134.36 L84.8114 1134.36 L84.8114 1128.48 Z" fill="#000000" fill-rule="nonzero" fill-opacity="1" /><path clip-path="url(#clip630)" d="M100.691 1130.43 L108.33 1130.43 L108.33 1104.06 L100.02 1105.73 L100.02 1101.47 L108.283 1099.8 L112.959 1099.8 L112.959 1130.43 L120.598 1130.43 L120.598 1134.36 L100.691 1134.36 L100.691 1130.43 Z" fill="#000000" fill-rule="nonzero" fill-opacity="1" /><path clip-path="url(#clip630)" d="M65.0198 774.247 Q61.4087 774.247 59.58 777.811 Q57.7745 781.353 57.7745 788.483 Q57.7745 795.589 59.58 799.154 Q61.4087 802.695 65.0198 802.695 Q68.6541 802.695 70.4596 799.154 Q72.2883 795.589 72.2883 788.483 Q72.2883 781.353 70.4596 777.811 Q68.6541 774.247 65.0198 774.247 M65.0198 770.543 Q70.83 770.543 73.8855 775.149 Q76.9642 779.733 76.9642 788.483 Q76.9642 797.209 73.8855 801.816 Q70.83 806.399 65.0198 806.399 Q59.2097 806.399 56.131 801.816 Q53.0754 797.209 53.0754 788.483 Q53.0754 779.733 56.131 775.149 Q59.2097 770.543 65.0198 770.543 Z" fill="#000000" fill-rule="nonzero" fill-opacity="1" /><path clip-path="url(#clip630)" d="M85.1818 799.848 L90.066 799.848 L90.066 805.728 L85.1818 805.728 L85.1818 799.848 Z" fill="#000000" fill-rule="nonzero" fill-opacity="1" /><path clip-path="url(#clip630)" d="M104.279 801.793 L120.598 801.793 L120.598 805.728 L98.6539 805.728 L98.6539 801.793 Q101.316 799.038 105.899 794.408 Q110.506 789.756 111.686 788.413 Q113.932 785.89 114.811 784.154 Q115.714 782.395 115.714 780.705 Q115.714 777.95 113.77 776.214 Q111.848 774.478 108.746 774.478 Q106.547 774.478 104.094 775.242 Q101.663 776.006 98.8854 777.557 L98.8854 772.835 Q101.709 771.7 104.163 771.122 Q106.617 770.543 108.654 770.543 Q114.024 770.543 117.219 773.228 Q120.413 775.913 120.413 780.404 Q120.413 782.534 119.603 784.455 Q118.816 786.353 116.709 788.946 Q116.131 789.617 113.029 792.834 Q109.927 796.029 104.279 801.793 Z" fill="#000000" fill-rule="nonzero" fill-opacity="1" /><path clip-path="url(#clip630)" d="M64.0708 445.613 Q60.4597 445.613 58.631 449.177 Q56.8254 452.719 56.8254 459.849 Q56.8254 466.955 58.631 470.52 Q60.4597 474.062 64.0708 474.062 Q67.705 474.062 69.5105 470.52 Q71.3392 466.955 71.3392 459.849 Q71.3392 452.719 69.5105 449.177 Q67.705 445.613 64.0708 445.613 M64.0708 441.909 Q69.8809 441.909 72.9365 446.515 Q76.0151 451.099 76.0151 459.849 Q76.0151 468.575 72.9365 473.182 Q69.8809 477.765 64.0708 477.765 Q58.2606 477.765 55.1819 473.182 Q52.1264 468.575 52.1264 459.849 Q52.1264 451.099 55.1819 446.515 Q58.2606 441.909 64.0708 441.909 Z" fill="#000000" fill-rule="nonzero" fill-opacity="1" /><path clip-path="url(#clip630)" d="M84.2327 471.214 L89.1169 471.214 L89.1169 477.094 L84.2327 477.094 L84.2327 471.214 Z" fill="#000000" fill-rule="nonzero" fill-opacity="1" /><path clip-path="url(#clip630)" d="M113.469 458.46 Q116.825 459.177 118.7 461.446 Q120.598 463.714 120.598 467.048 Q120.598 472.163 117.08 474.964 Q113.561 477.765 107.08 477.765 Q104.904 477.765 102.589 477.325 Q100.297 476.909 97.8437 476.052 L97.8437 471.538 Q99.7882 472.673 102.103 473.251 Q104.418 473.83 106.941 473.83 Q111.339 473.83 113.631 472.094 Q115.945 470.358 115.945 467.048 Q115.945 463.992 113.793 462.279 Q111.663 460.543 107.844 460.543 L103.816 460.543 L103.816 456.701 L108.029 456.701 Q111.478 456.701 113.307 455.335 Q115.135 453.946 115.135 451.353 Q115.135 448.691 113.237 447.279 Q111.362 445.844 107.844 445.844 Q105.922 445.844 103.723 446.261 Q101.524 446.677 98.8854 447.557 L98.8854 443.39 Q101.547 442.65 103.862 442.279 Q106.2 441.909 108.26 441.909 Q113.584 441.909 116.686 444.339 Q119.788 446.747 119.788 450.867 Q119.788 453.738 118.145 455.728 Q116.501 457.696 113.469 458.46 Z" fill="#000000" fill-rule="nonzero" fill-opacity="1" /><path clip-path="url(#clip630)" d="M62.9365 116.979 Q59.3254 116.979 57.4967 120.544 Q55.6912 124.085 55.6912 131.215 Q55.6912 138.321 57.4967 141.886 Q59.3254 145.428 62.9365 145.428 Q66.5707 145.428 68.3763 141.886 Q70.205 138.321 70.205 131.215 Q70.205 124.085 68.3763 120.544 Q66.5707 116.979 62.9365 116.979 M62.9365 113.275 Q68.7467 113.275 71.8022 117.881 Q74.8809 122.465 74.8809 131.215 Q74.8809 139.942 71.8022 144.548 Q68.7467 149.131 62.9365 149.131 Q57.1264 149.131 54.0477 144.548 Q50.9921 139.942 50.9921 131.215 Q50.9921 122.465 54.0477 117.881 Q57.1264 113.275 62.9365 113.275 Z" fill="#000000" fill-rule="nonzero" fill-opacity="1" /><path clip-path="url(#clip630)" d="M83.0984 142.58 L87.9827 142.58 L87.9827 148.46 L83.0984 148.46 L83.0984 142.58 Z" fill="#000000" fill-rule="nonzero" fill-opacity="1" /><path clip-path="url(#clip630)" d="M111.015 117.974 L99.2095 136.423 L111.015 136.423 L111.015 117.974 M109.788 113.9 L115.668 113.9 L115.668 136.423 L120.598 136.423 L120.598 140.312 L115.668 140.312 L115.668 148.46 L111.015 148.46 L111.015 140.312 L95.4132 140.312 L95.4132 135.798 L109.788 113.9 Z" fill="#000000" fill-rule="nonzero" fill-opacity="1" /><polyline clip-path="url(#clip632)" style="stroke:#009af9; stroke-linecap:round; stroke-linejoin:round; stroke-width:4; stroke-opacity:1; fill:none" points="441.884,1444.41 448.572,1444.22 455.26,1443.99 494.429,1441.9 533.599,1437.69 551.82,1434.57 570.042,1430.4 594.466,1422.68 618.89,1411.73 628.98,1406.04 639.071,1399.54 649.162,1392.17 659.253,1383.82 668.636,1375.11 678.02,1365.41 687.403,1354.64 696.787,1342.72 708.566,1326.03 720.345,1307.26 732.125,1286.27 743.904,1262.95 754.471,1239.94 765.037,1214.88 775.603,1187.73 786.169,1158.44 798.264,1122.27 810.358,1083.3 822.453,1041.59 834.547,997.249 843.588,962.477 852.628,926.409 861.669,889.151 870.71,850.825 893.836,748.934 916.962,643.851 938.069,548.085 959.177,455.529 965.182,430.22 971.188,405.501 977.194,381.446 983.2,358.128 989.205,335.62 995.211,313.993 1001.22,293.315 1007.22,273.653 1016.74,244.72 1026.27,218.745 1035.79,195.948 1045.31,176.525 1051.22,166.235 1057.14,157.348 1063.05,149.894 1068.97,143.899 1074.88,139.383 1080.8,136.363 1086.71,134.847 1092.63,134.843 1101.69,137.763 1110.75,144.202 1119.81,154.107 1128.87,167.4 1135.25,178.75 1141.64,191.686 1148.02,206.156 1154.41,222.106 1160.8,239.473 1167.18,258.191 1173.57,278.189 1179.96,299.392 1189.5,333.157 1199.05,369.165 1208.59,407.13 1218.13,446.761 1239.84,541.525 1261.55,639.913 1283.05,737.718 1304.55,833.057 1316.38,883.575 1328.2,932.3 1340.03,978.958 1351.86,1023.33 1360.89,1055.57 1369.92,1086.32 1378.96,1115.53 1387.99,1143.18 1399.39,1175.84 1410.79,1206 1422.19,1233.69 1433.59,1258.99 1444.13,1280.33 1454.68,1299.76 1465.22,1317.38 1475.76,1333.29 1486.64,1348.01 1497.51,1361.13 1508.38,1372.77 1519.26,1383.06 1530.28,1392.22 1541.3,1400.22 1552.32,1407.18 1563.34,1413.21 1586.36,1423.22 1609.38,1430.42 1627.51,1434.56 1645.64,1437.67 1686.94,1442.05 1728.23,1444.13 1732.86,1444.28 1737.49,1444.41 "/>
<polyline clip-path="url(#clip632)" style="stroke:#e26f46; stroke-linecap:round; stroke-linejoin:round; stroke-width:4; stroke-opacity:1; fill:none" points="218.754,1445.72 236.011,1445.72 337.088,1445.72 384.108,1445.72 447.134,1445.71 499.212,1445.67 547.64,1445.19 578.036,1443.87 608.433,1440.31 622.066,1437.37 635.699,1433.18 649.332,1427.38 662.965,1419.51 670.767,1413.91 678.57,1407.37 686.372,1399.82 694.175,1391.14 701.977,1381.24 709.779,1370.02 717.582,1357.38 725.384,1343.23 731.217,1331.63 737.049,1319.1 742.881,1305.62 748.713,1291.17 754.546,1275.72 760.378,1259.26 766.21,1241.78 772.043,1223.26 779.502,1198.07 786.962,1171.19 794.421,1142.65 801.881,1112.49 809.341,1080.76 816.8,1047.54 824.26,1012.92 831.72,976.993 845.336,908.467 858.953,836.866 872.57,763.175 886.187,688.49 901.685,603.777 917.182,521.088 924.931,481.063 932.68,442.209 940.429,404.738 948.178,368.852 954.32,341.657 960.463,315.669 966.606,290.971 972.748,267.643 978.891,245.756 985.034,225.377 991.176,206.564 997.319,189.37 1004.95,170.329 1012.58,153.924 1020.21,140.208 1027.84,129.213 1035.48,120.958 1043.11,115.442 1050.74,112.647 1058.37,112.542 1064.22,114.25 1070.06,117.48 1075.9,122.2 1081.75,128.374 1087.59,135.962 1093.44,144.92 1099.28,155.2 1105.13,166.752 1113.37,185.095 1121.61,205.703 1129.85,228.41 1138.09,253.045 1146.33,279.432 1154.57,307.393 1162.81,336.749 1171.05,367.322 1183.36,414.9 1195.68,464.226 1207.99,514.75 1220.31,565.951 1248.32,682.441 1276.33,795.17 1290.2,848.433 1304.06,899.536 1317.93,948.221 1331.8,994.294 1347.06,1041.81 1362.32,1085.91 1377.58,1126.56 1392.84,1163.79 1404.5,1189.98 1416.15,1214.27 1427.81,1236.73 1439.46,1257.43 1454.17,1281.17 1468.88,1302.4 1483.59,1321.31 1498.3,1338.07 1511.9,1351.82 1525.5,1364.03 1539.11,1374.84 1552.71,1384.38 1566.74,1393.01 1580.77,1400.54 1594.8,1407.09 1608.83,1412.78 1637.27,1422.04 1665.71,1428.87 1695.41,1434.02 1725.11,1437.67 1748.5,1439.77 1771.9,1441.34 1825.17,1443.59 1878.45,1444.71 1884.43,1444.79 1890.4,1444.86 "/>
<polyline clip-path="url(#clip632)" style="stroke:#3da44d; stroke-linecap:round; stroke-linejoin:round; stroke-width:4; stroke-opacity:1; fill:none" points="473.845,1445.72 483.222,1445.72 492.6,1445.72 547.525,1445.72 602.45,1445.71 628.002,1445.64 653.553,1445.13 670.677,1443.91 687.801,1441.01 696.363,1438.5 704.925,1434.97 713.487,1430.15 722.049,1423.75 729.124,1417.04 736.199,1408.83 743.273,1398.94 750.348,1387.2 757.423,1373.41 764.498,1357.43 771.573,1339.12 778.648,1318.37 785.227,1296.8 791.806,1272.99 798.384,1246.94 804.963,1218.65 811.542,1188.16 818.121,1155.53 824.7,1120.86 831.279,1084.27 839.538,1035.84 847.797,984.944 856.055,931.978 864.314,877.365 880.832,765.057 897.35,651.892 904.758,601.902 912.166,552.872 919.574,505.128 926.982,458.98 934.391,414.715 941.799,372.596 949.207,332.857 956.615,295.709 960.855,275.683 965.095,256.594 969.335,238.467 973.574,221.325 977.814,205.187 982.054,190.07 986.294,175.987 990.534,162.949 994.774,150.963 999.013,140.033 1003.25,130.161 1007.49,121.345 1011.73,113.584 1015.97,106.869 1020.21,101.194 1024.45,96.547 1030.79,91.4901 1037.13,88.653 1043.47,87.9763 1049.81,89.393 1056.15,92.829 1062.48,98.2043 1068.82,105.434 1075.16,114.428 1083.27,128.356 1091.38,144.818 1099.48,163.612 1107.59,184.53 1115.7,207.367 1123.8,231.918 1131.91,257.983 1140.02,285.368 1154.82,338.141 1169.62,393.603 1184.41,450.77 1199.21,508.762 1216.06,574.797 1232.9,639.951 1249.74,703.44 1266.59,764.649 1279.94,811.237 1293.29,855.922 1306.64,898.581 1319.99,939.13 1336.58,986.496 1353.17,1030.51 1369.76,1071.19 1386.34,1108.64 1399.05,1135.2 1411.75,1159.99 1424.45,1183.07 1437.16,1204.54 1455.07,1232.19 1472.98,1256.99 1490.89,1279.17 1508.8,1298.96 1522.18,1312.31 1535.57,1324.53 1548.95,1335.69 1562.33,1345.89 1577.56,1356.4 1592.78,1365.86 1608,1374.36 1623.22,1381.98 1653.36,1394.84 1683.51,1405.17 1716.68,1414.17 1749.85,1421.21 1775.18,1425.51 1800.52,1429.07 1864.45,1435.51 1923.59,1439.23 1984.58,1441.65 2046.4,1443.17 2110.95,1444.15 2161.8,1444.65 2277.61,1445.26 2290.6,1445.31 "/>
<path clip-path="url(#clip630)" d="M1582.98 338.447 L2279.55 338.447 L2279.55 95.2176 L1582.98 95.2176  Z" fill="#ffffff" fill-rule="evenodd" fill-opacity="1"/>
<polyline clip-path="url(#clip630)" style="stroke:#000000; stroke-linecap:round; stroke-linejoin:round; stroke-width:4; stroke-opacity:1; fill:none" points="1582.98,338.447 2279.55,338.447 2279.55,95.2176 1582.98,95.2176 1582.98,338.447 "/>
<polyline clip-path="url(#clip630)" style="stroke:#009af9; stroke-linecap:round; stroke-linejoin:round; stroke-width:4; stroke-opacity:1; fill:none" points="1607.38,156.025 1753.79,156.025 "/>
<path clip-path="url(#clip630)" d="M1822.77 136.444 Q1822.56 137.287 1822.11 137.591 L1820.38 138.341 Q1819.51 138.341 1819.42 138.153 Q1819.02 137.662 1818.95 137.146 Q1818.95 136.771 1818.74 136.537 Q1818.55 136.28 1818.22 136.28 Q1817.54 136.28 1817.12 136.631 Q1816.11 137.427 1815.48 139.301 Q1814.94 140.847 1813.42 146.796 L1808.53 166.799 L1805.83 168.228 Q1803.75 160.147 1801.55 153.729 Q1799.34 147.288 1796.49 142.229 L1794.38 149.771 Q1791.57 158.695 1791.03 159.796 Q1789.37 163.45 1786.6 165.792 Q1783.86 168.087 1781.29 168.087 Q1779.62 168.087 1778.87 167.08 Q1778.19 166.237 1778.45 165.253 Q1778.64 164.34 1779.69 163.497 Q1780.35 163.005 1780.89 163.005 Q1781.73 163.005 1782.06 163.45 Q1782.11 163.497 1782.18 163.66 Q1782.25 163.824 1782.34 164.059 Q1782.43 164.269 1782.48 164.387 Q1782.76 165.066 1783.67 165.066 Q1785.17 165.066 1786.84 163.731 Q1787.47 163.215 1788.01 162.466 Q1788.57 161.693 1788.8 161.225 Q1789.06 160.756 1789.58 159.702 Q1790.82 156.868 1791.99 152.394 L1795.1 139.98 Q1793.98 138.528 1792.95 137.826 Q1791.8 137.053 1790.87 137.053 Q1789.11 137.053 1787.96 138.06 Q1787.35 138.528 1786.79 139.301 Q1786.25 140.074 1785.97 140.613 Q1785.69 141.151 1785.27 142.135 L1784.17 142.369 Q1785.24 138.083 1787.8 135.999 Q1790.02 134.265 1792.95 134.265 Q1795.76 134.265 1797.94 137.287 Q1798.69 138.247 1799.39 139.606 Q1800.12 140.941 1800.44 141.76 Q1800.8 142.557 1801.52 144.337 L1807.89 161.951 L1808.39 161.365 L1812.09 144.876 Q1812.79 141.924 1814.19 138.973 Q1815.27 136.584 1816.54 135.577 Q1818.43 134.031 1820.75 134.031 Q1821.83 134.031 1822.49 134.757 Q1823 135.413 1822.77 136.444 Z" fill="#000000" fill-rule="nonzero" fill-opacity="1" /><path clip-path="url(#clip630)" d="M1826.02 155.908 Q1826.02 147.803 1829.04 141.269 Q1830.33 138.528 1832.13 136.233 Q1833.94 133.937 1835.13 132.93 Q1836.32 131.923 1836.65 131.923 Q1837.12 131.923 1837.14 132.392 Q1837.14 132.626 1836.51 133.211 Q1828.78 141.081 1828.81 155.908 Q1828.81 170.781 1836.32 178.346 Q1837.14 179.166 1837.14 179.424 Q1837.14 179.892 1836.65 179.892 Q1836.32 179.892 1835.18 178.932 Q1834.03 177.972 1832.25 175.77 Q1830.47 173.568 1829.18 170.875 Q1826.02 164.34 1826.02 155.908 Z" fill="#000000" fill-rule="nonzero" fill-opacity="1" /><path clip-path="url(#clip630)" d="M1841.75 152.558 Q1841.75 145.508 1843.53 141.667 Q1846.01 135.952 1851.86 135.952 Q1853.11 135.952 1854.39 136.303 Q1855.71 136.631 1857.35 137.919 Q1859.01 139.207 1860.02 141.315 Q1861.94 145.391 1861.94 152.558 Q1861.94 159.562 1860.16 163.379 Q1857.56 168.954 1851.82 168.954 Q1849.66 168.954 1847.46 167.853 Q1845.28 166.752 1843.9 164.105 Q1841.75 160.147 1841.75 152.558 M1845.73 151.973 Q1845.73 159.21 1846.24 162.091 Q1846.83 165.206 1848.42 166.565 Q1850.04 167.9 1851.82 167.9 Q1853.74 167.9 1855.33 166.471 Q1856.95 165.019 1857.44 161.904 Q1857.98 158.835 1857.95 151.973 Q1857.95 145.297 1857.49 142.627 Q1856.85 139.512 1855.17 138.271 Q1853.5 137.006 1851.82 137.006 Q1851.19 137.006 1850.51 137.193 Q1849.85 137.38 1848.89 137.919 Q1847.93 138.458 1847.18 139.793 Q1846.45 141.128 1846.1 143.142 Q1845.73 145.742 1845.73 151.973 Z" fill="#000000" fill-rule="nonzero" fill-opacity="1" /><path clip-path="url(#clip630)" d="M1866.18 167.127 Q1865.5 166.354 1865.5 165.347 Q1865.5 164.34 1866.15 163.59 Q1866.83 162.817 1868.05 162.817 Q1869.48 162.817 1870.3 164.199 Q1871.12 165.558 1871.12 167.853 Q1871.12 170.336 1870.11 172.631 Q1869.1 174.95 1868.12 176.051 Q1867.14 177.152 1866.74 177.152 Q1866.27 177.152 1866.27 176.637 Q1866.27 176.449 1866.6 176.098 Q1870.04 172.397 1870.06 167.853 Q1870.06 167.127 1869.97 167.127 L1869.85 167.221 Q1869.03 167.9 1868.05 167.9 Q1866.85 167.9 1866.18 167.127 Z" fill="#000000" fill-rule="nonzero" fill-opacity="1" /><path clip-path="url(#clip630)" d="M1886.25 140.519 L1886.25 139.02 Q1892.01 139.02 1894.99 135.952 Q1895.81 135.952 1895.95 136.139 Q1896.09 136.326 1896.09 137.193 L1896.09 164.105 Q1896.09 165.534 1896.79 165.979 Q1897.49 166.424 1900.56 166.424 L1902.08 166.424 L1902.08 167.9 Q1900.4 167.759 1894.31 167.759 Q1888.22 167.759 1886.55 167.9 L1886.55 166.424 L1888.08 166.424 Q1891.1 166.424 1891.82 166.003 Q1892.55 165.558 1892.55 164.105 L1892.55 139.254 Q1890.04 140.519 1886.25 140.519 Z" fill="#000000" fill-rule="nonzero" fill-opacity="1" /><path clip-path="url(#clip630)" d="M1909.23 179.424 Q1909.23 179.19 1909.84 178.604 Q1917.57 170.734 1917.57 155.908 Q1917.57 141.034 1910.14 133.516 Q1909.23 132.649 1909.23 132.392 Q1909.23 131.923 1909.7 131.923 Q1910.03 131.923 1911.18 132.883 Q1912.35 133.844 1914.1 136.045 Q1915.88 138.247 1917.19 140.941 Q1920.36 147.476 1920.36 155.908 Q1920.36 164.012 1917.34 170.547 Q1916.05 173.287 1914.24 175.582 Q1912.44 177.878 1911.25 178.885 Q1910.05 179.892 1909.7 179.892 Q1909.23 179.892 1909.23 179.424 Z" fill="#000000" fill-rule="nonzero" fill-opacity="1" /><polyline clip-path="url(#clip630)" style="stroke:#e26f46; stroke-linecap:round; stroke-linejoin:round; stroke-width:4; stroke-opacity:1; fill:none" points="1607.38,216.832 1753.79,216.832 "/>
<path clip-path="url(#clip630)" d="M1778.19 221.35 Q1778.19 213.246 1781.22 206.711 Q1782.5 203.971 1784.31 201.675 Q1786.11 199.38 1787.3 198.373 Q1788.5 197.366 1788.83 197.366 Q1789.3 197.366 1789.32 197.834 Q1789.32 198.068 1788.69 198.654 Q1780.96 206.524 1780.98 221.35 Q1780.98 236.224 1788.5 243.789 Q1789.32 244.609 1789.32 244.866 Q1789.32 245.335 1788.83 245.335 Q1788.5 245.335 1787.35 244.375 Q1786.2 243.414 1784.42 241.212 Q1782.64 239.011 1781.36 236.317 Q1778.19 229.782 1778.19 221.35 Z" fill="#000000" fill-rule="nonzero" fill-opacity="1" /><path clip-path="url(#clip630)" d="M1823.47 212.848 Q1823.64 213.012 1823.64 213.246 Q1823.64 213.48 1823.1 214.019 L1811.69 226.808 Q1816.05 242.126 1818.44 242.126 Q1819.16 242.126 1819.91 241.564 Q1820.69 241.025 1820.99 240.205 Q1821.11 239.807 1821.23 239.667 Q1821.34 239.526 1821.67 239.526 Q1822.23 239.526 1822.23 240.065 Q1822.23 240.346 1821.98 240.814 Q1821.72 241.306 1821.25 241.845 Q1820.78 242.407 1819.96 242.782 Q1819.14 243.18 1818.16 243.18 Q1816.94 243.18 1815.96 242.899 Q1814.97 242.618 1814.41 242.267 Q1813.85 241.915 1813.33 241.283 Q1812.84 240.674 1812.65 240.299 Q1812.49 239.948 1812.21 239.339 Q1811.65 238.027 1811.13 236.575 Q1810.62 235.123 1810.29 234.069 Q1809.96 233.015 1808.95 229.782 L1797.97 242.126 Q1797.45 242.641 1797.19 242.641 Q1796.98 242.641 1796.8 242.454 Q1796.61 242.29 1796.61 242.079 Q1796.61 241.845 1797.15 241.306 L1808.18 228.986 Q1808.34 228.822 1808.44 228.681 Q1808.53 228.541 1808.53 228.494 L1808.55 228.447 Q1808.55 228.33 1808.13 226.831 Q1807.71 225.332 1806.94 223.013 Q1806.19 220.671 1805.49 218.961 Q1805.04 217.813 1804.74 217.111 Q1804.43 216.408 1803.89 215.354 Q1803.38 214.3 1802.84 213.761 Q1802.3 213.199 1801.81 213.199 Q1801.64 213.199 1801.39 213.27 Q1801.13 213.34 1800.71 213.527 Q1800.31 213.691 1799.91 214.16 Q1799.51 214.605 1799.26 215.26 Q1799.05 215.776 1798.65 215.776 Q1798.39 215.776 1798.23 215.659 Q1798.08 215.541 1798.08 215.424 L1798.06 215.307 Q1798.06 214.886 1798.46 214.183 Q1798.86 213.48 1799.84 212.824 Q1800.83 212.145 1802.09 212.145 Q1803.28 212.145 1804.27 212.426 Q1805.25 212.707 1805.79 213.035 Q1806.35 213.363 1806.84 213.972 Q1807.34 214.558 1807.48 214.839 Q1807.64 215.096 1807.9 215.635 Q1808.7 217.462 1809.21 219.031 Q1809.75 220.577 1811.29 225.473 L1822.28 213.246 Q1822.77 212.661 1823.05 212.661 Q1823.31 212.661 1823.47 212.848 Z" fill="#000000" fill-rule="nonzero" fill-opacity="1" /><path clip-path="url(#clip630)" d="M1828.49 219.003 Q1828.49 218.396 1828.54 218.216 Q1828.61 218.035 1828.87 217.757 L1835.32 210.575 Q1838.84 206.608 1838.84 203.148 Q1838.84 200.902 1837.66 199.295 Q1836.5 197.688 1834.35 197.688 Q1832.87 197.688 1831.63 198.59 Q1830.38 199.492 1829.81 201.099 Q1829.9 201.066 1830.25 201.066 Q1831.09 201.066 1831.54 201.59 Q1832.02 202.115 1832.02 202.82 Q1832.02 203.722 1831.43 204.165 Q1830.86 204.591 1830.28 204.591 Q1830.05 204.591 1829.74 204.542 Q1829.45 204.493 1828.97 204.033 Q1828.49 203.558 1828.49 202.722 Q1828.49 200.377 1830.27 198.508 Q1832.05 196.639 1834.77 196.639 Q1837.86 196.639 1839.87 198.475 Q1841.91 200.295 1841.91 203.148 Q1841.91 204.148 1841.59 205.066 Q1841.3 205.968 1840.89 206.673 Q1840.5 207.378 1839.41 208.509 Q1838.33 209.641 1837.46 210.444 Q1836.59 211.248 1834.64 212.953 L1831.09 216.412 L1837.14 216.412 Q1840.09 216.412 1840.32 216.15 Q1840.64 215.674 1841.05 213.166 L1841.91 213.166 L1840.96 219.003 L1828.49 219.003 Z" fill="#000000" fill-rule="nonzero" fill-opacity="1" /><path clip-path="url(#clip630)" d="M1846.89 221.35 Q1846.89 213.246 1849.91 206.711 Q1851.2 203.971 1853.01 201.675 Q1854.81 199.38 1856 198.373 Q1857.2 197.366 1857.53 197.366 Q1858 197.366 1858.02 197.834 Q1858.02 198.068 1857.39 198.654 Q1849.66 206.524 1849.68 221.35 Q1849.68 236.224 1857.2 243.789 Q1858.02 244.609 1858.02 244.866 Q1858.02 245.335 1857.53 245.335 Q1857.2 245.335 1856.05 244.375 Q1854.9 243.414 1853.12 241.212 Q1851.34 239.011 1850.05 236.317 Q1846.89 229.782 1846.89 221.35 Z" fill="#000000" fill-rule="nonzero" fill-opacity="1" /><path clip-path="url(#clip630)" d="M1862.62 225.613 Q1862.62 224.184 1863.39 223.646 Q1864.17 223.084 1864.99 223.084 Q1866.09 223.084 1866.72 223.786 Q1867.38 224.465 1867.38 225.426 Q1867.38 226.386 1866.72 227.089 Q1866.09 227.768 1864.99 227.768 Q1864.45 227.768 1864.17 227.674 Q1864.8 229.876 1866.72 231.469 Q1868.66 233.061 1871.22 233.061 Q1874.43 233.061 1876.35 229.946 Q1877.49 227.932 1877.49 223.365 Q1877.49 219.336 1876.63 217.322 Q1875.29 214.253 1872.55 214.253 Q1868.66 214.253 1866.37 217.603 Q1866.09 218.024 1865.76 218.048 Q1865.29 218.048 1865.17 217.79 Q1865.08 217.509 1865.08 216.783 L1865.08 202.589 Q1865.08 201.441 1865.55 201.441 Q1865.74 201.441 1866.13 201.582 Q1869.16 202.917 1872.5 202.94 Q1875.95 202.94 1879.04 201.535 Q1879.27 201.394 1879.41 201.394 Q1879.88 201.394 1879.91 201.933 Q1879.91 202.12 1879.51 202.683 Q1879.13 203.221 1878.31 203.947 Q1877.49 204.65 1876.44 205.329 Q1875.39 206.009 1873.84 206.477 Q1872.32 206.922 1870.63 206.922 Q1868.62 206.922 1866.56 206.29 L1866.56 215.635 Q1869.04 213.199 1872.65 213.199 Q1876.49 213.199 1879.13 216.291 Q1881.78 219.383 1881.78 223.693 Q1881.78 228.213 1878.64 231.305 Q1875.53 234.397 1871.31 234.397 Q1867.47 234.397 1865.03 231.656 Q1862.62 228.916 1862.62 225.613 Z" fill="#000000" fill-rule="nonzero" fill-opacity="1" /><path clip-path="url(#clip630)" d="M1886.56 218.001 Q1886.56 210.951 1888.34 207.109 Q1890.83 201.394 1896.68 201.394 Q1897.92 201.394 1899.21 201.746 Q1900.52 202.074 1902.16 203.362 Q1903.82 204.65 1904.83 206.758 Q1906.75 210.834 1906.75 218.001 Q1906.75 225.004 1904.97 228.822 Q1902.37 234.397 1896.63 234.397 Q1894.48 234.397 1892.28 233.296 Q1890.1 232.195 1888.72 229.548 Q1886.56 225.59 1886.56 218.001 M1890.54 217.415 Q1890.54 224.653 1891.06 227.534 Q1891.65 230.649 1893.24 232.007 Q1894.85 233.343 1896.63 233.343 Q1898.55 233.343 1900.15 231.914 Q1901.76 230.462 1902.26 227.346 Q1902.79 224.278 1902.77 217.415 Q1902.77 210.74 1902.3 208.07 Q1901.67 204.955 1899.98 203.713 Q1898.32 202.448 1896.63 202.448 Q1896 202.448 1895.32 202.636 Q1894.67 202.823 1893.71 203.362 Q1892.75 203.901 1892 205.236 Q1891.27 206.571 1890.92 208.585 Q1890.54 211.185 1890.54 217.415 Z" fill="#000000" fill-rule="nonzero" fill-opacity="1" /><path clip-path="url(#clip630)" d="M1911.46 244.866 Q1911.46 244.632 1912.07 244.047 Q1919.8 236.177 1919.8 221.35 Q1919.8 206.477 1912.38 198.958 Q1911.46 198.092 1911.46 197.834 Q1911.46 197.366 1911.93 197.366 Q1912.26 197.366 1913.41 198.326 Q1914.58 199.286 1916.34 201.488 Q1918.12 203.69 1919.43 206.383 Q1922.59 212.918 1922.59 221.35 Q1922.59 229.454 1919.57 235.989 Q1918.28 238.73 1916.48 241.025 Q1914.67 243.321 1913.48 244.328 Q1912.28 245.335 1911.93 245.335 Q1911.46 245.335 1911.46 244.866 Z" fill="#000000" fill-rule="nonzero" fill-opacity="1" /><path clip-path="url(#clip630)" d="M1974.85 220.671 Q1975.13 220.952 1975.13 221.35 Q1975.13 221.748 1974.85 222.03 Q1974.57 222.311 1974.17 222.311 L1944.14 222.311 Q1943.75 222.311 1943.47 222.03 Q1943.18 221.748 1943.18 221.35 Q1943.18 220.952 1943.47 220.671 Q1943.75 220.39 1944.14 220.39 L1974.17 220.39 Q1974.57 220.39 1974.85 220.671 Z" fill="#000000" fill-rule="nonzero" fill-opacity="1" /><path clip-path="url(#clip630)" d="M1993.44 225.613 Q1993.44 224.184 1994.21 223.646 Q1994.98 223.084 1995.8 223.084 Q1996.9 223.084 1997.54 223.786 Q1998.19 224.465 1998.19 225.426 Q1998.19 226.386 1997.54 227.089 Q1996.9 227.768 1995.8 227.768 Q1995.26 227.768 1994.98 227.674 Q1995.61 229.876 1997.54 231.469 Q1999.48 233.061 2002.03 233.061 Q2005.24 233.061 2007.16 229.946 Q2008.31 227.932 2008.31 223.365 Q2008.31 219.336 2007.44 217.322 Q2006.11 214.253 2003.37 214.253 Q1999.48 214.253 1997.18 217.603 Q1996.9 218.024 1996.57 218.048 Q1996.11 218.048 1995.99 217.79 Q1995.9 217.509 1995.9 216.783 L1995.9 202.589 Q1995.9 201.441 1996.36 201.441 Q1996.55 201.441 1996.95 201.582 Q1999.97 202.917 2003.32 202.94 Q2006.76 202.94 2009.86 201.535 Q2010.09 201.394 2010.23 201.394 Q2010.7 201.394 2010.72 201.933 Q2010.72 202.12 2010.32 202.683 Q2009.95 203.221 2009.13 203.947 Q2008.31 204.65 2007.26 205.329 Q2006.2 206.009 2004.66 206.477 Q2003.13 206.922 2001.45 206.922 Q1999.43 206.922 1997.37 206.29 L1997.37 215.635 Q1999.85 213.199 2003.46 213.199 Q2007.3 213.199 2009.95 216.291 Q2012.6 219.383 2012.6 223.693 Q2012.6 228.213 2009.46 231.305 Q2006.34 234.397 2002.13 234.397 Q1998.28 234.397 1995.85 231.656 Q1993.44 228.916 1993.44 225.613 Z" fill="#000000" fill-rule="nonzero" fill-opacity="1" /><path clip-path="url(#clip630)" d="M2017.38 218.001 Q2017.38 210.951 2019.16 207.109 Q2021.64 201.394 2027.5 201.394 Q2028.74 201.394 2030.03 201.746 Q2031.34 202.074 2032.98 203.362 Q2034.64 204.65 2035.65 206.758 Q2037.57 210.834 2037.57 218.001 Q2037.57 225.004 2035.79 228.822 Q2033.19 234.397 2027.45 234.397 Q2025.3 234.397 2023.09 233.296 Q2020.92 232.195 2019.53 229.548 Q2017.38 225.59 2017.38 218.001 M2021.36 217.415 Q2021.36 224.653 2021.88 227.534 Q2022.46 230.649 2024.05 232.007 Q2025.67 233.343 2027.45 233.343 Q2029.37 233.343 2030.96 231.914 Q2032.58 230.462 2033.07 227.346 Q2033.61 224.278 2033.59 217.415 Q2033.59 210.74 2033.12 208.07 Q2032.49 204.955 2030.8 203.713 Q2029.14 202.448 2027.45 202.448 Q2026.82 202.448 2026.14 202.636 Q2025.48 202.823 2024.52 203.362 Q2023.56 203.901 2022.81 205.236 Q2022.09 206.571 2021.73 208.585 Q2021.36 211.185 2021.36 217.415 Z" fill="#000000" fill-rule="nonzero" fill-opacity="1" /><path clip-path="url(#clip630)" d="M2042.28 244.866 Q2042.28 244.632 2042.89 244.047 Q2050.62 236.177 2050.62 221.35 Q2050.62 206.477 2043.19 198.958 Q2042.28 198.092 2042.28 197.834 Q2042.28 197.366 2042.75 197.366 Q2043.08 197.366 2044.22 198.326 Q2045.4 199.286 2047.15 201.488 Q2048.93 203.69 2050.24 206.383 Q2053.41 212.918 2053.41 221.35 Q2053.41 229.454 2050.38 235.989 Q2049.1 238.73 2047.29 241.025 Q2045.49 243.321 2044.29 244.328 Q2043.1 245.335 2042.75 245.335 Q2042.28 245.335 2042.28 244.866 Z" fill="#000000" fill-rule="nonzero" fill-opacity="1" /><path clip-path="url(#clip630)" d="M2060.7 244.656 Q2060.7 244.421 2060.88 243.906 L2077.82 198.654 Q2077.82 198.607 2077.93 198.349 Q2078.05 198.092 2078.12 197.928 Q2078.19 197.74 2078.33 197.6 Q2078.5 197.459 2078.68 197.459 Q2079.15 197.459 2079.15 198.045 Q2079.15 198.092 2079.01 198.654 L2062.03 243.953 Q2061.75 244.773 2061.56 245.007 Q2061.4 245.241 2061.12 245.241 Q2060.7 245.241 2060.7 244.656 Z" fill="#000000" fill-rule="nonzero" fill-opacity="1" /><path clip-path="url(#clip630)" d="M2084.45 221.241 L2090.76 211.508 L2093.32 224.424 L2093.8 226.777 Q2093.91 226.162 2094.23 225.119 Q2094.58 224.049 2094.63 223.782 L2103.11 191.239 Q2103.16 191.025 2103.24 190.677 Q2103.35 190.303 2103.4 190.169 Q2103.46 190.036 2103.54 189.768 Q2103.62 189.501 2103.67 189.421 Q2103.73 189.314 2103.81 189.126 Q2103.89 188.939 2103.99 188.886 Q2104.1 188.832 2104.23 188.725 Q2104.37 188.618 2104.53 188.592 Q2104.71 188.565 2104.9 188.538 Q2105.09 188.511 2105.36 188.511 L2110.14 188.511 Q2111.83 188.511 2111.83 189.608 Q2111.83 190.704 2110.2 190.704 L2105.52 190.704 L2094.47 232.927 Q2094.31 233.542 2094.18 233.783 Q2094.07 234.023 2093.7 234.237 Q2093.32 234.451 2092.66 234.451 L2092.12 234.451 L2088.62 217.043 L2085.33 222.124 L2084.45 221.241 Z" fill="#000000" fill-rule="nonzero" fill-opacity="1" /><path clip-path="url(#clip630)" d="M2110.03 190.721 L2182.34 190.721 L2182.34 188.447 L2110.03 188.447  Z" fill="#000000" fill-rule="evenodd" fill-opacity="1"/>
<path clip-path="url(#clip630)" d="M2115.15 205.981 L2115.15 204.482 Q2120.91 204.482 2123.88 201.414 Q2124.7 201.414 2124.84 201.601 Q2124.98 201.789 2124.98 202.655 L2124.98 229.568 Q2124.98 230.996 2125.69 231.441 Q2126.39 231.886 2129.46 231.886 L2130.98 231.886 L2130.98 233.362 Q2129.29 233.222 2123.2 233.222 Q2117.11 233.222 2115.45 233.362 L2115.45 231.886 L2116.97 231.886 Q2120 231.886 2120.72 231.465 Q2121.45 231.02 2121.45 229.568 L2121.45 204.716 Q2118.94 205.981 2115.15 205.981 Z" fill="#000000" fill-rule="nonzero" fill-opacity="1" /><path clip-path="url(#clip630)" d="M2133.29 218.02 Q2133.29 210.97 2135.07 207.129 Q2137.56 201.414 2143.41 201.414 Q2144.65 201.414 2145.94 201.765 Q2147.25 202.093 2148.89 203.381 Q2150.56 204.67 2151.56 206.778 Q2153.48 210.853 2153.48 218.02 Q2153.48 225.024 2151.7 228.842 Q2149.1 234.416 2143.37 234.416 Q2141.21 234.416 2139.01 233.315 Q2136.83 232.214 2135.45 229.568 Q2133.29 225.609 2133.29 218.02 M2137.28 217.435 Q2137.28 224.672 2137.79 227.553 Q2138.38 230.668 2139.97 232.027 Q2141.59 233.362 2143.37 233.362 Q2145.29 233.362 2146.88 231.933 Q2148.5 230.481 2148.99 227.366 Q2149.53 224.298 2149.5 217.435 Q2149.5 210.759 2149.03 208.089 Q2148.4 204.974 2146.72 203.733 Q2145.05 202.468 2143.37 202.468 Q2142.73 202.468 2142.05 202.655 Q2141.4 202.843 2140.44 203.381 Q2139.48 203.92 2138.73 205.255 Q2138 206.59 2137.65 208.605 Q2137.28 211.204 2137.28 217.435 Z" fill="#000000" fill-rule="nonzero" fill-opacity="1" /><path clip-path="url(#clip630)" d="M2157.24 218.02 Q2157.24 210.97 2159.02 207.129 Q2161.5 201.414 2167.35 201.414 Q2168.6 201.414 2169.88 201.765 Q2171.2 202.093 2172.84 203.381 Q2174.5 204.67 2175.51 206.778 Q2177.43 210.853 2177.43 218.02 Q2177.43 225.024 2175.65 228.842 Q2173.05 234.416 2167.31 234.416 Q2165.15 234.416 2162.95 233.315 Q2160.77 232.214 2159.39 229.568 Q2157.24 225.609 2157.24 218.02 M2161.22 217.435 Q2161.22 224.672 2161.73 227.553 Q2162.32 230.668 2163.91 232.027 Q2165.53 233.362 2167.31 233.362 Q2169.23 233.362 2170.82 231.933 Q2172.44 230.481 2172.93 227.366 Q2173.47 224.298 2173.44 217.435 Q2173.44 210.759 2172.98 208.089 Q2172.34 204.974 2170.66 203.733 Q2168.99 202.468 2167.31 202.468 Q2166.68 202.468 2166 202.655 Q2165.34 202.843 2164.38 203.381 Q2163.42 203.92 2162.67 205.255 Q2161.94 206.59 2161.59 208.605 Q2161.22 211.204 2161.22 217.435 Z" fill="#000000" fill-rule="nonzero" fill-opacity="1" /><polyline clip-path="url(#clip630)" style="stroke:#3da44d; stroke-linecap:round; stroke-linejoin:round; stroke-width:4; stroke-opacity:1; fill:none" points="1607.38,277.64 1753.79,277.64 "/>
<path clip-path="url(#clip630)" d="M1778.19 284.176 Q1778.19 276.072 1781.22 269.537 Q1782.5 266.797 1784.31 264.501 Q1786.11 262.206 1787.3 261.199 Q1788.5 260.191 1788.83 260.191 Q1789.3 260.191 1789.32 260.66 Q1789.32 260.894 1788.69 261.48 Q1780.96 269.35 1780.98 284.176 Q1780.98 299.049 1788.5 306.615 Q1789.32 307.435 1789.32 307.692 Q1789.32 308.161 1788.83 308.161 Q1788.5 308.161 1787.35 307.2 Q1786.2 306.24 1784.42 304.038 Q1782.64 301.837 1781.36 299.143 Q1778.19 292.608 1778.19 284.176 Z" fill="#000000" fill-rule="nonzero" fill-opacity="1" /><path clip-path="url(#clip630)" d="M1836.45 263.4 L1833.76 266.914 Q1833.19 267.593 1832.4 268.085 Q1831.63 268.577 1830.92 268.577 Q1830.1 268.577 1828.96 268.155 Q1824.93 266.961 1823.24 266.281 L1820.17 278.18 L1827.08 278.18 L1825.75 279.515 L1819.84 279.515 L1819.26 281.881 Q1818.35 285.464 1816.82 288.064 Q1815.42 290.594 1813.22 292.468 Q1810.8 294.576 1807.78 295.747 Q1804.76 296.894 1801.81 296.894 Q1798.97 296.894 1797.5 294.927 Q1796.61 293.826 1797.01 292.233 Q1797.19 291.46 1797.97 290.851 Q1798.69 290.266 1799.7 290.266 Q1800.26 290.266 1800.47 290.57 Q1800.71 290.851 1800.99 292.093 Q1801.13 292.959 1801.72 293.732 Q1802.65 294.974 1804.88 294.974 Q1806.31 294.974 1807.85 294.224 Q1809.42 293.475 1810.73 292.28 Q1812.37 290.851 1813.52 288.79 Q1814.5 287.01 1815.42 283.754 L1816.59 279.515 L1808.81 279.515 L1809.82 278.18 L1816.92 278.18 L1820.31 265.462 Q1818.72 265.04 1816.64 265.04 Q1812.63 265.04 1809.73 267.335 Q1808.88 268.038 1808.04 269.092 Q1807.22 270.146 1807.08 270.708 Q1806.87 271.458 1806.8 272.559 Q1806.8 272.699 1806.82 273.097 Q1806.84 273.472 1806.82 273.777 Q1806.82 274.058 1806.75 274.292 Q1806.54 275.158 1805.88 275.744 Q1804.95 276.4 1804.34 276.4 Q1803.61 276.4 1803.05 275.744 Q1802.56 275.065 1802.91 273.519 Q1803.78 270.193 1807.62 267.101 Q1810.01 265.157 1812.58 264.408 Q1815.16 263.635 1818.25 263.635 Q1819.54 263.635 1821.18 263.845 L1823.83 262.627 L1824.11 262.791 L1823.78 264.126 Q1827.03 264.993 1830.55 265.555 Q1831.6 265.766 1832.02 265.766 Q1832.59 265.766 1833.19 265.462 Q1833.8 265.157 1834.23 264.712 L1835.77 262.979 L1836.45 263.4 Z" fill="#000000" fill-rule="nonzero" fill-opacity="1" /><path clip-path="url(#clip630)" d="M1839.54 284.176 Q1839.54 276.072 1842.56 269.537 Q1843.85 266.797 1845.65 264.501 Q1847.46 262.206 1848.65 261.199 Q1849.85 260.191 1850.17 260.191 Q1850.64 260.191 1850.67 260.66 Q1850.67 260.894 1850.03 261.48 Q1842.3 269.35 1842.33 284.176 Q1842.33 299.049 1849.85 306.615 Q1850.67 307.435 1850.67 307.692 Q1850.67 308.161 1850.17 308.161 Q1849.85 308.161 1848.7 307.2 Q1847.55 306.24 1845.77 304.038 Q1843.99 301.837 1842.7 299.143 Q1839.54 292.608 1839.54 284.176 Z" fill="#000000" fill-rule="nonzero" fill-opacity="1" /><path clip-path="url(#clip630)" d="M1855.27 288.439 Q1855.27 287.01 1856.04 286.471 Q1856.81 285.909 1857.63 285.909 Q1858.73 285.909 1859.37 286.612 Q1860.02 287.291 1860.02 288.252 Q1860.02 289.212 1859.37 289.915 Q1858.73 290.594 1857.63 290.594 Q1857.09 290.594 1856.81 290.5 Q1857.45 292.702 1859.37 294.295 Q1861.31 295.887 1863.86 295.887 Q1867.07 295.887 1868.99 292.772 Q1870.14 290.758 1870.14 286.19 Q1870.14 282.162 1869.27 280.147 Q1867.94 277.079 1865.2 277.079 Q1861.31 277.079 1859.02 280.428 Q1858.73 280.85 1858.41 280.874 Q1857.94 280.874 1857.82 280.616 Q1857.73 280.335 1857.73 279.609 L1857.73 265.415 Q1857.73 264.267 1858.2 264.267 Q1858.38 264.267 1858.78 264.408 Q1861.8 265.743 1865.15 265.766 Q1868.59 265.766 1871.69 264.361 Q1871.92 264.22 1872.06 264.22 Q1872.53 264.22 1872.55 264.759 Q1872.55 264.946 1872.16 265.508 Q1871.78 266.047 1870.96 266.773 Q1870.14 267.476 1869.09 268.155 Q1868.03 268.834 1866.49 269.303 Q1864.96 269.748 1863.28 269.748 Q1861.26 269.748 1859.2 269.115 L1859.2 278.461 Q1861.69 276.025 1865.29 276.025 Q1869.13 276.025 1871.78 279.117 Q1874.43 282.209 1874.43 286.518 Q1874.43 291.039 1871.29 294.131 Q1868.17 297.222 1863.96 297.222 Q1860.12 297.222 1857.68 294.482 Q1855.27 291.742 1855.27 288.439 Z" fill="#000000" fill-rule="nonzero" fill-opacity="1" /><path clip-path="url(#clip630)" d="M1879.21 280.827 Q1879.21 273.777 1880.99 269.935 Q1883.47 264.22 1889.33 264.22 Q1890.57 264.22 1891.86 264.571 Q1893.17 264.899 1894.81 266.188 Q1896.47 267.476 1897.48 269.584 Q1899.4 273.659 1899.4 280.827 Q1899.4 287.83 1897.62 291.648 Q1895.02 297.222 1889.28 297.222 Q1887.13 297.222 1884.92 296.122 Q1882.75 295.021 1881.36 292.374 Q1879.21 288.416 1879.21 280.827 M1883.19 280.241 Q1883.19 287.479 1883.71 290.36 Q1884.29 293.475 1885.88 294.833 Q1887.5 296.168 1889.28 296.168 Q1891.2 296.168 1892.79 294.74 Q1894.41 293.287 1894.9 290.172 Q1895.44 287.104 1895.42 280.241 Q1895.42 273.566 1894.95 270.896 Q1894.32 267.78 1892.63 266.539 Q1890.97 265.274 1889.28 265.274 Q1888.65 265.274 1887.97 265.462 Q1887.31 265.649 1886.35 266.188 Q1885.39 266.726 1884.64 268.061 Q1883.92 269.397 1883.57 271.411 Q1883.19 274.011 1883.19 280.241 Z" fill="#000000" fill-rule="nonzero" fill-opacity="1" /><path clip-path="url(#clip630)" d="M1903.64 295.395 Q1902.96 294.622 1902.96 293.615 Q1902.96 292.608 1903.62 291.859 Q1904.29 291.086 1905.51 291.086 Q1906.94 291.086 1907.76 292.468 Q1908.58 293.826 1908.58 296.122 Q1908.58 298.604 1907.57 300.9 Q1906.57 303.219 1905.58 304.319 Q1904.6 305.42 1904.2 305.42 Q1903.73 305.42 1903.73 304.905 Q1903.73 304.718 1904.06 304.366 Q1907.5 300.665 1907.53 296.122 Q1907.53 295.395 1907.43 295.395 L1907.32 295.489 Q1906.5 296.168 1905.51 296.168 Q1904.32 296.168 1903.64 295.395 Z" fill="#000000" fill-rule="nonzero" fill-opacity="1" /><path clip-path="url(#clip630)" d="M1923.71 288.439 Q1923.71 287.01 1924.49 286.471 Q1925.26 285.909 1926.08 285.909 Q1927.18 285.909 1927.81 286.612 Q1928.47 287.291 1928.47 288.252 Q1928.47 289.212 1927.81 289.915 Q1927.18 290.594 1926.08 290.594 Q1925.54 290.594 1925.26 290.5 Q1925.89 292.702 1927.81 294.295 Q1929.76 295.887 1932.31 295.887 Q1935.52 295.887 1937.44 292.772 Q1938.59 290.758 1938.59 286.19 Q1938.59 282.162 1937.72 280.147 Q1936.38 277.079 1933.64 277.079 Q1929.76 277.079 1927.46 280.428 Q1927.18 280.85 1926.85 280.874 Q1926.38 280.874 1926.27 280.616 Q1926.17 280.335 1926.17 279.609 L1926.17 265.415 Q1926.17 264.267 1926.64 264.267 Q1926.83 264.267 1927.23 264.408 Q1930.25 265.743 1933.6 265.766 Q1937.04 265.766 1940.13 264.361 Q1940.37 264.22 1940.51 264.22 Q1940.98 264.22 1941 264.759 Q1941 264.946 1940.6 265.508 Q1940.23 266.047 1939.41 266.773 Q1938.59 267.476 1937.53 268.155 Q1936.48 268.834 1934.93 269.303 Q1933.41 269.748 1931.72 269.748 Q1929.71 269.748 1927.65 269.115 L1927.65 278.461 Q1930.13 276.025 1933.74 276.025 Q1937.58 276.025 1940.23 279.117 Q1942.87 282.209 1942.87 286.518 Q1942.87 291.039 1939.73 294.131 Q1936.62 297.222 1932.4 297.222 Q1928.56 297.222 1926.13 294.482 Q1923.71 291.742 1923.71 288.439 Z" fill="#000000" fill-rule="nonzero" fill-opacity="1" /><path clip-path="url(#clip630)" d="M1947.65 280.827 Q1947.65 273.777 1949.43 269.935 Q1951.92 264.22 1957.77 264.22 Q1959.01 264.22 1960.3 264.571 Q1961.61 264.899 1963.25 266.188 Q1964.92 267.476 1965.92 269.584 Q1967.85 273.659 1967.85 280.827 Q1967.85 287.83 1966.06 291.648 Q1963.47 297.222 1957.73 297.222 Q1955.57 297.222 1953.37 296.122 Q1951.19 295.021 1949.81 292.374 Q1947.65 288.416 1947.65 280.827 M1951.64 280.241 Q1951.64 287.479 1952.15 290.36 Q1952.74 293.475 1954.33 294.833 Q1955.95 296.168 1957.73 296.168 Q1959.65 296.168 1961.24 294.74 Q1962.86 293.287 1963.35 290.172 Q1963.89 287.104 1963.86 280.241 Q1963.86 273.566 1963.39 270.896 Q1962.76 267.78 1961.08 266.539 Q1959.41 265.274 1957.73 265.274 Q1957.09 265.274 1956.41 265.462 Q1955.76 265.649 1954.8 266.188 Q1953.84 266.726 1953.09 268.061 Q1952.36 269.397 1952.01 271.411 Q1951.64 274.011 1951.64 280.241 Z" fill="#000000" fill-rule="nonzero" fill-opacity="1" /><path clip-path="url(#clip630)" d="M1972.56 307.692 Q1972.56 307.458 1973.17 306.872 Q1980.9 299.002 1980.9 284.176 Q1980.9 269.303 1973.47 261.784 Q1972.56 260.918 1972.56 260.66 Q1972.56 260.191 1973.03 260.191 Q1973.35 260.191 1974.5 261.152 Q1975.67 262.112 1977.43 264.314 Q1979.21 266.516 1980.52 269.209 Q1983.68 275.744 1983.68 284.176 Q1983.68 292.28 1980.66 298.815 Q1979.37 301.556 1977.57 303.851 Q1975.77 306.146 1974.57 307.153 Q1973.38 308.161 1973.03 308.161 Q1972.56 308.161 1972.56 307.692 Z" fill="#000000" fill-rule="nonzero" fill-opacity="1" /><path clip-path="url(#clip630)" d="M2035.94 283.497 Q2036.23 283.778 2036.23 284.176 Q2036.23 284.574 2035.94 284.855 Q2035.66 285.136 2035.27 285.136 L2005.24 285.136 Q2004.84 285.136 2004.56 284.855 Q2004.28 284.574 2004.28 284.176 Q2004.28 283.778 2004.56 283.497 Q2004.84 283.216 2005.24 283.216 L2035.27 283.216 Q2035.66 283.216 2035.94 283.497 Z" fill="#000000" fill-rule="nonzero" fill-opacity="1" /><path clip-path="url(#clip630)" d="M2054.53 268.788 L2054.53 267.288 Q2060.29 267.288 2063.27 264.22 Q2064.09 264.22 2064.23 264.408 Q2064.37 264.595 2064.37 265.462 L2064.37 292.374 Q2064.37 293.803 2065.07 294.248 Q2065.77 294.693 2068.84 294.693 L2070.36 294.693 L2070.36 296.168 Q2068.68 296.028 2062.59 296.028 Q2056.5 296.028 2054.83 296.168 L2054.83 294.693 L2056.36 294.693 Q2059.38 294.693 2060.1 294.271 Q2060.83 293.826 2060.83 292.374 L2060.83 267.523 Q2058.32 268.788 2054.53 268.788 Z" fill="#000000" fill-rule="nonzero" fill-opacity="1" /><path clip-path="url(#clip630)" d="M2077.51 307.692 Q2077.51 307.458 2078.12 306.872 Q2085.85 299.002 2085.85 284.176 Q2085.85 269.303 2078.42 261.784 Q2077.51 260.918 2077.51 260.66 Q2077.51 260.191 2077.98 260.191 Q2078.31 260.191 2079.45 261.152 Q2080.63 262.112 2082.38 264.314 Q2084.16 266.516 2085.47 269.209 Q2088.64 275.744 2088.64 284.176 Q2088.64 292.28 2085.61 298.815 Q2084.33 301.556 2082.52 303.851 Q2080.72 306.146 2079.53 307.153 Q2078.33 308.161 2077.98 308.161 Q2077.51 308.161 2077.51 307.692 Z" fill="#000000" fill-rule="nonzero" fill-opacity="1" /><path clip-path="url(#clip630)" d="M2095.93 307.481 Q2095.93 307.247 2096.11 306.732 L2113.05 261.48 Q2113.05 261.433 2113.17 261.175 Q2113.28 260.918 2113.35 260.754 Q2113.42 260.566 2113.56 260.426 Q2113.73 260.285 2113.91 260.285 Q2114.38 260.285 2114.38 260.871 Q2114.38 260.918 2114.24 261.48 L2097.26 306.779 Q2096.98 307.599 2096.79 307.833 Q2096.63 308.067 2096.35 308.067 Q2095.93 308.067 2095.93 307.481 Z" fill="#000000" fill-rule="nonzero" fill-opacity="1" /><path clip-path="url(#clip630)" d="M2119.68 290.559 L2128.02 277.696 L2131.41 294.764 L2132.04 297.874 Q2132.19 297.061 2132.61 295.683 Q2133.07 294.27 2133.14 293.916 L2144.34 250.91 Q2144.41 250.628 2144.52 250.168 Q2144.66 249.674 2144.73 249.497 Q2144.8 249.32 2144.91 248.967 Q2145.01 248.613 2145.08 248.507 Q2145.15 248.366 2145.26 248.119 Q2145.37 247.871 2145.51 247.801 Q2145.65 247.73 2145.83 247.589 Q2146 247.447 2146.21 247.412 Q2146.46 247.377 2146.71 247.341 Q2146.96 247.306 2147.31 247.306 L2153.64 247.306 Q2155.86 247.306 2155.86 248.755 Q2155.86 250.204 2153.71 250.204 L2147.52 250.204 L2132.93 306.002 Q2132.72 306.814 2132.54 307.133 Q2132.4 307.451 2131.9 307.733 Q2131.41 308.016 2130.52 308.016 L2129.82 308.016 L2125.19 285.011 L2120.84 291.725 L2119.68 290.559 Z" fill="#000000" fill-rule="nonzero" fill-opacity="1" /><path clip-path="url(#clip630)" d="M2153.48 250.242 L2255.15 250.242 L2255.15 247.236 L2153.48 247.236  Z" fill="#000000" fill-rule="evenodd" fill-opacity="1"/>
<path clip-path="url(#clip630)" d="M2158.6 287.856 L2158.6 286.38 L2173.34 263.871 Q2173.71 263.286 2174.3 263.309 Q2174.83 263.309 2174.95 263.52 Q2175.07 263.731 2175.07 264.551 L2175.07 286.38 L2179.87 286.38 L2179.87 287.856 L2175.07 287.856 L2175.07 292.025 Q2175.07 293.407 2175.63 293.852 Q2176.22 294.297 2178.7 294.297 L2179.71 294.297 L2179.71 295.773 Q2177.74 295.632 2173.19 295.632 Q2168.67 295.632 2166.71 295.773 L2166.71 294.297 L2167.71 294.297 Q2170.2 294.297 2170.78 293.876 Q2171.37 293.431 2171.37 292.025 L2171.37 287.856 L2158.6 287.856 M2159.96 286.38 L2171.65 286.38 L2171.65 268.486 L2159.96 286.38 Z" fill="#000000" fill-rule="nonzero" fill-opacity="1" /><path clip-path="url(#clip630)" d="M2182.35 307.086 Q2182.35 306.852 2182.54 306.336 L2199.47 261.084 Q2199.47 261.037 2199.59 260.78 Q2199.71 260.522 2199.78 260.358 Q2199.85 260.171 2199.99 260.03 Q2200.15 259.89 2200.34 259.89 Q2200.81 259.89 2200.81 260.475 Q2200.81 260.522 2200.67 261.084 L2183.69 306.383 Q2183.41 307.203 2183.22 307.437 Q2183.06 307.671 2182.77 307.671 Q2182.35 307.671 2182.35 307.086 Z" fill="#000000" fill-rule="nonzero" fill-opacity="1" /><path clip-path="url(#clip630)" d="M2206.1 288.043 Q2206.1 286.615 2206.88 286.076 Q2207.65 285.514 2208.47 285.514 Q2209.57 285.514 2210.2 286.217 Q2210.86 286.896 2210.86 287.856 Q2210.86 288.816 2210.2 289.519 Q2209.57 290.198 2208.47 290.198 Q2207.93 290.198 2207.65 290.105 Q2208.28 292.306 2210.2 293.899 Q2212.15 295.492 2214.7 295.492 Q2217.91 295.492 2219.83 292.377 Q2220.98 290.362 2220.98 285.795 Q2220.98 281.766 2220.11 279.752 Q2218.77 276.684 2216.03 276.684 Q2212.15 276.684 2209.85 280.033 Q2209.57 280.455 2209.24 280.478 Q2208.77 280.478 2208.66 280.22 Q2208.56 279.939 2208.56 279.213 L2208.56 265.019 Q2208.56 263.871 2209.03 263.871 Q2209.22 263.871 2209.62 264.012 Q2212.64 265.347 2215.99 265.371 Q2219.43 265.371 2222.52 263.965 Q2222.76 263.825 2222.9 263.825 Q2223.36 263.825 2223.39 264.363 Q2223.39 264.551 2222.99 265.113 Q2222.62 265.652 2221.8 266.378 Q2220.98 267.08 2219.92 267.76 Q2218.87 268.439 2217.32 268.907 Q2215.8 269.352 2214.11 269.352 Q2212.1 269.352 2210.04 268.72 L2210.04 278.065 Q2212.52 275.63 2216.13 275.63 Q2219.97 275.63 2222.62 278.721 Q2225.26 281.813 2225.26 286.123 Q2225.26 290.643 2222.12 293.735 Q2219.01 296.827 2214.79 296.827 Q2210.95 296.827 2208.52 294.086 Q2206.1 291.346 2206.1 288.043 Z" fill="#000000" fill-rule="nonzero" fill-opacity="1" /><path clip-path="url(#clip630)" d="M2230.04 280.431 Q2230.04 273.381 2231.82 269.54 Q2234.31 263.825 2240.16 263.825 Q2241.4 263.825 2242.69 264.176 Q2244 264.504 2245.64 265.792 Q2247.31 267.08 2248.31 269.188 Q2250.23 273.264 2250.23 280.431 Q2250.23 287.434 2248.45 291.252 Q2245.85 296.827 2240.12 296.827 Q2237.96 296.827 2235.76 295.726 Q2233.58 294.625 2232.2 291.978 Q2230.04 288.02 2230.04 280.431 M2234.03 279.846 Q2234.03 287.083 2234.54 289.964 Q2235.13 293.079 2236.72 294.438 Q2238.34 295.773 2240.12 295.773 Q2242.04 295.773 2243.63 294.344 Q2245.25 292.892 2245.74 289.777 Q2246.28 286.708 2246.25 279.846 Q2246.25 273.17 2245.78 270.5 Q2245.15 267.385 2243.47 266.143 Q2241.8 264.879 2240.12 264.879 Q2239.48 264.879 2238.8 265.066 Q2238.15 265.253 2237.19 265.792 Q2236.23 266.331 2235.48 267.666 Q2234.75 269.001 2234.4 271.015 Q2234.03 273.615 2234.03 279.846 Z" fill="#000000" fill-rule="nonzero" fill-opacity="1" /></svg>
