<?xml version="1.0" encoding="utf-8"?>
<svg xmlns="http://www.w3.org/2000/svg" xmlns:xlink="http://www.w3.org/1999/xlink" width="600" height="400" viewBox="0 0 2400 1600">
<defs>
  <clipPath id="clip840">
    <rect x="0" y="0" width="2400" height="1600"/>
  </clipPath>
</defs>
<path clip-path="url(#clip840)" d="M0 1600 L2400 1600 L2400 0 L0 0  Z" fill="#ffffff" fill-rule="evenodd" fill-opacity="1"/>
<defs>
  <clipPath id="clip841">
    <rect x="480" y="0" width="1681" height="1600"/>
  </clipPath>
</defs>
<path clip-path="url(#clip840)" d="M186.274 1486.45 L2352.76 1486.45 L2352.76 47.2441 L186.274 47.2441  Z" fill="#ffffff" fill-rule="evenodd" fill-opacity="1"/>
<defs>
  <clipPath id="clip842">
    <rect x="186" y="47" width="2167" height="1440"/>
  </clipPath>
</defs>
<polyline clip-path="url(#clip842)" style="stroke:#000000; stroke-linecap:round; stroke-linejoin:round; stroke-width:2; stroke-opacity:0.1; fill:none" points="186.274,1486.45 186.274,47.2441 "/>
<polyline clip-path="url(#clip842)" style="stroke:#000000; stroke-linecap:round; stroke-linejoin:round; stroke-width:2; stroke-opacity:0.1; fill:none" points="547.354,1486.45 547.354,47.2441 "/>
<polyline clip-path="url(#clip842)" style="stroke:#000000; stroke-linecap:round; stroke-linejoin:round; stroke-width:2; stroke-opacity:0.1; fill:none" points="908.435,1486.45 908.435,47.2441 "/>
<polyline clip-path="url(#clip842)" style="stroke:#000000; stroke-linecap:round; stroke-linejoin:round; stroke-width:2; stroke-opacity:0.1; fill:none" points="1269.51,1486.45 1269.51,47.2441 "/>
<polyline clip-path="url(#clip842)" style="stroke:#000000; stroke-linecap:round; stroke-linejoin:round; stroke-width:2; stroke-opacity:0.1; fill:none" points="1630.6,1486.45 1630.6,47.2441 "/>
<polyline clip-path="url(#clip842)" style="stroke:#000000; stroke-linecap:round; stroke-linejoin:round; stroke-width:2; stroke-opacity:0.1; fill:none" points="1991.68,1486.45 1991.68,47.2441 "/>
<polyline clip-path="url(#clip842)" style="stroke:#000000; stroke-linecap:round; stroke-linejoin:round; stroke-width:2; stroke-opacity:0.1; fill:none" points="2352.76,1486.45 2352.76,47.2441 "/>
<polyline clip-path="url(#clip842)" style="stroke:#000000; stroke-linecap:round; stroke-linejoin:round; stroke-width:2; stroke-opacity:0.1; fill:none" points="186.274,1445.72 2352.76,1445.72 "/>
<polyline clip-path="url(#clip842)" style="stroke:#000000; stroke-linecap:round; stroke-linejoin:round; stroke-width:2; stroke-opacity:0.1; fill:none" points="186.274,979.693 2352.76,979.693 "/>
<polyline clip-path="url(#clip842)" style="stroke:#000000; stroke-linecap:round; stroke-linejoin:round; stroke-width:2; stroke-opacity:0.1; fill:none" points="186.274,513.67 2352.76,513.67 "/>
<polyline clip-path="url(#clip842)" style="stroke:#000000; stroke-linecap:round; stroke-linejoin:round; stroke-width:2; stroke-opacity:0.1; fill:none" points="186.274,47.6478 2352.76,47.6478 "/>
<polyline clip-path="url(#clip840)" style="stroke:#000000; stroke-linecap:round; stroke-linejoin:round; stroke-width:4; stroke-opacity:1; fill:none" points="186.274,1486.45 2352.76,1486.45 "/>
<polyline clip-path="url(#clip840)" style="stroke:#000000; stroke-linecap:round; stroke-linejoin:round; stroke-width:4; stroke-opacity:1; fill:none" points="186.274,1486.45 186.274,1467.55 "/>
<polyline clip-path="url(#clip840)" style="stroke:#000000; stroke-linecap:round; stroke-linejoin:round; stroke-width:4; stroke-opacity:1; fill:none" points="547.354,1486.45 547.354,1467.55 "/>
<polyline clip-path="url(#clip840)" style="stroke:#000000; stroke-linecap:round; stroke-linejoin:round; stroke-width:4; stroke-opacity:1; fill:none" points="908.435,1486.45 908.435,1467.55 "/>
<polyline clip-path="url(#clip840)" style="stroke:#000000; stroke-linecap:round; stroke-linejoin:round; stroke-width:4; stroke-opacity:1; fill:none" points="1269.51,1486.45 1269.51,1467.55 "/>
<polyline clip-path="url(#clip840)" style="stroke:#000000; stroke-linecap:round; stroke-linejoin:round; stroke-width:4; stroke-opacity:1; fill:none" points="1630.6,1486.45 1630.6,1467.55 "/>
<polyline clip-path="url(#clip840)" style="stroke:#000000; stroke-linecap:round; stroke-linejoin:round; stroke-width:4; stroke-opacity:1; fill:none" points="1991.68,1486.45 1991.68,1467.55 "/>
<polyline clip-path="url(#clip840)" style="stroke:#000000; stroke-linecap:round; stroke-linejoin:round; stroke-width:4; stroke-opacity:1; fill:none" points="2352.76,1486.45 2352.76,1467.55 "/>
<path clip-path="url(#clip840)" d="M150.464 1544.91 L166.783 1544.91 L166.783 1548.85 L144.839 1548.85 L144.839 1544.91 Q147.501 1542.16 152.084 1537.53 Q156.691 1532.88 157.871 1531.53 Q160.117 1529.01 160.996 1527.27 Q161.899 1525.51 161.899 1523.82 Q161.899 1521.07 159.955 1519.33 Q158.033 1517.6 154.932 1517.6 Q152.733 1517.6 150.279 1518.36 Q147.848 1519.13 145.071 1520.68 L145.071 1515.95 Q147.895 1514.82 150.348 1514.24 Q152.802 1513.66 154.839 1513.66 Q160.209 1513.66 163.404 1516.35 Q166.598 1519.03 166.598 1523.52 Q166.598 1525.65 165.788 1527.57 Q165.001 1529.47 162.894 1532.07 Q162.316 1532.74 159.214 1535.95 Q156.112 1539.15 150.464 1544.91 Z" fill="#000000" fill-rule="nonzero" fill-opacity="1" /><path clip-path="url(#clip840)" d="M186.598 1532.44 Q183.265 1532.44 181.343 1534.22 Q179.445 1536 179.445 1539.13 Q179.445 1542.25 181.343 1544.03 Q183.265 1545.82 186.598 1545.82 Q189.931 1545.82 191.853 1544.03 Q193.774 1542.23 193.774 1539.13 Q193.774 1536 191.853 1534.22 Q189.955 1532.44 186.598 1532.44 M181.922 1530.45 Q178.913 1529.7 177.223 1527.64 Q175.556 1525.58 175.556 1522.62 Q175.556 1518.48 178.496 1516.07 Q181.459 1513.66 186.598 1513.66 Q191.76 1513.66 194.7 1516.07 Q197.64 1518.48 197.64 1522.62 Q197.64 1525.58 195.95 1527.64 Q194.283 1529.7 191.297 1530.45 Q194.677 1531.23 196.552 1533.52 Q198.45 1535.82 198.45 1539.13 Q198.45 1544.15 195.371 1546.83 Q192.316 1549.52 186.598 1549.52 Q180.881 1549.52 177.802 1546.83 Q174.746 1544.15 174.746 1539.13 Q174.746 1535.82 176.644 1533.52 Q178.543 1531.23 181.922 1530.45 M180.209 1523.06 Q180.209 1525.75 181.876 1527.25 Q183.566 1528.76 186.598 1528.76 Q189.607 1528.76 191.297 1527.25 Q193.01 1525.75 193.01 1523.06 Q193.01 1520.38 191.297 1518.87 Q189.607 1517.37 186.598 1517.37 Q183.566 1517.37 181.876 1518.87 Q180.209 1520.38 180.209 1523.06 Z" fill="#000000" fill-rule="nonzero" fill-opacity="1" /><path clip-path="url(#clip840)" d="M206.806 1514.29 L225.163 1514.29 L225.163 1518.22 L211.089 1518.22 L211.089 1526.7 Q212.107 1526.35 213.126 1526.19 Q214.144 1526 215.163 1526 Q220.95 1526 224.329 1529.17 Q227.709 1532.34 227.709 1537.76 Q227.709 1543.34 224.237 1546.44 Q220.765 1549.52 214.445 1549.52 Q212.269 1549.52 210.001 1549.15 Q207.755 1548.78 205.348 1548.04 L205.348 1543.34 Q207.431 1544.47 209.654 1545.03 Q211.876 1545.58 214.353 1545.58 Q218.357 1545.58 220.695 1543.48 Q223.033 1541.37 223.033 1537.76 Q223.033 1534.15 220.695 1532.04 Q218.357 1529.94 214.353 1529.94 Q212.478 1529.94 210.603 1530.35 Q208.751 1530.77 206.806 1531.65 L206.806 1514.29 Z" fill="#000000" fill-rule="nonzero" fill-opacity="1" /><path clip-path="url(#clip840)" d="M511.047 1544.91 L527.366 1544.91 L527.366 1548.85 L505.422 1548.85 L505.422 1544.91 Q508.084 1542.16 512.667 1537.53 Q517.273 1532.88 518.454 1531.53 Q520.699 1529.01 521.579 1527.27 Q522.482 1525.51 522.482 1523.82 Q522.482 1521.07 520.537 1519.33 Q518.616 1517.6 515.514 1517.6 Q513.315 1517.6 510.861 1518.36 Q508.431 1519.13 505.653 1520.68 L505.653 1515.95 Q508.477 1514.82 510.931 1514.24 Q513.385 1513.66 515.422 1513.66 Q520.792 1513.66 523.986 1516.35 Q527.181 1519.03 527.181 1523.52 Q527.181 1525.65 526.371 1527.57 Q525.584 1529.47 523.477 1532.07 Q522.898 1532.74 519.797 1535.95 Q516.695 1539.15 511.047 1544.91 Z" fill="#000000" fill-rule="nonzero" fill-opacity="1" /><path clip-path="url(#clip840)" d="M537.32 1548.13 L537.32 1543.87 Q539.079 1544.7 540.884 1545.14 Q542.69 1545.58 544.426 1545.58 Q549.056 1545.58 551.486 1542.48 Q553.94 1539.36 554.287 1533.01 Q552.945 1535.01 550.884 1536.07 Q548.824 1537.13 546.324 1537.13 Q541.139 1537.13 538.107 1534.01 Q535.097 1530.86 535.097 1525.42 Q535.097 1520.1 538.246 1516.88 Q541.394 1513.66 546.625 1513.66 Q552.62 1513.66 555.769 1518.27 Q558.94 1522.85 558.94 1531.6 Q558.94 1539.77 555.051 1544.66 Q551.185 1549.52 544.634 1549.52 Q542.875 1549.52 541.07 1549.17 Q539.264 1548.82 537.32 1548.13 M546.625 1533.48 Q549.773 1533.48 551.602 1531.32 Q553.454 1529.17 553.454 1525.42 Q553.454 1521.7 551.602 1519.54 Q549.773 1517.37 546.625 1517.37 Q543.477 1517.37 541.625 1519.54 Q539.796 1521.7 539.796 1525.42 Q539.796 1529.17 541.625 1531.32 Q543.477 1533.48 546.625 1533.48 Z" fill="#000000" fill-rule="nonzero" fill-opacity="1" /><path clip-path="url(#clip840)" d="M577.343 1517.37 Q573.731 1517.37 571.903 1520.93 Q570.097 1524.47 570.097 1531.6 Q570.097 1538.71 571.903 1542.27 Q573.731 1545.82 577.343 1545.82 Q580.977 1545.82 582.782 1542.27 Q584.611 1538.71 584.611 1531.6 Q584.611 1524.47 582.782 1520.93 Q580.977 1517.37 577.343 1517.37 M577.343 1513.66 Q583.153 1513.66 586.208 1518.27 Q589.287 1522.85 589.287 1531.6 Q589.287 1540.33 586.208 1544.94 Q583.153 1549.52 577.343 1549.52 Q571.532 1549.52 568.454 1544.94 Q565.398 1540.33 565.398 1531.6 Q565.398 1522.85 568.454 1518.27 Q571.532 1513.66 577.343 1513.66 Z" fill="#000000" fill-rule="nonzero" fill-opacity="1" /><path clip-path="url(#clip840)" d="M872.625 1544.91 L888.944 1544.91 L888.944 1548.85 L867 1548.85 L867 1544.91 Q869.662 1542.16 874.245 1537.53 Q878.851 1532.88 880.032 1531.53 Q882.277 1529.01 883.157 1527.27 Q884.06 1525.51 884.06 1523.82 Q884.06 1521.07 882.115 1519.33 Q880.194 1517.6 877.092 1517.6 Q874.893 1517.6 872.439 1518.36 Q870.009 1519.13 867.231 1520.68 L867.231 1515.95 Q870.055 1514.82 872.509 1514.24 Q874.963 1513.66 877 1513.66 Q882.37 1513.66 885.564 1516.35 Q888.759 1519.03 888.759 1523.52 Q888.759 1525.65 887.949 1527.57 Q887.162 1529.47 885.055 1532.07 Q884.476 1532.74 881.375 1535.95 Q878.273 1539.15 872.625 1544.91 Z" fill="#000000" fill-rule="nonzero" fill-opacity="1" /><path clip-path="url(#clip840)" d="M898.898 1548.13 L898.898 1543.87 Q900.657 1544.7 902.462 1545.14 Q904.268 1545.58 906.004 1545.58 Q910.634 1545.58 913.064 1542.48 Q915.518 1539.36 915.865 1533.01 Q914.523 1535.01 912.462 1536.07 Q910.402 1537.13 907.902 1537.13 Q902.717 1537.13 899.685 1534.01 Q896.675 1530.86 896.675 1525.42 Q896.675 1520.1 899.824 1516.88 Q902.972 1513.66 908.203 1513.66 Q914.198 1513.66 917.347 1518.27 Q920.518 1522.85 920.518 1531.6 Q920.518 1539.77 916.629 1544.66 Q912.763 1549.52 906.212 1549.52 Q904.453 1549.52 902.648 1549.17 Q900.842 1548.82 898.898 1548.13 M908.203 1533.48 Q911.351 1533.48 913.18 1531.32 Q915.032 1529.17 915.032 1525.42 Q915.032 1521.7 913.18 1519.54 Q911.351 1517.37 908.203 1517.37 Q905.055 1517.37 903.203 1519.54 Q901.374 1521.7 901.374 1525.42 Q901.374 1529.17 903.203 1531.32 Q905.055 1533.48 908.203 1533.48 Z" fill="#000000" fill-rule="nonzero" fill-opacity="1" /><path clip-path="url(#clip840)" d="M928.967 1514.29 L947.323 1514.29 L947.323 1518.22 L933.249 1518.22 L933.249 1526.7 Q934.268 1526.35 935.286 1526.19 Q936.305 1526 937.323 1526 Q943.11 1526 946.49 1529.17 Q949.87 1532.34 949.87 1537.76 Q949.87 1543.34 946.397 1546.44 Q942.925 1549.52 936.606 1549.52 Q934.43 1549.52 932.161 1549.15 Q929.916 1548.78 927.509 1548.04 L927.509 1543.34 Q929.592 1544.47 931.814 1545.03 Q934.036 1545.58 936.513 1545.58 Q940.518 1545.58 942.856 1543.48 Q945.194 1541.37 945.194 1537.76 Q945.194 1534.15 942.856 1532.04 Q940.518 1529.94 936.513 1529.94 Q934.638 1529.94 932.763 1530.35 Q930.911 1530.77 928.967 1531.65 L928.967 1514.29 Z" fill="#000000" fill-rule="nonzero" fill-opacity="1" /><path clip-path="url(#clip840)" d="M1243.28 1530.21 Q1246.63 1530.93 1248.51 1533.2 Q1250.41 1535.47 1250.41 1538.8 Q1250.41 1543.92 1246.89 1546.72 Q1243.37 1549.52 1236.89 1549.52 Q1234.71 1549.52 1232.4 1549.08 Q1230.11 1548.66 1227.65 1547.81 L1227.65 1543.29 Q1229.6 1544.43 1231.91 1545.01 Q1234.23 1545.58 1236.75 1545.58 Q1241.15 1545.58 1243.44 1543.85 Q1245.75 1542.11 1245.75 1538.8 Q1245.75 1535.75 1243.6 1534.03 Q1241.47 1532.3 1237.65 1532.3 L1233.62 1532.3 L1233.62 1528.45 L1237.84 1528.45 Q1241.29 1528.45 1243.11 1527.09 Q1244.94 1525.7 1244.94 1523.11 Q1244.94 1520.45 1243.05 1519.03 Q1241.17 1517.6 1237.65 1517.6 Q1235.73 1517.6 1233.53 1518.01 Q1231.33 1518.43 1228.69 1519.31 L1228.69 1515.14 Q1231.36 1514.4 1233.67 1514.03 Q1236.01 1513.66 1238.07 1513.66 Q1243.39 1513.66 1246.49 1516.09 Q1249.6 1518.5 1249.6 1522.62 Q1249.6 1525.49 1247.95 1527.48 Q1246.31 1529.45 1243.28 1530.21 Z" fill="#000000" fill-rule="nonzero" fill-opacity="1" /><path clip-path="url(#clip840)" d="M1269.27 1517.37 Q1265.66 1517.37 1263.83 1520.93 Q1262.03 1524.47 1262.03 1531.6 Q1262.03 1538.71 1263.83 1542.27 Q1265.66 1545.82 1269.27 1545.82 Q1272.91 1545.82 1274.71 1542.27 Q1276.54 1538.71 1276.54 1531.6 Q1276.54 1524.47 1274.71 1520.93 Q1272.91 1517.37 1269.27 1517.37 M1269.27 1513.66 Q1275.08 1513.66 1278.14 1518.27 Q1281.22 1522.85 1281.22 1531.6 Q1281.22 1540.33 1278.14 1544.94 Q1275.08 1549.52 1269.27 1549.52 Q1263.46 1549.52 1260.38 1544.94 Q1257.33 1540.33 1257.33 1531.6 Q1257.33 1522.85 1260.38 1518.27 Q1263.46 1513.66 1269.27 1513.66 Z" fill="#000000" fill-rule="nonzero" fill-opacity="1" /><path clip-path="url(#clip840)" d="M1299.43 1517.37 Q1295.82 1517.37 1293.99 1520.93 Q1292.19 1524.47 1292.19 1531.6 Q1292.19 1538.71 1293.99 1542.27 Q1295.82 1545.82 1299.43 1545.82 Q1303.07 1545.82 1304.87 1542.27 Q1306.7 1538.71 1306.7 1531.6 Q1306.7 1524.47 1304.87 1520.93 Q1303.07 1517.37 1299.43 1517.37 M1299.43 1513.66 Q1305.24 1513.66 1308.3 1518.27 Q1311.38 1522.85 1311.38 1531.6 Q1311.38 1540.33 1308.3 1544.94 Q1305.24 1549.52 1299.43 1549.52 Q1293.62 1549.52 1290.54 1544.94 Q1287.49 1540.33 1287.49 1531.6 Q1287.49 1522.85 1290.54 1518.27 Q1293.62 1513.66 1299.43 1513.66 Z" fill="#000000" fill-rule="nonzero" fill-opacity="1" /><path clip-path="url(#clip840)" d="M1604.85 1530.21 Q1608.21 1530.93 1610.09 1533.2 Q1611.98 1535.47 1611.98 1538.8 Q1611.98 1543.92 1608.47 1546.72 Q1604.95 1549.52 1598.47 1549.52 Q1596.29 1549.52 1593.98 1549.08 Q1591.68 1548.66 1589.23 1547.81 L1589.23 1543.29 Q1591.17 1544.43 1593.49 1545.01 Q1595.8 1545.58 1598.33 1545.58 Q1602.73 1545.58 1605.02 1543.85 Q1607.33 1542.11 1607.33 1538.8 Q1607.33 1535.75 1605.18 1534.03 Q1603.05 1532.3 1599.23 1532.3 L1595.2 1532.3 L1595.2 1528.45 L1599.41 1528.45 Q1602.86 1528.45 1604.69 1527.09 Q1606.52 1525.7 1606.52 1523.11 Q1606.52 1520.45 1604.62 1519.03 Q1602.75 1517.6 1599.23 1517.6 Q1597.31 1517.6 1595.11 1518.01 Q1592.91 1518.43 1590.27 1519.31 L1590.27 1515.14 Q1592.93 1514.4 1595.25 1514.03 Q1597.59 1513.66 1599.65 1513.66 Q1604.97 1513.66 1608.07 1516.09 Q1611.17 1518.5 1611.17 1522.62 Q1611.17 1525.49 1609.53 1527.48 Q1607.89 1529.45 1604.85 1530.21 Z" fill="#000000" fill-rule="nonzero" fill-opacity="1" /><path clip-path="url(#clip840)" d="M1630.85 1517.37 Q1627.24 1517.37 1625.41 1520.93 Q1623.6 1524.47 1623.6 1531.6 Q1623.6 1538.71 1625.41 1542.27 Q1627.24 1545.82 1630.85 1545.82 Q1634.48 1545.82 1636.29 1542.27 Q1638.12 1538.71 1638.12 1531.6 Q1638.12 1524.47 1636.29 1520.93 Q1634.48 1517.37 1630.85 1517.37 M1630.85 1513.66 Q1636.66 1513.66 1639.72 1518.27 Q1642.79 1522.85 1642.79 1531.6 Q1642.79 1540.33 1639.72 1544.94 Q1636.66 1549.52 1630.85 1549.52 Q1625.04 1549.52 1621.96 1544.94 Q1618.91 1540.33 1618.91 1531.6 Q1618.91 1522.85 1621.96 1518.27 Q1625.04 1513.66 1630.85 1513.66 Z" fill="#000000" fill-rule="nonzero" fill-opacity="1" /><path clip-path="url(#clip840)" d="M1651.06 1514.29 L1669.41 1514.29 L1669.41 1518.22 L1655.34 1518.22 L1655.34 1526.7 Q1656.36 1526.35 1657.38 1526.19 Q1658.4 1526 1659.41 1526 Q1665.2 1526 1668.58 1529.17 Q1671.96 1532.34 1671.96 1537.76 Q1671.96 1543.34 1668.49 1546.44 Q1665.02 1549.52 1658.7 1549.52 Q1656.52 1549.52 1654.25 1549.15 Q1652.01 1548.78 1649.6 1548.04 L1649.6 1543.34 Q1651.68 1544.47 1653.91 1545.03 Q1656.13 1545.58 1658.6 1545.58 Q1662.61 1545.58 1664.95 1543.48 Q1667.28 1541.37 1667.28 1537.76 Q1667.28 1534.15 1664.95 1532.04 Q1662.61 1529.94 1658.6 1529.94 Q1656.73 1529.94 1654.85 1530.35 Q1653 1530.77 1651.06 1531.65 L1651.06 1514.29 Z" fill="#000000" fill-rule="nonzero" fill-opacity="1" /><path clip-path="url(#clip840)" d="M1965.44 1530.21 Q1968.79 1530.93 1970.67 1533.2 Q1972.57 1535.47 1972.57 1538.8 Q1972.57 1543.92 1969.05 1546.72 Q1965.53 1549.52 1959.05 1549.52 Q1956.87 1549.52 1954.56 1549.08 Q1952.27 1548.66 1949.81 1547.81 L1949.81 1543.29 Q1951.76 1544.43 1954.07 1545.01 Q1956.39 1545.58 1958.91 1545.58 Q1963.31 1545.58 1965.6 1543.85 Q1967.91 1542.11 1967.91 1538.8 Q1967.91 1535.75 1965.76 1534.03 Q1963.63 1532.3 1959.81 1532.3 L1955.78 1532.3 L1955.78 1528.45 L1960 1528.45 Q1963.45 1528.45 1965.28 1527.09 Q1967.1 1525.7 1967.1 1523.11 Q1967.1 1520.45 1965.21 1519.03 Q1963.33 1517.6 1959.81 1517.6 Q1957.89 1517.6 1955.69 1518.01 Q1953.49 1518.43 1950.85 1519.31 L1950.85 1515.14 Q1953.52 1514.4 1955.83 1514.03 Q1958.17 1513.66 1960.23 1513.66 Q1965.55 1513.66 1968.65 1516.09 Q1971.76 1518.5 1971.76 1522.62 Q1971.76 1525.49 1970.11 1527.48 Q1968.47 1529.45 1965.44 1530.21 Z" fill="#000000" fill-rule="nonzero" fill-opacity="1" /><path clip-path="url(#clip840)" d="M1982.24 1544.91 L1989.88 1544.91 L1989.88 1518.55 L1981.57 1520.21 L1981.57 1515.95 L1989.84 1514.29 L1994.51 1514.29 L1994.51 1544.91 L2002.15 1544.91 L2002.15 1548.85 L1982.24 1548.85 L1982.24 1544.91 Z" fill="#000000" fill-rule="nonzero" fill-opacity="1" /><path clip-path="url(#clip840)" d="M2021.59 1517.37 Q2017.98 1517.37 2016.15 1520.93 Q2014.35 1524.47 2014.35 1531.6 Q2014.35 1538.71 2016.15 1542.27 Q2017.98 1545.82 2021.59 1545.82 Q2025.23 1545.82 2027.03 1542.27 Q2028.86 1538.71 2028.86 1531.6 Q2028.86 1524.47 2027.03 1520.93 Q2025.23 1517.37 2021.59 1517.37 M2021.59 1513.66 Q2027.4 1513.66 2030.46 1518.27 Q2033.54 1522.85 2033.54 1531.6 Q2033.54 1540.33 2030.46 1544.94 Q2027.4 1549.52 2021.59 1549.52 Q2015.78 1549.52 2012.71 1544.94 Q2009.65 1540.33 2009.65 1531.6 Q2009.65 1522.85 2012.71 1518.27 Q2015.78 1513.66 2021.59 1513.66 Z" fill="#000000" fill-rule="nonzero" fill-opacity="1" /><path clip-path="url(#clip840)" d="M2327.02 1530.21 Q2330.37 1530.93 2332.25 1533.2 Q2334.14 1535.47 2334.14 1538.8 Q2334.14 1543.92 2330.63 1546.72 Q2327.11 1549.52 2320.63 1549.52 Q2318.45 1549.52 2316.14 1549.08 Q2313.84 1548.66 2311.39 1547.81 L2311.39 1543.29 Q2313.33 1544.43 2315.65 1545.01 Q2317.96 1545.58 2320.49 1545.58 Q2324.89 1545.58 2327.18 1543.85 Q2329.49 1542.11 2329.49 1538.8 Q2329.49 1535.75 2327.34 1534.03 Q2325.21 1532.3 2321.39 1532.3 L2317.36 1532.3 L2317.36 1528.45 L2321.58 1528.45 Q2325.02 1528.45 2326.85 1527.09 Q2328.68 1525.7 2328.68 1523.11 Q2328.68 1520.45 2326.78 1519.03 Q2324.91 1517.6 2321.39 1517.6 Q2319.47 1517.6 2317.27 1518.01 Q2315.07 1518.43 2312.43 1519.31 L2312.43 1515.14 Q2315.09 1514.4 2317.41 1514.03 Q2319.75 1513.66 2321.81 1513.66 Q2327.13 1513.66 2330.23 1516.09 Q2333.33 1518.5 2333.33 1522.62 Q2333.33 1525.49 2331.69 1527.48 Q2330.05 1529.45 2327.02 1530.21 Z" fill="#000000" fill-rule="nonzero" fill-opacity="1" /><path clip-path="url(#clip840)" d="M2343.82 1544.91 L2351.46 1544.91 L2351.46 1518.55 L2343.15 1520.21 L2343.15 1515.95 L2351.41 1514.29 L2356.09 1514.29 L2356.09 1544.91 L2363.73 1544.91 L2363.73 1548.85 L2343.82 1548.85 L2343.82 1544.91 Z" fill="#000000" fill-rule="nonzero" fill-opacity="1" /><path clip-path="url(#clip840)" d="M2373.22 1514.29 L2391.58 1514.29 L2391.58 1518.22 L2377.5 1518.22 L2377.5 1526.7 Q2378.52 1526.35 2379.54 1526.19 Q2380.56 1526 2381.58 1526 Q2387.36 1526 2390.74 1529.17 Q2394.12 1532.34 2394.12 1537.76 Q2394.12 1543.34 2390.65 1546.44 Q2387.18 1549.52 2380.86 1549.52 Q2378.68 1549.52 2376.41 1549.15 Q2374.17 1548.78 2371.76 1548.04 L2371.76 1543.34 Q2373.84 1544.47 2376.07 1545.03 Q2378.29 1545.58 2380.77 1545.58 Q2384.77 1545.58 2387.11 1543.48 Q2389.45 1541.37 2389.45 1537.76 Q2389.45 1534.15 2387.11 1532.04 Q2384.77 1529.94 2380.77 1529.94 Q2378.89 1529.94 2377.02 1530.35 Q2375.16 1530.77 2373.22 1531.65 L2373.22 1514.29 Z" fill="#000000" fill-rule="nonzero" fill-opacity="1" /><polyline clip-path="url(#clip840)" style="stroke:#000000; stroke-linecap:round; stroke-linejoin:round; stroke-width:4; stroke-opacity:1; fill:none" points="186.274,1486.45 186.274,47.2441 "/>
<polyline clip-path="url(#clip840)" style="stroke:#000000; stroke-linecap:round; stroke-linejoin:round; stroke-width:4; stroke-opacity:1; fill:none" points="186.274,1445.72 205.172,1445.72 "/>
<polyline clip-path="url(#clip840)" style="stroke:#000000; stroke-linecap:round; stroke-linejoin:round; stroke-width:4; stroke-opacity:1; fill:none" points="186.274,979.693 205.172,979.693 "/>
<polyline clip-path="url(#clip840)" style="stroke:#000000; stroke-linecap:round; stroke-linejoin:round; stroke-width:4; stroke-opacity:1; fill:none" points="186.274,513.67 205.172,513.67 "/>
<polyline clip-path="url(#clip840)" style="stroke:#000000; stroke-linecap:round; stroke-linejoin:round; stroke-width:4; stroke-opacity:1; fill:none" points="186.274,47.6478 205.172,47.6478 "/>
<path clip-path="url(#clip840)" d="M62.9365 1431.51 Q59.3254 1431.51 57.4967 1435.08 Q55.6912 1438.62 55.6912 1445.75 Q55.6912 1452.86 57.4967 1456.42 Q59.3254 1459.96 62.9365 1459.96 Q66.5707 1459.96 68.3763 1456.42 Q70.205 1452.86 70.205 1445.75 Q70.205 1438.62 68.3763 1435.08 Q66.5707 1431.51 62.9365 1431.51 M62.9365 1427.81 Q68.7467 1427.81 71.8022 1432.42 Q74.8809 1437 74.8809 1445.75 Q74.8809 1454.48 71.8022 1459.08 Q68.7467 1463.67 62.9365 1463.67 Q57.1264 1463.67 54.0477 1459.08 Q50.9921 1454.48 50.9921 1445.75 Q50.9921 1437 54.0477 1432.42 Q57.1264 1427.81 62.9365 1427.81 Z" fill="#000000" fill-rule="nonzero" fill-opacity="1" /><path clip-path="url(#clip840)" d="M83.0984 1457.12 L87.9827 1457.12 L87.9827 1463 L83.0984 1463 L83.0984 1457.12 Z" fill="#000000" fill-rule="nonzero" fill-opacity="1" /><path clip-path="url(#clip840)" d="M108.168 1431.51 Q104.557 1431.51 102.728 1435.08 Q100.922 1438.62 100.922 1445.75 Q100.922 1452.86 102.728 1456.42 Q104.557 1459.96 108.168 1459.96 Q111.802 1459.96 113.608 1456.42 Q115.436 1452.86 115.436 1445.75 Q115.436 1438.62 113.608 1435.08 Q111.802 1431.51 108.168 1431.51 M108.168 1427.81 Q113.978 1427.81 117.033 1432.42 Q120.112 1437 120.112 1445.75 Q120.112 1454.48 117.033 1459.08 Q113.978 1463.67 108.168 1463.67 Q102.358 1463.67 99.2789 1459.08 Q96.2234 1454.48 96.2234 1445.75 Q96.2234 1437 99.2789 1432.42 Q102.358 1427.81 108.168 1427.81 Z" fill="#000000" fill-rule="nonzero" fill-opacity="1" /><path clip-path="url(#clip840)" d="M138.33 1431.51 Q134.719 1431.51 132.89 1435.08 Q131.084 1438.62 131.084 1445.75 Q131.084 1452.86 132.89 1456.42 Q134.719 1459.96 138.33 1459.96 Q141.964 1459.96 143.769 1456.42 Q145.598 1452.86 145.598 1445.75 Q145.598 1438.62 143.769 1435.08 Q141.964 1431.51 138.33 1431.51 M138.33 1427.81 Q144.14 1427.81 147.195 1432.42 Q150.274 1437 150.274 1445.75 Q150.274 1454.48 147.195 1459.08 Q144.14 1463.67 138.33 1463.67 Q132.519 1463.67 129.441 1459.08 Q126.385 1454.48 126.385 1445.75 Q126.385 1437 129.441 1432.42 Q132.519 1427.81 138.33 1427.81 Z" fill="#000000" fill-rule="nonzero" fill-opacity="1" /><path clip-path="url(#clip840)" d="M63.9319 965.492 Q60.3208 965.492 58.4921 969.057 Q56.6865 972.598 56.6865 979.728 Q56.6865 986.834 58.4921 990.399 Q60.3208 993.941 63.9319 993.941 Q67.5661 993.941 69.3717 990.399 Q71.2004 986.834 71.2004 979.728 Q71.2004 972.598 69.3717 969.057 Q67.5661 965.492 63.9319 965.492 M63.9319 961.788 Q69.742 961.788 72.7976 966.395 Q75.8763 970.978 75.8763 979.728 Q75.8763 988.455 72.7976 993.061 Q69.742 997.644 63.9319 997.644 Q58.1217 997.644 55.043 993.061 Q51.9875 988.455 51.9875 979.728 Q51.9875 970.978 55.043 966.395 Q58.1217 961.788 63.9319 961.788 Z" fill="#000000" fill-rule="nonzero" fill-opacity="1" /><path clip-path="url(#clip840)" d="M84.0938 991.093 L88.978 991.093 L88.978 996.973 L84.0938 996.973 L84.0938 991.093 Z" fill="#000000" fill-rule="nonzero" fill-opacity="1" /><path clip-path="url(#clip840)" d="M109.163 965.492 Q105.552 965.492 103.723 969.057 Q101.918 972.598 101.918 979.728 Q101.918 986.834 103.723 990.399 Q105.552 993.941 109.163 993.941 Q112.797 993.941 114.603 990.399 Q116.432 986.834 116.432 979.728 Q116.432 972.598 114.603 969.057 Q112.797 965.492 109.163 965.492 M109.163 961.788 Q114.973 961.788 118.029 966.395 Q121.107 970.978 121.107 979.728 Q121.107 988.455 118.029 993.061 Q114.973 997.644 109.163 997.644 Q103.353 997.644 100.274 993.061 Q97.2187 988.455 97.2187 979.728 Q97.2187 970.978 100.274 966.395 Q103.353 961.788 109.163 961.788 Z" fill="#000000" fill-rule="nonzero" fill-opacity="1" /><path clip-path="url(#clip840)" d="M129.371 962.413 L147.728 962.413 L147.728 966.348 L133.654 966.348 L133.654 974.82 Q134.672 974.473 135.691 974.311 Q136.709 974.126 137.728 974.126 Q143.515 974.126 146.894 977.297 Q150.274 980.469 150.274 985.885 Q150.274 991.464 146.802 994.566 Q143.33 997.644 137.01 997.644 Q134.834 997.644 132.566 997.274 Q130.32 996.904 127.913 996.163 L127.913 991.464 Q129.996 992.598 132.219 993.154 Q134.441 993.709 136.918 993.709 Q140.922 993.709 143.26 991.603 Q145.598 989.496 145.598 985.885 Q145.598 982.274 143.26 980.168 Q140.922 978.061 136.918 978.061 Q135.043 978.061 133.168 978.478 Q131.316 978.894 129.371 979.774 L129.371 962.413 Z" fill="#000000" fill-rule="nonzero" fill-opacity="1" /><path clip-path="url(#clip840)" d="M62.9365 499.469 Q59.3254 499.469 57.4967 503.034 Q55.6912 506.576 55.6912 513.705 Q55.6912 520.812 57.4967 524.376 Q59.3254 527.918 62.9365 527.918 Q66.5707 527.918 68.3763 524.376 Q70.205 520.812 70.205 513.705 Q70.205 506.576 68.3763 503.034 Q66.5707 499.469 62.9365 499.469 M62.9365 495.765 Q68.7467 495.765 71.8022 500.372 Q74.8809 504.955 74.8809 513.705 Q74.8809 522.432 71.8022 527.038 Q68.7467 531.622 62.9365 531.622 Q57.1264 531.622 54.0477 527.038 Q50.9921 522.432 50.9921 513.705 Q50.9921 504.955 54.0477 500.372 Q57.1264 495.765 62.9365 495.765 Z" fill="#000000" fill-rule="nonzero" fill-opacity="1" /><path clip-path="url(#clip840)" d="M83.0984 525.071 L87.9827 525.071 L87.9827 530.95 L83.0984 530.95 L83.0984 525.071 Z" fill="#000000" fill-rule="nonzero" fill-opacity="1" /><path clip-path="url(#clip840)" d="M98.978 527.015 L106.617 527.015 L106.617 500.65 L98.3067 502.316 L98.3067 498.057 L106.571 496.39 L111.246 496.39 L111.246 527.015 L118.885 527.015 L118.885 530.95 L98.978 530.95 L98.978 527.015 Z" fill="#000000" fill-rule="nonzero" fill-opacity="1" /><path clip-path="url(#clip840)" d="M138.33 499.469 Q134.719 499.469 132.89 503.034 Q131.084 506.576 131.084 513.705 Q131.084 520.812 132.89 524.376 Q134.719 527.918 138.33 527.918 Q141.964 527.918 143.769 524.376 Q145.598 520.812 145.598 513.705 Q145.598 506.576 143.769 503.034 Q141.964 499.469 138.33 499.469 M138.33 495.765 Q144.14 495.765 147.195 500.372 Q150.274 504.955 150.274 513.705 Q150.274 522.432 147.195 527.038 Q144.14 531.622 138.33 531.622 Q132.519 531.622 129.441 527.038 Q126.385 522.432 126.385 513.705 Q126.385 504.955 129.441 500.372 Q132.519 495.765 138.33 495.765 Z" fill="#000000" fill-rule="nonzero" fill-opacity="1" /><path clip-path="url(#clip840)" d="M63.9319 33.4465 Q60.3208 33.4465 58.4921 37.0113 Q56.6865 40.553 56.6865 47.6826 Q56.6865 54.789 58.4921 58.3538 Q60.3208 61.8954 63.9319 61.8954 Q67.5661 61.8954 69.3717 58.3538 Q71.2004 54.789 71.2004 47.6826 Q71.2004 40.553 69.3717 37.0113 Q67.5661 33.4465 63.9319 33.4465 M63.9319 29.7428 Q69.742 29.7428 72.7976 34.3493 Q75.8763 38.9326 75.8763 47.6826 Q75.8763 56.4094 72.7976 61.0158 Q69.742 65.5991 63.9319 65.5991 Q58.1217 65.5991 55.043 61.0158 Q51.9875 56.4094 51.9875 47.6826 Q51.9875 38.9326 55.043 34.3493 Q58.1217 29.7428 63.9319 29.7428 Z" fill="#000000" fill-rule="nonzero" fill-opacity="1" /><path clip-path="url(#clip840)" d="M84.0938 59.0482 L88.978 59.0482 L88.978 64.9278 L84.0938 64.9278 L84.0938 59.0482 Z" fill="#000000" fill-rule="nonzero" fill-opacity="1" /><path clip-path="url(#clip840)" d="M99.9733 60.9927 L107.612 60.9927 L107.612 34.6271 L99.3021 36.2937 L99.3021 32.0345 L107.566 30.3678 L112.242 30.3678 L112.242 60.9927 L119.881 60.9927 L119.881 64.9278 L99.9733 64.9278 L99.9733 60.9927 Z" fill="#000000" fill-rule="nonzero" fill-opacity="1" /><path clip-path="url(#clip840)" d="M129.371 30.3678 L147.728 30.3678 L147.728 34.303 L133.654 34.303 L133.654 42.7752 Q134.672 42.428 135.691 42.2659 Q136.709 42.0807 137.728 42.0807 Q143.515 42.0807 146.894 45.252 Q150.274 48.4233 150.274 53.8399 Q150.274 59.4186 146.802 62.5204 Q143.33 65.5991 137.01 65.5991 Q134.834 65.5991 132.566 65.2288 Q130.32 64.8584 127.913 64.1177 L127.913 59.4186 Q129.996 60.5529 132.219 61.1084 Q134.441 61.664 136.918 61.664 Q140.922 61.664 143.26 59.5575 Q145.598 57.451 145.598 53.8399 Q145.598 50.2288 143.26 48.1224 Q140.922 46.0159 136.918 46.0159 Q135.043 46.0159 133.168 46.4326 Q131.316 46.8492 129.371 47.7289 L129.371 30.3678 Z" fill="#000000" fill-rule="nonzero" fill-opacity="1" /><polyline clip-path="url(#clip842)" style="stroke:#009af9; stroke-linecap:round; stroke-linejoin:round; stroke-width:4; stroke-opacity:1; fill:none" points="-3063.45,1445.72 -3052.62,1445.72 -3041.78,1445.72 -3030.95,1445.72 -3020.12,1445.72 -3009.29,1445.72 -2998.45,1445.72 -2987.62,1445.72 -2976.79,1445.72 -2965.96,1445.72 -2955.12,1445.72 -2944.29,1445.72 -2933.46,1445.72 -2922.63,1445.72 -2911.8,1445.72 -2900.96,1445.72 -2890.13,1445.72 -2879.3,1445.72 -2868.47,1445.72 -2857.63,1445.72 -2846.8,1445.72 -2835.97,1445.72 -2825.14,1445.72 -2814.3,1445.72 -2803.47,1445.72 -2792.64,1445.72 -2781.81,1445.72 -2770.97,1445.72 -2760.14,1445.72 -2749.31,1445.72 -2738.48,1445.72 -2727.64,1445.72 -2716.81,1445.72 -2705.98,1445.72 -2695.15,1445.72 -2684.31,1445.72 -2673.48,1445.72 -2662.65,1445.72 -2651.82,1445.72 -2640.98,1445.72 -2630.15,1445.72 -2619.32,1445.72 -2608.49,1445.72 -2597.66,1445.72 -2586.82,1445.72 -2575.99,1445.72 -2565.16,1445.72 -2554.33,1445.72 -2543.49,1445.72 -2532.66,1445.72 -2521.83,1445.72 -2511,1445.72 -2500.16,1445.72 -2489.33,1445.72 -2478.5,1445.72 -2467.67,1445.72 -2456.83,1445.72 -2446,1445.72 -2435.17,1445.72 -2424.34,1445.72 -2413.5,1445.72 -2402.67,1445.72 -2391.84,1445.72 -2381.01,1445.72 -2370.17,1445.72 -2359.34,1445.72 -2348.51,1445.72 -2337.68,1445.72 -2326.85,1445.72 -2316.01,1445.72 -2305.18,1445.72 -2294.35,1445.72 -2283.52,1445.72 -2272.68,1445.72 -2261.85,1445.72 -2251.02,1445.72 -2240.19,1445.72 -2229.35,1445.72 -2218.52,1445.72 -2207.69,1445.72 -2196.86,1445.72 -2186.02,1445.72 -2175.19,1445.72 -2164.36,1445.72 -2153.53,1445.72 -2142.69,1445.72 -2131.86,1445.72 -2121.03,1445.72 -2110.2,1445.72 -2099.36,1445.72 -2088.53,1445.72 -2077.7,1445.72 -2066.87,1445.72 -2056.03,1445.72 -2045.2,1445.72 -2034.37,1445.72 -2023.54,1445.72 -2012.71,1445.72 -2001.87,1445.72 -1991.04,1445.72 -1980.21,1445.72 -1969.38,1445.72 -1958.54,1445.72 -1947.71,1445.72 -1936.88,1445.72 -1926.05,1445.72 -1915.21,1445.72 -1904.38,1445.72 -1893.55,1445.72 -1882.72,1445.72 -1871.88,1445.72 -1861.05,1445.72 -1850.22,1445.72 -1839.39,1445.72 -1828.55,1445.72 -1817.72,1445.72 -1806.89,1445.72 -1796.06,1445.72 -1785.22,1445.72 -1774.39,1445.72 -1763.56,1445.72 -1752.73,1445.72 -1741.89,1445.72 -1731.06,1445.72 -1720.23,1445.72 -1709.4,1445.72 -1698.57,1445.72 -1687.73,1445.72 -1676.9,1445.72 -1666.07,1445.72 -1655.24,1445.72 -1644.4,1445.72 -1633.57,1445.72 -1622.74,1445.72 -1611.91,1445.72 -1601.07,1445.72 -1590.24,1445.72 -1579.41,1445.72 -1568.58,1445.72 -1557.74,1445.72 -1546.91,1445.72 -1536.08,1445.72 -1525.25,1445.72 -1514.41,1445.72 -1503.58,1445.72 -1492.75,1445.72 -1481.92,1445.72 -1471.08,1445.72 -1460.25,1445.72 -1449.42,1445.72 -1438.59,1445.72 -1427.76,1445.72 -1416.92,1445.72 -1406.09,1445.72 -1395.26,1445.72 -1384.43,1445.72 -1373.59,1445.72 -1362.76,1445.72 -1351.93,1445.72 -1341.1,1445.72 -1330.26,1445.72 -1319.43,1445.72 -1308.6,1445.72 -1297.77,1445.72 -1286.93,1445.72 -1276.1,1445.72 -1265.27,1445.72 -1254.44,1445.72 -1243.6,1445.72 -1232.77,1445.72 -1221.94,1445.72 -1211.11,1445.72 -1200.27,1445.72 -1189.44,1445.72 -1178.61,1445.72 -1167.78,1445.72 -1156.94,1445.72 -1146.11,1445.72 -1135.28,1445.72 -1124.45,1445.72 -1113.62,1445.72 -1102.78,1445.72 -1091.95,1445.72 -1081.12,1445.72 -1070.29,1445.72 -1059.45,1445.72 -1048.62,1445.72 -1037.79,1445.72 -1026.96,1445.72 -1016.12,1445.72 -1005.29,1445.72 -994.459,1445.72 -983.626,1445.72 -972.794,1445.72 -961.961,1445.72 -951.129,1445.72 -940.297,1445.72 -929.464,1445.72 -918.632,1445.72 -907.799,1445.72 -896.967,1445.72 -886.135,1445.72 -875.302,1445.72 -864.47,1445.72 -853.637,1445.72 -842.805,1445.72 -831.972,1445.72 -821.14,1445.72 -810.308,1445.72 -799.475,1445.72 -788.643,1445.72 -777.81,1445.72 -766.978,1445.72 -756.146,1445.72 -745.313,1445.72 -734.481,1445.72 -723.648,1445.72 -712.816,1445.72 -701.984,1445.72 -691.151,1445.72 -680.319,1445.72 -669.486,1445.72 -658.654,1445.72 -647.822,1445.72 -636.989,1445.72 -626.157,1445.72 -615.324,1445.72 -604.492,1445.72 -593.659,1445.72 -582.827,1445.72 -571.995,1445.72 -561.162,1445.72 -550.33,1445.72 -539.497,1445.72 -528.665,1445.72 -517.833,1445.72 -507,1445.72 -496.168,1445.72 -485.335,1445.72 -474.503,1445.72 -463.671,1445.72 -452.838,1445.72 -442.006,1445.72 -431.173,1445.72 -420.341,1445.72 -409.509,1445.72 -398.676,1445.72 -387.844,1445.72 -377.011,1445.72 -366.179,1445.72 -355.346,1445.72 -344.514,1445.72 -333.682,1445.72 -322.849,1445.72 -312.017,1445.72 -301.184,1445.72 -290.352,1445.72 -279.52,1445.72 -268.687,1445.72 -257.855,1445.72 -247.022,1445.72 -236.19,1445.72 -225.358,1445.72 -214.525,1445.72 -203.693,1445.72 -192.86,1445.72 -182.028,1445.72 -171.196,1445.72 -160.363,1445.72 -149.531,1445.72 -138.698,1445.72 -127.866,1445.72 -117.033,1445.72 -106.201,1445.72 -95.3686,1445.72 -84.5362,1445.72 -73.7038,1445.72 -62.8714,1445.72 -52.039,1445.72 -41.2066,1445.72 -30.3742,1445.72 -19.5418,1445.72 -8.70937,1445.72 2.12304,1445.72 12.9554,1445.72 23.7879,1445.72 34.6203,1445.72 45.4527,1445.72 56.2851,1445.72 67.1175,1445.72 77.9499,1445.72 88.7823,1445.72 99.6147,1445.72 110.447,1445.72 121.28,1445.72 132.112,1445.72 142.944,1445.72 153.777,1445.72 164.609,1445.72 175.442,1445.72 186.274,1445.72 197.106,1445.72 207.939,1445.71 218.771,1445.71 229.604,1445.71 240.436,1445.71 251.268,1445.71 262.101,1445.71 272.933,1445.71 283.766,1445.71 294.598,1445.71 305.431,1445.71 316.263,1445.7 327.095,1445.7 337.928,1445.7 348.76,1445.69 359.593,1445.68 370.425,1445.67 381.257,1445.66 392.09,1445.64 402.922,1445.62 413.755,1445.6 424.587,1445.57 435.419,1445.53 446.252,1445.48 457.084,1445.42 467.917,1445.35 478.749,1445.26 489.581,1445.15 500.414,1445.01 511.246,1444.84 522.079,1444.64 532.911,1444.4 543.744,1444.1 554.576,1443.74 565.408,1443.31 576.241,1442.8 587.073,1442.19 597.906,1441.46 608.738,1440.6 619.57,1439.58 630.403,1438.38 641.235,1436.98 652.068,1435.33 662.9,1433.42 673.732,1431.19 684.565,1428.61 695.397,1425.63 706.23,1422.2 717.062,1418.27 727.894,1413.78 738.727,1408.67 749.559,1402.87 760.392,1396.31 771.224,1388.91 782.057,1380.61 792.889,1371.31 803.721,1360.93 814.554,1349.41 825.386,1336.64 836.219,1322.54 847.051,1307.05 857.883,1290.07 868.716,1271.54 879.548,1251.38 890.381,1229.54 901.213,1205.97 912.045,1180.62 922.878,1153.48 933.71,1124.51 944.543,1093.73 955.375,1061.16 966.207,1026.84 977.04,990.816 987.872,953.175 998.705,914.017 1009.54,873.465 1020.37,831.666 1031.2,788.786 1042.03,745.018 1052.87,700.573 1063.7,655.681 1074.53,610.595 1085.36,565.58 1096.2,520.917 1107.03,476.898 1117.86,433.824 1128.69,392.002 1139.53,351.737 1150.36,313.336 1161.19,277.099 1172.02,243.314 1182.86,212.258 1193.69,184.191 1204.52,159.35 1215.35,137.949 1226.19,120.174 1237.02,106.183 1247.85,96.0983 1258.68,90.0114 1269.51,87.9763 1280.35,90.0114 1291.18,96.0983 1302.01,106.183 1312.84,120.174 1323.68,137.949 1334.51,159.35 1345.34,184.191 1356.17,212.258 1367.01,243.314 1377.84,277.099 1388.67,313.336 1399.5,351.737 1410.34,392.002 1421.17,433.824 1432,476.898 1442.83,520.917 1453.67,565.58 1464.5,610.595 1475.33,655.681 1486.16,700.573 1497,745.018 1507.83,788.786 1518.66,831.666 1529.49,873.465 1540.33,914.017 1551.16,953.175 1561.99,990.816 1572.82,1026.84 1583.65,1061.16 1594.49,1093.73 1605.32,1124.51 1616.15,1153.48 1626.98,1180.62 1637.82,1205.97 1648.65,1229.54 1659.48,1251.38 1670.31,1271.54 1681.15,1290.07 1691.98,1307.05 1702.81,1322.54 1713.64,1336.64 1724.48,1349.41 1735.31,1360.93 1746.14,1371.31 1756.97,1380.61 1767.81,1388.91 1778.64,1396.31 1789.47,1402.87 1800.3,1408.67 1811.14,1413.78 1821.97,1418.27 1832.8,1422.2 1843.63,1425.63 1854.47,1428.61 1865.3,1431.19 1876.13,1433.42 1886.96,1435.33 1897.79,1436.98 1908.63,1438.38 1919.46,1439.58 1930.29,1440.6 1941.12,1441.46 1951.96,1442.19 1962.79,1442.8 1973.62,1443.31 1984.45,1443.74 1995.29,1444.1 2006.12,1444.4 2016.95,1444.64 2027.78,1444.84 2038.62,1445.01 2049.45,1445.15 2060.28,1445.26 2071.11,1445.35 2081.95,1445.42 2092.78,1445.48 2103.61,1445.53 2114.44,1445.57 2125.28,1445.6 2136.11,1445.62 2146.94,1445.64 2157.77,1445.66 2168.6,1445.67 2179.44,1445.68 2190.27,1445.69 2201.1,1445.7 2211.93,1445.7 2222.77,1445.7 2233.6,1445.71 2244.43,1445.71 2255.26,1445.71 2266.1,1445.71 2276.93,1445.71 2287.76,1445.71 2298.59,1445.71 2309.43,1445.71 2320.26,1445.71 2331.09,1445.71 2341.92,1445.72 2352.76,1445.72 2363.59,1445.72 2374.42,1445.72 2385.25,1445.72 2396.09,1445.72 2406.92,1445.72 2417.75,1445.72 2428.58,1445.72 2439.42,1445.72 2450.25,1445.72 2461.08,1445.72 2471.91,1445.72 2482.74,1445.72 2493.58,1445.72 2504.41,1445.72 2515.24,1445.72 2526.07,1445.72 2536.91,1445.72 2547.74,1445.72 2558.57,1445.72 2569.4,1445.72 2580.24,1445.72 2591.07,1445.72 2601.9,1445.72 2612.73,1445.72 2623.57,1445.72 2634.4,1445.72 2645.23,1445.72 2656.06,1445.72 2666.9,1445.72 2677.73,1445.72 2688.56,1445.72 2699.39,1445.72 2710.23,1445.72 2721.06,1445.72 2731.89,1445.72 2742.72,1445.72 2753.56,1445.72 2764.39,1445.72 2775.22,1445.72 2786.05,1445.72 2796.88,1445.72 2807.72,1445.72 2818.55,1445.72 2829.38,1445.72 2840.21,1445.72 2851.05,1445.72 2861.88,1445.72 2872.71,1445.72 2883.54,1445.72 2894.38,1445.72 2905.21,1445.72 2916.04,1445.72 2926.87,1445.72 2937.71,1445.72 2948.54,1445.72 2959.37,1445.72 2970.2,1445.72 2981.04,1445.72 2991.87,1445.72 3002.7,1445.72 3013.53,1445.72 3024.37,1445.72 3035.2,1445.72 3046.03,1445.72 3056.86,1445.72 3067.69,1445.72 3078.53,1445.72 3089.36,1445.72 3100.19,1445.72 3111.02,1445.72 3121.86,1445.72 3132.69,1445.72 3143.52,1445.72 3154.35,1445.72 3165.19,1445.72 3176.02,1445.72 3186.85,1445.72 3197.68,1445.72 3208.52,1445.72 3219.35,1445.72 3230.18,1445.72 3241.01,1445.72 3251.85,1445.72 3262.68,1445.72 3273.51,1445.72 3284.34,1445.72 3295.18,1445.72 3306.01,1445.72 3316.84,1445.72 3327.67,1445.72 3338.51,1445.72 3349.34,1445.72 3360.17,1445.72 3371,1445.72 3381.83,1445.72 3392.67,1445.72 3403.5,1445.72 3414.33,1445.72 3425.16,1445.72 3436,1445.72 "/>
<circle clip-path="url(#clip842)" cx="763.365" cy="1445.72" r="18" fill="#ff0000" fill-rule="evenodd" fill-opacity="0.7" stroke="#000000" stroke-opacity="0.7" stroke-width="3.2"/>
<circle clip-path="url(#clip842)" cx="602.883" cy="1445.72" r="18" fill="#ff0000" fill-rule="evenodd" fill-opacity="0.7" stroke="#000000" stroke-opacity="0.7" stroke-width="3.2"/>
<circle clip-path="url(#clip842)" cx="873.012" cy="1445.72" r="18" fill="#ff0000" fill-rule="evenodd" fill-opacity="0.7" stroke="#000000" stroke-opacity="0.7" stroke-width="3.2"/>
<circle clip-path="url(#clip842)" cx="880.977" cy="1445.72" r="18" fill="#ff0000" fill-rule="evenodd" fill-opacity="0.7" stroke="#000000" stroke-opacity="0.7" stroke-width="3.2"/>
<circle clip-path="url(#clip842)" cx="908.732" cy="1445.72" r="18" fill="#ff0000" fill-rule="evenodd" fill-opacity="0.7" stroke="#000000" stroke-opacity="0.7" stroke-width="3.2"/>
<circle clip-path="url(#clip842)" cx="616.958" cy="1445.72" r="18" fill="#ff0000" fill-rule="evenodd" fill-opacity="0.7" stroke="#000000" stroke-opacity="0.7" stroke-width="3.2"/>
<circle clip-path="url(#clip842)" cx="1044.77" cy="1445.72" r="18" fill="#ff0000" fill-rule="evenodd" fill-opacity="0.7" stroke="#000000" stroke-opacity="0.7" stroke-width="3.2"/>
<circle clip-path="url(#clip842)" cx="810.197" cy="1445.72" r="18" fill="#ff0000" fill-rule="evenodd" fill-opacity="0.7" stroke="#000000" stroke-opacity="0.7" stroke-width="3.2"/>
<circle clip-path="url(#clip842)" cx="759.789" cy="1445.72" r="18" fill="#ff0000" fill-rule="evenodd" fill-opacity="0.7" stroke="#000000" stroke-opacity="0.7" stroke-width="3.2"/>
<circle clip-path="url(#clip842)" cx="823.013" cy="1445.72" r="18" fill="#ff0000" fill-rule="evenodd" fill-opacity="0.7" stroke="#000000" stroke-opacity="0.7" stroke-width="3.2"/>
<circle clip-path="url(#clip842)" cx="720.533" cy="1445.72" r="18" fill="#ff0000" fill-rule="evenodd" fill-opacity="0.7" stroke="#000000" stroke-opacity="0.7" stroke-width="3.2"/>
<circle clip-path="url(#clip842)" cx="772.145" cy="1445.72" r="18" fill="#ff0000" fill-rule="evenodd" fill-opacity="0.7" stroke="#000000" stroke-opacity="0.7" stroke-width="3.2"/>
<circle clip-path="url(#clip842)" cx="441.545" cy="1445.72" r="18" fill="#ff0000" fill-rule="evenodd" fill-opacity="0.7" stroke="#000000" stroke-opacity="0.7" stroke-width="3.2"/>
<circle clip-path="url(#clip842)" cx="927.752" cy="1445.72" r="18" fill="#ff0000" fill-rule="evenodd" fill-opacity="0.7" stroke="#000000" stroke-opacity="0.7" stroke-width="3.2"/>
<circle clip-path="url(#clip842)" cx="827.689" cy="1445.72" r="18" fill="#ff0000" fill-rule="evenodd" fill-opacity="0.7" stroke="#000000" stroke-opacity="0.7" stroke-width="3.2"/>
<circle clip-path="url(#clip842)" cx="629.524" cy="1445.72" r="18" fill="#ff0000" fill-rule="evenodd" fill-opacity="0.7" stroke="#000000" stroke-opacity="0.7" stroke-width="3.2"/>
<circle clip-path="url(#clip842)" cx="942.902" cy="1445.72" r="18" fill="#ff0000" fill-rule="evenodd" fill-opacity="0.7" stroke="#000000" stroke-opacity="0.7" stroke-width="3.2"/>
<circle clip-path="url(#clip842)" cx="552.36" cy="1445.72" r="18" fill="#ff0000" fill-rule="evenodd" fill-opacity="0.7" stroke="#000000" stroke-opacity="0.7" stroke-width="3.2"/>
<circle clip-path="url(#clip842)" cx="710.163" cy="1445.72" r="18" fill="#ff0000" fill-rule="evenodd" fill-opacity="0.7" stroke="#000000" stroke-opacity="0.7" stroke-width="3.2"/>
<circle clip-path="url(#clip842)" cx="740.135" cy="1445.72" r="18" fill="#ff0000" fill-rule="evenodd" fill-opacity="0.7" stroke="#000000" stroke-opacity="0.7" stroke-width="3.2"/>
<circle clip-path="url(#clip842)" cx="544.354" cy="1445.72" r="18" fill="#ff0000" fill-rule="evenodd" fill-opacity="0.7" stroke="#000000" stroke-opacity="0.7" stroke-width="3.2"/>
<circle clip-path="url(#clip842)" cx="927.023" cy="1445.72" r="18" fill="#ff0000" fill-rule="evenodd" fill-opacity="0.7" stroke="#000000" stroke-opacity="0.7" stroke-width="3.2"/>
<circle clip-path="url(#clip842)" cx="858.976" cy="1445.72" r="18" fill="#ff0000" fill-rule="evenodd" fill-opacity="0.7" stroke="#000000" stroke-opacity="0.7" stroke-width="3.2"/>
<circle clip-path="url(#clip842)" cx="1003.14" cy="1445.72" r="18" fill="#ff0000" fill-rule="evenodd" fill-opacity="0.7" stroke="#000000" stroke-opacity="0.7" stroke-width="3.2"/>
<circle clip-path="url(#clip842)" cx="935.473" cy="1445.72" r="18" fill="#ff0000" fill-rule="evenodd" fill-opacity="0.7" stroke="#000000" stroke-opacity="0.7" stroke-width="3.2"/>
<circle clip-path="url(#clip842)" cx="980.512" cy="1445.72" r="18" fill="#ff0000" fill-rule="evenodd" fill-opacity="0.7" stroke="#000000" stroke-opacity="0.7" stroke-width="3.2"/>
<circle clip-path="url(#clip842)" cx="910.478" cy="1445.72" r="18" fill="#ff0000" fill-rule="evenodd" fill-opacity="0.7" stroke="#000000" stroke-opacity="0.7" stroke-width="3.2"/>
<circle clip-path="url(#clip842)" cx="663.195" cy="1445.72" r="18" fill="#ff0000" fill-rule="evenodd" fill-opacity="0.7" stroke="#000000" stroke-opacity="0.7" stroke-width="3.2"/>
<circle clip-path="url(#clip842)" cx="896.88" cy="1445.72" r="18" fill="#ff0000" fill-rule="evenodd" fill-opacity="0.7" stroke="#000000" stroke-opacity="0.7" stroke-width="3.2"/>
<circle clip-path="url(#clip842)" cx="875.17" cy="1445.72" r="18" fill="#ff0000" fill-rule="evenodd" fill-opacity="0.7" stroke="#000000" stroke-opacity="0.7" stroke-width="3.2"/>
<path clip-path="url(#clip840)" d="M1968.9 250.738 L2280.54 250.738 L2280.54 95.2176 L1968.9 95.2176  Z" fill="#ffffff" fill-rule="evenodd" fill-opacity="1"/>
<polyline clip-path="url(#clip840)" style="stroke:#000000; stroke-linecap:round; stroke-linejoin:round; stroke-width:4; stroke-opacity:1; fill:none" points="1968.9,250.738 2280.54,250.738 2280.54,95.2176 1968.9,95.2176 1968.9,250.738 "/>
<polyline clip-path="url(#clip840)" style="stroke:#009af9; stroke-linecap:round; stroke-linejoin:round; stroke-width:4; stroke-opacity:1; fill:none" points="1992.97,147.058 2137.4,147.058 "/>
<path clip-path="url(#clip840)" d="M2201.85 124.044 Q2201.85 124.723 2201.55 124.864 Q2201.27 125.004 2200.24 125.004 Q2198.48 125.004 2197.68 125.238 Q2196.91 125.449 2196.68 125.824 Q2196.47 126.175 2196.21 127.206 L2189.72 153.111 Q2189.72 153.135 2189.65 153.462 Q2189.58 153.767 2189.58 153.931 Q2189.58 154.235 2189.77 154.423 Q2189.98 154.61 2190.49 154.704 Q2191.01 154.774 2191.41 154.798 Q2191.83 154.798 2192.7 154.798 Q2193.77 154.798 2193.94 154.985 Q2194.03 155.102 2194.03 155.313 Q2194.03 155.758 2193.84 155.992 Q2193.68 156.203 2193.52 156.25 Q2193.37 156.273 2193.09 156.273 Q2192.6 156.273 2191.55 156.226 Q2190.49 156.179 2189.96 156.179 L2186.89 156.133 L2180.8 156.273 Q2180.14 156.273 2180.14 155.734 Q2180.14 155.266 2180.3 155.055 Q2180.47 154.844 2180.63 154.821 Q2180.82 154.798 2181.29 154.798 Q2183.7 154.798 2184.5 154.563 Q2185.32 154.306 2185.65 153.205 L2188.95 139.971 L2174.33 139.971 L2171.05 153.111 Q2171.05 153.135 2170.98 153.462 Q2170.91 153.767 2170.91 153.931 Q2170.91 154.235 2171.1 154.423 Q2171.31 154.61 2171.83 154.704 Q2172.34 154.774 2172.74 154.798 Q2173.16 154.798 2174.03 154.798 Q2175.11 154.798 2175.29 154.985 Q2175.39 155.102 2175.39 155.313 Q2175.39 155.641 2175.29 155.875 Q2175.22 156.086 2175.03 156.156 Q2174.87 156.226 2174.75 156.25 Q2174.64 156.273 2174.43 156.273 Q2173.93 156.273 2172.88 156.226 Q2171.85 156.179 2171.31 156.179 L2168.24 156.133 L2162.15 156.273 Q2161.47 156.273 2161.47 155.734 Q2161.47 155.266 2161.64 155.079 Q2161.8 154.868 2162.01 154.844 Q2162.22 154.798 2162.76 154.798 Q2163.93 154.798 2164.64 154.727 Q2165.34 154.657 2165.78 154.563 Q2166.25 154.446 2166.49 154.118 Q2166.74 153.79 2166.86 153.509 Q2166.98 153.205 2167.14 152.526 L2173.56 126.761 Q2173.75 125.988 2173.75 125.871 Q2173.75 125.426 2173.47 125.309 Q2173.21 125.168 2172.46 125.098 L2170.63 125.004 Q2170.07 125.004 2169.84 124.981 Q2169.62 124.957 2169.46 124.84 Q2169.3 124.723 2169.3 124.465 Q2169.3 124.138 2169.37 123.927 Q2169.46 123.693 2169.62 123.622 Q2169.79 123.552 2169.91 123.529 Q2170.02 123.505 2170.21 123.505 L2176.39 123.646 L2182.53 123.505 Q2183.21 123.505 2183.21 124.044 Q2183.21 124.723 2182.9 124.864 Q2182.6 125.004 2181.57 125.004 Q2179.86 125.004 2179.06 125.238 Q2178.27 125.449 2178.01 125.824 Q2177.78 126.199 2177.54 127.206 L2174.71 138.472 L2189.35 138.472 L2192.23 126.761 Q2192.41 125.918 2192.41 125.871 Q2192.41 125.426 2192.13 125.309 Q2191.88 125.168 2191.13 125.098 L2189.3 125.004 Q2188.74 125.004 2188.5 124.981 Q2188.29 124.957 2188.1 124.84 Q2187.94 124.723 2187.94 124.465 Q2187.94 124.138 2188.01 123.927 Q2188.1 123.693 2188.27 123.622 Q2188.43 123.552 2188.55 123.529 Q2188.67 123.505 2188.85 123.505 L2195.04 123.646 L2201.2 123.505 Q2201.85 123.505 2201.85 124.044 Z" fill="#000000" fill-rule="nonzero" fill-opacity="1" /><path clip-path="url(#clip840)" d="M2206.58 158.823 Q2206.58 153.888 2207.82 151.199 Q2209.56 147.198 2213.66 147.198 Q2214.53 147.198 2215.43 147.444 Q2216.35 147.674 2217.5 148.576 Q2218.66 149.477 2219.37 150.953 Q2220.71 153.806 2220.71 158.823 Q2220.71 163.725 2219.46 166.398 Q2217.64 170.3 2213.63 170.3 Q2212.12 170.3 2210.58 169.529 Q2209.05 168.759 2208.09 166.906 Q2206.58 164.135 2206.58 158.823 M2209.36 158.413 Q2209.36 163.479 2209.73 165.496 Q2210.14 167.677 2211.25 168.628 Q2212.38 169.562 2213.63 169.562 Q2214.97 169.562 2216.09 168.562 Q2217.22 167.546 2217.56 165.365 Q2217.94 163.217 2217.92 158.413 Q2217.92 153.74 2217.6 151.871 Q2217.15 149.691 2215.97 148.822 Q2214.81 147.936 2213.63 147.936 Q2213.19 147.936 2212.71 148.067 Q2212.25 148.199 2211.58 148.576 Q2210.91 148.953 2210.38 149.887 Q2209.87 150.822 2209.63 152.232 Q2209.36 154.052 2209.36 158.413 Z" fill="#000000" fill-rule="nonzero" fill-opacity="1" /><circle clip-path="url(#clip840)" cx="2065.19" cy="198.898" r="20.9455" fill="#ff0000" fill-rule="evenodd" fill-opacity="0.7" stroke="#000000" stroke-opacity="0.7" stroke-width="3.72364"/>
<path clip-path="url(#clip840)" d="M2161.47 197.937 Q2161.47 189.832 2164.49 183.297 Q2165.78 180.557 2167.59 178.262 Q2169.39 175.966 2170.58 174.959 Q2171.78 173.952 2172.11 173.952 Q2172.58 173.952 2172.6 174.42 Q2172.6 174.655 2171.97 175.24 Q2164.24 183.11 2164.26 197.937 Q2164.26 212.81 2171.78 220.375 Q2172.6 221.195 2172.6 221.453 Q2172.6 221.921 2172.11 221.921 Q2171.78 221.921 2170.63 220.961 Q2169.48 220 2167.7 217.799 Q2165.92 215.597 2164.64 212.903 Q2161.47 206.369 2161.47 197.937 Z" fill="#000000" fill-rule="nonzero" fill-opacity="1" /><path clip-path="url(#clip840)" d="M2219.43 177.7 Q2219.43 178.121 2219.26 178.355 Q2219.12 178.566 2218.96 178.613 Q2218.79 178.636 2218.37 178.66 Q2215.02 178.824 2212.28 181.096 Q2211.6 181.681 2209.89 183.508 Q2208.21 185.335 2205.96 187.771 Q2203.73 190.207 2202.44 191.519 L2208.63 206.322 Q2208.89 206.907 2208.98 207.165 Q2209.1 207.399 2209.33 207.704 Q2209.59 208.008 2209.78 208.102 Q2209.99 208.196 2210.43 208.313 Q2210.9 208.406 2211.37 208.43 Q2211.86 208.43 2212.75 208.453 Q2213.03 208.453 2213.15 208.477 Q2213.29 208.477 2213.45 208.617 Q2213.62 208.734 2213.62 209.015 Q2213.62 209.437 2213.43 209.671 Q2213.27 209.882 2213.1 209.905 Q2212.96 209.929 2212.7 209.929 Q2212.09 209.929 2210.03 209.859 Q2207.97 209.788 2207.39 209.788 L2201.34 209.929 Q2200.62 209.929 2200.62 209.343 Q2200.62 209.039 2200.66 208.875 Q2200.73 208.687 2200.9 208.617 Q2201.06 208.523 2201.18 208.5 Q2201.3 208.477 2201.58 208.453 Q2202.44 208.36 2203.1 208.102 Q2203.78 207.821 2204.06 207.54 Q2204.37 207.259 2204.37 207.048 L2204.13 206.369 L2199.28 194.915 L2194.95 199.623 L2190.05 204.799 Q2188.77 206.181 2188.77 206.954 Q2188.77 208.242 2190.69 208.453 Q2191.27 208.5 2191.27 208.968 Q2191.27 209.414 2191.08 209.648 Q2190.92 209.859 2190.76 209.905 Q2190.62 209.929 2190.41 209.929 Q2189.54 209.929 2187.71 209.859 Q2185.91 209.788 2185.02 209.788 Q2184.27 209.788 2182.75 209.859 Q2181.22 209.929 2180.52 209.929 Q2180.24 209.929 2180.08 209.788 Q2179.91 209.648 2179.91 209.507 L2179.89 209.39 Q2179.89 209.062 2179.94 208.875 Q2180.01 208.687 2180.19 208.594 Q2180.4 208.5 2180.5 208.5 Q2180.59 208.477 2180.94 208.453 Q2182.93 208.336 2184.62 207.563 Q2186.33 206.79 2187.99 204.987 Q2188.13 204.87 2188.3 204.729 Q2188.48 204.588 2188.63 204.471 L2198.74 193.58 L2193.08 180.182 Q2192.82 179.573 2192.58 179.316 Q2192.35 179.035 2191.62 178.847 Q2190.9 178.66 2189.49 178.66 Q2189.09 178.66 2188.91 178.636 Q2188.72 178.613 2188.56 178.496 Q2188.39 178.379 2188.39 178.121 Q2188.39 177.676 2188.56 177.465 Q2188.74 177.231 2188.88 177.208 Q2189.05 177.161 2189.26 177.161 Q2189.84 177.161 2191.93 177.231 Q2194.01 177.301 2194.62 177.301 Q2195.63 177.301 2197.64 177.231 Q2199.68 177.161 2200.66 177.161 Q2201.39 177.161 2201.39 177.746 Q2201.39 178.121 2201.23 178.332 Q2201.06 178.543 2200.9 178.59 Q2200.73 178.636 2200.43 178.66 Q2199.52 178.754 2198.81 179.058 Q2198.13 179.339 2197.85 179.62 Q2197.6 179.878 2197.6 180.042 L2197.83 180.674 L2201.86 190.207 L2209.64 181.869 Q2210.55 180.838 2210.55 180.135 Q2210.55 178.871 2208.63 178.66 Q2208.04 178.566 2208.04 178.121 Q2208.04 177.676 2208.23 177.465 Q2208.42 177.231 2208.56 177.208 Q2208.72 177.161 2208.96 177.161 Q2209.82 177.161 2211.6 177.231 Q2213.41 177.301 2214.3 177.301 Q2215.05 177.301 2216.57 177.231 Q2218.09 177.161 2218.79 177.161 Q2219.07 177.161 2219.24 177.301 Q2219.4 177.418 2219.4 177.559 L2219.43 177.7 Z" fill="#000000" fill-rule="nonzero" fill-opacity="1" /><path clip-path="url(#clip840)" d="M2232.72 202.133 Q2232.72 202.854 2232.13 203.395 Q2231.56 203.92 2230.94 203.92 Q2230.36 203.92 2230 203.576 Q2229.66 203.215 2229.66 202.707 Q2229.66 202.035 2230.23 201.477 Q2230.81 200.92 2231.48 200.92 Q2232.04 200.92 2232.38 201.264 Q2232.72 201.608 2232.72 202.133 M2233.02 218.315 Q2233.02 218.447 2232.87 218.971 Q2232.72 219.48 2232.36 220.267 Q2232.02 221.037 2231.54 221.759 Q2231.07 222.48 2230.28 222.988 Q2229.51 223.497 2228.63 223.497 Q2227.43 223.497 2226.64 222.71 Q2225.87 221.923 2225.87 220.742 Q2225.87 220.103 2226.64 218.053 Q2228.87 212.085 2228.95 211.839 Q2229.33 210.905 2229.33 210.085 Q2229.33 209.708 2229.25 209.478 Q2229.17 209.232 2229 209.15 Q2228.84 209.052 2228.74 209.036 Q2228.66 209.019 2228.49 209.019 Q2227.53 209.019 2226.63 210.003 Q2225.72 210.987 2225.1 213.184 Q2224.97 213.594 2224.89 213.692 Q2224.81 213.79 2224.56 213.79 Q2224.15 213.774 2224.15 213.446 Q2224.15 213.348 2224.26 212.97 Q2224.38 212.577 2224.59 211.987 Q2224.81 211.38 2225.18 210.757 Q2225.56 210.118 2226.02 209.56 Q2226.49 209.003 2227.17 208.642 Q2227.84 208.281 2228.59 208.281 Q2229.82 208.281 2230.58 209.085 Q2231.35 209.872 2231.35 211.036 Q2231.35 211.675 2230.9 212.807 Q2230.36 214.282 2230.17 214.758 L2228.86 218.283 Q2228.38 219.562 2228.23 219.955 Q2228.1 220.332 2227.99 220.791 Q2227.89 221.234 2227.89 221.644 Q2227.89 222.218 2228.07 222.48 Q2228.26 222.742 2228.69 222.742 Q2229.87 222.742 2230.74 221.578 Q2231.61 220.398 2232.12 218.594 Q2232.13 218.545 2232.15 218.463 Q2232.28 218.053 2232.41 218.004 Q2232.48 217.988 2232.61 217.988 Q2233.02 217.988 2233.02 218.315 Z" fill="#000000" fill-rule="nonzero" fill-opacity="1" /><path clip-path="url(#clip840)" d="M2238.05 221.453 Q2238.05 221.218 2238.66 220.633 Q2246.39 212.763 2246.39 197.937 Q2246.39 183.063 2238.97 175.545 Q2238.05 174.678 2238.05 174.42 Q2238.05 173.952 2238.52 173.952 Q2238.85 173.952 2240 174.912 Q2241.17 175.873 2242.92 178.074 Q2244.7 180.276 2246.02 182.97 Q2249.18 189.504 2249.18 197.937 Q2249.18 206.041 2246.16 212.576 Q2244.87 215.316 2243.06 217.611 Q2241.26 219.907 2240.07 220.914 Q2238.87 221.921 2238.52 221.921 Q2238.05 221.921 2238.05 221.453 Z" fill="#000000" fill-rule="nonzero" fill-opacity="1" /></svg>
