<?xml version="1.0" encoding="utf-8"?>
<svg xmlns="http://www.w3.org/2000/svg" xmlns:xlink="http://www.w3.org/1999/xlink" width="600" height="400" viewBox="0 0 2400 1600">
<defs>
  <clipPath id="clip320">
    <rect x="0" y="0" width="2400" height="1600"/>
  </clipPath>
</defs>
<path clip-path="url(#clip320)" d="M0 1600 L2400 1600 L2400 0 L0 0  Z" fill="#ffffff" fill-rule="evenodd" fill-opacity="1"/>
<defs>
  <clipPath id="clip321">
    <rect x="480" y="0" width="1681" height="1600"/>
  </clipPath>
</defs>
<path clip-path="url(#clip320)" d="M156.598 1486.45 L2352.76 1486.45 L2352.76 47.2441 L156.598 47.2441  Z" fill="#ffffff" fill-rule="evenodd" fill-opacity="1"/>
<defs>
  <clipPath id="clip322">
    <rect x="156" y="47" width="2197" height="1440"/>
  </clipPath>
</defs>
<polyline clip-path="url(#clip322)" style="stroke:#000000; stroke-linecap:round; stroke-linejoin:round; stroke-width:2; stroke-opacity:0.1; fill:none" points="175.59,1486.45 175.59,47.2441 "/>
<polyline clip-path="url(#clip322)" style="stroke:#000000; stroke-linecap:round; stroke-linejoin:round; stroke-width:2; stroke-opacity:0.1; fill:none" points="607.225,1486.45 607.225,47.2441 "/>
<polyline clip-path="url(#clip322)" style="stroke:#000000; stroke-linecap:round; stroke-linejoin:round; stroke-width:2; stroke-opacity:0.1; fill:none" points="1038.86,1486.45 1038.86,47.2441 "/>
<polyline clip-path="url(#clip322)" style="stroke:#000000; stroke-linecap:round; stroke-linejoin:round; stroke-width:2; stroke-opacity:0.1; fill:none" points="1470.49,1486.45 1470.49,47.2441 "/>
<polyline clip-path="url(#clip322)" style="stroke:#000000; stroke-linecap:round; stroke-linejoin:round; stroke-width:2; stroke-opacity:0.1; fill:none" points="1902.13,1486.45 1902.13,47.2441 "/>
<polyline clip-path="url(#clip322)" style="stroke:#000000; stroke-linecap:round; stroke-linejoin:round; stroke-width:2; stroke-opacity:0.1; fill:none" points="2333.76,1486.45 2333.76,47.2441 "/>
<polyline clip-path="url(#clip322)" style="stroke:#000000; stroke-linecap:round; stroke-linejoin:round; stroke-width:2; stroke-opacity:0.1; fill:none" points="156.598,1460.97 2352.76,1460.97 "/>
<polyline clip-path="url(#clip322)" style="stroke:#000000; stroke-linecap:round; stroke-linejoin:round; stroke-width:2; stroke-opacity:0.1; fill:none" points="156.598,1185.64 2352.76,1185.64 "/>
<polyline clip-path="url(#clip322)" style="stroke:#000000; stroke-linecap:round; stroke-linejoin:round; stroke-width:2; stroke-opacity:0.1; fill:none" points="156.598,910.315 2352.76,910.315 "/>
<polyline clip-path="url(#clip322)" style="stroke:#000000; stroke-linecap:round; stroke-linejoin:round; stroke-width:2; stroke-opacity:0.1; fill:none" points="156.598,634.989 2352.76,634.989 "/>
<polyline clip-path="url(#clip322)" style="stroke:#000000; stroke-linecap:round; stroke-linejoin:round; stroke-width:2; stroke-opacity:0.1; fill:none" points="156.598,359.662 2352.76,359.662 "/>
<polyline clip-path="url(#clip322)" style="stroke:#000000; stroke-linecap:round; stroke-linejoin:round; stroke-width:2; stroke-opacity:0.1; fill:none" points="156.598,84.336 2352.76,84.336 "/>
<polyline clip-path="url(#clip320)" style="stroke:#000000; stroke-linecap:round; stroke-linejoin:round; stroke-width:4; stroke-opacity:1; fill:none" points="156.598,1486.45 2352.76,1486.45 "/>
<polyline clip-path="url(#clip320)" style="stroke:#000000; stroke-linecap:round; stroke-linejoin:round; stroke-width:4; stroke-opacity:1; fill:none" points="175.59,1486.45 175.59,1467.55 "/>
<polyline clip-path="url(#clip320)" style="stroke:#000000; stroke-linecap:round; stroke-linejoin:round; stroke-width:4; stroke-opacity:1; fill:none" points="607.225,1486.45 607.225,1467.55 "/>
<polyline clip-path="url(#clip320)" style="stroke:#000000; stroke-linecap:round; stroke-linejoin:round; stroke-width:4; stroke-opacity:1; fill:none" points="1038.86,1486.45 1038.86,1467.55 "/>
<polyline clip-path="url(#clip320)" style="stroke:#000000; stroke-linecap:round; stroke-linejoin:round; stroke-width:4; stroke-opacity:1; fill:none" points="1470.49,1486.45 1470.49,1467.55 "/>
<polyline clip-path="url(#clip320)" style="stroke:#000000; stroke-linecap:round; stroke-linejoin:round; stroke-width:4; stroke-opacity:1; fill:none" points="1902.13,1486.45 1902.13,1467.55 "/>
<polyline clip-path="url(#clip320)" style="stroke:#000000; stroke-linecap:round; stroke-linejoin:round; stroke-width:4; stroke-opacity:1; fill:none" points="2333.76,1486.45 2333.76,1467.55 "/>
<path clip-path="url(#clip320)" d="M145.347 1532.02 L175.023 1532.02 L175.023 1535.95 L145.347 1535.95 L145.347 1532.02 Z" fill="#000000" fill-rule="nonzero" fill-opacity="1" /><path clip-path="url(#clip320)" d="M185.926 1544.91 L193.565 1544.91 L193.565 1518.55 L185.254 1520.21 L185.254 1515.95 L193.518 1514.29 L198.194 1514.29 L198.194 1544.91 L205.833 1544.91 L205.833 1548.85 L185.926 1548.85 L185.926 1544.91 Z" fill="#000000" fill-rule="nonzero" fill-opacity="1" /><path clip-path="url(#clip320)" d="M607.225 1517.37 Q603.614 1517.37 601.785 1520.93 Q599.98 1524.47 599.98 1531.6 Q599.98 1538.71 601.785 1542.27 Q603.614 1545.82 607.225 1545.82 Q610.859 1545.82 612.665 1542.27 Q614.493 1538.71 614.493 1531.6 Q614.493 1524.47 612.665 1520.93 Q610.859 1517.37 607.225 1517.37 M607.225 1513.66 Q613.035 1513.66 616.091 1518.27 Q619.169 1522.85 619.169 1531.6 Q619.169 1540.33 616.091 1544.94 Q613.035 1549.52 607.225 1549.52 Q601.415 1549.52 598.336 1544.94 Q595.281 1540.33 595.281 1531.6 Q595.281 1522.85 598.336 1518.27 Q601.415 1513.66 607.225 1513.66 Z" fill="#000000" fill-rule="nonzero" fill-opacity="1" /><path clip-path="url(#clip320)" d="M1029.24 1544.91 L1036.88 1544.91 L1036.88 1518.55 L1028.57 1520.21 L1028.57 1515.95 L1036.83 1514.29 L1041.51 1514.29 L1041.51 1544.91 L1049.15 1544.91 L1049.15 1548.85 L1029.24 1548.85 L1029.24 1544.91 Z" fill="#000000" fill-rule="nonzero" fill-opacity="1" /><path clip-path="url(#clip320)" d="M1465.15 1544.91 L1481.47 1544.91 L1481.47 1548.85 L1459.52 1548.85 L1459.52 1544.91 Q1462.18 1542.16 1466.77 1537.53 Q1471.37 1532.88 1472.55 1531.53 Q1474.8 1529.01 1475.68 1527.27 Q1476.58 1525.51 1476.58 1523.82 Q1476.58 1521.07 1474.64 1519.33 Q1472.72 1517.6 1469.61 1517.6 Q1467.42 1517.6 1464.96 1518.36 Q1462.53 1519.13 1459.75 1520.68 L1459.75 1515.95 Q1462.58 1514.82 1465.03 1514.24 Q1467.49 1513.66 1469.52 1513.66 Q1474.89 1513.66 1478.09 1516.35 Q1481.28 1519.03 1481.28 1523.52 Q1481.28 1525.65 1480.47 1527.57 Q1479.68 1529.47 1477.58 1532.07 Q1477 1532.74 1473.9 1535.95 Q1470.8 1539.15 1465.15 1544.91 Z" fill="#000000" fill-rule="nonzero" fill-opacity="1" /><path clip-path="url(#clip320)" d="M1906.38 1530.21 Q1909.73 1530.93 1911.61 1533.2 Q1913.51 1535.47 1913.51 1538.8 Q1913.51 1543.92 1909.99 1546.72 Q1906.47 1549.52 1899.99 1549.52 Q1897.81 1549.52 1895.5 1549.08 Q1893.21 1548.66 1890.75 1547.81 L1890.75 1543.29 Q1892.7 1544.43 1895.01 1545.01 Q1897.33 1545.58 1899.85 1545.58 Q1904.25 1545.58 1906.54 1543.85 Q1908.85 1542.11 1908.85 1538.8 Q1908.85 1535.75 1906.7 1534.03 Q1904.57 1532.3 1900.75 1532.3 L1896.72 1532.3 L1896.72 1528.45 L1900.94 1528.45 Q1904.39 1528.45 1906.21 1527.09 Q1908.04 1525.7 1908.04 1523.11 Q1908.04 1520.45 1906.15 1519.03 Q1904.27 1517.6 1900.75 1517.6 Q1898.83 1517.6 1896.63 1518.01 Q1894.43 1518.43 1891.79 1519.31 L1891.79 1515.14 Q1894.46 1514.4 1896.77 1514.03 Q1899.11 1513.66 1901.17 1513.66 Q1906.49 1513.66 1909.59 1516.09 Q1912.7 1518.5 1912.7 1522.62 Q1912.7 1525.49 1911.05 1527.48 Q1909.41 1529.45 1906.38 1530.21 Z" fill="#000000" fill-rule="nonzero" fill-opacity="1" /><path clip-path="url(#clip320)" d="M2336.77 1518.36 L2324.97 1536.81 L2336.77 1536.81 L2336.77 1518.36 M2335.55 1514.29 L2341.43 1514.29 L2341.43 1536.81 L2346.36 1536.81 L2346.36 1540.7 L2341.43 1540.7 L2341.43 1548.85 L2336.77 1548.85 L2336.77 1540.7 L2321.17 1540.7 L2321.17 1536.19 L2335.55 1514.29 Z" fill="#000000" fill-rule="nonzero" fill-opacity="1" /><polyline clip-path="url(#clip320)" style="stroke:#000000; stroke-linecap:round; stroke-linejoin:round; stroke-width:4; stroke-opacity:1; fill:none" points="156.598,1486.45 156.598,47.2441 "/>
<polyline clip-path="url(#clip320)" style="stroke:#000000; stroke-linecap:round; stroke-linejoin:round; stroke-width:4; stroke-opacity:1; fill:none" points="156.598,1460.97 175.496,1460.97 "/>
<polyline clip-path="url(#clip320)" style="stroke:#000000; stroke-linecap:round; stroke-linejoin:round; stroke-width:4; stroke-opacity:1; fill:none" points="156.598,1185.64 175.496,1185.64 "/>
<polyline clip-path="url(#clip320)" style="stroke:#000000; stroke-linecap:round; stroke-linejoin:round; stroke-width:4; stroke-opacity:1; fill:none" points="156.598,910.315 175.496,910.315 "/>
<polyline clip-path="url(#clip320)" style="stroke:#000000; stroke-linecap:round; stroke-linejoin:round; stroke-width:4; stroke-opacity:1; fill:none" points="156.598,634.989 175.496,634.989 "/>
<polyline clip-path="url(#clip320)" style="stroke:#000000; stroke-linecap:round; stroke-linejoin:round; stroke-width:4; stroke-opacity:1; fill:none" points="156.598,359.662 175.496,359.662 "/>
<polyline clip-path="url(#clip320)" style="stroke:#000000; stroke-linecap:round; stroke-linejoin:round; stroke-width:4; stroke-opacity:1; fill:none" points="156.598,84.336 175.496,84.336 "/>
<path clip-path="url(#clip320)" d="M63.4226 1446.77 Q59.8115 1446.77 57.9828 1450.33 Q56.1773 1453.87 56.1773 1461 Q56.1773 1468.11 57.9828 1471.67 Q59.8115 1475.22 63.4226 1475.22 Q67.0569 1475.22 68.8624 1471.67 Q70.6911 1468.11 70.6911 1461 Q70.6911 1453.87 68.8624 1450.33 Q67.0569 1446.77 63.4226 1446.77 M63.4226 1443.06 Q69.2328 1443.06 72.2883 1447.67 Q75.367 1452.25 75.367 1461 Q75.367 1469.73 72.2883 1474.34 Q69.2328 1478.92 63.4226 1478.92 Q57.6125 1478.92 54.5338 1474.34 Q51.4782 1469.73 51.4782 1461 Q51.4782 1452.25 54.5338 1447.67 Q57.6125 1443.06 63.4226 1443.06 Z" fill="#000000" fill-rule="nonzero" fill-opacity="1" /><path clip-path="url(#clip320)" d="M83.5845 1472.37 L88.4688 1472.37 L88.4688 1478.25 L83.5845 1478.25 L83.5845 1472.37 Z" fill="#000000" fill-rule="nonzero" fill-opacity="1" /><path clip-path="url(#clip320)" d="M108.654 1446.77 Q105.043 1446.77 103.214 1450.33 Q101.409 1453.87 101.409 1461 Q101.409 1468.11 103.214 1471.67 Q105.043 1475.22 108.654 1475.22 Q112.288 1475.22 114.094 1471.67 Q115.922 1468.11 115.922 1461 Q115.922 1453.87 114.094 1450.33 Q112.288 1446.77 108.654 1446.77 M108.654 1443.06 Q114.464 1443.06 117.52 1447.67 Q120.598 1452.25 120.598 1461 Q120.598 1469.73 117.52 1474.34 Q114.464 1478.92 108.654 1478.92 Q102.844 1478.92 99.765 1474.34 Q96.7095 1469.73 96.7095 1461 Q96.7095 1452.25 99.765 1447.67 Q102.844 1443.06 108.654 1443.06 Z" fill="#000000" fill-rule="nonzero" fill-opacity="1" /><path clip-path="url(#clip320)" d="M64.6495 1171.44 Q61.0384 1171.44 59.2097 1175.01 Q57.4041 1178.55 57.4041 1185.68 Q57.4041 1192.78 59.2097 1196.35 Q61.0384 1199.89 64.6495 1199.89 Q68.2837 1199.89 70.0892 1196.35 Q71.9179 1192.78 71.9179 1185.68 Q71.9179 1178.55 70.0892 1175.01 Q68.2837 1171.44 64.6495 1171.44 M64.6495 1167.74 Q70.4596 1167.74 73.5152 1172.34 Q76.5938 1176.93 76.5938 1185.68 Q76.5938 1194.4 73.5152 1199.01 Q70.4596 1203.59 64.6495 1203.59 Q58.8393 1203.59 55.7606 1199.01 Q52.7051 1194.4 52.7051 1185.68 Q52.7051 1176.93 55.7606 1172.34 Q58.8393 1167.74 64.6495 1167.74 Z" fill="#000000" fill-rule="nonzero" fill-opacity="1" /><path clip-path="url(#clip320)" d="M84.8114 1197.04 L89.6956 1197.04 L89.6956 1202.92 L84.8114 1202.92 L84.8114 1197.04 Z" fill="#000000" fill-rule="nonzero" fill-opacity="1" /><path clip-path="url(#clip320)" d="M100.691 1198.99 L108.33 1198.99 L108.33 1172.62 L100.02 1174.29 L100.02 1170.03 L108.283 1168.36 L112.959 1168.36 L112.959 1198.99 L120.598 1198.99 L120.598 1202.92 L100.691 1202.92 L100.691 1198.99 Z" fill="#000000" fill-rule="nonzero" fill-opacity="1" /><path clip-path="url(#clip320)" d="M65.0198 896.114 Q61.4087 896.114 59.58 899.679 Q57.7745 903.221 57.7745 910.35 Q57.7745 917.457 59.58 921.021 Q61.4087 924.563 65.0198 924.563 Q68.6541 924.563 70.4596 921.021 Q72.2883 917.457 72.2883 910.35 Q72.2883 903.221 70.4596 899.679 Q68.6541 896.114 65.0198 896.114 M65.0198 892.41 Q70.83 892.41 73.8855 897.017 Q76.9642 901.6 76.9642 910.35 Q76.9642 919.077 73.8855 923.683 Q70.83 928.267 65.0198 928.267 Q59.2097 928.267 56.131 923.683 Q53.0754 919.077 53.0754 910.35 Q53.0754 901.6 56.131 897.017 Q59.2097 892.41 65.0198 892.41 Z" fill="#000000" fill-rule="nonzero" fill-opacity="1" /><path clip-path="url(#clip320)" d="M85.1818 921.716 L90.066 921.716 L90.066 927.595 L85.1818 927.595 L85.1818 921.716 Z" fill="#000000" fill-rule="nonzero" fill-opacity="1" /><path clip-path="url(#clip320)" d="M104.279 923.66 L120.598 923.66 L120.598 927.595 L98.6539 927.595 L98.6539 923.66 Q101.316 920.906 105.899 916.276 Q110.506 911.623 111.686 910.281 Q113.932 907.758 114.811 906.021 Q115.714 904.262 115.714 902.572 Q115.714 899.818 113.77 898.082 Q111.848 896.346 108.746 896.346 Q106.547 896.346 104.094 897.109 Q101.663 897.873 98.8854 899.424 L98.8854 894.702 Q101.709 893.568 104.163 892.989 Q106.617 892.41 108.654 892.41 Q114.024 892.41 117.219 895.096 Q120.413 897.781 120.413 902.271 Q120.413 904.401 119.603 906.322 Q118.816 908.22 116.709 910.813 Q116.131 911.484 113.029 914.702 Q109.927 917.896 104.279 923.66 Z" fill="#000000" fill-rule="nonzero" fill-opacity="1" /><path clip-path="url(#clip320)" d="M64.0708 620.788 Q60.4597 620.788 58.631 624.352 Q56.8254 627.894 56.8254 635.024 Q56.8254 642.13 58.631 645.695 Q60.4597 649.237 64.0708 649.237 Q67.705 649.237 69.5105 645.695 Q71.3392 642.13 71.3392 635.024 Q71.3392 627.894 69.5105 624.352 Q67.705 620.788 64.0708 620.788 M64.0708 617.084 Q69.8809 617.084 72.9365 621.69 Q76.0151 626.274 76.0151 635.024 Q76.0151 643.75 72.9365 648.357 Q69.8809 652.94 64.0708 652.94 Q58.2606 652.94 55.1819 648.357 Q52.1264 643.75 52.1264 635.024 Q52.1264 626.274 55.1819 621.69 Q58.2606 617.084 64.0708 617.084 Z" fill="#000000" fill-rule="nonzero" fill-opacity="1" /><path clip-path="url(#clip320)" d="M84.2327 646.389 L89.1169 646.389 L89.1169 652.269 L84.2327 652.269 L84.2327 646.389 Z" fill="#000000" fill-rule="nonzero" fill-opacity="1" /><path clip-path="url(#clip320)" d="M113.469 633.635 Q116.825 634.352 118.7 636.621 Q120.598 638.889 120.598 642.223 Q120.598 647.338 117.08 650.139 Q113.561 652.94 107.08 652.94 Q104.904 652.94 102.589 652.5 Q100.297 652.084 97.8437 651.227 L97.8437 646.713 Q99.7882 647.848 102.103 648.426 Q104.418 649.005 106.941 649.005 Q111.339 649.005 113.631 647.269 Q115.945 645.533 115.945 642.223 Q115.945 639.167 113.793 637.454 Q111.663 635.718 107.844 635.718 L103.816 635.718 L103.816 631.876 L108.029 631.876 Q111.478 631.876 113.307 630.51 Q115.135 629.121 115.135 626.528 Q115.135 623.866 113.237 622.454 Q111.362 621.019 107.844 621.019 Q105.922 621.019 103.723 621.436 Q101.524 621.852 98.8854 622.732 L98.8854 618.565 Q101.547 617.825 103.862 617.454 Q106.2 617.084 108.26 617.084 Q113.584 617.084 116.686 619.514 Q119.788 621.922 119.788 626.042 Q119.788 628.913 118.145 630.903 Q116.501 632.871 113.469 633.635 Z" fill="#000000" fill-rule="nonzero" fill-opacity="1" /><path clip-path="url(#clip320)" d="M62.9365 345.461 Q59.3254 345.461 57.4967 349.026 Q55.6912 352.568 55.6912 359.697 Q55.6912 366.804 57.4967 370.368 Q59.3254 373.91 62.9365 373.91 Q66.5707 373.91 68.3763 370.368 Q70.205 366.804 70.205 359.697 Q70.205 352.568 68.3763 349.026 Q66.5707 345.461 62.9365 345.461 M62.9365 341.757 Q68.7467 341.757 71.8022 346.364 Q74.8809 350.947 74.8809 359.697 Q74.8809 368.424 71.8022 373.03 Q68.7467 377.614 62.9365 377.614 Q57.1264 377.614 54.0477 373.03 Q50.9921 368.424 50.9921 359.697 Q50.9921 350.947 54.0477 346.364 Q57.1264 341.757 62.9365 341.757 Z" fill="#000000" fill-rule="nonzero" fill-opacity="1" /><path clip-path="url(#clip320)" d="M83.0984 371.063 L87.9827 371.063 L87.9827 376.942 L83.0984 376.942 L83.0984 371.063 Z" fill="#000000" fill-rule="nonzero" fill-opacity="1" /><path clip-path="url(#clip320)" d="M111.015 346.457 L99.2095 364.906 L111.015 364.906 L111.015 346.457 M109.788 342.382 L115.668 342.382 L115.668 364.906 L120.598 364.906 L120.598 368.794 L115.668 368.794 L115.668 376.942 L111.015 376.942 L111.015 368.794 L95.4132 368.794 L95.4132 364.281 L109.788 342.382 Z" fill="#000000" fill-rule="nonzero" fill-opacity="1" /><path clip-path="url(#clip320)" d="M64.418 70.1347 Q60.8069 70.1347 58.9782 73.6995 Q57.1726 77.2412 57.1726 84.3708 Q57.1726 91.4772 58.9782 95.042 Q60.8069 98.5837 64.418 98.5837 Q68.0522 98.5837 69.8578 95.042 Q71.6865 91.4772 71.6865 84.3708 Q71.6865 77.2412 69.8578 73.6995 Q68.0522 70.1347 64.418 70.1347 M64.418 66.4311 Q70.2281 66.4311 73.2837 71.0375 Q76.3624 75.6208 76.3624 84.3708 Q76.3624 93.0976 73.2837 97.704 Q70.2281 102.287 64.418 102.287 Q58.6078 102.287 55.5291 97.704 Q52.4736 93.0976 52.4736 84.3708 Q52.4736 75.6208 55.5291 71.0375 Q58.6078 66.4311 64.418 66.4311 Z" fill="#000000" fill-rule="nonzero" fill-opacity="1" /><path clip-path="url(#clip320)" d="M84.5799 95.7365 L89.4641 95.7365 L89.4641 101.616 L84.5799 101.616 L84.5799 95.7365 Z" fill="#000000" fill-rule="nonzero" fill-opacity="1" /><path clip-path="url(#clip320)" d="M99.6956 67.056 L118.052 67.056 L118.052 70.9912 L103.978 70.9912 L103.978 79.4634 Q104.996 79.1162 106.015 78.9541 Q107.033 78.7689 108.052 78.7689 Q113.839 78.7689 117.219 81.9402 Q120.598 85.1115 120.598 90.5281 Q120.598 96.1068 117.126 99.2087 Q113.654 102.287 107.334 102.287 Q105.159 102.287 102.89 101.917 Q100.645 101.547 98.2372 100.806 L98.2372 96.1068 Q100.321 97.2411 102.543 97.7966 Q104.765 98.3522 107.242 98.3522 Q111.246 98.3522 113.584 96.2457 Q115.922 94.1392 115.922 90.5281 Q115.922 86.9171 113.584 84.8106 Q111.246 82.7041 107.242 82.7041 Q105.367 82.7041 103.492 83.1208 Q101.64 83.5374 99.6956 84.4171 L99.6956 67.056 Z" fill="#000000" fill-rule="nonzero" fill-opacity="1" /><polyline clip-path="url(#clip322)" style="stroke:#009af9; stroke-linecap:round; stroke-linejoin:round; stroke-width:4; stroke-opacity:1; fill:none" points="218.754,1445.72 222.207,1445.25 225.66,1444.78 229.113,1444.29 232.566,1443.78 236.019,1443.27 239.472,1442.74 242.925,1442.2 246.378,1441.64 249.831,1441.07 253.284,1440.48 256.737,1439.88 260.191,1439.26 263.644,1438.63 267.097,1437.98 270.55,1437.32 274.003,1436.63 277.456,1435.93 280.909,1435.22 284.362,1434.48 287.815,1433.73 291.268,1432.95 294.721,1432.16 298.174,1431.35 301.628,1430.52 305.081,1429.67 308.534,1428.8 311.987,1427.91 315.44,1427 318.893,1426.06 322.346,1425.1 325.799,1424.12 329.252,1423.12 332.705,1422.1 336.158,1421.05 339.611,1419.97 343.064,1418.87 346.518,1417.75 349.971,1416.6 353.424,1415.42 356.877,1414.22 360.33,1412.99 363.783,1411.74 367.236,1410.45 370.689,1409.14 374.142,1407.8 377.595,1406.43 381.048,1405.03 384.501,1403.6 387.954,1402.14 391.408,1400.64 394.861,1399.12 398.314,1397.56 401.767,1395.97 405.22,1394.35 408.673,1392.7 412.126,1391.01 415.579,1389.28 419.032,1387.52 422.485,1385.73 425.938,1383.9 429.391,1382.03 432.844,1380.12 436.298,1378.18 439.751,1376.2 443.204,1374.18 446.657,1372.12 450.11,1370.02 453.563,1367.88 457.016,1365.7 460.469,1363.48 463.922,1361.22 467.375,1358.91 470.828,1356.56 474.281,1354.17 477.734,1351.73 481.188,1349.25 484.641,1346.73 488.094,1344.16 491.547,1341.54 495,1338.88 498.453,1336.17 501.906,1333.41 505.359,1330.61 508.812,1327.76 512.265,1324.85 515.718,1321.9 519.171,1318.9 522.625,1315.85 526.078,1312.75 529.531,1309.6 532.984,1306.39 536.437,1303.13 539.89,1299.82 543.343,1296.46 546.796,1293.05 550.249,1289.58 553.702,1286.05 557.155,1282.48 560.608,1278.84 564.061,1275.15 567.515,1271.41 570.968,1267.61 574.421,1263.75 577.874,1259.84 581.327,1255.87 584.78,1251.84 588.233,1247.75 591.686,1243.61 595.139,1239.41 598.592,1235.15 602.045,1230.83 605.498,1226.45 608.951,1222.01 612.405,1217.51 615.858,1212.95 619.311,1208.33 622.764,1203.65 626.217,1198.92 629.67,1194.12 633.123,1189.25 636.576,1184.33 640.029,1179.35 643.482,1174.31 646.935,1169.2 650.388,1164.04 653.841,1158.81 657.295,1153.52 660.748,1148.17 664.201,1142.76 667.654,1137.29 671.107,1131.76 674.56,1126.16 678.013,1120.51 681.466,1114.79 684.919,1109.02 688.372,1103.18 691.825,1097.28 695.278,1091.32 698.731,1085.3 702.185,1079.23 705.638,1073.09 709.091,1066.89 712.544,1060.63 715.997,1054.32 719.45,1047.95 722.903,1041.52 726.356,1035.03 729.809,1028.48 733.262,1021.88 736.715,1015.22 740.168,1008.51 743.622,1001.74 747.075,994.916 750.528,988.038 753.981,981.107 757.434,974.122 760.887,967.086 764.34,959.998 767.793,952.858 771.246,945.669 774.699,938.43 778.152,931.143 781.605,923.807 785.058,916.425 788.512,908.996 791.965,901.522 795.418,894.003 798.871,886.441 802.324,878.836 805.777,871.189 809.23,863.502 812.683,855.775 816.136,848.01 819.589,840.206 823.042,832.367 826.495,824.492 829.948,816.582 833.402,808.64 836.855,800.666 840.308,792.661 843.761,784.627 847.214,776.565 850.667,768.476 854.12,760.361 857.573,752.222 861.026,744.06 864.479,735.877 867.932,727.674 871.385,719.452 874.838,711.212 878.292,702.958 881.745,694.688 885.198,686.406 888.651,678.113 892.104,669.81 895.557,661.499 899.01,653.182 902.463,644.86 905.916,636.534 909.369,628.207 912.822,619.879 916.275,611.554 919.728,603.231 923.182,594.914 926.635,586.604 930.088,578.302 933.541,570.01 936.994,561.73 940.447,553.465 943.9,545.214 947.353,536.982 950.806,528.768 954.259,520.576 957.712,512.406 961.165,504.261 964.619,496.142 968.072,488.052 971.525,479.993 974.978,471.965 978.431,463.971 981.884,456.014 985.337,448.094 988.79,440.214 992.243,432.375 995.696,424.58 999.149,416.83 1002.6,409.127 1006.06,401.473 1009.51,393.871 1012.96,386.321 1016.41,378.826 1019.87,371.388 1023.32,364.009 1026.77,356.69 1030.23,349.433 1033.68,342.24 1037.13,335.114 1040.59,328.055 1044.04,321.066 1047.49,314.149 1050.95,307.305 1054.4,300.536 1057.85,293.845 1061.3,287.232 1064.76,280.699 1068.21,274.249 1071.66,267.883 1075.12,261.603 1078.57,255.411 1082.02,249.307 1085.48,243.294 1088.93,237.374 1092.38,231.549 1095.84,225.818 1099.29,220.186 1102.74,214.652 1106.19,209.219 1109.65,203.887 1113.1,198.66 1116.55,193.537 1120.01,188.521 1123.46,183.612 1126.91,178.813 1130.37,174.125 1133.82,169.548 1137.27,165.085 1140.73,160.737 1144.18,156.504 1147.63,152.389 1151.08,148.391 1154.54,144.514 1157.99,140.756 1161.44,137.121 1164.9,133.608 1168.35,130.219 1171.8,126.954 1175.26,123.816 1178.71,120.804 1182.16,117.919 1185.62,115.163 1189.07,112.536 1192.52,110.04 1195.97,107.673 1199.43,105.439 1202.88,103.336 1206.33,101.366 1209.79,99.5292 1213.24,97.8263 1216.69,96.2578 1220.15,94.8241 1223.6,93.5256 1227.05,92.3628 1230.51,91.336 1233.96,90.4454 1237.41,89.6914 1240.86,89.0742 1244.32,88.594 1247.77,88.2508 1251.22,88.0449 1254.68,87.9763 1258.13,88.0449 1261.58,88.2508 1265.04,88.594 1268.49,89.0742 1271.94,89.6914 1275.4,90.4454 1278.85,91.336 1282.3,92.3628 1285.75,93.5256 1289.21,94.8241 1292.66,96.2578 1296.11,97.8263 1299.57,99.5292 1303.02,101.366 1306.47,103.336 1309.93,105.439 1313.38,107.673 1316.83,110.04 1320.29,112.536 1323.74,115.163 1327.19,117.919 1330.64,120.804 1334.1,123.816 1337.55,126.954 1341,130.219 1344.46,133.608 1347.91,137.121 1351.36,140.756 1354.82,144.514 1358.27,148.391 1361.72,152.389 1365.18,156.504 1368.63,160.737 1372.08,165.085 1375.53,169.548 1378.99,174.125 1382.44,178.813 1385.89,183.612 1389.35,188.521 1392.8,193.537 1396.25,198.66 1399.71,203.887 1403.16,209.219 1406.61,214.652 1410.07,220.186 1413.52,225.818 1416.97,231.549 1420.42,237.374 1423.88,243.294 1427.33,249.307 1430.78,255.411 1434.24,261.603 1437.69,267.883 1441.14,274.249 1444.6,280.699 1448.05,287.232 1451.5,293.845 1454.96,300.536 1458.41,307.305 1461.86,314.149 1465.31,321.066 1468.77,328.055 1472.22,335.114 1475.67,342.24 1479.13,349.433 1482.58,356.69 1486.03,364.009 1489.49,371.388 1492.94,378.826 1496.39,386.321 1499.85,393.871 1503.3,401.473 1506.75,409.127 1510.2,416.83 1513.66,424.58 1517.11,432.375 1520.56,440.214 1524.02,448.094 1527.47,456.014 1530.92,463.971 1534.38,471.965 1537.83,479.993 1541.28,488.052 1544.74,496.142 1548.19,504.261 1551.64,512.406 1555.09,520.576 1558.55,528.768 1562,536.982 1565.45,545.214 1568.91,553.465 1572.36,561.73 1575.81,570.01 1579.27,578.302 1582.72,586.604 1586.17,594.914 1589.63,603.231 1593.08,611.554 1596.53,619.879 1599.98,628.207 1603.44,636.534 1606.89,644.86 1610.34,653.182 1613.8,661.499 1617.25,669.81 1620.7,678.113 1624.16,686.406 1627.61,694.688 1631.06,702.958 1634.52,711.212 1637.97,719.452 1641.42,727.674 1644.87,735.877 1648.33,744.06 1651.78,752.222 1655.23,760.361 1658.69,768.476 1662.14,776.565 1665.59,784.627 1669.05,792.661 1672.5,800.666 1675.95,808.64 1679.41,816.582 1682.86,824.492 1686.31,832.367 1689.76,840.206 1693.22,848.01 1696.67,855.775 1700.12,863.502 1703.58,871.189 1707.03,878.836 1710.48,886.441 1713.94,894.003 1717.39,901.522 1720.84,908.996 1724.3,916.425 1727.75,923.807 1731.2,931.143 1734.65,938.43 1738.11,945.669 1741.56,952.858 1745.01,959.998 1748.47,967.086 1751.92,974.122 1755.37,981.107 1758.83,988.038 1762.28,994.916 1765.73,1001.74 1769.19,1008.51 1772.64,1015.22 1776.09,1021.88 1779.54,1028.48 1783,1035.03 1786.45,1041.52 1789.9,1047.95 1793.36,1054.32 1796.81,1060.63 1800.26,1066.89 1803.72,1073.09 1807.17,1079.23 1810.62,1085.3 1814.08,1091.32 1817.53,1097.28 1820.98,1103.18 1824.43,1109.02 1827.89,1114.79 1831.34,1120.51 1834.79,1126.16 1838.25,1131.76 1841.7,1137.29 1845.15,1142.76 1848.61,1148.17 1852.06,1153.52 1855.51,1158.81 1858.97,1164.04 1862.42,1169.2 1865.87,1174.31 1869.32,1179.35 1872.78,1184.33 1876.23,1189.25 1879.68,1194.12 1883.14,1198.92 1886.59,1203.65 1890.04,1208.33 1893.5,1212.95 1896.95,1217.51 1900.4,1222.01 1903.86,1226.45 1907.31,1230.83 1910.76,1235.15 1914.21,1239.41 1917.67,1243.61 1921.12,1247.75 1924.57,1251.84 1928.03,1255.87 1931.48,1259.84 1934.93,1263.75 1938.39,1267.61 1941.84,1271.41 1945.29,1275.15 1948.75,1278.84 1952.2,1282.48 1955.65,1286.05 1959.11,1289.58 1962.56,1293.05 1966.01,1296.46 1969.46,1299.82 1972.92,1303.13 1976.37,1306.39 1979.82,1309.6 1983.28,1312.75 1986.73,1315.85 1990.18,1318.9 1993.64,1321.9 1997.09,1324.85 2000.54,1327.76 2004,1330.61 2007.45,1333.41 2010.9,1336.17 2014.35,1338.88 2017.81,1341.54 2021.26,1344.16 2024.71,1346.73 2028.17,1349.25 2031.62,1351.73 2035.07,1354.17 2038.53,1356.56 2041.98,1358.91 2045.43,1361.22 2048.89,1363.48 2052.34,1365.7 2055.79,1367.88 2059.24,1370.02 2062.7,1372.12 2066.15,1374.18 2069.6,1376.2 2073.06,1378.18 2076.51,1380.12 2079.96,1382.03 2083.42,1383.9 2086.87,1385.73 2090.32,1387.52 2093.78,1389.28 2097.23,1391.01 2100.68,1392.7 2104.13,1394.35 2107.59,1395.97 2111.04,1397.56 2114.49,1399.12 2117.95,1400.64 2121.4,1402.14 2124.85,1403.6 2128.31,1405.03 2131.76,1406.43 2135.21,1407.8 2138.67,1409.14 2142.12,1410.45 2145.57,1411.74 2149.02,1412.99 2152.48,1414.22 2155.93,1415.42 2159.38,1416.6 2162.84,1417.75 2166.29,1418.87 2169.74,1419.97 2173.2,1421.05 2176.65,1422.1 2180.1,1423.12 2183.56,1424.12 2187.01,1425.1 2190.46,1426.06 2193.91,1427 2197.37,1427.91 2200.82,1428.8 2204.27,1429.67 2207.73,1430.52 2211.18,1431.35 2214.63,1432.16 2218.09,1432.95 2221.54,1433.73 2224.99,1434.48 2228.45,1435.22 2231.9,1435.93 2235.35,1436.63 2238.8,1437.32 2242.26,1437.98 2245.71,1438.63 2249.16,1439.26 2252.62,1439.88 2256.07,1440.48 2259.52,1441.07 2262.98,1441.64 2266.43,1442.2 2269.88,1442.74 2273.34,1443.27 2276.79,1443.78 2280.24,1444.29 2283.69,1444.78 2287.15,1445.25 2290.6,1445.72 "/>
<path clip-path="url(#clip320)" d="M1995.72 198.898 L2279.55 198.898 L2279.55 95.2176 L1995.72 95.2176  Z" fill="#ffffff" fill-rule="evenodd" fill-opacity="1"/>
<polyline clip-path="url(#clip320)" style="stroke:#000000; stroke-linecap:round; stroke-linejoin:round; stroke-width:4; stroke-opacity:1; fill:none" points="1995.72,198.898 2279.55,198.898 2279.55,95.2176 1995.72,95.2176 1995.72,198.898 "/>
<polyline clip-path="url(#clip320)" style="stroke:#009af9; stroke-linecap:round; stroke-linejoin:round; stroke-width:4; stroke-opacity:1; fill:none" points="2020.12,147.058 2166.53,147.058 "/>
<path clip-path="url(#clip320)" d="M2231.32 124.044 Q2231.32 124.723 2231.01 124.864 Q2230.73 125.004 2229.7 125.004 Q2227.94 125.004 2227.15 125.238 Q2226.37 125.449 2226.14 125.824 Q2225.93 126.175 2225.67 127.206 L2219.18 153.111 Q2219.18 153.135 2219.11 153.462 Q2219.04 153.767 2219.04 153.931 Q2219.04 154.235 2219.23 154.423 Q2219.44 154.61 2219.96 154.704 Q2220.47 154.774 2220.87 154.798 Q2221.29 154.798 2222.16 154.798 Q2223.24 154.798 2223.4 154.985 Q2223.49 155.102 2223.49 155.313 Q2223.49 155.758 2223.31 155.992 Q2223.14 156.203 2222.98 156.25 Q2222.84 156.273 2222.56 156.273 Q2222.06 156.273 2221.01 156.226 Q2219.96 156.179 2219.42 156.179 L2216.35 156.133 L2210.26 156.273 Q2209.6 156.273 2209.6 155.734 Q2209.6 155.266 2209.77 155.055 Q2209.93 154.844 2210.1 154.821 Q2210.28 154.798 2210.75 154.798 Q2213.16 154.798 2213.96 154.563 Q2214.78 154.306 2215.11 153.205 L2218.41 139.971 L2203.79 139.971 L2200.52 153.111 Q2200.52 153.135 2200.44 153.462 Q2200.37 153.767 2200.37 153.931 Q2200.37 154.235 2200.56 154.423 Q2200.77 154.61 2201.29 154.704 Q2201.8 154.774 2202.2 154.798 Q2202.62 154.798 2203.49 154.798 Q2204.57 154.798 2204.75 154.985 Q2204.85 155.102 2204.85 155.313 Q2204.85 155.641 2204.75 155.875 Q2204.68 156.086 2204.5 156.156 Q2204.33 156.226 2204.22 156.25 Q2204.1 156.273 2203.89 156.273 Q2203.4 156.273 2202.34 156.226 Q2201.31 156.179 2200.77 156.179 L2197.7 156.133 L2191.61 156.273 Q2190.94 156.273 2190.94 155.734 Q2190.94 155.266 2191.1 155.079 Q2191.26 154.868 2191.47 154.844 Q2191.68 154.798 2192.22 154.798 Q2193.39 154.798 2194.1 154.727 Q2194.8 154.657 2195.25 154.563 Q2195.71 154.446 2195.95 154.118 Q2196.21 153.79 2196.32 153.509 Q2196.44 153.205 2196.6 152.526 L2203.02 126.761 Q2203.21 125.988 2203.21 125.871 Q2203.21 125.426 2202.93 125.309 Q2202.67 125.168 2201.92 125.098 L2200.09 125.004 Q2199.53 125.004 2199.3 124.981 Q2199.09 124.957 2198.92 124.84 Q2198.76 124.723 2198.76 124.465 Q2198.76 124.138 2198.83 123.927 Q2198.92 123.693 2199.09 123.622 Q2199.25 123.552 2199.37 123.529 Q2199.48 123.505 2199.67 123.505 L2205.86 123.646 L2211.99 123.505 Q2212.67 123.505 2212.67 124.044 Q2212.67 124.723 2212.37 124.864 Q2212.06 125.004 2211.03 125.004 Q2209.32 125.004 2208.53 125.238 Q2207.73 125.449 2207.47 125.824 Q2207.24 126.199 2207 127.206 L2204.17 138.472 L2218.81 138.472 L2221.69 126.761 Q2221.88 125.918 2221.88 125.871 Q2221.88 125.426 2221.6 125.309 Q2221.34 125.168 2220.59 125.098 L2218.76 125.004 Q2218.2 125.004 2217.96 124.981 Q2217.75 124.957 2217.57 124.84 Q2217.4 124.723 2217.4 124.465 Q2217.4 124.138 2217.47 123.927 Q2217.57 123.693 2217.73 123.622 Q2217.89 123.552 2218.01 123.529 Q2218.13 123.505 2218.32 123.505 L2224.5 123.646 L2230.66 123.505 Q2231.32 123.505 2231.32 124.044 Z" fill="#000000" fill-rule="nonzero" fill-opacity="1" /><path clip-path="url(#clip320)" d="M2236.04 158.823 Q2236.04 153.888 2237.29 151.199 Q2239.02 147.198 2243.12 147.198 Q2243.99 147.198 2244.89 147.444 Q2245.81 147.674 2246.96 148.576 Q2248.12 149.477 2248.83 150.953 Q2250.17 153.806 2250.17 158.823 Q2250.17 163.725 2248.93 166.398 Q2247.11 170.3 2243.09 170.3 Q2241.58 170.3 2240.04 169.529 Q2238.52 168.759 2237.55 166.906 Q2236.04 164.135 2236.04 158.823 M2238.83 158.413 Q2238.83 163.479 2239.19 165.496 Q2239.6 167.677 2240.71 168.628 Q2241.84 169.562 2243.09 169.562 Q2244.43 169.562 2245.55 168.562 Q2246.68 167.546 2247.02 165.365 Q2247.4 163.217 2247.39 158.413 Q2247.39 153.74 2247.06 151.871 Q2246.62 149.691 2245.43 148.822 Q2244.27 147.936 2243.09 147.936 Q2242.65 147.936 2242.17 148.067 Q2241.71 148.199 2241.04 148.576 Q2240.37 148.953 2239.84 149.887 Q2239.34 150.822 2239.09 152.232 Q2238.83 154.052 2238.83 158.413 Z" fill="#000000" fill-rule="nonzero" fill-opacity="1" /></svg>
