<?xml version="1.0" encoding="utf-8"?>
<svg xmlns="http://www.w3.org/2000/svg" xmlns:xlink="http://www.w3.org/1999/xlink" width="600" height="400" viewBox="0 0 2400 1600">
<defs>
  <clipPath id="clip400">
    <rect x="0" y="0" width="2400" height="1600"/>
  </clipPath>
</defs>
<path clip-path="url(#clip400)" d="M0 1600 L2400 1600 L2400 0 L0 0  Z" fill="#ffffff" fill-rule="evenodd" fill-opacity="1"/>
<defs>
  <clipPath id="clip401">
    <rect x="480" y="0" width="1681" height="1600"/>
  </clipPath>
</defs>
<path clip-path="url(#clip400)" d="M156.598 1486.45 L2352.76 1486.45 L2352.76 47.2441 L156.598 47.2441  Z" fill="#ffffff" fill-rule="evenodd" fill-opacity="1"/>
<defs>
  <clipPath id="clip402">
    <rect x="156" y="47" width="2197" height="1440"/>
  </clipPath>
</defs>
<polyline clip-path="url(#clip402)" style="stroke:#000000; stroke-linecap:round; stroke-linejoin:round; stroke-width:2; stroke-opacity:0.1; fill:none" points="175.59,1486.45 175.59,47.2441 "/>
<polyline clip-path="url(#clip402)" style="stroke:#000000; stroke-linecap:round; stroke-linejoin:round; stroke-width:2; stroke-opacity:0.1; fill:none" points="607.225,1486.45 607.225,47.2441 "/>
<polyline clip-path="url(#clip402)" style="stroke:#000000; stroke-linecap:round; stroke-linejoin:round; stroke-width:2; stroke-opacity:0.1; fill:none" points="1038.86,1486.45 1038.86,47.2441 "/>
<polyline clip-path="url(#clip402)" style="stroke:#000000; stroke-linecap:round; stroke-linejoin:round; stroke-width:2; stroke-opacity:0.1; fill:none" points="1470.49,1486.45 1470.49,47.2441 "/>
<polyline clip-path="url(#clip402)" style="stroke:#000000; stroke-linecap:round; stroke-linejoin:round; stroke-width:2; stroke-opacity:0.1; fill:none" points="1902.13,1486.45 1902.13,47.2441 "/>
<polyline clip-path="url(#clip402)" style="stroke:#000000; stroke-linecap:round; stroke-linejoin:round; stroke-width:2; stroke-opacity:0.1; fill:none" points="2333.76,1486.45 2333.76,47.2441 "/>
<polyline clip-path="url(#clip402)" style="stroke:#000000; stroke-linecap:round; stroke-linejoin:round; stroke-width:2; stroke-opacity:0.1; fill:none" points="156.598,1445.72 2352.76,1445.72 "/>
<polyline clip-path="url(#clip402)" style="stroke:#000000; stroke-linecap:round; stroke-linejoin:round; stroke-width:2; stroke-opacity:0.1; fill:none" points="156.598,1173.45 2352.76,1173.45 "/>
<polyline clip-path="url(#clip402)" style="stroke:#000000; stroke-linecap:round; stroke-linejoin:round; stroke-width:2; stroke-opacity:0.1; fill:none" points="156.598,901.18 2352.76,901.18 "/>
<polyline clip-path="url(#clip402)" style="stroke:#000000; stroke-linecap:round; stroke-linejoin:round; stroke-width:2; stroke-opacity:0.1; fill:none" points="156.598,628.912 2352.76,628.912 "/>
<polyline clip-path="url(#clip402)" style="stroke:#000000; stroke-linecap:round; stroke-linejoin:round; stroke-width:2; stroke-opacity:0.1; fill:none" points="156.598,356.644 2352.76,356.644 "/>
<polyline clip-path="url(#clip402)" style="stroke:#000000; stroke-linecap:round; stroke-linejoin:round; stroke-width:2; stroke-opacity:0.1; fill:none" points="156.598,84.3765 2352.76,84.3765 "/>
<polyline clip-path="url(#clip400)" style="stroke:#000000; stroke-linecap:round; stroke-linejoin:round; stroke-width:4; stroke-opacity:1; fill:none" points="156.598,1486.45 2352.76,1486.45 "/>
<polyline clip-path="url(#clip400)" style="stroke:#000000; stroke-linecap:round; stroke-linejoin:round; stroke-width:4; stroke-opacity:1; fill:none" points="175.59,1486.45 175.59,1467.55 "/>
<polyline clip-path="url(#clip400)" style="stroke:#000000; stroke-linecap:round; stroke-linejoin:round; stroke-width:4; stroke-opacity:1; fill:none" points="607.225,1486.45 607.225,1467.55 "/>
<polyline clip-path="url(#clip400)" style="stroke:#000000; stroke-linecap:round; stroke-linejoin:round; stroke-width:4; stroke-opacity:1; fill:none" points="1038.86,1486.45 1038.86,1467.55 "/>
<polyline clip-path="url(#clip400)" style="stroke:#000000; stroke-linecap:round; stroke-linejoin:round; stroke-width:4; stroke-opacity:1; fill:none" points="1470.49,1486.45 1470.49,1467.55 "/>
<polyline clip-path="url(#clip400)" style="stroke:#000000; stroke-linecap:round; stroke-linejoin:round; stroke-width:4; stroke-opacity:1; fill:none" points="1902.13,1486.45 1902.13,1467.55 "/>
<polyline clip-path="url(#clip400)" style="stroke:#000000; stroke-linecap:round; stroke-linejoin:round; stroke-width:4; stroke-opacity:1; fill:none" points="2333.76,1486.45 2333.76,1467.55 "/>
<path clip-path="url(#clip400)" d="M145.347 1532.02 L175.023 1532.02 L175.023 1535.95 L145.347 1535.95 L145.347 1532.02 Z" fill="#000000" fill-rule="nonzero" fill-opacity="1" /><path clip-path="url(#clip400)" d="M185.926 1544.91 L193.565 1544.91 L193.565 1518.55 L185.254 1520.21 L185.254 1515.95 L193.518 1514.29 L198.194 1514.29 L198.194 1544.91 L205.833 1544.91 L205.833 1548.85 L185.926 1548.85 L185.926 1544.91 Z" fill="#000000" fill-rule="nonzero" fill-opacity="1" /><path clip-path="url(#clip400)" d="M607.225 1517.37 Q603.614 1517.37 601.785 1520.93 Q599.98 1524.47 599.98 1531.6 Q599.98 1538.71 601.785 1542.27 Q603.614 1545.82 607.225 1545.82 Q610.859 1545.82 612.665 1542.27 Q614.493 1538.71 614.493 1531.6 Q614.493 1524.47 612.665 1520.93 Q610.859 1517.37 607.225 1517.37 M607.225 1513.66 Q613.035 1513.66 616.091 1518.27 Q619.169 1522.85 619.169 1531.6 Q619.169 1540.33 616.091 1544.94 Q613.035 1549.52 607.225 1549.52 Q601.415 1549.52 598.336 1544.94 Q595.281 1540.33 595.281 1531.6 Q595.281 1522.85 598.336 1518.27 Q601.415 1513.66 607.225 1513.66 Z" fill="#000000" fill-rule="nonzero" fill-opacity="1" /><path clip-path="url(#clip400)" d="M1029.24 1544.91 L1036.88 1544.91 L1036.88 1518.55 L1028.57 1520.21 L1028.57 1515.95 L1036.83 1514.29 L1041.51 1514.29 L1041.51 1544.91 L1049.15 1544.91 L1049.15 1548.85 L1029.24 1548.85 L1029.24 1544.91 Z" fill="#000000" fill-rule="nonzero" fill-opacity="1" /><path clip-path="url(#clip400)" d="M1465.15 1544.91 L1481.47 1544.91 L1481.47 1548.85 L1459.52 1548.85 L1459.52 1544.91 Q1462.18 1542.16 1466.77 1537.53 Q1471.37 1532.88 1472.55 1531.53 Q1474.8 1529.01 1475.68 1527.27 Q1476.58 1525.51 1476.58 1523.82 Q1476.58 1521.07 1474.64 1519.33 Q1472.72 1517.6 1469.61 1517.6 Q1467.42 1517.6 1464.96 1518.36 Q1462.53 1519.13 1459.75 1520.68 L1459.75 1515.95 Q1462.58 1514.82 1465.03 1514.24 Q1467.49 1513.66 1469.52 1513.66 Q1474.89 1513.66 1478.09 1516.35 Q1481.28 1519.03 1481.28 1523.52 Q1481.28 1525.65 1480.47 1527.57 Q1479.68 1529.47 1477.58 1532.07 Q1477 1532.74 1473.9 1535.95 Q1470.8 1539.15 1465.15 1544.91 Z" fill="#000000" fill-rule="nonzero" fill-opacity="1" /><path clip-path="url(#clip400)" d="M1906.38 1530.21 Q1909.73 1530.93 1911.61 1533.2 Q1913.51 1535.47 1913.51 1538.8 Q1913.51 1543.92 1909.99 1546.72 Q1906.47 1549.52 1899.99 1549.52 Q1897.81 1549.52 1895.5 1549.08 Q1893.21 1548.66 1890.75 1547.81 L1890.75 1543.29 Q1892.7 1544.43 1895.01 1545.01 Q1897.33 1545.58 1899.85 1545.58 Q1904.25 1545.58 1906.54 1543.85 Q1908.85 1542.11 1908.85 1538.8 Q1908.85 1535.75 1906.7 1534.03 Q1904.57 1532.3 1900.75 1532.3 L1896.72 1532.3 L1896.72 1528.45 L1900.94 1528.45 Q1904.39 1528.45 1906.21 1527.09 Q1908.04 1525.7 1908.04 1523.11 Q1908.04 1520.45 1906.15 1519.03 Q1904.27 1517.6 1900.75 1517.6 Q1898.83 1517.6 1896.63 1518.01 Q1894.43 1518.43 1891.79 1519.31 L1891.79 1515.14 Q1894.46 1514.4 1896.77 1514.03 Q1899.11 1513.66 1901.17 1513.66 Q1906.49 1513.66 1909.59 1516.09 Q1912.7 1518.5 1912.7 1522.62 Q1912.7 1525.49 1911.05 1527.48 Q1909.41 1529.45 1906.38 1530.21 Z" fill="#000000" fill-rule="nonzero" fill-opacity="1" /><path clip-path="url(#clip400)" d="M2336.77 1518.36 L2324.97 1536.81 L2336.77 1536.81 L2336.77 1518.36 M2335.55 1514.29 L2341.43 1514.29 L2341.43 1536.81 L2346.36 1536.81 L2346.36 1540.7 L2341.43 1540.7 L2341.43 1548.85 L2336.77 1548.85 L2336.77 1540.7 L2321.17 1540.7 L2321.17 1536.19 L2335.55 1514.29 Z" fill="#000000" fill-rule="nonzero" fill-opacity="1" /><polyline clip-path="url(#clip400)" style="stroke:#000000; stroke-linecap:round; stroke-linejoin:round; stroke-width:4; stroke-opacity:1; fill:none" points="156.598,1486.45 156.598,47.2441 "/>
<polyline clip-path="url(#clip400)" style="stroke:#000000; stroke-linecap:round; stroke-linejoin:round; stroke-width:4; stroke-opacity:1; fill:none" points="156.598,1445.72 175.496,1445.72 "/>
<polyline clip-path="url(#clip400)" style="stroke:#000000; stroke-linecap:round; stroke-linejoin:round; stroke-width:4; stroke-opacity:1; fill:none" points="156.598,1173.45 175.496,1173.45 "/>
<polyline clip-path="url(#clip400)" style="stroke:#000000; stroke-linecap:round; stroke-linejoin:round; stroke-width:4; stroke-opacity:1; fill:none" points="156.598,901.18 175.496,901.18 "/>
<polyline clip-path="url(#clip400)" style="stroke:#000000; stroke-linecap:round; stroke-linejoin:round; stroke-width:4; stroke-opacity:1; fill:none" points="156.598,628.912 175.496,628.912 "/>
<polyline clip-path="url(#clip400)" style="stroke:#000000; stroke-linecap:round; stroke-linejoin:round; stroke-width:4; stroke-opacity:1; fill:none" points="156.598,356.644 175.496,356.644 "/>
<polyline clip-path="url(#clip400)" style="stroke:#000000; stroke-linecap:round; stroke-linejoin:round; stroke-width:4; stroke-opacity:1; fill:none" points="156.598,84.3765 175.496,84.3765 "/>
<path clip-path="url(#clip400)" d="M63.4226 1431.51 Q59.8115 1431.51 57.9828 1435.08 Q56.1773 1438.62 56.1773 1445.75 Q56.1773 1452.86 57.9828 1456.42 Q59.8115 1459.96 63.4226 1459.96 Q67.0569 1459.96 68.8624 1456.42 Q70.6911 1452.86 70.6911 1445.75 Q70.6911 1438.62 68.8624 1435.08 Q67.0569 1431.51 63.4226 1431.51 M63.4226 1427.81 Q69.2328 1427.81 72.2883 1432.42 Q75.367 1437 75.367 1445.75 Q75.367 1454.48 72.2883 1459.08 Q69.2328 1463.67 63.4226 1463.67 Q57.6125 1463.67 54.5338 1459.08 Q51.4782 1454.48 51.4782 1445.75 Q51.4782 1437 54.5338 1432.42 Q57.6125 1427.81 63.4226 1427.81 Z" fill="#000000" fill-rule="nonzero" fill-opacity="1" /><path clip-path="url(#clip400)" d="M83.5845 1457.12 L88.4688 1457.12 L88.4688 1463 L83.5845 1463 L83.5845 1457.12 Z" fill="#000000" fill-rule="nonzero" fill-opacity="1" /><path clip-path="url(#clip400)" d="M108.654 1431.51 Q105.043 1431.51 103.214 1435.08 Q101.409 1438.62 101.409 1445.75 Q101.409 1452.86 103.214 1456.42 Q105.043 1459.96 108.654 1459.96 Q112.288 1459.96 114.094 1456.42 Q115.922 1452.86 115.922 1445.75 Q115.922 1438.62 114.094 1435.08 Q112.288 1431.51 108.654 1431.51 M108.654 1427.81 Q114.464 1427.81 117.52 1432.42 Q120.598 1437 120.598 1445.75 Q120.598 1454.48 117.52 1459.08 Q114.464 1463.67 108.654 1463.67 Q102.844 1463.67 99.765 1459.08 Q96.7095 1454.48 96.7095 1445.75 Q96.7095 1437 99.765 1432.42 Q102.844 1427.81 108.654 1427.81 Z" fill="#000000" fill-rule="nonzero" fill-opacity="1" /><path clip-path="url(#clip400)" d="M64.6495 1159.25 Q61.0384 1159.25 59.2097 1162.81 Q57.4041 1166.35 57.4041 1173.48 Q57.4041 1180.59 59.2097 1184.15 Q61.0384 1187.7 64.6495 1187.7 Q68.2837 1187.7 70.0892 1184.15 Q71.9179 1180.59 71.9179 1173.48 Q71.9179 1166.35 70.0892 1162.81 Q68.2837 1159.25 64.6495 1159.25 M64.6495 1155.54 Q70.4596 1155.54 73.5152 1160.15 Q76.5938 1164.73 76.5938 1173.48 Q76.5938 1182.21 73.5152 1186.82 Q70.4596 1191.4 64.6495 1191.4 Q58.8393 1191.4 55.7606 1186.82 Q52.7051 1182.21 52.7051 1173.48 Q52.7051 1164.73 55.7606 1160.15 Q58.8393 1155.54 64.6495 1155.54 Z" fill="#000000" fill-rule="nonzero" fill-opacity="1" /><path clip-path="url(#clip400)" d="M84.8114 1184.85 L89.6956 1184.85 L89.6956 1190.73 L84.8114 1190.73 L84.8114 1184.85 Z" fill="#000000" fill-rule="nonzero" fill-opacity="1" /><path clip-path="url(#clip400)" d="M100.691 1186.79 L108.33 1186.79 L108.33 1160.43 L100.02 1162.09 L100.02 1157.83 L108.283 1156.17 L112.959 1156.17 L112.959 1186.79 L120.598 1186.79 L120.598 1190.73 L100.691 1190.73 L100.691 1186.79 Z" fill="#000000" fill-rule="nonzero" fill-opacity="1" /><path clip-path="url(#clip400)" d="M65.0198 886.979 Q61.4087 886.979 59.58 890.543 Q57.7745 894.085 57.7745 901.215 Q57.7745 908.321 59.58 911.886 Q61.4087 915.428 65.0198 915.428 Q68.6541 915.428 70.4596 911.886 Q72.2883 908.321 72.2883 901.215 Q72.2883 894.085 70.4596 890.543 Q68.6541 886.979 65.0198 886.979 M65.0198 883.275 Q70.83 883.275 73.8855 887.881 Q76.9642 892.465 76.9642 901.215 Q76.9642 909.942 73.8855 914.548 Q70.83 919.131 65.0198 919.131 Q59.2097 919.131 56.131 914.548 Q53.0754 909.942 53.0754 901.215 Q53.0754 892.465 56.131 887.881 Q59.2097 883.275 65.0198 883.275 Z" fill="#000000" fill-rule="nonzero" fill-opacity="1" /><path clip-path="url(#clip400)" d="M85.1818 912.58 L90.066 912.58 L90.066 918.46 L85.1818 918.46 L85.1818 912.58 Z" fill="#000000" fill-rule="nonzero" fill-opacity="1" /><path clip-path="url(#clip400)" d="M104.279 914.525 L120.598 914.525 L120.598 918.46 L98.6539 918.46 L98.6539 914.525 Q101.316 911.77 105.899 907.141 Q110.506 902.488 111.686 901.145 Q113.932 898.622 114.811 896.886 Q115.714 895.127 115.714 893.437 Q115.714 890.682 113.77 888.946 Q111.848 887.21 108.746 887.21 Q106.547 887.21 104.094 887.974 Q101.663 888.738 98.8854 890.289 L98.8854 885.567 Q101.709 884.432 104.163 883.854 Q106.617 883.275 108.654 883.275 Q114.024 883.275 117.219 885.96 Q120.413 888.645 120.413 893.136 Q120.413 895.266 119.603 897.187 Q118.816 899.085 116.709 901.678 Q116.131 902.349 113.029 905.567 Q109.927 908.761 104.279 914.525 Z" fill="#000000" fill-rule="nonzero" fill-opacity="1" /><path clip-path="url(#clip400)" d="M64.0708 614.711 Q60.4597 614.711 58.631 618.276 Q56.8254 621.817 56.8254 628.947 Q56.8254 636.053 58.631 639.618 Q60.4597 643.16 64.0708 643.16 Q67.705 643.16 69.5105 639.618 Q71.3392 636.053 71.3392 628.947 Q71.3392 621.817 69.5105 618.276 Q67.705 614.711 64.0708 614.711 M64.0708 611.007 Q69.8809 611.007 72.9365 615.614 Q76.0151 620.197 76.0151 628.947 Q76.0151 637.674 72.9365 642.28 Q69.8809 646.863 64.0708 646.863 Q58.2606 646.863 55.1819 642.28 Q52.1264 637.674 52.1264 628.947 Q52.1264 620.197 55.1819 615.614 Q58.2606 611.007 64.0708 611.007 Z" fill="#000000" fill-rule="nonzero" fill-opacity="1" /><path clip-path="url(#clip400)" d="M84.2327 640.313 L89.1169 640.313 L89.1169 646.192 L84.2327 646.192 L84.2327 640.313 Z" fill="#000000" fill-rule="nonzero" fill-opacity="1" /><path clip-path="url(#clip400)" d="M113.469 627.558 Q116.825 628.276 118.7 630.544 Q120.598 632.813 120.598 636.146 Q120.598 641.262 117.08 644.063 Q113.561 646.863 107.08 646.863 Q104.904 646.863 102.589 646.424 Q100.297 646.007 97.8437 645.151 L97.8437 640.637 Q99.7882 641.771 102.103 642.35 Q104.418 642.928 106.941 642.928 Q111.339 642.928 113.631 641.192 Q115.945 639.456 115.945 636.146 Q115.945 633.09 113.793 631.377 Q111.663 629.641 107.844 629.641 L103.816 629.641 L103.816 625.799 L108.029 625.799 Q111.478 625.799 113.307 624.433 Q115.135 623.044 115.135 620.452 Q115.135 617.79 113.237 616.378 Q111.362 614.942 107.844 614.942 Q105.922 614.942 103.723 615.359 Q101.524 615.776 98.8854 616.655 L98.8854 612.489 Q101.547 611.748 103.862 611.378 Q106.2 611.007 108.26 611.007 Q113.584 611.007 116.686 613.438 Q119.788 615.845 119.788 619.965 Q119.788 622.836 118.145 624.827 Q116.501 626.794 113.469 627.558 Z" fill="#000000" fill-rule="nonzero" fill-opacity="1" /><path clip-path="url(#clip400)" d="M62.9365 342.443 Q59.3254 342.443 57.4967 346.008 Q55.6912 349.549 55.6912 356.679 Q55.6912 363.785 57.4967 367.35 Q59.3254 370.892 62.9365 370.892 Q66.5707 370.892 68.3763 367.35 Q70.205 363.785 70.205 356.679 Q70.205 349.549 68.3763 346.008 Q66.5707 342.443 62.9365 342.443 M62.9365 338.739 Q68.7467 338.739 71.8022 343.346 Q74.8809 347.929 74.8809 356.679 Q74.8809 365.406 71.8022 370.012 Q68.7467 374.596 62.9365 374.596 Q57.1264 374.596 54.0477 370.012 Q50.9921 365.406 50.9921 356.679 Q50.9921 347.929 54.0477 343.346 Q57.1264 338.739 62.9365 338.739 Z" fill="#000000" fill-rule="nonzero" fill-opacity="1" /><path clip-path="url(#clip400)" d="M83.0984 368.045 L87.9827 368.045 L87.9827 373.924 L83.0984 373.924 L83.0984 368.045 Z" fill="#000000" fill-rule="nonzero" fill-opacity="1" /><path clip-path="url(#clip400)" d="M111.015 343.438 L99.2095 361.887 L111.015 361.887 L111.015 343.438 M109.788 339.364 L115.668 339.364 L115.668 361.887 L120.598 361.887 L120.598 365.776 L115.668 365.776 L115.668 373.924 L111.015 373.924 L111.015 365.776 L95.4132 365.776 L95.4132 361.262 L109.788 339.364 Z" fill="#000000" fill-rule="nonzero" fill-opacity="1" /><path clip-path="url(#clip400)" d="M64.418 70.1752 Q60.8069 70.1752 58.9782 73.74 Q57.1726 77.2816 57.1726 84.4112 Q57.1726 91.5177 58.9782 95.0825 Q60.8069 98.6241 64.418 98.6241 Q68.0522 98.6241 69.8578 95.0825 Q71.6865 91.5177 71.6865 84.4112 Q71.6865 77.2816 69.8578 73.74 Q68.0522 70.1752 64.418 70.1752 M64.418 66.4715 Q70.2281 66.4715 73.2837 71.0779 Q76.3624 75.6613 76.3624 84.4112 Q76.3624 93.138 73.2837 97.7445 Q70.2281 102.328 64.418 102.328 Q58.6078 102.328 55.5291 97.7445 Q52.4736 93.138 52.4736 84.4112 Q52.4736 75.6613 55.5291 71.0779 Q58.6078 66.4715 64.418 66.4715 Z" fill="#000000" fill-rule="nonzero" fill-opacity="1" /><path clip-path="url(#clip400)" d="M84.5799 95.7769 L89.4641 95.7769 L89.4641 101.656 L84.5799 101.656 L84.5799 95.7769 Z" fill="#000000" fill-rule="nonzero" fill-opacity="1" /><path clip-path="url(#clip400)" d="M99.6956 67.0965 L118.052 67.0965 L118.052 71.0317 L103.978 71.0317 L103.978 79.5038 Q104.996 79.1566 106.015 78.9946 Q107.033 78.8094 108.052 78.8094 Q113.839 78.8094 117.219 81.9807 Q120.598 85.1519 120.598 90.5686 Q120.598 96.1473 117.126 99.2491 Q113.654 102.328 107.334 102.328 Q105.159 102.328 102.89 101.957 Q100.645 101.587 98.2372 100.846 L98.2372 96.1473 Q100.321 97.2815 102.543 97.8371 Q104.765 98.3926 107.242 98.3926 Q111.246 98.3926 113.584 96.2861 Q115.922 94.1797 115.922 90.5686 Q115.922 86.9575 113.584 84.851 Q111.246 82.7446 107.242 82.7446 Q105.367 82.7446 103.492 83.1612 Q101.64 83.5779 99.6956 84.4575 L99.6956 67.0965 Z" fill="#000000" fill-rule="nonzero" fill-opacity="1" /><polyline clip-path="url(#clip402)" style="stroke:#009af9; stroke-linecap:round; stroke-linejoin:round; stroke-width:4; stroke-opacity:1; fill:none" points="218.754,1430.63 222.207,1430.17 225.66,1429.7 229.113,1429.22 232.566,1428.72 236.019,1428.21 239.472,1427.69 242.925,1427.15 246.378,1426.6 249.831,1426.04 253.284,1425.46 256.737,1424.86 260.191,1424.25 263.644,1423.63 267.097,1422.98 270.55,1422.33 274.003,1421.65 277.456,1420.96 280.909,1420.25 284.362,1419.52 287.815,1418.78 291.268,1418.01 294.721,1417.23 298.174,1416.43 301.628,1415.61 305.081,1414.77 308.534,1413.91 311.987,1413.02 315.44,1412.12 318.893,1411.2 322.346,1410.25 325.799,1409.28 329.252,1408.29 332.705,1407.27 336.158,1406.24 339.611,1405.17 343.064,1404.09 346.518,1402.98 349.971,1401.84 353.424,1400.68 356.877,1399.49 360.33,1398.27 363.783,1397.03 367.236,1395.76 370.689,1394.46 374.142,1393.14 377.595,1391.78 381.048,1390.4 384.501,1388.98 387.954,1387.54 391.408,1386.06 394.861,1384.55 398.314,1383.01 401.767,1381.44 405.22,1379.84 408.673,1378.2 412.126,1376.53 415.579,1374.83 419.032,1373.09 422.485,1371.31 425.938,1369.5 429.391,1367.65 432.844,1365.77 436.298,1363.85 439.751,1361.89 443.204,1359.89 446.657,1357.85 450.11,1355.78 453.563,1353.66 457.016,1351.51 460.469,1349.31 463.922,1347.07 467.375,1344.79 470.828,1342.47 474.281,1340.1 477.734,1337.69 481.188,1335.24 484.641,1332.75 488.094,1330.2 491.547,1327.62 495,1324.98 498.453,1322.3 501.906,1319.58 505.359,1316.8 508.812,1313.98 512.265,1311.11 515.718,1308.19 519.171,1305.23 522.625,1302.21 526.078,1299.14 529.531,1296.02 532.984,1292.86 536.437,1289.63 539.89,1286.36 543.343,1283.04 546.796,1279.66 550.249,1276.23 553.702,1272.74 557.155,1269.21 560.608,1265.61 564.061,1261.97 567.515,1258.26 570.968,1254.5 574.421,1250.69 577.874,1246.82 581.327,1242.89 584.78,1238.91 588.233,1234.87 591.686,1230.77 595.139,1226.62 598.592,1222.4 602.045,1218.13 605.498,1213.8 608.951,1209.41 612.405,1204.96 615.858,1200.45 619.311,1195.89 622.764,1191.26 626.217,1186.57 629.67,1181.83 633.123,1177.02 636.576,1172.15 640.029,1167.23 643.482,1162.24 646.935,1157.19 650.388,1152.08 653.841,1146.92 657.295,1141.69 660.748,1136.4 664.201,1131.05 667.654,1125.63 671.107,1120.16 674.56,1114.63 678.013,1109.04 681.466,1103.39 684.919,1097.67 688.372,1091.9 691.825,1086.07 695.278,1080.18 698.731,1074.22 702.185,1068.21 705.638,1062.14 709.091,1056.02 712.544,1049.83 715.997,1043.59 719.45,1037.28 722.903,1030.92 726.356,1024.51 729.809,1018.04 733.262,1011.51 736.715,1004.92 740.168,998.283 743.622,991.589 747.075,984.841 750.528,978.039 753.981,971.185 757.434,964.278 760.887,957.32 764.34,950.31 767.793,943.25 771.246,936.141 774.699,928.983 778.152,921.776 781.605,914.522 785.058,907.222 788.512,899.875 791.965,892.484 795.418,885.049 798.871,877.571 802.324,870.05 805.777,862.489 809.23,854.887 812.683,847.246 816.136,839.566 819.589,831.85 823.042,824.097 826.495,816.31 829.948,808.488 833.402,800.634 836.855,792.749 840.308,784.833 843.761,776.888 847.214,768.915 850.667,760.916 854.12,752.891 857.573,744.843 861.026,736.772 864.479,728.679 867.932,720.567 871.385,712.437 874.838,704.289 878.292,696.126 881.745,687.948 885.198,679.758 888.651,671.557 892.104,663.347 895.557,655.128 899.01,646.903 902.463,638.673 905.916,630.44 909.369,622.205 912.822,613.97 916.275,605.737 919.728,597.507 923.182,589.282 926.635,581.064 930.088,572.855 933.541,564.655 936.994,556.467 940.447,548.294 943.9,540.135 947.353,531.994 950.806,523.871 954.259,515.77 957.712,507.691 961.165,499.636 964.619,491.608 968.072,483.608 971.525,475.638 974.978,467.699 978.431,459.795 981.884,451.925 985.337,444.093 988.79,436.301 992.243,428.549 995.696,420.84 999.149,413.176 1002.6,405.559 1006.06,397.991 1009.51,390.473 1012.96,383.007 1016.41,375.595 1019.87,368.24 1023.32,360.942 1026.77,353.705 1030.23,346.528 1033.68,339.416 1037.13,332.368 1040.59,325.388 1044.04,318.477 1047.49,311.636 1050.95,304.869 1054.4,298.175 1057.85,291.558 1061.3,285.018 1064.76,278.558 1068.21,272.18 1071.66,265.885 1075.12,259.674 1078.57,253.551 1082.02,247.515 1085.48,241.569 1088.93,235.715 1092.38,229.954 1095.84,224.287 1099.29,218.717 1102.74,213.245 1106.19,207.872 1109.65,202.6 1113.1,197.43 1116.55,192.364 1120.01,187.404 1123.46,182.55 1126.91,177.804 1130.37,173.168 1133.82,168.642 1137.27,164.229 1140.73,159.929 1144.18,155.743 1147.63,151.673 1151.08,147.72 1154.54,143.885 1157.99,140.17 1161.44,136.575 1164.9,133.101 1168.35,129.75 1171.8,126.521 1175.26,123.418 1178.71,120.439 1182.16,117.587 1185.62,114.861 1189.07,112.264 1192.52,109.794 1195.97,107.455 1199.43,105.245 1202.88,103.165 1206.33,101.217 1209.79,99.4008 1213.24,97.7169 1216.69,96.1658 1220.15,94.748 1223.6,93.464 1227.05,92.3141 1230.51,91.2987 1233.96,90.418 1237.41,89.6724 1240.86,89.062 1244.32,88.5871 1247.77,88.2478 1251.22,88.0442 1254.68,87.9763 1258.13,88.0442 1261.58,88.2478 1265.04,88.5871 1268.49,89.062 1271.94,89.6724 1275.4,90.418 1278.85,91.2987 1282.3,92.3141 1285.75,93.464 1289.21,94.748 1292.66,96.1658 1296.11,97.7169 1299.57,99.4008 1303.02,101.217 1306.47,103.165 1309.93,105.245 1313.38,107.455 1316.83,109.794 1320.29,112.264 1323.74,114.861 1327.19,117.587 1330.64,120.439 1334.1,123.418 1337.55,126.521 1341,129.75 1344.46,133.101 1347.91,136.575 1351.36,140.17 1354.82,143.885 1358.27,147.72 1361.72,151.673 1365.18,155.743 1368.63,159.929 1372.08,164.229 1375.53,168.642 1378.99,173.168 1382.44,177.804 1385.89,182.55 1389.35,187.404 1392.8,192.364 1396.25,197.43 1399.71,202.6 1403.16,207.872 1406.61,213.245 1410.07,218.717 1413.52,224.287 1416.97,229.954 1420.42,235.715 1423.88,241.569 1427.33,247.515 1430.78,253.551 1434.24,259.674 1437.69,265.885 1441.14,272.18 1444.6,278.558 1448.05,285.018 1451.5,291.558 1454.96,298.175 1458.41,304.869 1461.86,311.636 1465.31,318.477 1468.77,325.388 1472.22,332.368 1475.67,339.416 1479.13,346.528 1482.58,353.705 1486.03,360.942 1489.49,368.24 1492.94,375.595 1496.39,383.007 1499.85,390.473 1503.3,397.991 1506.75,405.559 1510.2,413.176 1513.66,420.84 1517.11,428.549 1520.56,436.301 1524.02,444.093 1527.47,451.925 1530.92,459.795 1534.38,467.699 1537.83,475.638 1541.28,483.608 1544.74,491.608 1548.19,499.636 1551.64,507.691 1555.09,515.77 1558.55,523.871 1562,531.994 1565.45,540.135 1568.91,548.294 1572.36,556.467 1575.81,564.655 1579.27,572.855 1582.72,581.064 1586.17,589.282 1589.63,597.507 1593.08,605.737 1596.53,613.97 1599.98,622.205 1603.44,630.44 1606.89,638.673 1610.34,646.903 1613.8,655.128 1617.25,663.347 1620.7,671.557 1624.16,679.758 1627.61,687.948 1631.06,696.126 1634.52,704.289 1637.97,712.437 1641.42,720.567 1644.87,728.679 1648.33,736.772 1651.78,744.843 1655.23,752.891 1658.69,760.916 1662.14,768.915 1665.59,776.888 1669.05,784.833 1672.5,792.749 1675.95,800.634 1679.41,808.488 1682.86,816.31 1686.31,824.097 1689.76,831.85 1693.22,839.566 1696.67,847.246 1700.12,854.887 1703.58,862.489 1707.03,870.05 1710.48,877.571 1713.94,885.049 1717.39,892.484 1720.84,899.875 1724.3,907.222 1727.75,914.522 1731.2,921.776 1734.65,928.983 1738.11,936.141 1741.56,943.25 1745.01,950.31 1748.47,957.32 1751.92,964.278 1755.37,971.185 1758.83,978.039 1762.28,984.841 1765.73,991.589 1769.19,998.283 1772.64,1004.92 1776.09,1011.51 1779.54,1018.04 1783,1024.51 1786.45,1030.92 1789.9,1037.28 1793.36,1043.59 1796.81,1049.83 1800.26,1056.02 1803.72,1062.14 1807.17,1068.21 1810.62,1074.22 1814.08,1080.18 1817.53,1086.07 1820.98,1091.9 1824.43,1097.67 1827.89,1103.39 1831.34,1109.04 1834.79,1114.63 1838.25,1120.16 1841.7,1125.63 1845.15,1131.05 1848.61,1136.4 1852.06,1141.69 1855.51,1146.92 1858.97,1152.08 1862.42,1157.19 1865.87,1162.24 1869.32,1167.23 1872.78,1172.15 1876.23,1177.02 1879.68,1181.83 1883.14,1186.57 1886.59,1191.26 1890.04,1195.89 1893.5,1200.45 1896.95,1204.96 1900.4,1209.41 1903.86,1213.8 1907.31,1218.13 1910.76,1222.4 1914.21,1226.62 1917.67,1230.77 1921.12,1234.87 1924.57,1238.91 1928.03,1242.89 1931.48,1246.82 1934.93,1250.69 1938.39,1254.5 1941.84,1258.26 1945.29,1261.97 1948.75,1265.61 1952.2,1269.21 1955.65,1272.74 1959.11,1276.23 1962.56,1279.66 1966.01,1283.04 1969.46,1286.36 1972.92,1289.63 1976.37,1292.86 1979.82,1296.02 1983.28,1299.14 1986.73,1302.21 1990.18,1305.23 1993.64,1308.19 1997.09,1311.11 2000.54,1313.98 2004,1316.8 2007.45,1319.58 2010.9,1322.3 2014.35,1324.98 2017.81,1327.62 2021.26,1330.2 2024.71,1332.75 2028.17,1335.24 2031.62,1337.69 2035.07,1340.1 2038.53,1342.47 2041.98,1344.79 2045.43,1347.07 2048.89,1349.31 2052.34,1351.51 2055.79,1353.66 2059.24,1355.78 2062.7,1357.85 2066.15,1359.89 2069.6,1361.89 2073.06,1363.85 2076.51,1365.77 2079.96,1367.65 2083.42,1369.5 2086.87,1371.31 2090.32,1373.09 2093.78,1374.83 2097.23,1376.53 2100.68,1378.2 2104.13,1379.84 2107.59,1381.44 2111.04,1383.01 2114.49,1384.55 2117.95,1386.06 2121.4,1387.54 2124.85,1388.98 2128.31,1390.4 2131.76,1391.78 2135.21,1393.14 2138.67,1394.46 2142.12,1395.76 2145.57,1397.03 2149.02,1398.27 2152.48,1399.49 2155.93,1400.68 2159.38,1401.84 2162.84,1402.98 2166.29,1404.09 2169.74,1405.17 2173.2,1406.24 2176.65,1407.27 2180.1,1408.29 2183.56,1409.28 2187.01,1410.25 2190.46,1411.2 2193.91,1412.12 2197.37,1413.02 2200.82,1413.91 2204.27,1414.77 2207.73,1415.61 2211.18,1416.43 2214.63,1417.23 2218.09,1418.01 2221.54,1418.78 2224.99,1419.52 2228.45,1420.25 2231.9,1420.96 2235.35,1421.65 2238.8,1422.33 2242.26,1422.98 2245.71,1423.63 2249.16,1424.25 2252.62,1424.86 2256.07,1425.46 2259.52,1426.04 2262.98,1426.6 2266.43,1427.15 2269.88,1427.69 2273.34,1428.21 2276.79,1428.72 2280.24,1429.22 2283.69,1429.7 2287.15,1430.17 2290.6,1430.63 "/>
<circle clip-path="url(#clip402)" cx="1910.76" cy="1445.72" r="18" fill="#000000" fill-rule="evenodd" fill-opacity="0.5" stroke="none"/>
<path clip-path="url(#clip400)" d="M1829.69 250.738 L2279.55 250.738 L2279.55 95.2176 L1829.69 95.2176  Z" fill="#ffffff" fill-rule="evenodd" fill-opacity="1"/>
<polyline clip-path="url(#clip400)" style="stroke:#000000; stroke-linecap:round; stroke-linejoin:round; stroke-width:4; stroke-opacity:1; fill:none" points="1829.69,250.738 2279.55,250.738 2279.55,95.2176 1829.69,95.2176 1829.69,250.738 "/>
<polyline clip-path="url(#clip400)" style="stroke:#009af9; stroke-linecap:round; stroke-linejoin:round; stroke-width:4; stroke-opacity:1; fill:none" points="1854.09,147.058 2000.5,147.058 "/>
<path clip-path="url(#clip400)" d="M2065.28 124.044 Q2065.28 124.723 2064.98 124.864 Q2064.7 125.004 2063.67 125.004 Q2061.91 125.004 2061.11 125.238 Q2060.34 125.449 2060.11 125.824 Q2059.9 126.175 2059.64 127.206 L2053.15 153.111 Q2053.15 153.135 2053.08 153.462 Q2053.01 153.767 2053.01 153.931 Q2053.01 154.235 2053.2 154.423 Q2053.41 154.61 2053.92 154.704 Q2054.44 154.774 2054.84 154.798 Q2055.26 154.798 2056.13 154.798 Q2057.2 154.798 2057.37 154.985 Q2057.46 155.102 2057.46 155.313 Q2057.46 155.758 2057.27 155.992 Q2057.11 156.203 2056.95 156.25 Q2056.8 156.273 2056.52 156.273 Q2056.03 156.273 2054.98 156.226 Q2053.92 156.179 2053.38 156.179 L2050.32 156.133 L2044.23 156.273 Q2043.57 156.273 2043.57 155.734 Q2043.57 155.266 2043.73 155.055 Q2043.9 154.844 2044.06 154.821 Q2044.25 154.798 2044.72 154.798 Q2047.13 154.798 2047.93 154.563 Q2048.75 154.306 2049.08 153.205 L2052.38 139.971 L2037.76 139.971 L2034.48 153.111 Q2034.48 153.135 2034.41 153.462 Q2034.34 153.767 2034.34 153.931 Q2034.34 154.235 2034.53 154.423 Q2034.74 154.61 2035.26 154.704 Q2035.77 154.774 2036.17 154.798 Q2036.59 154.798 2037.46 154.798 Q2038.54 154.798 2038.72 154.985 Q2038.82 155.102 2038.82 155.313 Q2038.82 155.641 2038.72 155.875 Q2038.65 156.086 2038.46 156.156 Q2038.3 156.226 2038.18 156.25 Q2038.07 156.273 2037.86 156.273 Q2037.36 156.273 2036.31 156.226 Q2035.28 156.179 2034.74 156.179 L2031.67 156.133 L2025.58 156.273 Q2024.9 156.273 2024.9 155.734 Q2024.9 155.266 2025.07 155.079 Q2025.23 154.868 2025.44 154.844 Q2025.65 154.798 2026.19 154.798 Q2027.36 154.798 2028.07 154.727 Q2028.77 154.657 2029.21 154.563 Q2029.68 154.446 2029.92 154.118 Q2030.17 153.79 2030.29 153.509 Q2030.41 153.205 2030.57 152.526 L2036.99 126.761 Q2037.18 125.988 2037.18 125.871 Q2037.18 125.426 2036.9 125.309 Q2036.64 125.168 2035.89 125.098 L2034.06 125.004 Q2033.5 125.004 2033.26 124.981 Q2033.05 124.957 2032.89 124.84 Q2032.73 124.723 2032.73 124.465 Q2032.73 124.138 2032.8 123.927 Q2032.89 123.693 2033.05 123.622 Q2033.22 123.552 2033.34 123.529 Q2033.45 123.505 2033.64 123.505 L2039.82 123.646 L2045.96 123.505 Q2046.64 123.505 2046.64 124.044 Q2046.64 124.723 2046.33 124.864 Q2046.03 125.004 2045 125.004 Q2043.29 125.004 2042.49 125.238 Q2041.7 125.449 2041.44 125.824 Q2041.21 126.199 2040.97 127.206 L2038.14 138.472 L2052.78 138.472 L2055.66 126.761 Q2055.84 125.918 2055.84 125.871 Q2055.84 125.426 2055.56 125.309 Q2055.31 125.168 2054.56 125.098 L2052.73 125.004 Q2052.17 125.004 2051.93 124.981 Q2051.72 124.957 2051.53 124.84 Q2051.37 124.723 2051.37 124.465 Q2051.37 124.138 2051.44 123.927 Q2051.53 123.693 2051.7 123.622 Q2051.86 123.552 2051.98 123.529 Q2052.1 123.505 2052.28 123.505 L2058.47 123.646 L2064.63 123.505 Q2065.28 123.505 2065.28 124.044 Z" fill="#000000" fill-rule="nonzero" fill-opacity="1" /><path clip-path="url(#clip400)" d="M2070.01 158.823 Q2070.01 153.888 2071.25 151.199 Q2072.99 147.198 2077.09 147.198 Q2077.96 147.198 2078.86 147.444 Q2079.78 147.674 2080.93 148.576 Q2082.09 149.477 2082.8 150.953 Q2084.14 153.806 2084.14 158.823 Q2084.14 163.725 2082.89 166.398 Q2081.07 170.3 2077.06 170.3 Q2075.55 170.3 2074.01 169.529 Q2072.48 168.759 2071.52 166.906 Q2070.01 164.135 2070.01 158.823 M2072.79 158.413 Q2072.79 163.479 2073.16 165.496 Q2073.57 167.677 2074.68 168.628 Q2075.81 169.562 2077.06 169.562 Q2078.4 169.562 2079.52 168.562 Q2080.65 167.546 2080.99 165.365 Q2081.37 163.217 2081.35 158.413 Q2081.35 153.74 2081.03 151.871 Q2080.58 149.691 2079.4 148.822 Q2078.24 147.936 2077.06 147.936 Q2076.61 147.936 2076.14 148.067 Q2075.68 148.199 2075.01 148.576 Q2074.34 148.953 2073.81 149.887 Q2073.3 150.822 2073.06 152.232 Q2072.79 154.052 2072.79 158.413 Z" fill="#000000" fill-rule="nonzero" fill-opacity="1" /><circle clip-path="url(#clip400)" cx="1927.3" cy="198.898" r="20.9455" fill="#000000" fill-rule="evenodd" fill-opacity="0.5" stroke="none"/>
<path clip-path="url(#clip400)" d="M2048.79 189.311 Q2048.79 190.623 2047.97 191.372 Q2047.15 192.098 2046.22 192.098 Q2045.33 192.098 2044.86 191.583 Q2044.39 191.068 2044.39 190.412 Q2044.39 189.522 2045.05 188.749 Q2045.7 187.976 2046.69 187.812 Q2045.73 187.203 2044.3 187.203 Q2043.36 187.203 2042.54 187.695 Q2041.74 188.187 2041.25 188.819 Q2040.78 189.451 2040.36 190.365 Q2039.96 191.255 2039.8 191.794 Q2039.66 192.309 2039.54 192.871 L2037.9 199.429 Q2037.11 202.545 2037.11 203.645 Q2037.11 205.004 2037.76 205.917 Q2038.42 206.807 2039.73 206.807 Q2040.24 206.807 2040.83 206.667 Q2041.42 206.503 2042.17 206.081 Q2042.94 205.636 2043.62 204.98 Q2044.32 204.301 2045 203.154 Q2045.68 202.006 2046.12 200.53 Q2046.26 200.015 2046.73 200.015 Q2047.32 200.015 2047.32 200.483 Q2047.32 200.882 2046.99 201.725 Q2046.69 202.545 2046.01 203.622 Q2045.35 204.676 2044.48 205.636 Q2043.62 206.573 2042.33 207.229 Q2041.04 207.885 2039.64 207.885 Q2037.62 207.885 2036.29 206.807 Q2034.95 205.73 2034.46 204.231 Q2034.34 204.442 2034.18 204.723 Q2034.01 205.004 2033.52 205.636 Q2033.05 206.245 2032.52 206.714 Q2031.98 207.159 2031.13 207.51 Q2030.31 207.885 2029.42 207.885 Q2028.3 207.885 2027.29 207.557 Q2026.31 207.229 2025.61 206.48 Q2024.9 205.73 2024.9 204.699 Q2024.9 203.552 2025.68 202.755 Q2026.47 201.936 2027.55 201.936 Q2028.23 201.936 2028.77 202.334 Q2029.33 202.732 2029.33 203.599 Q2029.33 204.559 2028.67 205.285 Q2028.02 206.011 2027.08 206.198 Q2028.04 206.807 2029.47 206.807 Q2031.02 206.807 2032.23 205.449 Q2033.45 204.09 2034.04 201.818 Q2035.49 196.361 2036.05 193.925 Q2036.61 191.466 2036.61 190.412 Q2036.61 189.428 2036.36 188.749 Q2036.1 188.069 2035.65 187.765 Q2035.23 187.437 2034.83 187.32 Q2034.46 187.203 2034.04 187.203 Q2033.34 187.203 2032.54 187.484 Q2031.77 187.765 2030.83 188.421 Q2029.92 189.053 2029.05 190.365 Q2028.18 191.677 2027.6 193.48 Q2027.48 194.019 2026.96 194.019 Q2026.4 193.995 2026.4 193.527 Q2026.4 193.129 2026.71 192.309 Q2027.03 191.466 2027.69 190.412 Q2028.37 189.358 2029.24 188.421 Q2030.13 187.46 2031.41 186.805 Q2032.73 186.149 2034.13 186.149 Q2034.76 186.149 2035.37 186.289 Q2036.01 186.406 2036.75 186.758 Q2037.53 187.109 2038.21 187.882 Q2038.89 188.655 2039.31 189.779 Q2039.59 189.241 2039.96 188.725 Q2040.36 188.21 2040.97 187.578 Q2041.6 186.922 2042.47 186.547 Q2043.36 186.149 2044.34 186.149 Q2045.3 186.149 2046.24 186.406 Q2047.18 186.641 2047.97 187.414 Q2048.79 188.163 2048.79 189.311 Z" fill="#000000" fill-rule="nonzero" fill-opacity="1" /><path clip-path="url(#clip400)" d="M2055.89 219.914 Q2053.68 217.717 2053.68 214.536 Q2053.68 211.339 2055.84 209.011 Q2058.02 206.666 2061.14 206.666 Q2064.19 206.666 2066.37 208.995 Q2068.57 211.306 2068.57 214.536 Q2068.57 217.701 2066.35 219.898 Q2064.16 222.095 2061.11 222.095 Q2058.12 222.095 2055.89 219.914 M2056.47 214.258 Q2056.47 217.52 2057.32 218.996 Q2058.63 221.242 2061.14 221.242 Q2062.39 221.242 2063.42 220.57 Q2064.47 219.898 2065.04 218.766 Q2065.78 217.291 2065.78 214.258 Q2065.78 211.028 2064.89 209.601 Q2063.58 207.421 2061.11 207.421 Q2060.02 207.421 2058.96 207.994 Q2057.91 208.552 2057.27 209.667 Q2056.47 211.142 2056.47 214.258 Z" fill="#000000" fill-rule="nonzero" fill-opacity="1" /><path clip-path="url(#clip400)" d="M2070.3 199.829 L2070.3 198.78 L2075.14 198.419 L2075.14 209.06 Q2077.09 206.88 2079.75 206.88 Q2082.63 206.88 2084.75 209.093 Q2086.86 211.306 2086.86 214.471 Q2086.86 217.668 2084.65 219.881 Q2082.44 222.095 2079.37 222.095 Q2076.58 222.095 2074.98 219.635 Q2073.8 221.685 2073.76 221.718 L2072.93 221.718 L2072.93 201.699 Q2072.93 200.452 2072.49 200.141 Q2072.04 199.829 2070.3 199.829 M2075.24 217.898 Q2075.24 218.603 2075.71 219.308 Q2077.04 221.341 2079.21 221.341 Q2079.22 221.341 2079.24 221.341 Q2081.58 221.341 2083.04 219.193 Q2084.08 217.586 2084.08 214.438 Q2084.08 211.323 2083.11 209.765 Q2081.77 207.617 2079.58 207.617 Q2077.13 207.617 2075.62 209.765 Q2075.24 210.306 2075.24 210.979 L2075.24 217.898 Z" fill="#000000" fill-rule="nonzero" fill-opacity="1" /><path clip-path="url(#clip400)" d="M2088.75 221.275 L2088.75 216.848 Q2088.75 216.471 2088.76 216.34 Q2088.78 216.209 2088.88 216.11 Q2088.98 216.012 2089.17 216.012 Q2089.4 216.012 2089.49 216.11 Q2089.58 216.209 2089.65 216.586 Q2090.16 218.898 2091.24 220.127 Q2092.34 221.341 2094.32 221.341 Q2096.21 221.341 2097.16 220.504 Q2098.11 219.668 2098.11 218.291 Q2098.11 215.832 2094.62 215.209 Q2092.6 214.799 2091.76 214.536 Q2090.93 214.258 2090.19 213.651 Q2088.75 212.471 2088.75 210.798 Q2088.75 209.126 2090.01 207.896 Q2091.29 206.666 2094.11 206.666 Q2095.99 206.666 2097.27 207.617 Q2097.65 207.322 2097.85 207.076 Q2098.29 206.666 2098.52 206.666 Q2098.78 206.666 2098.83 206.847 Q2098.88 207.011 2098.88 207.486 L2098.88 210.864 Q2098.88 211.241 2098.86 211.372 Q2098.85 211.503 2098.75 211.602 Q2098.65 211.684 2098.44 211.684 Q2098.06 211.684 2098.04 211.372 Q2097.78 207.306 2094.11 207.306 Q2092.13 207.306 2091.24 208.076 Q2090.35 208.831 2090.35 209.864 Q2090.35 210.437 2090.62 210.88 Q2090.9 211.306 2091.24 211.569 Q2091.6 211.815 2092.26 212.061 Q2092.91 212.29 2093.31 212.372 Q2093.72 212.454 2094.49 212.618 Q2097.18 213.126 2098.31 214.225 Q2099.72 215.635 2099.72 217.422 Q2099.72 219.406 2098.37 220.75 Q2097.03 222.095 2094.32 222.095 Q2092.14 222.095 2090.62 220.636 Q2090.42 220.832 2090.27 221.013 Q2090.13 221.177 2090.06 221.242 Q2090.01 221.308 2089.99 221.357 Q2089.98 221.39 2089.94 221.423 Q2089.27 222.095 2089.11 222.095 Q2088.85 222.095 2088.8 221.914 Q2088.75 221.751 2088.75 221.275 Z" fill="#000000" fill-rule="nonzero" fill-opacity="1" /><path clip-path="url(#clip400)" d="M2120.26 200.062 Q2120.31 199.476 2121.22 199.476 L2150.61 199.476 Q2152 199.476 2152.02 200.015 Q2152.02 200.6 2150.71 200.577 L2121.55 200.577 Q2120.26 200.6 2120.26 200.062 M2120.26 190.693 Q2120.26 190.107 2121.27 190.131 L2150.57 190.131 Q2152 190.131 2152.02 190.693 Q2152.02 191.232 2150.8 191.232 L2121.22 191.232 Q2120.26 191.232 2120.26 190.693 Z" fill="#000000" fill-rule="nonzero" fill-opacity="1" /><path clip-path="url(#clip400)" d="M2170.51 200.882 Q2170.51 199.453 2171.33 198.774 Q2172.15 198.094 2173.2 198.094 Q2174.3 198.094 2175.08 198.82 Q2175.87 199.523 2175.87 200.764 Q2175.87 202.1 2174.94 202.849 Q2174.02 203.599 2172.71 203.411 Q2173.86 205.332 2175.97 206.198 Q2178.1 207.065 2180.07 207.065 Q2182.13 207.065 2183.79 205.285 Q2185.48 203.505 2185.48 199.148 Q2185.48 195.448 2184.02 193.316 Q2182.6 191.185 2179.76 191.185 L2177.65 191.185 Q2176.93 191.185 2176.72 191.114 Q2176.51 191.044 2176.51 190.646 Q2176.51 190.177 2177.23 190.084 Q2177.96 190.084 2179.11 189.943 Q2181.89 189.85 2183.37 187.437 Q2184.7 185.189 2184.7 181.98 Q2184.7 179.052 2183.3 177.834 Q2181.92 176.592 2180.11 176.592 Q2178.43 176.592 2176.58 177.295 Q2174.73 177.998 2173.72 179.567 Q2176.69 179.567 2176.69 181.98 Q2176.69 183.034 2176.01 183.736 Q2175.36 184.416 2174.26 184.416 Q2173.2 184.416 2172.5 183.76 Q2171.8 183.08 2171.8 181.933 Q2171.8 179.192 2174.23 177.295 Q2176.69 175.398 2180.3 175.398 Q2183.86 175.398 2186.48 177.272 Q2189.13 179.146 2189.13 182.026 Q2189.13 184.861 2187.26 187.179 Q2185.38 189.498 2182.41 190.459 Q2186.06 191.185 2188.24 193.667 Q2190.42 196.127 2190.42 199.148 Q2190.42 202.896 2187.47 205.66 Q2184.52 208.4 2180.21 208.4 Q2176.22 208.4 2173.37 206.245 Q2170.51 204.09 2170.51 200.882 Z" fill="#000000" fill-rule="nonzero" fill-opacity="1" /><path clip-path="url(#clip400)" d="M2194.99 206.573 Q2194.26 205.8 2194.26 204.793 Q2194.26 203.786 2194.99 203.06 Q2195.71 202.31 2196.81 202.31 Q2197.87 202.31 2198.57 203.013 Q2199.3 203.692 2199.3 204.817 Q2199.3 205.917 2198.52 206.643 Q2197.77 207.346 2196.81 207.346 Q2195.71 207.346 2194.99 206.573 Z" fill="#000000" fill-rule="nonzero" fill-opacity="1" /><path clip-path="url(#clip400)" d="M2207.46 192.004 Q2207.46 184.954 2209.24 181.113 Q2211.72 175.398 2217.58 175.398 Q2218.82 175.398 2220.11 175.749 Q2221.42 176.077 2223.06 177.365 Q2224.72 178.654 2225.73 180.762 Q2227.65 184.837 2227.65 192.004 Q2227.65 199.008 2225.87 202.826 Q2223.27 208.4 2217.53 208.4 Q2215.37 208.4 2213.17 207.299 Q2210.99 206.198 2209.61 203.552 Q2207.46 199.593 2207.46 192.004 M2211.44 191.419 Q2211.44 198.656 2211.95 201.537 Q2212.54 204.653 2214.13 206.011 Q2215.75 207.346 2217.53 207.346 Q2219.45 207.346 2221.04 205.917 Q2222.66 204.465 2223.15 201.35 Q2223.69 198.282 2223.67 191.419 Q2223.67 184.743 2223.2 182.073 Q2222.56 178.958 2220.88 177.717 Q2219.21 176.452 2217.53 176.452 Q2216.9 176.452 2216.22 176.639 Q2215.56 176.827 2214.6 177.365 Q2213.64 177.904 2212.89 179.239 Q2212.16 180.574 2211.81 182.589 Q2211.44 185.189 2211.44 191.419 Z" fill="#000000" fill-rule="nonzero" fill-opacity="1" /><path clip-path="url(#clip400)" d="M2231.4 207.346 Q2231.4 206.48 2231.47 206.222 Q2231.56 205.964 2231.94 205.566 L2241.14 195.307 Q2246.18 189.639 2246.18 184.697 Q2246.18 181.488 2244.49 179.192 Q2242.83 176.897 2239.76 176.897 Q2237.65 176.897 2235.87 178.185 Q2234.09 179.473 2233.27 181.769 Q2233.41 181.722 2233.91 181.722 Q2235.1 181.722 2235.76 182.472 Q2236.43 183.221 2236.43 184.228 Q2236.43 185.516 2235.59 186.149 Q2234.77 186.758 2233.95 186.758 Q2233.62 186.758 2233.18 186.688 Q2232.76 186.617 2232.08 185.961 Q2231.4 185.282 2231.4 184.088 Q2231.4 180.738 2233.93 178.068 Q2236.48 175.398 2240.37 175.398 Q2244.77 175.398 2247.65 178.021 Q2250.56 180.621 2250.56 184.697 Q2250.56 186.125 2250.11 187.437 Q2249.69 188.725 2249.11 189.732 Q2248.54 190.74 2247 192.356 Q2245.45 193.972 2244.21 195.12 Q2242.97 196.267 2240.18 198.703 L2235.1 203.645 L2243.74 203.645 Q2247.96 203.645 2248.29 203.271 Q2248.75 202.591 2249.34 199.008 L2250.56 199.008 L2249.2 207.346 L2231.4 207.346 Z" fill="#000000" fill-rule="nonzero" fill-opacity="1" /></svg>
