<?xml version="1.0" encoding="utf-8"?>
<svg xmlns="http://www.w3.org/2000/svg" xmlns:xlink="http://www.w3.org/1999/xlink" width="600" height="400" viewBox="0 0 2400 1600">
<defs>
  <clipPath id="clip310">
    <rect x="0" y="0" width="2400" height="1600"/>
  </clipPath>
</defs>
<path clip-path="url(#clip310)" d="M0 1600 L2400 1600 L2400 0 L0 0  Z" fill="#ffffff" fill-rule="evenodd" fill-opacity="1"/>
<defs>
  <clipPath id="clip311">
    <rect x="480" y="0" width="1681" height="1600"/>
  </clipPath>
</defs>
<path clip-path="url(#clip310)" d="M156.598 1486.45 L2352.76 1486.45 L2352.76 47.2441 L156.598 47.2441  Z" fill="#ffffff" fill-rule="evenodd" fill-opacity="1"/>
<defs>
  <clipPath id="clip312">
    <rect x="156" y="47" width="2197" height="1440"/>
  </clipPath>
</defs>
<polyline clip-path="url(#clip312)" style="stroke:#000000; stroke-linecap:round; stroke-linejoin:round; stroke-width:2; stroke-opacity:0.1; fill:none" points="175.59,1486.45 175.59,47.2441 "/>
<polyline clip-path="url(#clip312)" style="stroke:#000000; stroke-linecap:round; stroke-linejoin:round; stroke-width:2; stroke-opacity:0.1; fill:none" points="607.225,1486.45 607.225,47.2441 "/>
<polyline clip-path="url(#clip312)" style="stroke:#000000; stroke-linecap:round; stroke-linejoin:round; stroke-width:2; stroke-opacity:0.1; fill:none" points="1038.86,1486.45 1038.86,47.2441 "/>
<polyline clip-path="url(#clip312)" style="stroke:#000000; stroke-linecap:round; stroke-linejoin:round; stroke-width:2; stroke-opacity:0.1; fill:none" points="1470.49,1486.45 1470.49,47.2441 "/>
<polyline clip-path="url(#clip312)" style="stroke:#000000; stroke-linecap:round; stroke-linejoin:round; stroke-width:2; stroke-opacity:0.1; fill:none" points="1902.13,1486.45 1902.13,47.2441 "/>
<polyline clip-path="url(#clip312)" style="stroke:#000000; stroke-linecap:round; stroke-linejoin:round; stroke-width:2; stroke-opacity:0.1; fill:none" points="2333.76,1486.45 2333.76,47.2441 "/>
<polyline clip-path="url(#clip312)" style="stroke:#000000; stroke-linecap:round; stroke-linejoin:round; stroke-width:2; stroke-opacity:0.1; fill:none" points="156.598,1445.72 2352.76,1445.72 "/>
<polyline clip-path="url(#clip312)" style="stroke:#000000; stroke-linecap:round; stroke-linejoin:round; stroke-width:2; stroke-opacity:0.1; fill:none" points="156.598,1173.45 2352.76,1173.45 "/>
<polyline clip-path="url(#clip312)" style="stroke:#000000; stroke-linecap:round; stroke-linejoin:round; stroke-width:2; stroke-opacity:0.1; fill:none" points="156.598,901.18 2352.76,901.18 "/>
<polyline clip-path="url(#clip312)" style="stroke:#000000; stroke-linecap:round; stroke-linejoin:round; stroke-width:2; stroke-opacity:0.1; fill:none" points="156.598,628.912 2352.76,628.912 "/>
<polyline clip-path="url(#clip312)" style="stroke:#000000; stroke-linecap:round; stroke-linejoin:round; stroke-width:2; stroke-opacity:0.1; fill:none" points="156.598,356.644 2352.76,356.644 "/>
<polyline clip-path="url(#clip312)" style="stroke:#000000; stroke-linecap:round; stroke-linejoin:round; stroke-width:2; stroke-opacity:0.1; fill:none" points="156.598,84.3765 2352.76,84.3765 "/>
<polyline clip-path="url(#clip310)" style="stroke:#000000; stroke-linecap:round; stroke-linejoin:round; stroke-width:4; stroke-opacity:1; fill:none" points="156.598,1486.45 2352.76,1486.45 "/>
<polyline clip-path="url(#clip310)" style="stroke:#000000; stroke-linecap:round; stroke-linejoin:round; stroke-width:4; stroke-opacity:1; fill:none" points="175.59,1486.45 175.59,1467.55 "/>
<polyline clip-path="url(#clip310)" style="stroke:#000000; stroke-linecap:round; stroke-linejoin:round; stroke-width:4; stroke-opacity:1; fill:none" points="607.225,1486.45 607.225,1467.55 "/>
<polyline clip-path="url(#clip310)" style="stroke:#000000; stroke-linecap:round; stroke-linejoin:round; stroke-width:4; stroke-opacity:1; fill:none" points="1038.86,1486.45 1038.86,1467.55 "/>
<polyline clip-path="url(#clip310)" style="stroke:#000000; stroke-linecap:round; stroke-linejoin:round; stroke-width:4; stroke-opacity:1; fill:none" points="1470.49,1486.45 1470.49,1467.55 "/>
<polyline clip-path="url(#clip310)" style="stroke:#000000; stroke-linecap:round; stroke-linejoin:round; stroke-width:4; stroke-opacity:1; fill:none" points="1902.13,1486.45 1902.13,1467.55 "/>
<polyline clip-path="url(#clip310)" style="stroke:#000000; stroke-linecap:round; stroke-linejoin:round; stroke-width:4; stroke-opacity:1; fill:none" points="2333.76,1486.45 2333.76,1467.55 "/>
<path clip-path="url(#clip310)" d="M145.347 1532.02 L175.023 1532.02 L175.023 1535.95 L145.347 1535.95 L145.347 1532.02 Z" fill="#000000" fill-rule="nonzero" fill-opacity="1" /><path clip-path="url(#clip310)" d="M185.926 1544.91 L193.565 1544.91 L193.565 1518.55 L185.254 1520.21 L185.254 1515.95 L193.518 1514.29 L198.194 1514.29 L198.194 1544.91 L205.833 1544.91 L205.833 1548.85 L185.926 1548.85 L185.926 1544.91 Z" fill="#000000" fill-rule="nonzero" fill-opacity="1" /><path clip-path="url(#clip310)" d="M607.225 1517.37 Q603.614 1517.37 601.785 1520.93 Q599.98 1524.47 599.98 1531.6 Q599.98 1538.71 601.785 1542.27 Q603.614 1545.82 607.225 1545.82 Q610.859 1545.82 612.665 1542.27 Q614.493 1538.71 614.493 1531.6 Q614.493 1524.47 612.665 1520.93 Q610.859 1517.37 607.225 1517.37 M607.225 1513.66 Q613.035 1513.66 616.091 1518.27 Q619.169 1522.85 619.169 1531.6 Q619.169 1540.33 616.091 1544.94 Q613.035 1549.52 607.225 1549.52 Q601.415 1549.52 598.336 1544.94 Q595.281 1540.33 595.281 1531.6 Q595.281 1522.85 598.336 1518.27 Q601.415 1513.66 607.225 1513.66 Z" fill="#000000" fill-rule="nonzero" fill-opacity="1" /><path clip-path="url(#clip310)" d="M1029.24 1544.91 L1036.88 1544.91 L1036.88 1518.55 L1028.57 1520.21 L1028.57 1515.95 L1036.83 1514.29 L1041.51 1514.29 L1041.51 1544.91 L1049.15 1544.91 L1049.15 1548.85 L1029.24 1548.85 L1029.24 1544.91 Z" fill="#000000" fill-rule="nonzero" fill-opacity="1" /><path clip-path="url(#clip310)" d="M1465.15 1544.91 L1481.47 1544.91 L1481.47 1548.85 L1459.52 1548.85 L1459.52 1544.91 Q1462.18 1542.16 1466.77 1537.53 Q1471.37 1532.88 1472.55 1531.53 Q1474.8 1529.01 1475.68 1527.27 Q1476.58 1525.51 1476.58 1523.82 Q1476.58 1521.07 1474.64 1519.33 Q1472.72 1517.6 1469.61 1517.6 Q1467.42 1517.6 1464.96 1518.36 Q1462.53 1519.13 1459.75 1520.68 L1459.75 1515.95 Q1462.58 1514.82 1465.03 1514.24 Q1467.49 1513.66 1469.52 1513.66 Q1474.89 1513.66 1478.09 1516.35 Q1481.28 1519.03 1481.28 1523.52 Q1481.28 1525.65 1480.47 1527.57 Q1479.68 1529.47 1477.58 1532.07 Q1477 1532.74 1473.9 1535.95 Q1470.8 1539.15 1465.15 1544.91 Z" fill="#000000" fill-rule="nonzero" fill-opacity="1" /><path clip-path="url(#clip310)" d="M1906.38 1530.21 Q1909.73 1530.93 1911.61 1533.2 Q1913.51 1535.47 1913.51 1538.8 Q1913.51 1543.92 1909.99 1546.72 Q1906.47 1549.52 1899.99 1549.52 Q1897.81 1549.52 1895.5 1549.08 Q1893.21 1548.66 1890.75 1547.81 L1890.75 1543.29 Q1892.7 1544.43 1895.01 1545.01 Q1897.33 1545.58 1899.85 1545.58 Q1904.25 1545.58 1906.54 1543.85 Q1908.85 1542.11 1908.85 1538.8 Q1908.85 1535.75 1906.7 1534.03 Q1904.57 1532.3 1900.75 1532.3 L1896.72 1532.3 L1896.72 1528.45 L1900.94 1528.45 Q1904.39 1528.45 1906.21 1527.09 Q1908.04 1525.7 1908.04 1523.11 Q1908.04 1520.45 1906.15 1519.03 Q1904.27 1517.6 1900.75 1517.6 Q1898.83 1517.6 1896.63 1518.01 Q1894.43 1518.43 1891.79 1519.31 L1891.79 1515.14 Q1894.46 1514.4 1896.77 1514.03 Q1899.11 1513.66 1901.17 1513.66 Q1906.49 1513.66 1909.59 1516.09 Q1912.7 1518.5 1912.7 1522.62 Q1912.7 1525.49 1911.05 1527.48 Q1909.41 1529.45 1906.38 1530.21 Z" fill="#000000" fill-rule="nonzero" fill-opacity="1" /><path clip-path="url(#clip310)" d="M2336.77 1518.36 L2324.97 1536.81 L2336.77 1536.81 L2336.77 1518.36 M2335.55 1514.29 L2341.43 1514.29 L2341.43 1536.81 L2346.36 1536.81 L2346.36 1540.7 L2341.43 1540.7 L2341.43 1548.85 L2336.77 1548.85 L2336.77 1540.7 L2321.17 1540.7 L2321.17 1536.19 L2335.55 1514.29 Z" fill="#000000" fill-rule="nonzero" fill-opacity="1" /><polyline clip-path="url(#clip310)" style="stroke:#000000; stroke-linecap:round; stroke-linejoin:round; stroke-width:4; stroke-opacity:1; fill:none" points="156.598,1486.45 156.598,47.2441 "/>
<polyline clip-path="url(#clip310)" style="stroke:#000000; stroke-linecap:round; stroke-linejoin:round; stroke-width:4; stroke-opacity:1; fill:none" points="156.598,1445.72 175.496,1445.72 "/>
<polyline clip-path="url(#clip310)" style="stroke:#000000; stroke-linecap:round; stroke-linejoin:round; stroke-width:4; stroke-opacity:1; fill:none" points="156.598,1173.45 175.496,1173.45 "/>
<polyline clip-path="url(#clip310)" style="stroke:#000000; stroke-linecap:round; stroke-linejoin:round; stroke-width:4; stroke-opacity:1; fill:none" points="156.598,901.18 175.496,901.18 "/>
<polyline clip-path="url(#clip310)" style="stroke:#000000; stroke-linecap:round; stroke-linejoin:round; stroke-width:4; stroke-opacity:1; fill:none" points="156.598,628.912 175.496,628.912 "/>
<polyline clip-path="url(#clip310)" style="stroke:#000000; stroke-linecap:round; stroke-linejoin:round; stroke-width:4; stroke-opacity:1; fill:none" points="156.598,356.644 175.496,356.644 "/>
<polyline clip-path="url(#clip310)" style="stroke:#000000; stroke-linecap:round; stroke-linejoin:round; stroke-width:4; stroke-opacity:1; fill:none" points="156.598,84.3765 175.496,84.3765 "/>
<path clip-path="url(#clip310)" d="M63.4226 1431.51 Q59.8115 1431.51 57.9828 1435.08 Q56.1773 1438.62 56.1773 1445.75 Q56.1773 1452.86 57.9828 1456.42 Q59.8115 1459.96 63.4226 1459.96 Q67.0569 1459.96 68.8624 1456.42 Q70.6911 1452.86 70.6911 1445.75 Q70.6911 1438.62 68.8624 1435.08 Q67.0569 1431.51 63.4226 1431.51 M63.4226 1427.81 Q69.2328 1427.81 72.2883 1432.42 Q75.367 1437 75.367 1445.75 Q75.367 1454.48 72.2883 1459.08 Q69.2328 1463.67 63.4226 1463.67 Q57.6125 1463.67 54.5338 1459.08 Q51.4782 1454.48 51.4782 1445.75 Q51.4782 1437 54.5338 1432.42 Q57.6125 1427.81 63.4226 1427.81 Z" fill="#000000" fill-rule="nonzero" fill-opacity="1" /><path clip-path="url(#clip310)" d="M83.5845 1457.12 L88.4688 1457.12 L88.4688 1463 L83.5845 1463 L83.5845 1457.12 Z" fill="#000000" fill-rule="nonzero" fill-opacity="1" /><path clip-path="url(#clip310)" d="M108.654 1431.51 Q105.043 1431.51 103.214 1435.08 Q101.409 1438.62 101.409 1445.75 Q101.409 1452.86 103.214 1456.42 Q105.043 1459.96 108.654 1459.96 Q112.288 1459.96 114.094 1456.42 Q115.922 1452.86 115.922 1445.75 Q115.922 1438.62 114.094 1435.08 Q112.288 1431.51 108.654 1431.51 M108.654 1427.81 Q114.464 1427.81 117.52 1432.42 Q120.598 1437 120.598 1445.75 Q120.598 1454.48 117.52 1459.08 Q114.464 1463.67 108.654 1463.67 Q102.844 1463.67 99.765 1459.08 Q96.7095 1454.48 96.7095 1445.75 Q96.7095 1437 99.765 1432.42 Q102.844 1427.81 108.654 1427.81 Z" fill="#000000" fill-rule="nonzero" fill-opacity="1" /><path clip-path="url(#clip310)" d="M64.6495 1159.25 Q61.0384 1159.25 59.2097 1162.81 Q57.4041 1166.35 57.4041 1173.48 Q57.4041 1180.59 59.2097 1184.15 Q61.0384 1187.7 64.6495 1187.7 Q68.2837 1187.7 70.0892 1184.15 Q71.9179 1180.59 71.9179 1173.48 Q71.9179 1166.35 70.0892 1162.81 Q68.2837 1159.25 64.6495 1159.25 M64.6495 1155.54 Q70.4596 1155.54 73.5152 1160.15 Q76.5938 1164.73 76.5938 1173.48 Q76.5938 1182.21 73.5152 1186.82 Q70.4596 1191.4 64.6495 1191.4 Q58.8393 1191.4 55.7606 1186.82 Q52.7051 1182.21 52.7051 1173.48 Q52.7051 1164.73 55.7606 1160.15 Q58.8393 1155.54 64.6495 1155.54 Z" fill="#000000" fill-rule="nonzero" fill-opacity="1" /><path clip-path="url(#clip310)" d="M84.8114 1184.85 L89.6956 1184.85 L89.6956 1190.73 L84.8114 1190.73 L84.8114 1184.85 Z" fill="#000000" fill-rule="nonzero" fill-opacity="1" /><path clip-path="url(#clip310)" d="M100.691 1186.79 L108.33 1186.79 L108.33 1160.43 L100.02 1162.09 L100.02 1157.83 L108.283 1156.17 L112.959 1156.17 L112.959 1186.79 L120.598 1186.79 L120.598 1190.73 L100.691 1190.73 L100.691 1186.79 Z" fill="#000000" fill-rule="nonzero" fill-opacity="1" /><path clip-path="url(#clip310)" d="M65.0198 886.979 Q61.4087 886.979 59.58 890.543 Q57.7745 894.085 57.7745 901.215 Q57.7745 908.321 59.58 911.886 Q61.4087 915.428 65.0198 915.428 Q68.6541 915.428 70.4596 911.886 Q72.2883 908.321 72.2883 901.215 Q72.2883 894.085 70.4596 890.543 Q68.6541 886.979 65.0198 886.979 M65.0198 883.275 Q70.83 883.275 73.8855 887.881 Q76.9642 892.465 76.9642 901.215 Q76.9642 909.942 73.8855 914.548 Q70.83 919.131 65.0198 919.131 Q59.2097 919.131 56.131 914.548 Q53.0754 909.942 53.0754 901.215 Q53.0754 892.465 56.131 887.881 Q59.2097 883.275 65.0198 883.275 Z" fill="#000000" fill-rule="nonzero" fill-opacity="1" /><path clip-path="url(#clip310)" d="M85.1818 912.58 L90.066 912.58 L90.066 918.46 L85.1818 918.46 L85.1818 912.58 Z" fill="#000000" fill-rule="nonzero" fill-opacity="1" /><path clip-path="url(#clip310)" d="M104.279 914.525 L120.598 914.525 L120.598 918.46 L98.6539 918.46 L98.6539 914.525 Q101.316 911.77 105.899 907.141 Q110.506 902.488 111.686 901.145 Q113.932 898.622 114.811 896.886 Q115.714 895.127 115.714 893.437 Q115.714 890.682 113.77 888.946 Q111.848 887.21 108.746 887.21 Q106.547 887.21 104.094 887.974 Q101.663 888.738 98.8854 890.289 L98.8854 885.567 Q101.709 884.432 104.163 883.854 Q106.617 883.275 108.654 883.275 Q114.024 883.275 117.219 885.96 Q120.413 888.645 120.413 893.136 Q120.413 895.266 119.603 897.187 Q118.816 899.085 116.709 901.678 Q116.131 902.349 113.029 905.567 Q109.927 908.761 104.279 914.525 Z" fill="#000000" fill-rule="nonzero" fill-opacity="1" /><path clip-path="url(#clip310)" d="M64.0708 614.711 Q60.4597 614.711 58.631 618.276 Q56.8254 621.817 56.8254 628.947 Q56.8254 636.053 58.631 639.618 Q60.4597 643.16 64.0708 643.16 Q67.705 643.16 69.5105 639.618 Q71.3392 636.053 71.3392 628.947 Q71.3392 621.817 69.5105 618.276 Q67.705 614.711 64.0708 614.711 M64.0708 611.007 Q69.8809 611.007 72.9365 615.614 Q76.0151 620.197 76.0151 628.947 Q76.0151 637.674 72.9365 642.28 Q69.8809 646.863 64.0708 646.863 Q58.2606 646.863 55.1819 642.28 Q52.1264 637.674 52.1264 628.947 Q52.1264 620.197 55.1819 615.614 Q58.2606 611.007 64.0708 611.007 Z" fill="#000000" fill-rule="nonzero" fill-opacity="1" /><path clip-path="url(#clip310)" d="M84.2327 640.313 L89.1169 640.313 L89.1169 646.192 L84.2327 646.192 L84.2327 640.313 Z" fill="#000000" fill-rule="nonzero" fill-opacity="1" /><path clip-path="url(#clip310)" d="M113.469 627.558 Q116.825 628.276 118.7 630.544 Q120.598 632.813 120.598 636.146 Q120.598 641.262 117.08 644.063 Q113.561 646.863 107.08 646.863 Q104.904 646.863 102.589 646.424 Q100.297 646.007 97.8437 645.151 L97.8437 640.637 Q99.7882 641.771 102.103 642.35 Q104.418 642.928 106.941 642.928 Q111.339 642.928 113.631 641.192 Q115.945 639.456 115.945 636.146 Q115.945 633.09 113.793 631.377 Q111.663 629.641 107.844 629.641 L103.816 629.641 L103.816 625.799 L108.029 625.799 Q111.478 625.799 113.307 624.433 Q115.135 623.044 115.135 620.452 Q115.135 617.79 113.237 616.378 Q111.362 614.942 107.844 614.942 Q105.922 614.942 103.723 615.359 Q101.524 615.776 98.8854 616.655 L98.8854 612.489 Q101.547 611.748 103.862 611.378 Q106.2 611.007 108.26 611.007 Q113.584 611.007 116.686 613.438 Q119.788 615.845 119.788 619.965 Q119.788 622.836 118.145 624.827 Q116.501 626.794 113.469 627.558 Z" fill="#000000" fill-rule="nonzero" fill-opacity="1" /><path clip-path="url(#clip310)" d="M62.9365 342.443 Q59.3254 342.443 57.4967 346.008 Q55.6912 349.549 55.6912 356.679 Q55.6912 363.785 57.4967 367.35 Q59.3254 370.892 62.9365 370.892 Q66.5707 370.892 68.3763 367.35 Q70.205 363.785 70.205 356.679 Q70.205 349.549 68.3763 346.008 Q66.5707 342.443 62.9365 342.443 M62.9365 338.739 Q68.7467 338.739 71.8022 343.346 Q74.8809 347.929 74.8809 356.679 Q74.8809 365.406 71.8022 370.012 Q68.7467 374.596 62.9365 374.596 Q57.1264 374.596 54.0477 370.012 Q50.9921 365.406 50.9921 356.679 Q50.9921 347.929 54.0477 343.346 Q57.1264 338.739 62.9365 338.739 Z" fill="#000000" fill-rule="nonzero" fill-opacity="1" /><path clip-path="url(#clip310)" d="M83.0984 368.045 L87.9827 368.045 L87.9827 373.924 L83.0984 373.924 L83.0984 368.045 Z" fill="#000000" fill-rule="nonzero" fill-opacity="1" /><path clip-path="url(#clip310)" d="M111.015 343.438 L99.2095 361.887 L111.015 361.887 L111.015 343.438 M109.788 339.364 L115.668 339.364 L115.668 361.887 L120.598 361.887 L120.598 365.776 L115.668 365.776 L115.668 373.924 L111.015 373.924 L111.015 365.776 L95.4132 365.776 L95.4132 361.262 L109.788 339.364 Z" fill="#000000" fill-rule="nonzero" fill-opacity="1" /><path clip-path="url(#clip310)" d="M64.418 70.1752 Q60.8069 70.1752 58.9782 73.74 Q57.1726 77.2816 57.1726 84.4112 Q57.1726 91.5177 58.9782 95.0825 Q60.8069 98.6241 64.418 98.6241 Q68.0522 98.6241 69.8578 95.0825 Q71.6865 91.5177 71.6865 84.4112 Q71.6865 77.2816 69.8578 73.74 Q68.0522 70.1752 64.418 70.1752 M64.418 66.4715 Q70.2281 66.4715 73.2837 71.0779 Q76.3624 75.6613 76.3624 84.4112 Q76.3624 93.138 73.2837 97.7445 Q70.2281 102.328 64.418 102.328 Q58.6078 102.328 55.5291 97.7445 Q52.4736 93.138 52.4736 84.4112 Q52.4736 75.6613 55.5291 71.0779 Q58.6078 66.4715 64.418 66.4715 Z" fill="#000000" fill-rule="nonzero" fill-opacity="1" /><path clip-path="url(#clip310)" d="M84.5799 95.7769 L89.4641 95.7769 L89.4641 101.656 L84.5799 101.656 L84.5799 95.7769 Z" fill="#000000" fill-rule="nonzero" fill-opacity="1" /><path clip-path="url(#clip310)" d="M99.6956 67.0965 L118.052 67.0965 L118.052 71.0317 L103.978 71.0317 L103.978 79.5038 Q104.996 79.1566 106.015 78.9946 Q107.033 78.8094 108.052 78.8094 Q113.839 78.8094 117.219 81.9807 Q120.598 85.1519 120.598 90.5686 Q120.598 96.1473 117.126 99.2491 Q113.654 102.328 107.334 102.328 Q105.159 102.328 102.89 101.957 Q100.645 101.587 98.2372 100.846 L98.2372 96.1473 Q100.321 97.2815 102.543 97.8371 Q104.765 98.3926 107.242 98.3926 Q111.246 98.3926 113.584 96.2861 Q115.922 94.1797 115.922 90.5686 Q115.922 86.9575 113.584 84.851 Q111.246 82.7446 107.242 82.7446 Q105.367 82.7446 103.492 83.1612 Q101.64 83.5779 99.6956 84.4575 L99.6956 67.0965 Z" fill="#000000" fill-rule="nonzero" fill-opacity="1" /><polyline clip-path="url(#clip312)" style="stroke:#009af9; stroke-linecap:round; stroke-linejoin:round; stroke-width:4; stroke-opacity:1; fill:none" points="218.754,1430.63 222.207,1430.17 225.66,1429.7 229.113,1429.22 232.566,1428.72 236.019,1428.21 239.472,1427.69 242.925,1427.15 246.378,1426.6 249.831,1426.04 253.284,1425.46 256.737,1424.86 260.191,1424.25 263.644,1423.63 267.097,1422.98 270.55,1422.33 274.003,1421.65 277.456,1420.96 280.909,1420.25 284.362,1419.52 287.815,1418.78 291.268,1418.01 294.721,1417.23 298.174,1416.43 301.628,1415.61 305.081,1414.77 308.534,1413.91 311.987,1413.02 315.44,1412.12 318.893,1411.2 322.346,1410.25 325.799,1409.28 329.252,1408.29 332.705,1407.27 336.158,1406.24 339.611,1405.17 343.064,1404.09 346.518,1402.98 349.971,1401.84 353.424,1400.68 356.877,1399.49 360.33,1398.27 363.783,1397.03 367.236,1395.76 370.689,1394.46 374.142,1393.14 377.595,1391.78 381.048,1390.4 384.501,1388.98 387.954,1387.54 391.408,1386.06 394.861,1384.55 398.314,1383.01 401.767,1381.44 405.22,1379.84 408.673,1378.2 412.126,1376.53 415.579,1374.83 419.032,1373.09 422.485,1371.31 425.938,1369.5 429.391,1367.65 432.844,1365.77 436.298,1363.85 439.751,1361.89 443.204,1359.89 446.657,1357.85 450.11,1355.78 453.563,1353.66 457.016,1351.51 460.469,1349.31 463.922,1347.07 467.375,1344.79 470.828,1342.47 474.281,1340.1 477.734,1337.69 481.188,1335.24 484.641,1332.75 488.094,1330.2 491.547,1327.62 495,1324.98 498.453,1322.3 501.906,1319.58 505.359,1316.8 508.812,1313.98 512.265,1311.11 515.718,1308.19 519.171,1305.23 522.625,1302.21 526.078,1299.14 529.531,1296.02 532.984,1292.86 536.437,1289.63 539.89,1286.36 543.343,1283.04 546.796,1279.66 550.249,1276.23 553.702,1272.74 557.155,1269.21 560.608,1265.61 564.061,1261.97 567.515,1258.26 570.968,1254.5 574.421,1250.69 577.874,1246.82 581.327,1242.89 584.78,1238.91 588.233,1234.87 591.686,1230.77 595.139,1226.62 598.592,1222.4 602.045,1218.13 605.498,1213.8 608.951,1209.41 612.405,1204.96 615.858,1200.45 619.311,1195.89 622.764,1191.26 626.217,1186.57 629.67,1181.83 633.123,1177.02 636.576,1172.15 640.029,1167.23 643.482,1162.24 646.935,1157.19 650.388,1152.08 653.841,1146.92 657.295,1141.69 660.748,1136.4 664.201,1131.05 667.654,1125.63 671.107,1120.16 674.56,1114.63 678.013,1109.04 681.466,1103.39 684.919,1097.67 688.372,1091.9 691.825,1086.07 695.278,1080.18 698.731,1074.22 702.185,1068.21 705.638,1062.14 709.091,1056.02 712.544,1049.83 715.997,1043.59 719.45,1037.28 722.903,1030.92 726.356,1024.51 729.809,1018.04 733.262,1011.51 736.715,1004.92 740.168,998.283 743.622,991.589 747.075,984.841 750.528,978.039 753.981,971.185 757.434,964.278 760.887,957.32 764.34,950.31 767.793,943.25 771.246,936.141 774.699,928.983 778.152,921.776 781.605,914.522 785.058,907.222 788.512,899.875 791.965,892.484 795.418,885.049 798.871,877.571 802.324,870.05 805.777,862.489 809.23,854.887 812.683,847.246 816.136,839.566 819.589,831.85 823.042,824.097 826.495,816.31 829.948,808.488 833.402,800.634 836.855,792.749 840.308,784.833 843.761,776.888 847.214,768.915 850.667,760.916 854.12,752.891 857.573,744.843 861.026,736.772 864.479,728.679 867.932,720.567 871.385,712.437 874.838,704.289 878.292,696.126 881.745,687.948 885.198,679.758 888.651,671.557 892.104,663.347 895.557,655.128 899.01,646.903 902.463,638.673 905.916,630.44 909.369,622.205 912.822,613.97 916.275,605.737 919.728,597.507 923.182,589.282 926.635,581.064 930.088,572.855 933.541,564.655 936.994,556.467 940.447,548.294 943.9,540.135 947.353,531.994 950.806,523.871 954.259,515.77 957.712,507.691 961.165,499.636 964.619,491.608 968.072,483.608 971.525,475.638 974.978,467.699 978.431,459.795 981.884,451.925 985.337,444.093 988.79,436.301 992.243,428.549 995.696,420.84 999.149,413.176 1002.6,405.559 1006.06,397.991 1009.51,390.473 1012.96,383.007 1016.41,375.595 1019.87,368.24 1023.32,360.942 1026.77,353.705 1030.23,346.528 1033.68,339.416 1037.13,332.368 1040.59,325.388 1044.04,318.477 1047.49,311.636 1050.95,304.869 1054.4,298.175 1057.85,291.558 1061.3,285.018 1064.76,278.558 1068.21,272.18 1071.66,265.885 1075.12,259.674 1078.57,253.551 1082.02,247.515 1085.48,241.569 1088.93,235.715 1092.38,229.954 1095.84,224.287 1099.29,218.717 1102.74,213.245 1106.19,207.872 1109.65,202.6 1113.1,197.43 1116.55,192.364 1120.01,187.404 1123.46,182.55 1126.91,177.804 1130.37,173.168 1133.82,168.642 1137.27,164.229 1140.73,159.929 1144.18,155.743 1147.63,151.673 1151.08,147.72 1154.54,143.885 1157.99,140.17 1161.44,136.575 1164.9,133.101 1168.35,129.75 1171.8,126.521 1175.26,123.418 1178.71,120.439 1182.16,117.587 1185.62,114.861 1189.07,112.264 1192.52,109.794 1195.97,107.455 1199.43,105.245 1202.88,103.165 1206.33,101.217 1209.79,99.4008 1213.24,97.7169 1216.69,96.1658 1220.15,94.748 1223.6,93.464 1227.05,92.3141 1230.51,91.2987 1233.96,90.418 1237.41,89.6724 1240.86,89.062 1244.32,88.5871 1247.77,88.2478 1251.22,88.0442 1254.68,87.9763 1258.13,88.0442 1261.58,88.2478 1265.04,88.5871 1268.49,89.062 1271.94,89.6724 1275.4,90.418 1278.85,91.2987 1282.3,92.3141 1285.75,93.464 1289.21,94.748 1292.66,96.1658 1296.11,97.7169 1299.57,99.4008 1303.02,101.217 1306.47,103.165 1309.93,105.245 1313.38,107.455 1316.83,109.794 1320.29,112.264 1323.74,114.861 1327.19,117.587 1330.64,120.439 1334.1,123.418 1337.55,126.521 1341,129.75 1344.46,133.101 1347.91,136.575 1351.36,140.17 1354.82,143.885 1358.27,147.72 1361.72,151.673 1365.18,155.743 1368.63,159.929 1372.08,164.229 1375.53,168.642 1378.99,173.168 1382.44,177.804 1385.89,182.55 1389.35,187.404 1392.8,192.364 1396.25,197.43 1399.71,202.6 1403.16,207.872 1406.61,213.245 1410.07,218.717 1413.52,224.287 1416.97,229.954 1420.42,235.715 1423.88,241.569 1427.33,247.515 1430.78,253.551 1434.24,259.674 1437.69,265.885 1441.14,272.18 1444.6,278.558 1448.05,285.018 1451.5,291.558 1454.96,298.175 1458.41,304.869 1461.86,311.636 1465.31,318.477 1468.77,325.388 1472.22,332.368 1475.67,339.416 1479.13,346.528 1482.58,353.705 1486.03,360.942 1489.49,368.24 1492.94,375.595 1496.39,383.007 1499.85,390.473 1503.3,397.991 1506.75,405.559 1510.2,413.176 1513.66,420.84 1517.11,428.549 1520.56,436.301 1524.02,444.093 1527.47,451.925 1530.92,459.795 1534.38,467.699 1537.83,475.638 1541.28,483.608 1544.74,491.608 1548.19,499.636 1551.64,507.691 1555.09,515.77 1558.55,523.871 1562,531.994 1565.45,540.135 1568.91,548.294 1572.36,556.467 1575.81,564.655 1579.27,572.855 1582.72,581.064 1586.17,589.282 1589.63,597.507 1593.08,605.737 1596.53,613.97 1599.98,622.205 1603.44,630.44 1606.89,638.673 1610.34,646.903 1613.8,655.128 1617.25,663.347 1620.7,671.557 1624.16,679.758 1627.61,687.948 1631.06,696.126 1634.52,704.289 1637.97,712.437 1641.42,720.567 1644.87,728.679 1648.33,736.772 1651.78,744.843 1655.23,752.891 1658.69,760.916 1662.14,768.915 1665.59,776.888 1669.05,784.833 1672.5,792.749 1675.95,800.634 1679.41,808.488 1682.86,816.31 1686.31,824.097 1689.76,831.85 1693.22,839.566 1696.67,847.246 1700.12,854.887 1703.58,862.489 1707.03,870.05 1710.48,877.571 1713.94,885.049 1717.39,892.484 1720.84,899.875 1724.3,907.222 1727.75,914.522 1731.2,921.776 1734.65,928.983 1738.11,936.141 1741.56,943.25 1745.01,950.31 1748.47,957.32 1751.92,964.278 1755.37,971.185 1758.83,978.039 1762.28,984.841 1765.73,991.589 1769.19,998.283 1772.64,1004.92 1776.09,1011.51 1779.54,1018.04 1783,1024.51 1786.45,1030.92 1789.9,1037.28 1793.36,1043.59 1796.81,1049.83 1800.26,1056.02 1803.72,1062.14 1807.17,1068.21 1810.62,1074.22 1814.08,1080.18 1817.53,1086.07 1820.98,1091.9 1824.43,1097.67 1827.89,1103.39 1831.34,1109.04 1834.79,1114.63 1838.25,1120.16 1841.7,1125.63 1845.15,1131.05 1848.61,1136.4 1852.06,1141.69 1855.51,1146.92 1858.97,1152.08 1862.42,1157.19 1865.87,1162.24 1869.32,1167.23 1872.78,1172.15 1876.23,1177.02 1879.68,1181.83 1883.14,1186.57 1886.59,1191.26 1890.04,1195.89 1893.5,1200.45 1896.95,1204.96 1900.4,1209.41 1903.86,1213.8 1907.31,1218.13 1910.76,1222.4 1914.21,1226.62 1917.67,1230.77 1921.12,1234.87 1924.57,1238.91 1928.03,1242.89 1931.48,1246.82 1934.93,1250.69 1938.39,1254.5 1941.84,1258.26 1945.29,1261.97 1948.75,1265.61 1952.2,1269.21 1955.65,1272.74 1959.11,1276.23 1962.56,1279.66 1966.01,1283.04 1969.46,1286.36 1972.92,1289.63 1976.37,1292.86 1979.82,1296.02 1983.28,1299.14 1986.73,1302.21 1990.18,1305.23 1993.64,1308.19 1997.09,1311.11 2000.54,1313.98 2004,1316.8 2007.45,1319.58 2010.9,1322.3 2014.35,1324.98 2017.81,1327.62 2021.26,1330.2 2024.71,1332.75 2028.17,1335.24 2031.62,1337.69 2035.07,1340.1 2038.53,1342.47 2041.98,1344.79 2045.43,1347.07 2048.89,1349.31 2052.34,1351.51 2055.79,1353.66 2059.24,1355.78 2062.7,1357.85 2066.15,1359.89 2069.6,1361.89 2073.06,1363.85 2076.51,1365.77 2079.96,1367.65 2083.42,1369.5 2086.87,1371.31 2090.32,1373.09 2093.78,1374.83 2097.23,1376.53 2100.68,1378.2 2104.13,1379.84 2107.59,1381.44 2111.04,1383.01 2114.49,1384.55 2117.95,1386.06 2121.4,1387.54 2124.85,1388.98 2128.31,1390.4 2131.76,1391.78 2135.21,1393.14 2138.67,1394.46 2142.12,1395.76 2145.57,1397.03 2149.02,1398.27 2152.48,1399.49 2155.93,1400.68 2159.38,1401.84 2162.84,1402.98 2166.29,1404.09 2169.74,1405.17 2173.2,1406.24 2176.65,1407.27 2180.1,1408.29 2183.56,1409.28 2187.01,1410.25 2190.46,1411.2 2193.91,1412.12 2197.37,1413.02 2200.82,1413.91 2204.27,1414.77 2207.73,1415.61 2211.18,1416.43 2214.63,1417.23 2218.09,1418.01 2221.54,1418.78 2224.99,1419.52 2228.45,1420.25 2231.9,1420.96 2235.35,1421.65 2238.8,1422.33 2242.26,1422.98 2245.71,1423.63 2249.16,1424.25 2252.62,1424.86 2256.07,1425.46 2259.52,1426.04 2262.98,1426.6 2266.43,1427.15 2269.88,1427.69 2273.34,1428.21 2276.79,1428.72 2280.24,1429.22 2283.69,1429.7 2287.15,1430.17 2290.6,1430.63 "/>
<path clip-path="url(#clip312)" d="M1824.43 1445.72 L1827.89 1445.72 L1831.34 1445.72 L1834.79 1445.72 L1838.25 1445.72 L1841.7 1445.72 L1845.15 1445.72 L1848.61 1445.72 L1852.06 1445.72 L1855.51 1445.72 L1858.97 1445.72 L1862.42 1445.72 L1865.87 1445.72 L1869.32 1445.72 L1872.78 1445.72 L1876.23 1445.72 L1879.68 1445.72 L1883.14 1445.72 L1886.59 1445.72 L1890.04 1445.72 L1893.5 1445.72 L1896.95 1445.72 L1900.4 1445.72 L1903.86 1445.72 L1907.31 1445.72 L1910.76 1445.72 L1914.21 1445.72 L1917.67 1445.72 L1921.12 1445.72 L1924.57 1445.72 L1928.03 1445.72 L1931.48 1445.72 L1934.93 1445.72 L1938.39 1445.72 L1941.84 1445.72 L1945.29 1445.72 L1948.75 1445.72 L1952.2 1445.72 L1955.65 1445.72 L1959.11 1445.72 L1962.56 1445.72 L1966.01 1445.72 L1969.46 1445.72 L1972.92 1445.72 L1976.37 1445.72 L1979.82 1445.72 L1983.28 1445.72 L1986.73 1445.72 L1990.18 1445.72 L1993.64 1445.72 L1997.09 1445.72 L2000.54 1445.72 L2004 1445.72 L2007.45 1445.72 L2010.9 1445.72 L2014.35 1445.72 L2017.81 1445.72 L2021.26 1445.72 L2024.71 1445.72 L2028.17 1445.72 L2031.62 1445.72 L2035.07 1445.72 L2038.53 1445.72 L2041.98 1445.72 L2045.43 1445.72 L2048.89 1445.72 L2052.34 1445.72 L2055.79 1445.72 L2059.24 1445.72 L2062.7 1445.72 L2066.15 1445.72 L2069.6 1445.72 L2073.06 1445.72 L2076.51 1445.72 L2079.96 1445.72 L2083.42 1445.72 L2086.87 1445.72 L2090.32 1445.72 L2093.78 1445.72 L2097.23 1445.72 L2100.68 1445.72 L2104.13 1445.72 L2107.59 1445.72 L2111.04 1445.72 L2114.49 1445.72 L2117.95 1445.72 L2121.4 1445.72 L2124.85 1445.72 L2128.31 1445.72 L2131.76 1445.72 L2135.21 1445.72 L2138.67 1445.72 L2142.12 1445.72 L2145.57 1445.72 L2149.02 1445.72 L2152.48 1445.72 L2155.93 1445.72 L2159.38 1445.72 L2162.84 1445.72 L2166.29 1445.72 L2169.74 1445.72 L2173.2 1445.72 L2176.65 1445.72 L2180.1 1445.72 L2183.56 1445.72 L2187.01 1445.72 L2190.46 1445.72 L2193.91 1445.72 L2197.37 1445.72 L2200.82 1445.72 L2204.27 1445.72 L2207.73 1445.72 L2211.18 1445.72 L2214.63 1445.72 L2218.09 1445.72 L2221.54 1445.72 L2224.99 1445.72 L2228.45 1445.72 L2231.9 1445.72 L2235.35 1445.72 L2238.8 1445.72 L2242.26 1445.72 L2245.71 1445.72 L2249.16 1445.72 L2252.62 1445.72 L2256.07 1445.72 L2259.52 1445.72 L2262.98 1445.72 L2266.43 1445.72 L2269.88 1445.72 L2273.34 1445.72 L2276.79 1445.72 L2280.24 1445.72 L2283.69 1445.72 L2287.15 1445.72 L2290.6 1445.72 L2290.6 1430.63 L2287.15 1430.17 L2283.69 1429.7 L2280.24 1429.22 L2276.79 1428.72 L2273.34 1428.21 L2269.88 1427.69 L2266.43 1427.15 L2262.98 1426.6 L2259.52 1426.04 L2256.07 1425.46 L2252.62 1424.86 L2249.16 1424.25 L2245.71 1423.63 L2242.26 1422.98 L2238.8 1422.33 L2235.35 1421.65 L2231.9 1420.96 L2228.45 1420.25 L2224.99 1419.52 L2221.54 1418.78 L2218.09 1418.01 L2214.63 1417.23 L2211.18 1416.43 L2207.73 1415.61 L2204.27 1414.77 L2200.82 1413.91 L2197.37 1413.02 L2193.91 1412.12 L2190.46 1411.2 L2187.01 1410.25 L2183.56 1409.28 L2180.1 1408.29 L2176.65 1407.27 L2173.2 1406.24 L2169.74 1405.17 L2166.29 1404.09 L2162.84 1402.98 L2159.38 1401.84 L2155.93 1400.68 L2152.48 1399.49 L2149.02 1398.27 L2145.57 1397.03 L2142.12 1395.76 L2138.67 1394.46 L2135.21 1393.14 L2131.76 1391.78 L2128.31 1390.4 L2124.85 1388.98 L2121.4 1387.54 L2117.95 1386.06 L2114.49 1384.55 L2111.04 1383.01 L2107.59 1381.44 L2104.13 1379.84 L2100.68 1378.2 L2097.23 1376.53 L2093.78 1374.83 L2090.32 1373.09 L2086.87 1371.31 L2083.42 1369.5 L2079.96 1367.65 L2076.51 1365.77 L2073.06 1363.85 L2069.6 1361.89 L2066.15 1359.89 L2062.7 1357.85 L2059.24 1355.78 L2055.79 1353.66 L2052.34 1351.51 L2048.89 1349.31 L2045.43 1347.07 L2041.98 1344.79 L2038.53 1342.47 L2035.07 1340.1 L2031.62 1337.69 L2028.17 1335.24 L2024.71 1332.75 L2021.26 1330.2 L2017.81 1327.62 L2014.35 1324.98 L2010.9 1322.3 L2007.45 1319.58 L2004 1316.8 L2000.54 1313.98 L1997.09 1311.11 L1993.64 1308.19 L1990.18 1305.23 L1986.73 1302.21 L1983.28 1299.14 L1979.82 1296.02 L1976.37 1292.86 L1972.92 1289.63 L1969.46 1286.36 L1966.01 1283.04 L1962.56 1279.66 L1959.11 1276.23 L1955.65 1272.74 L1952.2 1269.21 L1948.75 1265.61 L1945.29 1261.97 L1941.84 1258.26 L1938.39 1254.5 L1934.93 1250.69 L1931.48 1246.82 L1928.03 1242.89 L1924.57 1238.91 L1921.12 1234.87 L1917.67 1230.77 L1914.21 1226.62 L1910.76 1222.4 L1907.31 1218.13 L1903.86 1213.8 L1900.4 1209.41 L1896.95 1204.96 L1893.5 1200.45 L1890.04 1195.89 L1886.59 1191.26 L1883.14 1186.57 L1879.68 1181.83 L1876.23 1177.02 L1872.78 1172.15 L1869.32 1167.23 L1865.87 1162.24 L1862.42 1157.19 L1858.97 1152.08 L1855.51 1146.92 L1852.06 1141.69 L1848.61 1136.4 L1845.15 1131.05 L1841.7 1125.63 L1838.25 1120.16 L1834.79 1114.63 L1831.34 1109.04 L1827.89 1103.39 L1824.43 1097.67  Z" fill="#009af9" fill-rule="evenodd" fill-opacity="0.2"/>
<polyline clip-path="url(#clip312)" style="stroke:#009af9; stroke-linecap:round; stroke-linejoin:round; stroke-width:4; stroke-opacity:1; fill:none" points="1824.43,1445.72 1827.89,1445.72 1831.34,1445.72 1834.79,1445.72 1838.25,1445.72 1841.7,1445.72 1845.15,1445.72 1848.61,1445.72 1852.06,1445.72 1855.51,1445.72 1858.97,1445.72 1862.42,1445.72 1865.87,1445.72 1869.32,1445.72 1872.78,1445.72 1876.23,1445.72 1879.68,1445.72 1883.14,1445.72 1886.59,1445.72 1890.04,1445.72 1893.5,1445.72 1896.95,1445.72 1900.4,1445.72 1903.86,1445.72 1907.31,1445.72 1910.76,1445.72 1914.21,1445.72 1917.67,1445.72 1921.12,1445.72 1924.57,1445.72 1928.03,1445.72 1931.48,1445.72 1934.93,1445.72 1938.39,1445.72 1941.84,1445.72 1945.29,1445.72 1948.75,1445.72 1952.2,1445.72 1955.65,1445.72 1959.11,1445.72 1962.56,1445.72 1966.01,1445.72 1969.46,1445.72 1972.92,1445.72 1976.37,1445.72 1979.82,1445.72 1983.28,1445.72 1986.73,1445.72 1990.18,1445.72 1993.64,1445.72 1997.09,1445.72 2000.54,1445.72 2004,1445.72 2007.45,1445.72 2010.9,1445.72 2014.35,1445.72 2017.81,1445.72 2021.26,1445.72 2024.71,1445.72 2028.17,1445.72 2031.62,1445.72 2035.07,1445.72 2038.53,1445.72 2041.98,1445.72 2045.43,1445.72 2048.89,1445.72 2052.34,1445.72 2055.79,1445.72 2059.24,1445.72 2062.7,1445.72 2066.15,1445.72 2069.6,1445.72 2073.06,1445.72 2076.51,1445.72 2079.96,1445.72 2083.42,1445.72 2086.87,1445.72 2090.32,1445.72 2093.78,1445.72 2097.23,1445.72 2100.68,1445.72 2104.13,1445.72 2107.59,1445.72 2111.04,1445.72 2114.49,1445.72 2117.95,1445.72 2121.4,1445.72 2124.85,1445.72 2128.31,1445.72 2131.76,1445.72 2135.21,1445.72 2138.67,1445.72 2142.12,1445.72 2145.57,1445.72 2149.02,1445.72 2152.48,1445.72 2155.93,1445.72 2159.38,1445.72 2162.84,1445.72 2166.29,1445.72 2169.74,1445.72 2173.2,1445.72 2176.65,1445.72 2180.1,1445.72 2183.56,1445.72 2187.01,1445.72 2190.46,1445.72 2193.91,1445.72 2197.37,1445.72 2200.82,1445.72 2204.27,1445.72 2207.73,1445.72 2211.18,1445.72 2214.63,1445.72 2218.09,1445.72 2221.54,1445.72 2224.99,1445.72 2228.45,1445.72 2231.9,1445.72 2235.35,1445.72 2238.8,1445.72 2242.26,1445.72 2245.71,1445.72 2249.16,1445.72 2252.62,1445.72 2256.07,1445.72 2259.52,1445.72 2262.98,1445.72 2266.43,1445.72 2269.88,1445.72 2273.34,1445.72 2276.79,1445.72 2280.24,1445.72 2283.69,1445.72 2287.15,1445.72 2290.6,1445.72 "/>
<polyline clip-path="url(#clip312)" style="stroke:#008000; stroke-linecap:round; stroke-linejoin:round; stroke-width:4; stroke-opacity:1; fill:none" points="1822.66,2925.65 1822.66,-1391.96 "/>
<path clip-path="url(#clip310)" d="M229.803 302.578 L643.701 302.578 L643.701 95.2176 L229.803 95.2176  Z" fill="#ffffff" fill-rule="evenodd" fill-opacity="1"/>
<polyline clip-path="url(#clip310)" style="stroke:#000000; stroke-linecap:round; stroke-linejoin:round; stroke-width:4; stroke-opacity:1; fill:none" points="229.803,302.578 643.701,302.578 643.701,95.2176 229.803,95.2176 229.803,302.578 "/>
<polyline clip-path="url(#clip310)" style="stroke:#009af9; stroke-linecap:round; stroke-linejoin:round; stroke-width:4; stroke-opacity:1; fill:none" points="254.205,147.058 400.616,147.058 "/>
<path clip-path="url(#clip310)" d="M465.398 124.044 Q465.398 124.723 465.093 124.864 Q464.812 125.004 463.782 125.004 Q462.025 125.004 461.229 125.238 Q460.456 125.449 460.221 125.824 Q460.011 126.175 459.753 127.206 L453.265 153.111 Q453.265 153.135 453.195 153.462 Q453.124 153.767 453.124 153.931 Q453.124 154.235 453.312 154.423 Q453.523 154.61 454.038 154.704 Q454.553 154.774 454.951 154.798 Q455.373 154.798 456.24 154.798 Q457.317 154.798 457.481 154.985 Q457.575 155.102 457.575 155.313 Q457.575 155.758 457.387 155.992 Q457.223 156.203 457.059 156.25 Q456.919 156.273 456.638 156.273 Q456.146 156.273 455.092 156.226 Q454.038 156.179 453.499 156.179 L450.431 156.133 L444.341 156.273 Q443.685 156.273 443.685 155.734 Q443.685 155.266 443.849 155.055 Q444.013 154.844 444.177 154.821 Q444.364 154.798 444.833 154.798 Q447.245 154.798 448.042 154.563 Q448.862 154.306 449.189 153.205 L452.492 139.971 L437.876 139.971 L434.597 153.111 Q434.597 153.135 434.527 153.462 Q434.457 153.767 434.457 153.931 Q434.457 154.235 434.644 154.423 Q434.855 154.61 435.37 154.704 Q435.886 154.774 436.284 154.798 Q436.705 154.798 437.572 154.798 Q438.649 154.798 438.837 154.985 Q438.93 155.102 438.93 155.313 Q438.93 155.641 438.837 155.875 Q438.766 156.086 438.579 156.156 Q438.415 156.226 438.298 156.25 Q438.181 156.273 437.97 156.273 Q437.478 156.273 436.424 156.226 Q435.394 156.179 434.855 156.179 L431.787 156.133 L425.697 156.273 Q425.018 156.273 425.018 155.734 Q425.018 155.266 425.181 155.079 Q425.345 154.868 425.556 154.844 Q425.767 154.798 426.306 154.798 Q427.477 154.798 428.18 154.727 Q428.882 154.657 429.327 154.563 Q429.796 154.446 430.03 154.118 Q430.288 153.79 430.405 153.509 Q430.522 153.205 430.686 152.526 L437.103 126.761 Q437.291 125.988 437.291 125.871 Q437.291 125.426 437.01 125.309 Q436.752 125.168 436.003 125.098 L434.176 125.004 Q433.614 125.004 433.379 124.981 Q433.169 124.957 433.005 124.84 Q432.841 124.723 432.841 124.465 Q432.841 124.138 432.911 123.927 Q433.005 123.693 433.169 123.622 Q433.332 123.552 433.45 123.529 Q433.567 123.505 433.754 123.505 L439.938 123.646 L446.074 123.505 Q446.754 123.505 446.754 124.044 Q446.754 124.723 446.449 124.864 Q446.145 125.004 445.114 125.004 Q443.404 125.004 442.608 125.238 Q441.811 125.449 441.554 125.824 Q441.32 126.199 441.085 127.206 L438.251 138.472 L452.89 138.472 L455.771 126.761 Q455.959 125.918 455.959 125.871 Q455.959 125.426 455.677 125.309 Q455.42 125.168 454.67 125.098 L452.843 125.004 Q452.281 125.004 452.047 124.981 Q451.836 124.957 451.649 124.84 Q451.485 124.723 451.485 124.465 Q451.485 124.138 451.555 123.927 Q451.649 123.693 451.813 123.622 Q451.977 123.552 452.094 123.529 Q452.211 123.505 452.398 123.505 L458.582 123.646 L464.742 123.505 Q465.398 123.505 465.398 124.044 Z" fill="#000000" fill-rule="nonzero" fill-opacity="1" /><path clip-path="url(#clip310)" d="M470.122 158.823 Q470.122 153.888 471.368 151.199 Q473.106 147.198 477.205 147.198 Q478.074 147.198 478.976 147.444 Q479.894 147.674 481.041 148.576 Q482.206 149.477 482.911 150.953 Q484.255 153.806 484.255 158.823 Q484.255 163.725 483.009 166.398 Q481.189 170.3 477.172 170.3 Q475.664 170.3 474.122 169.529 Q472.598 168.759 471.63 166.906 Q470.122 164.135 470.122 158.823 M472.909 158.413 Q472.909 163.479 473.27 165.496 Q473.68 167.677 474.795 168.628 Q475.926 169.562 477.172 169.562 Q478.516 169.562 479.631 168.562 Q480.763 167.546 481.107 165.365 Q481.484 163.217 481.468 158.413 Q481.468 153.74 481.14 151.871 Q480.697 149.691 479.517 148.822 Q478.353 147.936 477.172 147.936 Q476.729 147.936 476.254 148.067 Q475.795 148.199 475.123 148.576 Q474.45 148.953 473.926 149.887 Q473.417 150.822 473.171 152.232 Q472.909 154.052 472.909 158.413 Z" fill="#000000" fill-rule="nonzero" fill-opacity="1" /><path clip-path="url(#clip310)" d="M254.205 219.634 L400.616 219.634 L400.616 178.162 L254.205 178.162 L254.205 219.634  Z" fill="#009af9" fill-rule="evenodd" fill-opacity="0.2"/>
<polyline clip-path="url(#clip310)" style="stroke:#009af9; stroke-linecap:round; stroke-linejoin:round; stroke-width:4; stroke-opacity:1; fill:none" points="254.205,178.162 400.616,178.162 "/>
<path clip-path="url(#clip310)" d="M451.93 195.831 Q451.883 196.065 451.789 196.487 Q451.696 196.885 451.274 198.15 Q450.852 199.415 450.29 200.703 Q449.752 201.968 448.698 203.748 Q447.667 205.505 446.402 207.097 Q446.051 207.519 445.981 207.777 Q445.934 208.011 445.934 208.784 Q445.934 213.656 447.409 213.656 Q447.48 213.656 447.597 213.656 Q447.737 213.632 448.089 213.515 Q448.463 213.375 448.791 213.164 Q449.119 212.93 449.494 212.461 Q449.869 211.969 450.103 211.313 Q450.314 210.845 450.735 210.845 Q451.297 210.845 451.297 211.313 Q451.297 212.157 450.126 213.445 Q448.955 214.733 447.269 214.733 Q445.653 214.733 444.505 213.679 Q443.381 212.602 442.912 210.681 Q437.853 214.733 432.794 214.733 Q429.234 214.733 427.126 212.414 Q425.018 210.072 425.018 206.606 Q425.018 203.28 426.844 200.118 Q428.695 196.956 431.693 194.988 Q434.714 192.997 437.923 192.997 Q439.048 192.997 440.125 193.302 Q441.202 193.583 442.28 194.309 Q443.357 195.035 444.154 196.136 Q444.95 197.237 445.442 198.97 Q445.934 200.703 445.934 202.881 L445.934 205.856 Q449.026 201.944 450.642 196.347 Q450.876 195.503 451.016 195.41 Q451.11 195.339 451.344 195.339 Q451.579 195.339 451.719 195.48 Q451.883 195.597 451.906 195.714 L451.93 195.831 M442.725 209.44 Q442.631 208.62 442.631 204.076 Q442.631 203.209 442.631 202.741 Q442.631 202.249 442.584 201.312 Q442.537 200.375 442.444 199.79 Q442.374 199.204 442.21 198.361 Q442.046 197.518 441.811 196.979 Q441.577 196.44 441.202 195.831 Q440.851 195.222 440.383 194.871 Q439.938 194.52 439.282 194.285 Q438.649 194.051 437.876 194.051 Q436.916 194.051 435.909 194.402 Q434.925 194.73 433.66 195.784 Q432.396 196.815 431.342 198.455 Q430.241 200.188 429.398 203.373 Q428.578 206.535 428.578 208.433 Q428.578 210.822 429.679 212.25 Q430.779 213.656 432.887 213.656 Q437.923 213.656 442.725 209.44 Z" fill="#000000" fill-rule="nonzero" fill-opacity="1" /><path clip-path="url(#clip310)" d="M468.706 206.91 Q468.752 206.324 469.666 206.324 L499.061 206.324 Q500.443 206.324 500.466 206.863 Q500.466 207.449 499.155 207.425 L469.994 207.425 Q468.706 207.449 468.706 206.91 M468.706 197.541 Q468.706 196.956 469.713 196.979 L499.014 196.979 Q500.443 196.979 500.466 197.541 Q500.466 198.08 499.248 198.08 L469.666 198.08 Q468.706 198.08 468.706 197.541 Z" fill="#000000" fill-rule="nonzero" fill-opacity="1" /><path clip-path="url(#clip310)" d="M518.957 198.853 Q518.957 191.803 520.737 187.961 Q523.22 182.246 529.076 182.246 Q530.317 182.246 531.605 182.598 Q532.917 182.925 534.557 184.214 Q536.22 185.502 537.227 187.61 Q539.147 191.685 539.147 198.853 Q539.147 205.856 537.367 209.674 Q534.767 215.248 529.029 215.248 Q526.874 215.248 524.672 214.148 Q522.494 213.047 521.112 210.4 Q518.957 206.442 518.957 198.853 M522.939 198.267 Q522.939 205.505 523.454 208.386 Q524.04 211.501 525.633 212.859 Q527.249 214.194 529.029 214.194 Q530.95 214.194 532.542 212.766 Q534.158 211.313 534.65 208.198 Q535.189 205.13 535.166 198.267 Q535.166 191.592 534.697 188.922 Q534.065 185.806 532.378 184.565 Q530.715 183.3 529.029 183.3 Q528.396 183.3 527.717 183.488 Q527.061 183.675 526.101 184.214 Q525.141 184.752 524.391 186.087 Q523.665 187.423 523.314 189.437 Q522.939 192.037 522.939 198.267 Z" fill="#000000" fill-rule="nonzero" fill-opacity="1" /><path clip-path="url(#clip310)" d="M543.433 213.421 Q542.707 212.649 542.707 211.641 Q542.707 210.634 543.433 209.908 Q544.159 209.159 545.26 209.159 Q546.314 209.159 547.017 209.861 Q547.743 210.541 547.743 211.665 Q547.743 212.766 546.97 213.492 Q546.221 214.194 545.26 214.194 Q544.159 214.194 543.433 213.421 Z" fill="#000000" fill-rule="nonzero" fill-opacity="1" /><path clip-path="url(#clip310)" d="M555.904 198.853 Q555.904 191.803 557.684 187.961 Q560.167 182.246 566.023 182.246 Q567.264 182.246 568.552 182.598 Q569.864 182.925 571.504 184.214 Q573.167 185.502 574.174 187.61 Q576.094 191.685 576.094 198.853 Q576.094 205.856 574.314 209.674 Q571.714 215.248 565.976 215.248 Q563.821 215.248 561.619 214.148 Q559.441 213.047 558.059 210.4 Q555.904 206.442 555.904 198.853 M559.886 198.267 Q559.886 205.505 560.401 208.386 Q560.987 211.501 562.58 212.859 Q564.196 214.194 565.976 214.194 Q567.897 214.194 569.489 212.766 Q571.105 211.313 571.597 208.198 Q572.136 205.13 572.113 198.267 Q572.113 191.592 571.644 188.922 Q571.012 185.806 569.325 184.565 Q567.662 183.3 565.976 183.3 Q565.343 183.3 564.664 183.488 Q564.008 183.675 563.048 184.214 Q562.088 184.752 561.338 186.087 Q560.612 187.423 560.261 189.437 Q559.886 192.037 559.886 198.267 Z" fill="#000000" fill-rule="nonzero" fill-opacity="1" /><path clip-path="url(#clip310)" d="M579.846 206.465 Q579.846 205.036 580.619 204.498 Q581.392 203.935 582.212 203.935 Q583.313 203.935 583.945 204.638 Q584.601 205.317 584.601 206.278 Q584.601 207.238 583.945 207.941 Q583.313 208.62 582.212 208.62 Q581.673 208.62 581.392 208.526 Q582.025 210.728 583.945 212.321 Q585.889 213.913 588.442 213.913 Q591.651 213.913 593.572 210.798 Q594.72 208.784 594.72 204.216 Q594.72 200.188 593.853 198.173 Q592.518 195.105 589.777 195.105 Q585.889 195.105 583.594 198.455 Q583.313 198.876 582.985 198.9 Q582.516 198.9 582.399 198.642 Q582.306 198.361 582.306 197.635 L582.306 183.441 Q582.306 182.293 582.774 182.293 Q582.961 182.293 583.36 182.434 Q586.381 183.769 589.731 183.792 Q593.174 183.792 596.265 182.387 Q596.5 182.246 596.64 182.246 Q597.109 182.246 597.132 182.785 Q597.132 182.972 596.734 183.534 Q596.359 184.073 595.539 184.799 Q594.72 185.502 593.665 186.181 Q592.611 186.86 591.066 187.329 Q589.543 187.774 587.857 187.774 Q585.842 187.774 583.781 187.142 L583.781 196.487 Q586.264 194.051 589.871 194.051 Q593.712 194.051 596.359 197.143 Q599.006 200.235 599.006 204.544 Q599.006 209.065 595.867 212.157 Q592.752 215.248 588.536 215.248 Q584.695 215.248 582.259 212.508 Q579.846 209.768 579.846 206.465 Z" fill="#000000" fill-rule="nonzero" fill-opacity="1" /><polyline clip-path="url(#clip310)" style="stroke:#008000; stroke-linecap:round; stroke-linejoin:round; stroke-width:4; stroke-opacity:1; fill:none" points="254.205,250.738 400.616,250.738 "/>
<path clip-path="url(#clip310)" d="M439.75 241.556 Q439.75 242.212 439.446 242.376 Q439.141 242.517 438.298 242.517 L433.801 242.517 L430.241 256.664 Q429.96 257.905 429.96 258.959 Q429.96 260.13 430.311 260.646 Q430.686 261.161 431.459 261.161 Q432.981 261.161 434.621 259.779 Q436.284 258.397 437.689 255.024 Q437.876 254.579 437.97 254.485 Q438.087 254.368 438.392 254.368 Q438.977 254.368 438.977 254.837 Q438.977 255.001 438.649 255.75 Q438.345 256.5 437.666 257.601 Q437.01 258.702 436.143 259.732 Q435.3 260.763 434.012 261.512 Q432.723 262.238 431.342 262.238 Q429.398 262.238 428.156 260.997 Q426.938 259.756 426.938 257.811 Q426.938 257.179 427.43 255.165 Q427.922 253.127 430.592 242.517 L426.353 242.517 Q425.767 242.517 425.533 242.493 Q425.322 242.47 425.158 242.353 Q425.018 242.212 425.018 241.931 Q425.018 241.486 425.205 241.299 Q425.392 241.088 425.626 241.064 Q425.884 241.018 426.47 241.018 L430.967 241.018 L432.841 233.405 Q433.028 232.656 433.496 232.234 Q433.988 231.789 434.269 231.742 Q434.55 231.672 434.761 231.672 Q435.394 231.672 435.768 232.023 Q436.143 232.351 436.143 232.96 Q436.143 233.288 434.176 241.018 L438.392 241.018 Q438.93 241.018 439.141 241.041 Q439.375 241.064 439.563 241.182 Q439.75 241.299 439.75 241.556 Z" fill="#000000" fill-rule="nonzero" fill-opacity="1" /><path clip-path="url(#clip310)" d="M463.554 258.19 Q463.522 258.354 463.456 258.649 Q463.39 258.928 463.095 259.813 Q462.8 260.699 462.407 261.6 Q462.03 262.486 461.292 263.732 Q460.57 264.961 459.685 266.076 Q459.439 266.371 459.39 266.552 Q459.357 266.716 459.357 267.257 Q459.357 270.667 460.39 270.667 Q460.439 270.667 460.521 270.667 Q460.619 270.651 460.865 270.569 Q461.128 270.47 461.357 270.323 Q461.587 270.159 461.849 269.831 Q462.111 269.487 462.275 269.028 Q462.423 268.7 462.718 268.7 Q463.112 268.7 463.112 269.028 Q463.112 269.618 462.292 270.52 Q461.472 271.421 460.292 271.421 Q459.16 271.421 458.357 270.684 Q457.57 269.929 457.242 268.585 Q453.7 271.421 450.159 271.421 Q447.667 271.421 446.191 269.798 Q444.716 268.159 444.716 265.732 Q444.716 263.404 445.994 261.19 Q447.29 258.977 449.388 257.6 Q451.503 256.206 453.75 256.206 Q454.537 256.206 455.291 256.419 Q456.045 256.616 456.799 257.124 Q457.553 257.633 458.111 258.403 Q458.668 259.174 459.013 260.387 Q459.357 261.6 459.357 263.125 L459.357 265.207 Q461.521 262.469 462.653 258.551 Q462.816 257.96 462.915 257.895 Q462.98 257.846 463.144 257.846 Q463.308 257.846 463.407 257.944 Q463.522 258.026 463.538 258.108 L463.554 258.19 M457.111 267.716 Q457.045 267.142 457.045 263.961 Q457.045 263.355 457.045 263.027 Q457.045 262.682 457.012 262.027 Q456.98 261.371 456.914 260.961 Q456.865 260.551 456.75 259.961 Q456.635 259.371 456.471 258.993 Q456.307 258.616 456.045 258.19 Q455.799 257.764 455.471 257.518 Q455.16 257.272 454.701 257.108 Q454.258 256.944 453.717 256.944 Q453.045 256.944 452.34 257.19 Q451.651 257.419 450.766 258.157 Q449.88 258.879 449.142 260.026 Q448.372 261.24 447.782 263.469 Q447.208 265.683 447.208 267.011 Q447.208 268.683 447.978 269.683 Q448.749 270.667 450.225 270.667 Q453.75 270.667 457.111 267.716 Z" fill="#000000" fill-rule="nonzero" fill-opacity="1" /><path clip-path="url(#clip310)" d="M484.409 254.415 Q484.455 253.83 485.369 253.83 L514.764 253.83 Q516.146 253.83 516.169 254.368 Q516.169 254.954 514.858 254.93 L485.697 254.93 Q484.409 254.954 484.409 254.415 M484.409 245.046 Q484.409 244.461 485.416 244.484 L514.717 244.484 Q516.146 244.484 516.169 245.046 Q516.169 245.585 514.952 245.585 L485.369 245.585 Q484.409 245.585 484.409 245.046 Z" fill="#000000" fill-rule="nonzero" fill-opacity="1" /><path clip-path="url(#clip310)" d="M534.66 261.7 Q534.66 260.833 534.731 260.575 Q534.824 260.318 535.199 259.919 L544.404 249.66 Q549.44 243.992 549.44 239.05 Q549.44 235.841 547.754 233.546 Q546.091 231.25 543.022 231.25 Q540.914 231.25 539.134 232.539 Q537.354 233.827 536.534 236.122 Q536.675 236.075 537.167 236.075 Q538.361 236.075 539.017 236.825 Q539.696 237.574 539.696 238.582 Q539.696 239.87 538.853 240.502 Q538.033 241.111 537.213 241.111 Q536.885 241.111 536.44 241.041 Q536.019 240.971 535.34 240.315 Q534.66 239.636 534.66 238.441 Q534.66 235.092 537.19 232.422 Q539.743 229.751 543.631 229.751 Q548.035 229.751 550.916 232.375 Q553.82 234.975 553.82 239.05 Q553.82 240.479 553.375 241.791 Q552.953 243.079 552.368 244.086 Q551.806 245.093 550.26 246.709 Q548.714 248.325 547.472 249.473 Q546.231 250.621 543.444 253.057 L538.361 257.999 L547.004 257.999 Q551.22 257.999 551.548 257.624 Q552.016 256.945 552.602 253.361 L553.82 253.361 L552.461 261.7 L534.66 261.7 Z" fill="#000000" fill-rule="nonzero" fill-opacity="1" /><path clip-path="url(#clip310)" d="M559.136 260.927 Q558.41 260.154 558.41 259.147 Q558.41 258.139 559.136 257.413 Q559.863 256.664 560.963 256.664 Q562.017 256.664 562.72 257.366 Q563.446 258.046 563.446 259.17 Q563.446 260.271 562.673 260.997 Q561.924 261.7 560.963 261.7 Q559.863 261.7 559.136 260.927 Z" fill="#000000" fill-rule="nonzero" fill-opacity="1" /><path clip-path="url(#clip310)" d="M571.607 254.462 Q571.607 249.098 578.517 245.632 Q575.542 243.617 575.004 243.032 Q572.896 240.69 572.896 237.762 Q572.896 234.412 575.425 232.094 Q577.978 229.751 581.585 229.751 Q585.028 229.751 587.628 231.742 Q590.228 233.733 590.228 236.895 Q590.228 241.345 584.419 244.344 Q588.261 246.733 589.174 247.74 Q591.516 250.34 591.516 253.642 Q591.516 257.484 588.565 260.13 Q585.614 262.754 581.538 262.754 Q577.557 262.754 574.582 260.435 Q571.607 258.116 571.607 254.462 M573.996 254.462 Q573.996 257.437 576.222 259.428 Q578.47 261.419 581.585 261.419 Q584.607 261.419 586.855 259.685 Q589.127 257.952 589.127 255.376 Q589.127 254.368 588.776 253.502 Q588.448 252.635 587.769 251.956 Q587.113 251.253 586.691 250.949 Q586.293 250.621 585.52 250.082 L579.618 246.358 Q573.996 249.473 573.996 254.462 M575.004 235.888 Q575.004 238.183 577.416 239.776 L583.365 243.617 Q588.12 240.83 588.12 236.895 Q588.12 234.342 586.176 232.656 Q584.232 230.946 581.538 230.946 Q578.892 230.946 576.948 232.351 Q575.004 233.733 575.004 235.888 Z" fill="#000000" fill-rule="nonzero" fill-opacity="1" /><path clip-path="url(#clip310)" d="M595.549 261.7 Q595.549 260.833 595.62 260.575 Q595.713 260.318 596.088 259.919 L605.293 249.66 Q610.329 243.992 610.329 239.05 Q610.329 235.841 608.643 233.546 Q606.98 231.25 603.911 231.25 Q601.803 231.25 600.023 232.539 Q598.243 233.827 597.423 236.122 Q597.564 236.075 598.056 236.075 Q599.25 236.075 599.906 236.825 Q600.585 237.574 600.585 238.582 Q600.585 239.87 599.742 240.502 Q598.922 241.111 598.102 241.111 Q597.775 241.111 597.329 241.041 Q596.908 240.971 596.229 240.315 Q595.549 239.636 595.549 238.441 Q595.549 235.092 598.079 232.422 Q600.632 229.751 604.52 229.751 Q608.924 229.751 611.805 232.375 Q614.709 234.975 614.709 239.05 Q614.709 240.479 614.264 241.791 Q613.842 243.079 613.257 244.086 Q612.695 245.093 611.149 246.709 Q609.603 248.325 608.361 249.473 Q607.12 250.621 604.333 253.057 L599.25 257.999 L607.893 257.999 Q612.109 257.999 612.437 257.624 Q612.905 256.945 613.491 253.361 L614.709 253.361 L613.35 261.7 L595.549 261.7 Z" fill="#000000" fill-rule="nonzero" fill-opacity="1" /></svg>
