<?xml version="1.0" encoding="utf-8"?>
<svg xmlns="http://www.w3.org/2000/svg" xmlns:xlink="http://www.w3.org/1999/xlink" width="600" height="400" viewBox="0 0 2400 1600">
<defs>
  <clipPath id="clip350">
    <rect x="0" y="0" width="2400" height="1600"/>
  </clipPath>
</defs>
<path clip-path="url(#clip350)" d="M0 1600 L2400 1600 L2400 0 L0 0  Z" fill="#ffffff" fill-rule="evenodd" fill-opacity="1"/>
<defs>
  <clipPath id="clip351">
    <rect x="480" y="0" width="1681" height="1600"/>
  </clipPath>
</defs>
<path clip-path="url(#clip350)" d="M156.598 1486.45 L2352.76 1486.45 L2352.76 47.2441 L156.598 47.2441  Z" fill="#ffffff" fill-rule="evenodd" fill-opacity="1"/>
<defs>
  <clipPath id="clip352">
    <rect x="156" y="47" width="2197" height="1440"/>
  </clipPath>
</defs>
<polyline clip-path="url(#clip352)" style="stroke:#000000; stroke-linecap:round; stroke-linejoin:round; stroke-width:2; stroke-opacity:0.1; fill:none" points="175.59,1486.45 175.59,47.2441 "/>
<polyline clip-path="url(#clip352)" style="stroke:#000000; stroke-linecap:round; stroke-linejoin:round; stroke-width:2; stroke-opacity:0.1; fill:none" points="607.225,1486.45 607.225,47.2441 "/>
<polyline clip-path="url(#clip352)" style="stroke:#000000; stroke-linecap:round; stroke-linejoin:round; stroke-width:2; stroke-opacity:0.1; fill:none" points="1038.86,1486.45 1038.86,47.2441 "/>
<polyline clip-path="url(#clip352)" style="stroke:#000000; stroke-linecap:round; stroke-linejoin:round; stroke-width:2; stroke-opacity:0.1; fill:none" points="1470.49,1486.45 1470.49,47.2441 "/>
<polyline clip-path="url(#clip352)" style="stroke:#000000; stroke-linecap:round; stroke-linejoin:round; stroke-width:2; stroke-opacity:0.1; fill:none" points="1902.13,1486.45 1902.13,47.2441 "/>
<polyline clip-path="url(#clip352)" style="stroke:#000000; stroke-linecap:round; stroke-linejoin:round; stroke-width:2; stroke-opacity:0.1; fill:none" points="2333.76,1486.45 2333.76,47.2441 "/>
<polyline clip-path="url(#clip352)" style="stroke:#000000; stroke-linecap:round; stroke-linejoin:round; stroke-width:2; stroke-opacity:0.1; fill:none" points="156.598,1445.72 2352.76,1445.72 "/>
<polyline clip-path="url(#clip352)" style="stroke:#000000; stroke-linecap:round; stroke-linejoin:round; stroke-width:2; stroke-opacity:0.1; fill:none" points="156.598,1173.45 2352.76,1173.45 "/>
<polyline clip-path="url(#clip352)" style="stroke:#000000; stroke-linecap:round; stroke-linejoin:round; stroke-width:2; stroke-opacity:0.1; fill:none" points="156.598,901.18 2352.76,901.18 "/>
<polyline clip-path="url(#clip352)" style="stroke:#000000; stroke-linecap:round; stroke-linejoin:round; stroke-width:2; stroke-opacity:0.1; fill:none" points="156.598,628.912 2352.76,628.912 "/>
<polyline clip-path="url(#clip352)" style="stroke:#000000; stroke-linecap:round; stroke-linejoin:round; stroke-width:2; stroke-opacity:0.1; fill:none" points="156.598,356.644 2352.76,356.644 "/>
<polyline clip-path="url(#clip352)" style="stroke:#000000; stroke-linecap:round; stroke-linejoin:round; stroke-width:2; stroke-opacity:0.1; fill:none" points="156.598,84.3765 2352.76,84.3765 "/>
<polyline clip-path="url(#clip350)" style="stroke:#000000; stroke-linecap:round; stroke-linejoin:round; stroke-width:4; stroke-opacity:1; fill:none" points="156.598,1486.45 2352.76,1486.45 "/>
<polyline clip-path="url(#clip350)" style="stroke:#000000; stroke-linecap:round; stroke-linejoin:round; stroke-width:4; stroke-opacity:1; fill:none" points="175.59,1486.45 175.59,1467.55 "/>
<polyline clip-path="url(#clip350)" style="stroke:#000000; stroke-linecap:round; stroke-linejoin:round; stroke-width:4; stroke-opacity:1; fill:none" points="607.225,1486.45 607.225,1467.55 "/>
<polyline clip-path="url(#clip350)" style="stroke:#000000; stroke-linecap:round; stroke-linejoin:round; stroke-width:4; stroke-opacity:1; fill:none" points="1038.86,1486.45 1038.86,1467.55 "/>
<polyline clip-path="url(#clip350)" style="stroke:#000000; stroke-linecap:round; stroke-linejoin:round; stroke-width:4; stroke-opacity:1; fill:none" points="1470.49,1486.45 1470.49,1467.55 "/>
<polyline clip-path="url(#clip350)" style="stroke:#000000; stroke-linecap:round; stroke-linejoin:round; stroke-width:4; stroke-opacity:1; fill:none" points="1902.13,1486.45 1902.13,1467.55 "/>
<polyline clip-path="url(#clip350)" style="stroke:#000000; stroke-linecap:round; stroke-linejoin:round; stroke-width:4; stroke-opacity:1; fill:none" points="2333.76,1486.45 2333.76,1467.55 "/>
<path clip-path="url(#clip350)" d="M145.347 1532.02 L175.023 1532.02 L175.023 1535.95 L145.347 1535.95 L145.347 1532.02 Z" fill="#000000" fill-rule="nonzero" fill-opacity="1" /><path clip-path="url(#clip350)" d="M185.926 1544.91 L193.565 1544.91 L193.565 1518.55 L185.254 1520.21 L185.254 1515.95 L193.518 1514.29 L198.194 1514.29 L198.194 1544.91 L205.833 1544.91 L205.833 1548.85 L185.926 1548.85 L185.926 1544.91 Z" fill="#000000" fill-rule="nonzero" fill-opacity="1" /><path clip-path="url(#clip350)" d="M607.225 1517.37 Q603.614 1517.37 601.785 1520.93 Q599.98 1524.47 599.98 1531.6 Q599.98 1538.71 601.785 1542.27 Q603.614 1545.82 607.225 1545.82 Q610.859 1545.82 612.665 1542.27 Q614.493 1538.71 614.493 1531.6 Q614.493 1524.47 612.665 1520.93 Q610.859 1517.37 607.225 1517.37 M607.225 1513.66 Q613.035 1513.66 616.091 1518.27 Q619.169 1522.85 619.169 1531.6 Q619.169 1540.33 616.091 1544.94 Q613.035 1549.52 607.225 1549.52 Q601.415 1549.52 598.336 1544.94 Q595.281 1540.33 595.281 1531.6 Q595.281 1522.85 598.336 1518.27 Q601.415 1513.66 607.225 1513.66 Z" fill="#000000" fill-rule="nonzero" fill-opacity="1" /><path clip-path="url(#clip350)" d="M1029.24 1544.91 L1036.88 1544.91 L1036.88 1518.55 L1028.57 1520.21 L1028.57 1515.95 L1036.83 1514.29 L1041.51 1514.29 L1041.51 1544.91 L1049.15 1544.91 L1049.15 1548.85 L1029.24 1548.85 L1029.24 1544.91 Z" fill="#000000" fill-rule="nonzero" fill-opacity="1" /><path clip-path="url(#clip350)" d="M1465.15 1544.91 L1481.47 1544.91 L1481.47 1548.85 L1459.52 1548.85 L1459.52 1544.91 Q1462.18 1542.16 1466.77 1537.53 Q1471.37 1532.88 1472.55 1531.53 Q1474.8 1529.01 1475.68 1527.27 Q1476.58 1525.51 1476.58 1523.82 Q1476.58 1521.07 1474.64 1519.33 Q1472.72 1517.6 1469.61 1517.6 Q1467.42 1517.6 1464.96 1518.36 Q1462.53 1519.13 1459.75 1520.68 L1459.75 1515.95 Q1462.58 1514.82 1465.03 1514.24 Q1467.49 1513.66 1469.52 1513.66 Q1474.89 1513.66 1478.09 1516.35 Q1481.28 1519.03 1481.28 1523.52 Q1481.28 1525.65 1480.47 1527.57 Q1479.68 1529.47 1477.58 1532.07 Q1477 1532.74 1473.9 1535.95 Q1470.8 1539.15 1465.15 1544.91 Z" fill="#000000" fill-rule="nonzero" fill-opacity="1" /><path clip-path="url(#clip350)" d="M1906.38 1530.21 Q1909.73 1530.93 1911.61 1533.2 Q1913.51 1535.47 1913.51 1538.8 Q1913.51 1543.92 1909.99 1546.72 Q1906.47 1549.52 1899.99 1549.52 Q1897.81 1549.52 1895.5 1549.08 Q1893.21 1548.66 1890.75 1547.81 L1890.75 1543.29 Q1892.7 1544.43 1895.01 1545.01 Q1897.33 1545.58 1899.85 1545.58 Q1904.25 1545.58 1906.54 1543.85 Q1908.85 1542.11 1908.85 1538.8 Q1908.85 1535.75 1906.7 1534.03 Q1904.57 1532.3 1900.75 1532.3 L1896.72 1532.3 L1896.72 1528.45 L1900.94 1528.45 Q1904.39 1528.45 1906.21 1527.09 Q1908.04 1525.7 1908.04 1523.11 Q1908.04 1520.45 1906.15 1519.03 Q1904.27 1517.6 1900.75 1517.6 Q1898.83 1517.6 1896.63 1518.01 Q1894.43 1518.43 1891.79 1519.31 L1891.79 1515.14 Q1894.46 1514.4 1896.77 1514.03 Q1899.11 1513.66 1901.17 1513.66 Q1906.49 1513.66 1909.59 1516.09 Q1912.7 1518.5 1912.7 1522.62 Q1912.7 1525.49 1911.05 1527.48 Q1909.41 1529.45 1906.38 1530.21 Z" fill="#000000" fill-rule="nonzero" fill-opacity="1" /><path clip-path="url(#clip350)" d="M2336.77 1518.36 L2324.97 1536.81 L2336.77 1536.81 L2336.77 1518.36 M2335.55 1514.29 L2341.43 1514.29 L2341.43 1536.81 L2346.36 1536.81 L2346.36 1540.7 L2341.43 1540.7 L2341.43 1548.85 L2336.77 1548.85 L2336.77 1540.7 L2321.17 1540.7 L2321.17 1536.19 L2335.55 1514.29 Z" fill="#000000" fill-rule="nonzero" fill-opacity="1" /><polyline clip-path="url(#clip350)" style="stroke:#000000; stroke-linecap:round; stroke-linejoin:round; stroke-width:4; stroke-opacity:1; fill:none" points="156.598,1486.45 156.598,47.2441 "/>
<polyline clip-path="url(#clip350)" style="stroke:#000000; stroke-linecap:round; stroke-linejoin:round; stroke-width:4; stroke-opacity:1; fill:none" points="156.598,1445.72 175.496,1445.72 "/>
<polyline clip-path="url(#clip350)" style="stroke:#000000; stroke-linecap:round; stroke-linejoin:round; stroke-width:4; stroke-opacity:1; fill:none" points="156.598,1173.45 175.496,1173.45 "/>
<polyline clip-path="url(#clip350)" style="stroke:#000000; stroke-linecap:round; stroke-linejoin:round; stroke-width:4; stroke-opacity:1; fill:none" points="156.598,901.18 175.496,901.18 "/>
<polyline clip-path="url(#clip350)" style="stroke:#000000; stroke-linecap:round; stroke-linejoin:round; stroke-width:4; stroke-opacity:1; fill:none" points="156.598,628.912 175.496,628.912 "/>
<polyline clip-path="url(#clip350)" style="stroke:#000000; stroke-linecap:round; stroke-linejoin:round; stroke-width:4; stroke-opacity:1; fill:none" points="156.598,356.644 175.496,356.644 "/>
<polyline clip-path="url(#clip350)" style="stroke:#000000; stroke-linecap:round; stroke-linejoin:round; stroke-width:4; stroke-opacity:1; fill:none" points="156.598,84.3765 175.496,84.3765 "/>
<path clip-path="url(#clip350)" d="M63.4226 1431.51 Q59.8115 1431.51 57.9828 1435.08 Q56.1773 1438.62 56.1773 1445.75 Q56.1773 1452.86 57.9828 1456.42 Q59.8115 1459.96 63.4226 1459.96 Q67.0569 1459.96 68.8624 1456.42 Q70.6911 1452.86 70.6911 1445.75 Q70.6911 1438.62 68.8624 1435.08 Q67.0569 1431.51 63.4226 1431.51 M63.4226 1427.81 Q69.2328 1427.81 72.2883 1432.42 Q75.367 1437 75.367 1445.75 Q75.367 1454.48 72.2883 1459.08 Q69.2328 1463.67 63.4226 1463.67 Q57.6125 1463.67 54.5338 1459.08 Q51.4782 1454.48 51.4782 1445.75 Q51.4782 1437 54.5338 1432.42 Q57.6125 1427.81 63.4226 1427.81 Z" fill="#000000" fill-rule="nonzero" fill-opacity="1" /><path clip-path="url(#clip350)" d="M83.5845 1457.12 L88.4688 1457.12 L88.4688 1463 L83.5845 1463 L83.5845 1457.12 Z" fill="#000000" fill-rule="nonzero" fill-opacity="1" /><path clip-path="url(#clip350)" d="M108.654 1431.51 Q105.043 1431.51 103.214 1435.08 Q101.409 1438.62 101.409 1445.75 Q101.409 1452.86 103.214 1456.42 Q105.043 1459.96 108.654 1459.96 Q112.288 1459.96 114.094 1456.42 Q115.922 1452.86 115.922 1445.75 Q115.922 1438.62 114.094 1435.08 Q112.288 1431.51 108.654 1431.51 M108.654 1427.81 Q114.464 1427.81 117.52 1432.42 Q120.598 1437 120.598 1445.75 Q120.598 1454.48 117.52 1459.08 Q114.464 1463.67 108.654 1463.67 Q102.844 1463.67 99.765 1459.08 Q96.7095 1454.48 96.7095 1445.75 Q96.7095 1437 99.765 1432.42 Q102.844 1427.81 108.654 1427.81 Z" fill="#000000" fill-rule="nonzero" fill-opacity="1" /><path clip-path="url(#clip350)" d="M64.6495 1159.25 Q61.0384 1159.25 59.2097 1162.81 Q57.4041 1166.35 57.4041 1173.48 Q57.4041 1180.59 59.2097 1184.15 Q61.0384 1187.7 64.6495 1187.7 Q68.2837 1187.7 70.0892 1184.15 Q71.9179 1180.59 71.9179 1173.48 Q71.9179 1166.35 70.0892 1162.81 Q68.2837 1159.25 64.6495 1159.25 M64.6495 1155.54 Q70.4596 1155.54 73.5152 1160.15 Q76.5938 1164.73 76.5938 1173.48 Q76.5938 1182.21 73.5152 1186.82 Q70.4596 1191.4 64.6495 1191.4 Q58.8393 1191.4 55.7606 1186.82 Q52.7051 1182.21 52.7051 1173.48 Q52.7051 1164.73 55.7606 1160.15 Q58.8393 1155.54 64.6495 1155.54 Z" fill="#000000" fill-rule="nonzero" fill-opacity="1" /><path clip-path="url(#clip350)" d="M84.8114 1184.85 L89.6956 1184.85 L89.6956 1190.73 L84.8114 1190.73 L84.8114 1184.85 Z" fill="#000000" fill-rule="nonzero" fill-opacity="1" /><path clip-path="url(#clip350)" d="M100.691 1186.79 L108.33 1186.79 L108.33 1160.43 L100.02 1162.09 L100.02 1157.83 L108.283 1156.17 L112.959 1156.17 L112.959 1186.79 L120.598 1186.79 L120.598 1190.73 L100.691 1190.73 L100.691 1186.79 Z" fill="#000000" fill-rule="nonzero" fill-opacity="1" /><path clip-path="url(#clip350)" d="M65.0198 886.979 Q61.4087 886.979 59.58 890.543 Q57.7745 894.085 57.7745 901.215 Q57.7745 908.321 59.58 911.886 Q61.4087 915.428 65.0198 915.428 Q68.6541 915.428 70.4596 911.886 Q72.2883 908.321 72.2883 901.215 Q72.2883 894.085 70.4596 890.543 Q68.6541 886.979 65.0198 886.979 M65.0198 883.275 Q70.83 883.275 73.8855 887.881 Q76.9642 892.465 76.9642 901.215 Q76.9642 909.942 73.8855 914.548 Q70.83 919.131 65.0198 919.131 Q59.2097 919.131 56.131 914.548 Q53.0754 909.942 53.0754 901.215 Q53.0754 892.465 56.131 887.881 Q59.2097 883.275 65.0198 883.275 Z" fill="#000000" fill-rule="nonzero" fill-opacity="1" /><path clip-path="url(#clip350)" d="M85.1818 912.58 L90.066 912.58 L90.066 918.46 L85.1818 918.46 L85.1818 912.58 Z" fill="#000000" fill-rule="nonzero" fill-opacity="1" /><path clip-path="url(#clip350)" d="M104.279 914.525 L120.598 914.525 L120.598 918.46 L98.6539 918.46 L98.6539 914.525 Q101.316 911.77 105.899 907.141 Q110.506 902.488 111.686 901.145 Q113.932 898.622 114.811 896.886 Q115.714 895.127 115.714 893.437 Q115.714 890.682 113.77 888.946 Q111.848 887.21 108.746 887.21 Q106.547 887.21 104.094 887.974 Q101.663 888.738 98.8854 890.289 L98.8854 885.567 Q101.709 884.432 104.163 883.854 Q106.617 883.275 108.654 883.275 Q114.024 883.275 117.219 885.96 Q120.413 888.645 120.413 893.136 Q120.413 895.266 119.603 897.187 Q118.816 899.085 116.709 901.678 Q116.131 902.349 113.029 905.567 Q109.927 908.761 104.279 914.525 Z" fill="#000000" fill-rule="nonzero" fill-opacity="1" /><path clip-path="url(#clip350)" d="M64.0708 614.711 Q60.4597 614.711 58.631 618.276 Q56.8254 621.817 56.8254 628.947 Q56.8254 636.053 58.631 639.618 Q60.4597 643.16 64.0708 643.16 Q67.705 643.16 69.5105 639.618 Q71.3392 636.053 71.3392 628.947 Q71.3392 621.817 69.5105 618.276 Q67.705 614.711 64.0708 614.711 M64.0708 611.007 Q69.8809 611.007 72.9365 615.614 Q76.0151 620.197 76.0151 628.947 Q76.0151 637.674 72.9365 642.28 Q69.8809 646.863 64.0708 646.863 Q58.2606 646.863 55.1819 642.28 Q52.1264 637.674 52.1264 628.947 Q52.1264 620.197 55.1819 615.614 Q58.2606 611.007 64.0708 611.007 Z" fill="#000000" fill-rule="nonzero" fill-opacity="1" /><path clip-path="url(#clip350)" d="M84.2327 640.313 L89.1169 640.313 L89.1169 646.192 L84.2327 646.192 L84.2327 640.313 Z" fill="#000000" fill-rule="nonzero" fill-opacity="1" /><path clip-path="url(#clip350)" d="M113.469 627.558 Q116.825 628.276 118.7 630.544 Q120.598 632.813 120.598 636.146 Q120.598 641.262 117.08 644.063 Q113.561 646.863 107.08 646.863 Q104.904 646.863 102.589 646.424 Q100.297 646.007 97.8437 645.151 L97.8437 640.637 Q99.7882 641.771 102.103 642.35 Q104.418 642.928 106.941 642.928 Q111.339 642.928 113.631 641.192 Q115.945 639.456 115.945 636.146 Q115.945 633.09 113.793 631.377 Q111.663 629.641 107.844 629.641 L103.816 629.641 L103.816 625.799 L108.029 625.799 Q111.478 625.799 113.307 624.433 Q115.135 623.044 115.135 620.452 Q115.135 617.79 113.237 616.378 Q111.362 614.942 107.844 614.942 Q105.922 614.942 103.723 615.359 Q101.524 615.776 98.8854 616.655 L98.8854 612.489 Q101.547 611.748 103.862 611.378 Q106.2 611.007 108.26 611.007 Q113.584 611.007 116.686 613.438 Q119.788 615.845 119.788 619.965 Q119.788 622.836 118.145 624.827 Q116.501 626.794 113.469 627.558 Z" fill="#000000" fill-rule="nonzero" fill-opacity="1" /><path clip-path="url(#clip350)" d="M62.9365 342.443 Q59.3254 342.443 57.4967 346.008 Q55.6912 349.549 55.6912 356.679 Q55.6912 363.785 57.4967 367.35 Q59.3254 370.892 62.9365 370.892 Q66.5707 370.892 68.3763 367.35 Q70.205 363.785 70.205 356.679 Q70.205 349.549 68.3763 346.008 Q66.5707 342.443 62.9365 342.443 M62.9365 338.739 Q68.7467 338.739 71.8022 343.346 Q74.8809 347.929 74.8809 356.679 Q74.8809 365.406 71.8022 370.012 Q68.7467 374.596 62.9365 374.596 Q57.1264 374.596 54.0477 370.012 Q50.9921 365.406 50.9921 356.679 Q50.9921 347.929 54.0477 343.346 Q57.1264 338.739 62.9365 338.739 Z" fill="#000000" fill-rule="nonzero" fill-opacity="1" /><path clip-path="url(#clip350)" d="M83.0984 368.045 L87.9827 368.045 L87.9827 373.924 L83.0984 373.924 L83.0984 368.045 Z" fill="#000000" fill-rule="nonzero" fill-opacity="1" /><path clip-path="url(#clip350)" d="M111.015 343.438 L99.2095 361.887 L111.015 361.887 L111.015 343.438 M109.788 339.364 L115.668 339.364 L115.668 361.887 L120.598 361.887 L120.598 365.776 L115.668 365.776 L115.668 373.924 L111.015 373.924 L111.015 365.776 L95.4132 365.776 L95.4132 361.262 L109.788 339.364 Z" fill="#000000" fill-rule="nonzero" fill-opacity="1" /><path clip-path="url(#clip350)" d="M64.418 70.1752 Q60.8069 70.1752 58.9782 73.74 Q57.1726 77.2816 57.1726 84.4112 Q57.1726 91.5177 58.9782 95.0825 Q60.8069 98.6241 64.418 98.6241 Q68.0522 98.6241 69.8578 95.0825 Q71.6865 91.5177 71.6865 84.4112 Q71.6865 77.2816 69.8578 73.74 Q68.0522 70.1752 64.418 70.1752 M64.418 66.4715 Q70.2281 66.4715 73.2837 71.0779 Q76.3624 75.6613 76.3624 84.4112 Q76.3624 93.138 73.2837 97.7445 Q70.2281 102.328 64.418 102.328 Q58.6078 102.328 55.5291 97.7445 Q52.4736 93.138 52.4736 84.4112 Q52.4736 75.6613 55.5291 71.0779 Q58.6078 66.4715 64.418 66.4715 Z" fill="#000000" fill-rule="nonzero" fill-opacity="1" /><path clip-path="url(#clip350)" d="M84.5799 95.7769 L89.4641 95.7769 L89.4641 101.656 L84.5799 101.656 L84.5799 95.7769 Z" fill="#000000" fill-rule="nonzero" fill-opacity="1" /><path clip-path="url(#clip350)" d="M99.6956 67.0965 L118.052 67.0965 L118.052 71.0317 L103.978 71.0317 L103.978 79.5038 Q104.996 79.1566 106.015 78.9946 Q107.033 78.8094 108.052 78.8094 Q113.839 78.8094 117.219 81.9807 Q120.598 85.1519 120.598 90.5686 Q120.598 96.1473 117.126 99.2491 Q113.654 102.328 107.334 102.328 Q105.159 102.328 102.89 101.957 Q100.645 101.587 98.2372 100.846 L98.2372 96.1473 Q100.321 97.2815 102.543 97.8371 Q104.765 98.3926 107.242 98.3926 Q111.246 98.3926 113.584 96.2861 Q115.922 94.1797 115.922 90.5686 Q115.922 86.9575 113.584 84.851 Q111.246 82.7446 107.242 82.7446 Q105.367 82.7446 103.492 83.1612 Q101.64 83.5779 99.6956 84.4575 L99.6956 67.0965 Z" fill="#000000" fill-rule="nonzero" fill-opacity="1" /><polyline clip-path="url(#clip352)" style="stroke:#009af9; stroke-linecap:round; stroke-linejoin:round; stroke-width:4; stroke-opacity:1; fill:none" points="218.754,1430.63 222.207,1430.17 225.66,1429.7 229.113,1429.22 232.566,1428.72 236.019,1428.21 239.472,1427.69 242.925,1427.15 246.378,1426.6 249.831,1426.04 253.284,1425.46 256.737,1424.86 260.191,1424.25 263.644,1423.63 267.097,1422.98 270.55,1422.33 274.003,1421.65 277.456,1420.96 280.909,1420.25 284.362,1419.52 287.815,1418.78 291.268,1418.01 294.721,1417.23 298.174,1416.43 301.628,1415.61 305.081,1414.77 308.534,1413.91 311.987,1413.02 315.44,1412.12 318.893,1411.2 322.346,1410.25 325.799,1409.28 329.252,1408.29 332.705,1407.27 336.158,1406.24 339.611,1405.17 343.064,1404.09 346.518,1402.98 349.971,1401.84 353.424,1400.68 356.877,1399.49 360.33,1398.27 363.783,1397.03 367.236,1395.76 370.689,1394.46 374.142,1393.14 377.595,1391.78 381.048,1390.4 384.501,1388.98 387.954,1387.54 391.408,1386.06 394.861,1384.55 398.314,1383.01 401.767,1381.44 405.22,1379.84 408.673,1378.2 412.126,1376.53 415.579,1374.83 419.032,1373.09 422.485,1371.31 425.938,1369.5 429.391,1367.65 432.844,1365.77 436.298,1363.85 439.751,1361.89 443.204,1359.89 446.657,1357.85 450.11,1355.78 453.563,1353.66 457.016,1351.51 460.469,1349.31 463.922,1347.07 467.375,1344.79 470.828,1342.47 474.281,1340.1 477.734,1337.69 481.188,1335.24 484.641,1332.75 488.094,1330.2 491.547,1327.62 495,1324.98 498.453,1322.3 501.906,1319.58 505.359,1316.8 508.812,1313.98 512.265,1311.11 515.718,1308.19 519.171,1305.23 522.625,1302.21 526.078,1299.14 529.531,1296.02 532.984,1292.86 536.437,1289.63 539.89,1286.36 543.343,1283.04 546.796,1279.66 550.249,1276.23 553.702,1272.74 557.155,1269.21 560.608,1265.61 564.061,1261.97 567.515,1258.26 570.968,1254.5 574.421,1250.69 577.874,1246.82 581.327,1242.89 584.78,1238.91 588.233,1234.87 591.686,1230.77 595.139,1226.62 598.592,1222.4 602.045,1218.13 605.498,1213.8 608.951,1209.41 612.405,1204.96 615.858,1200.45 619.311,1195.89 622.764,1191.26 626.217,1186.57 629.67,1181.83 633.123,1177.02 636.576,1172.15 640.029,1167.23 643.482,1162.24 646.935,1157.19 650.388,1152.08 653.841,1146.92 657.295,1141.69 660.748,1136.4 664.201,1131.05 667.654,1125.63 671.107,1120.16 674.56,1114.63 678.013,1109.04 681.466,1103.39 684.919,1097.67 688.372,1091.9 691.825,1086.07 695.278,1080.18 698.731,1074.22 702.185,1068.21 705.638,1062.14 709.091,1056.02 712.544,1049.83 715.997,1043.59 719.45,1037.28 722.903,1030.92 726.356,1024.51 729.809,1018.04 733.262,1011.51 736.715,1004.92 740.168,998.283 743.622,991.589 747.075,984.841 750.528,978.039 753.981,971.185 757.434,964.278 760.887,957.32 764.34,950.31 767.793,943.25 771.246,936.141 774.699,928.983 778.152,921.776 781.605,914.522 785.058,907.222 788.512,899.875 791.965,892.484 795.418,885.049 798.871,877.571 802.324,870.05 805.777,862.489 809.23,854.887 812.683,847.246 816.136,839.566 819.589,831.85 823.042,824.097 826.495,816.31 829.948,808.488 833.402,800.634 836.855,792.749 840.308,784.833 843.761,776.888 847.214,768.915 850.667,760.916 854.12,752.891 857.573,744.843 861.026,736.772 864.479,728.679 867.932,720.567 871.385,712.437 874.838,704.289 878.292,696.126 881.745,687.948 885.198,679.758 888.651,671.557 892.104,663.347 895.557,655.128 899.01,646.903 902.463,638.673 905.916,630.44 909.369,622.205 912.822,613.97 916.275,605.737 919.728,597.507 923.182,589.282 926.635,581.064 930.088,572.855 933.541,564.655 936.994,556.467 940.447,548.294 943.9,540.135 947.353,531.994 950.806,523.871 954.259,515.77 957.712,507.691 961.165,499.636 964.619,491.608 968.072,483.608 971.525,475.638 974.978,467.699 978.431,459.795 981.884,451.925 985.337,444.093 988.79,436.301 992.243,428.549 995.696,420.84 999.149,413.176 1002.6,405.559 1006.06,397.991 1009.51,390.473 1012.96,383.007 1016.41,375.595 1019.87,368.24 1023.32,360.942 1026.77,353.705 1030.23,346.528 1033.68,339.416 1037.13,332.368 1040.59,325.388 1044.04,318.477 1047.49,311.636 1050.95,304.869 1054.4,298.175 1057.85,291.558 1061.3,285.018 1064.76,278.558 1068.21,272.18 1071.66,265.885 1075.12,259.674 1078.57,253.551 1082.02,247.515 1085.48,241.569 1088.93,235.715 1092.38,229.954 1095.84,224.287 1099.29,218.717 1102.74,213.245 1106.19,207.872 1109.65,202.6 1113.1,197.43 1116.55,192.364 1120.01,187.404 1123.46,182.55 1126.91,177.804 1130.37,173.168 1133.82,168.642 1137.27,164.229 1140.73,159.929 1144.18,155.743 1147.63,151.673 1151.08,147.72 1154.54,143.885 1157.99,140.17 1161.44,136.575 1164.9,133.101 1168.35,129.75 1171.8,126.521 1175.26,123.418 1178.71,120.439 1182.16,117.587 1185.62,114.861 1189.07,112.264 1192.52,109.794 1195.97,107.455 1199.43,105.245 1202.88,103.165 1206.33,101.217 1209.79,99.4008 1213.24,97.7169 1216.69,96.1658 1220.15,94.748 1223.6,93.464 1227.05,92.3141 1230.51,91.2987 1233.96,90.418 1237.41,89.6724 1240.86,89.062 1244.32,88.5871 1247.77,88.2478 1251.22,88.0442 1254.68,87.9763 1258.13,88.0442 1261.58,88.2478 1265.04,88.5871 1268.49,89.062 1271.94,89.6724 1275.4,90.418 1278.85,91.2987 1282.3,92.3141 1285.75,93.464 1289.21,94.748 1292.66,96.1658 1296.11,97.7169 1299.57,99.4008 1303.02,101.217 1306.47,103.165 1309.93,105.245 1313.38,107.455 1316.83,109.794 1320.29,112.264 1323.74,114.861 1327.19,117.587 1330.64,120.439 1334.1,123.418 1337.55,126.521 1341,129.75 1344.46,133.101 1347.91,136.575 1351.36,140.17 1354.82,143.885 1358.27,147.72 1361.72,151.673 1365.18,155.743 1368.63,159.929 1372.08,164.229 1375.53,168.642 1378.99,173.168 1382.44,177.804 1385.89,182.55 1389.35,187.404 1392.8,192.364 1396.25,197.43 1399.71,202.6 1403.16,207.872 1406.61,213.245 1410.07,218.717 1413.52,224.287 1416.97,229.954 1420.42,235.715 1423.88,241.569 1427.33,247.515 1430.78,253.551 1434.24,259.674 1437.69,265.885 1441.14,272.18 1444.6,278.558 1448.05,285.018 1451.5,291.558 1454.96,298.175 1458.41,304.869 1461.86,311.636 1465.31,318.477 1468.77,325.388 1472.22,332.368 1475.67,339.416 1479.13,346.528 1482.58,353.705 1486.03,360.942 1489.49,368.24 1492.94,375.595 1496.39,383.007 1499.85,390.473 1503.3,397.991 1506.75,405.559 1510.2,413.176 1513.66,420.84 1517.11,428.549 1520.56,436.301 1524.02,444.093 1527.47,451.925 1530.92,459.795 1534.38,467.699 1537.83,475.638 1541.28,483.608 1544.74,491.608 1548.19,499.636 1551.64,507.691 1555.09,515.77 1558.55,523.871 1562,531.994 1565.45,540.135 1568.91,548.294 1572.36,556.467 1575.81,564.655 1579.27,572.855 1582.72,581.064 1586.17,589.282 1589.63,597.507 1593.08,605.737 1596.53,613.97 1599.98,622.205 1603.44,630.44 1606.89,638.673 1610.34,646.903 1613.8,655.128 1617.25,663.347 1620.7,671.557 1624.16,679.758 1627.61,687.948 1631.06,696.126 1634.52,704.289 1637.97,712.437 1641.42,720.567 1644.87,728.679 1648.33,736.772 1651.78,744.843 1655.23,752.891 1658.69,760.916 1662.14,768.915 1665.59,776.888 1669.05,784.833 1672.5,792.749 1675.95,800.634 1679.41,808.488 1682.86,816.31 1686.31,824.097 1689.76,831.85 1693.22,839.566 1696.67,847.246 1700.12,854.887 1703.58,862.489 1707.03,870.05 1710.48,877.571 1713.94,885.049 1717.39,892.484 1720.84,899.875 1724.3,907.222 1727.75,914.522 1731.2,921.776 1734.65,928.983 1738.11,936.141 1741.56,943.25 1745.01,950.31 1748.47,957.32 1751.92,964.278 1755.37,971.185 1758.83,978.039 1762.28,984.841 1765.73,991.589 1769.19,998.283 1772.64,1004.92 1776.09,1011.51 1779.54,1018.04 1783,1024.51 1786.45,1030.92 1789.9,1037.28 1793.36,1043.59 1796.81,1049.83 1800.26,1056.02 1803.72,1062.14 1807.17,1068.21 1810.62,1074.22 1814.08,1080.18 1817.53,1086.07 1820.98,1091.9 1824.43,1097.67 1827.89,1103.39 1831.34,1109.04 1834.79,1114.63 1838.25,1120.16 1841.7,1125.63 1845.15,1131.05 1848.61,1136.4 1852.06,1141.69 1855.51,1146.92 1858.97,1152.08 1862.42,1157.19 1865.87,1162.24 1869.32,1167.23 1872.78,1172.15 1876.23,1177.02 1879.68,1181.83 1883.14,1186.57 1886.59,1191.26 1890.04,1195.89 1893.5,1200.45 1896.95,1204.96 1900.4,1209.41 1903.86,1213.8 1907.31,1218.13 1910.76,1222.4 1914.21,1226.62 1917.67,1230.77 1921.12,1234.87 1924.57,1238.91 1928.03,1242.89 1931.48,1246.82 1934.93,1250.69 1938.39,1254.5 1941.84,1258.26 1945.29,1261.97 1948.75,1265.61 1952.2,1269.21 1955.65,1272.74 1959.11,1276.23 1962.56,1279.66 1966.01,1283.04 1969.46,1286.36 1972.92,1289.63 1976.37,1292.86 1979.82,1296.02 1983.28,1299.14 1986.73,1302.21 1990.18,1305.23 1993.64,1308.19 1997.09,1311.11 2000.54,1313.98 2004,1316.8 2007.45,1319.58 2010.9,1322.3 2014.35,1324.98 2017.81,1327.62 2021.26,1330.2 2024.71,1332.75 2028.17,1335.24 2031.62,1337.69 2035.07,1340.1 2038.53,1342.47 2041.98,1344.79 2045.43,1347.07 2048.89,1349.31 2052.34,1351.51 2055.79,1353.66 2059.24,1355.78 2062.7,1357.85 2066.15,1359.89 2069.6,1361.89 2073.06,1363.85 2076.51,1365.77 2079.96,1367.65 2083.42,1369.5 2086.87,1371.31 2090.32,1373.09 2093.78,1374.83 2097.23,1376.53 2100.68,1378.2 2104.13,1379.84 2107.59,1381.44 2111.04,1383.01 2114.49,1384.55 2117.95,1386.06 2121.4,1387.54 2124.85,1388.98 2128.31,1390.4 2131.76,1391.78 2135.21,1393.14 2138.67,1394.46 2142.12,1395.76 2145.57,1397.03 2149.02,1398.27 2152.48,1399.49 2155.93,1400.68 2159.38,1401.84 2162.84,1402.98 2166.29,1404.09 2169.74,1405.17 2173.2,1406.24 2176.65,1407.27 2180.1,1408.29 2183.56,1409.28 2187.01,1410.25 2190.46,1411.2 2193.91,1412.12 2197.37,1413.02 2200.82,1413.91 2204.27,1414.77 2207.73,1415.61 2211.18,1416.43 2214.63,1417.23 2218.09,1418.01 2221.54,1418.78 2224.99,1419.52 2228.45,1420.25 2231.9,1420.96 2235.35,1421.65 2238.8,1422.33 2242.26,1422.98 2245.71,1423.63 2249.16,1424.25 2252.62,1424.86 2256.07,1425.46 2259.52,1426.04 2262.98,1426.6 2266.43,1427.15 2269.88,1427.69 2273.34,1428.21 2276.79,1428.72 2280.24,1429.22 2283.69,1429.7 2287.15,1430.17 2290.6,1430.63 "/>
<circle clip-path="url(#clip352)" cx="1910.76" cy="1445.72" r="18" fill="#000000" fill-rule="evenodd" fill-opacity="0.5" stroke="none"/>
<path clip-path="url(#clip352)" d="M1824.43 1445.72 L1827.89 1445.72 L1831.34 1445.72 L1834.79 1445.72 L1838.25 1445.72 L1841.7 1445.72 L1845.15 1445.72 L1848.61 1445.72 L1852.06 1445.72 L1855.51 1445.72 L1858.97 1445.72 L1862.42 1445.72 L1865.87 1445.72 L1869.32 1445.72 L1872.78 1445.72 L1876.23 1445.72 L1879.68 1445.72 L1883.14 1445.72 L1886.59 1445.72 L1890.04 1445.72 L1893.5 1445.72 L1896.95 1445.72 L1900.4 1445.72 L1903.86 1445.72 L1907.31 1445.72 L1910.76 1445.72 L1914.21 1445.72 L1917.67 1445.72 L1921.12 1445.72 L1924.57 1445.72 L1928.03 1445.72 L1931.48 1445.72 L1934.93 1445.72 L1938.39 1445.72 L1941.84 1445.72 L1945.29 1445.72 L1948.75 1445.72 L1952.2 1445.72 L1955.65 1445.72 L1959.11 1445.72 L1962.56 1445.72 L1966.01 1445.72 L1969.46 1445.72 L1972.92 1445.72 L1976.37 1445.72 L1979.82 1445.72 L1983.28 1445.72 L1986.73 1445.72 L1990.18 1445.72 L1993.64 1445.72 L1997.09 1445.72 L2000.54 1445.72 L2004 1445.72 L2007.45 1445.72 L2010.9 1445.72 L2014.35 1445.72 L2017.81 1445.72 L2021.26 1445.72 L2024.71 1445.72 L2028.17 1445.72 L2031.62 1445.72 L2035.07 1445.72 L2038.53 1445.72 L2041.98 1445.72 L2045.43 1445.72 L2048.89 1445.72 L2052.34 1445.72 L2055.79 1445.72 L2059.24 1445.72 L2062.7 1445.72 L2066.15 1445.72 L2069.6 1445.72 L2073.06 1445.72 L2076.51 1445.72 L2079.96 1445.72 L2083.42 1445.72 L2086.87 1445.72 L2090.32 1445.72 L2093.78 1445.72 L2097.23 1445.72 L2100.68 1445.72 L2104.13 1445.72 L2107.59 1445.72 L2111.04 1445.72 L2114.49 1445.72 L2117.95 1445.72 L2121.4 1445.72 L2124.85 1445.72 L2128.31 1445.72 L2131.76 1445.72 L2135.21 1445.72 L2138.67 1445.72 L2142.12 1445.72 L2145.57 1445.72 L2149.02 1445.72 L2152.48 1445.72 L2155.93 1445.72 L2159.38 1445.72 L2162.84 1445.72 L2166.29 1445.72 L2169.74 1445.72 L2173.2 1445.72 L2176.65 1445.72 L2180.1 1445.72 L2183.56 1445.72 L2187.01 1445.72 L2190.46 1445.72 L2193.91 1445.72 L2197.37 1445.72 L2200.82 1445.72 L2204.27 1445.72 L2207.73 1445.72 L2211.18 1445.72 L2214.63 1445.72 L2218.09 1445.72 L2221.54 1445.72 L2224.99 1445.72 L2228.45 1445.72 L2231.9 1445.72 L2235.35 1445.72 L2238.8 1445.72 L2242.26 1445.72 L2245.71 1445.72 L2249.16 1445.72 L2252.62 1445.72 L2256.07 1445.72 L2259.52 1445.72 L2262.98 1445.72 L2266.43 1445.72 L2269.88 1445.72 L2273.34 1445.72 L2276.79 1445.72 L2280.24 1445.72 L2283.69 1445.72 L2287.15 1445.72 L2290.6 1445.72 L2290.6 1430.63 L2287.15 1430.17 L2283.69 1429.7 L2280.24 1429.22 L2276.79 1428.72 L2273.34 1428.21 L2269.88 1427.69 L2266.43 1427.15 L2262.98 1426.6 L2259.52 1426.04 L2256.07 1425.46 L2252.62 1424.86 L2249.16 1424.25 L2245.71 1423.63 L2242.26 1422.98 L2238.8 1422.33 L2235.35 1421.65 L2231.9 1420.96 L2228.45 1420.25 L2224.99 1419.52 L2221.54 1418.78 L2218.09 1418.01 L2214.63 1417.23 L2211.18 1416.43 L2207.73 1415.61 L2204.27 1414.77 L2200.82 1413.91 L2197.37 1413.02 L2193.91 1412.12 L2190.46 1411.2 L2187.01 1410.25 L2183.56 1409.28 L2180.1 1408.29 L2176.65 1407.27 L2173.2 1406.24 L2169.74 1405.17 L2166.29 1404.09 L2162.84 1402.98 L2159.38 1401.84 L2155.93 1400.68 L2152.48 1399.49 L2149.02 1398.27 L2145.57 1397.03 L2142.12 1395.76 L2138.67 1394.46 L2135.21 1393.14 L2131.76 1391.78 L2128.31 1390.4 L2124.85 1388.98 L2121.4 1387.54 L2117.95 1386.06 L2114.49 1384.55 L2111.04 1383.01 L2107.59 1381.44 L2104.13 1379.84 L2100.68 1378.2 L2097.23 1376.53 L2093.78 1374.83 L2090.32 1373.09 L2086.87 1371.31 L2083.42 1369.5 L2079.96 1367.65 L2076.51 1365.77 L2073.06 1363.85 L2069.6 1361.89 L2066.15 1359.89 L2062.7 1357.85 L2059.24 1355.78 L2055.79 1353.66 L2052.34 1351.51 L2048.89 1349.31 L2045.43 1347.07 L2041.98 1344.79 L2038.53 1342.47 L2035.07 1340.1 L2031.62 1337.69 L2028.17 1335.24 L2024.71 1332.75 L2021.26 1330.2 L2017.81 1327.62 L2014.35 1324.98 L2010.9 1322.3 L2007.45 1319.58 L2004 1316.8 L2000.54 1313.98 L1997.09 1311.11 L1993.64 1308.19 L1990.18 1305.23 L1986.73 1302.21 L1983.28 1299.14 L1979.82 1296.02 L1976.37 1292.86 L1972.92 1289.63 L1969.46 1286.36 L1966.01 1283.04 L1962.56 1279.66 L1959.11 1276.23 L1955.65 1272.74 L1952.2 1269.21 L1948.75 1265.61 L1945.29 1261.97 L1941.84 1258.26 L1938.39 1254.5 L1934.93 1250.69 L1931.48 1246.82 L1928.03 1242.89 L1924.57 1238.91 L1921.12 1234.87 L1917.67 1230.77 L1914.21 1226.62 L1910.76 1222.4 L1907.31 1218.13 L1903.86 1213.8 L1900.4 1209.41 L1896.95 1204.96 L1893.5 1200.45 L1890.04 1195.89 L1886.59 1191.26 L1883.14 1186.57 L1879.68 1181.83 L1876.23 1177.02 L1872.78 1172.15 L1869.32 1167.23 L1865.87 1162.24 L1862.42 1157.19 L1858.97 1152.08 L1855.51 1146.92 L1852.06 1141.69 L1848.61 1136.4 L1845.15 1131.05 L1841.7 1125.63 L1838.25 1120.16 L1834.79 1114.63 L1831.34 1109.04 L1827.89 1103.39 L1824.43 1097.67  Z" fill="#009af9" fill-rule="evenodd" fill-opacity="0.2"/>
<polyline clip-path="url(#clip352)" style="stroke:#009af9; stroke-linecap:round; stroke-linejoin:round; stroke-width:4; stroke-opacity:1; fill:none" points="1824.43,1445.72 1827.89,1445.72 1831.34,1445.72 1834.79,1445.72 1838.25,1445.72 1841.7,1445.72 1845.15,1445.72 1848.61,1445.72 1852.06,1445.72 1855.51,1445.72 1858.97,1445.72 1862.42,1445.72 1865.87,1445.72 1869.32,1445.72 1872.78,1445.72 1876.23,1445.72 1879.68,1445.72 1883.14,1445.72 1886.59,1445.72 1890.04,1445.72 1893.5,1445.72 1896.95,1445.72 1900.4,1445.72 1903.86,1445.72 1907.31,1445.72 1910.76,1445.72 1914.21,1445.72 1917.67,1445.72 1921.12,1445.72 1924.57,1445.72 1928.03,1445.72 1931.48,1445.72 1934.93,1445.72 1938.39,1445.72 1941.84,1445.72 1945.29,1445.72 1948.75,1445.72 1952.2,1445.72 1955.65,1445.72 1959.11,1445.72 1962.56,1445.72 1966.01,1445.72 1969.46,1445.72 1972.92,1445.72 1976.37,1445.72 1979.82,1445.72 1983.28,1445.72 1986.73,1445.72 1990.18,1445.72 1993.64,1445.72 1997.09,1445.72 2000.54,1445.72 2004,1445.72 2007.45,1445.72 2010.9,1445.72 2014.35,1445.72 2017.81,1445.72 2021.26,1445.72 2024.71,1445.72 2028.17,1445.72 2031.62,1445.72 2035.07,1445.72 2038.53,1445.72 2041.98,1445.72 2045.43,1445.72 2048.89,1445.72 2052.34,1445.72 2055.79,1445.72 2059.24,1445.72 2062.7,1445.72 2066.15,1445.72 2069.6,1445.72 2073.06,1445.72 2076.51,1445.72 2079.96,1445.72 2083.42,1445.72 2086.87,1445.72 2090.32,1445.72 2093.78,1445.72 2097.23,1445.72 2100.68,1445.72 2104.13,1445.72 2107.59,1445.72 2111.04,1445.72 2114.49,1445.72 2117.95,1445.72 2121.4,1445.72 2124.85,1445.72 2128.31,1445.72 2131.76,1445.72 2135.21,1445.72 2138.67,1445.72 2142.12,1445.72 2145.57,1445.72 2149.02,1445.72 2152.48,1445.72 2155.93,1445.72 2159.38,1445.72 2162.84,1445.72 2166.29,1445.72 2169.74,1445.72 2173.2,1445.72 2176.65,1445.72 2180.1,1445.72 2183.56,1445.72 2187.01,1445.72 2190.46,1445.72 2193.91,1445.72 2197.37,1445.72 2200.82,1445.72 2204.27,1445.72 2207.73,1445.72 2211.18,1445.72 2214.63,1445.72 2218.09,1445.72 2221.54,1445.72 2224.99,1445.72 2228.45,1445.72 2231.9,1445.72 2235.35,1445.72 2238.8,1445.72 2242.26,1445.72 2245.71,1445.72 2249.16,1445.72 2252.62,1445.72 2256.07,1445.72 2259.52,1445.72 2262.98,1445.72 2266.43,1445.72 2269.88,1445.72 2273.34,1445.72 2276.79,1445.72 2280.24,1445.72 2283.69,1445.72 2287.15,1445.72 2290.6,1445.72 "/>
<path clip-path="url(#clip352)" d="M1914.21 1445.72 L1917.67 1445.72 L1921.12 1445.72 L1924.57 1445.72 L1928.03 1445.72 L1931.48 1445.72 L1934.93 1445.72 L1938.39 1445.72 L1941.84 1445.72 L1945.29 1445.72 L1948.75 1445.72 L1952.2 1445.72 L1955.65 1445.72 L1959.11 1445.72 L1962.56 1445.72 L1966.01 1445.72 L1969.46 1445.72 L1972.92 1445.72 L1976.37 1445.72 L1979.82 1445.72 L1983.28 1445.72 L1986.73 1445.72 L1990.18 1445.72 L1993.64 1445.72 L1997.09 1445.72 L2000.54 1445.72 L2004 1445.72 L2007.45 1445.72 L2010.9 1445.72 L2014.35 1445.72 L2017.81 1445.72 L2021.26 1445.72 L2024.71 1445.72 L2028.17 1445.72 L2031.62 1445.72 L2035.07 1445.72 L2038.53 1445.72 L2041.98 1445.72 L2045.43 1445.72 L2048.89 1445.72 L2052.34 1445.72 L2055.79 1445.72 L2059.24 1445.72 L2062.7 1445.72 L2066.15 1445.72 L2069.6 1445.72 L2073.06 1445.72 L2076.51 1445.72 L2079.96 1445.72 L2083.42 1445.72 L2086.87 1445.72 L2090.32 1445.72 L2093.78 1445.72 L2097.23 1445.72 L2100.68 1445.72 L2104.13 1445.72 L2107.59 1445.72 L2111.04 1445.72 L2114.49 1445.72 L2117.95 1445.72 L2121.4 1445.72 L2124.85 1445.72 L2128.31 1445.72 L2131.76 1445.72 L2135.21 1445.72 L2138.67 1445.72 L2142.12 1445.72 L2145.57 1445.72 L2149.02 1445.72 L2152.48 1445.72 L2155.93 1445.72 L2159.38 1445.72 L2162.84 1445.72 L2166.29 1445.72 L2169.74 1445.72 L2173.2 1445.72 L2176.65 1445.72 L2180.1 1445.72 L2183.56 1445.72 L2187.01 1445.72 L2190.46 1445.72 L2193.91 1445.72 L2197.37 1445.72 L2200.82 1445.72 L2204.27 1445.72 L2207.73 1445.72 L2211.18 1445.72 L2214.63 1445.72 L2218.09 1445.72 L2221.54 1445.72 L2224.99 1445.72 L2228.45 1445.72 L2231.9 1445.72 L2235.35 1445.72 L2238.8 1445.72 L2242.26 1445.72 L2245.71 1445.72 L2249.16 1445.72 L2252.62 1445.72 L2256.07 1445.72 L2259.52 1445.72 L2262.98 1445.72 L2266.43 1445.72 L2269.88 1445.72 L2273.34 1445.72 L2276.79 1445.72 L2280.24 1445.72 L2283.69 1445.72 L2287.15 1445.72 L2290.6 1445.72 L2290.6 1430.63 L2287.15 1430.17 L2283.69 1429.7 L2280.24 1429.22 L2276.79 1428.72 L2273.34 1428.21 L2269.88 1427.69 L2266.43 1427.15 L2262.98 1426.6 L2259.52 1426.04 L2256.07 1425.46 L2252.62 1424.86 L2249.16 1424.25 L2245.71 1423.63 L2242.26 1422.98 L2238.8 1422.33 L2235.35 1421.65 L2231.9 1420.96 L2228.45 1420.25 L2224.99 1419.52 L2221.54 1418.78 L2218.09 1418.01 L2214.63 1417.23 L2211.18 1416.43 L2207.73 1415.61 L2204.27 1414.77 L2200.82 1413.91 L2197.37 1413.02 L2193.91 1412.12 L2190.46 1411.2 L2187.01 1410.25 L2183.56 1409.28 L2180.1 1408.29 L2176.65 1407.27 L2173.2 1406.24 L2169.74 1405.17 L2166.29 1404.09 L2162.84 1402.98 L2159.38 1401.84 L2155.93 1400.68 L2152.48 1399.49 L2149.02 1398.27 L2145.57 1397.03 L2142.12 1395.76 L2138.67 1394.46 L2135.21 1393.14 L2131.76 1391.78 L2128.31 1390.4 L2124.85 1388.98 L2121.4 1387.54 L2117.95 1386.06 L2114.49 1384.55 L2111.04 1383.01 L2107.59 1381.44 L2104.13 1379.84 L2100.68 1378.2 L2097.23 1376.53 L2093.78 1374.83 L2090.32 1373.09 L2086.87 1371.31 L2083.42 1369.5 L2079.96 1367.65 L2076.51 1365.77 L2073.06 1363.85 L2069.6 1361.89 L2066.15 1359.89 L2062.7 1357.85 L2059.24 1355.78 L2055.79 1353.66 L2052.34 1351.51 L2048.89 1349.31 L2045.43 1347.07 L2041.98 1344.79 L2038.53 1342.47 L2035.07 1340.1 L2031.62 1337.69 L2028.17 1335.24 L2024.71 1332.75 L2021.26 1330.2 L2017.81 1327.62 L2014.35 1324.98 L2010.9 1322.3 L2007.45 1319.58 L2004 1316.8 L2000.54 1313.98 L1997.09 1311.11 L1993.64 1308.19 L1990.18 1305.23 L1986.73 1302.21 L1983.28 1299.14 L1979.82 1296.02 L1976.37 1292.86 L1972.92 1289.63 L1969.46 1286.36 L1966.01 1283.04 L1962.56 1279.66 L1959.11 1276.23 L1955.65 1272.74 L1952.2 1269.21 L1948.75 1265.61 L1945.29 1261.97 L1941.84 1258.26 L1938.39 1254.5 L1934.93 1250.69 L1931.48 1246.82 L1928.03 1242.89 L1924.57 1238.91 L1921.12 1234.87 L1917.67 1230.77 L1914.21 1226.62  Z" fill="#000000" fill-rule="evenodd" fill-opacity="0.2"/>
<polyline clip-path="url(#clip352)" style="stroke:#000000; stroke-linecap:round; stroke-linejoin:round; stroke-width:4; stroke-opacity:1; fill:none" points="1914.21,1445.72 1917.67,1445.72 1921.12,1445.72 1924.57,1445.72 1928.03,1445.72 1931.48,1445.72 1934.93,1445.72 1938.39,1445.72 1941.84,1445.72 1945.29,1445.72 1948.75,1445.72 1952.2,1445.72 1955.65,1445.72 1959.11,1445.72 1962.56,1445.72 1966.01,1445.72 1969.46,1445.72 1972.92,1445.72 1976.37,1445.72 1979.82,1445.72 1983.28,1445.72 1986.73,1445.72 1990.18,1445.72 1993.64,1445.72 1997.09,1445.72 2000.54,1445.72 2004,1445.72 2007.45,1445.72 2010.9,1445.72 2014.35,1445.72 2017.81,1445.72 2021.26,1445.72 2024.71,1445.72 2028.17,1445.72 2031.62,1445.72 2035.07,1445.72 2038.53,1445.72 2041.98,1445.72 2045.43,1445.72 2048.89,1445.72 2052.34,1445.72 2055.79,1445.72 2059.24,1445.72 2062.7,1445.72 2066.15,1445.72 2069.6,1445.72 2073.06,1445.72 2076.51,1445.72 2079.96,1445.72 2083.42,1445.72 2086.87,1445.72 2090.32,1445.72 2093.78,1445.72 2097.23,1445.72 2100.68,1445.72 2104.13,1445.72 2107.59,1445.72 2111.04,1445.72 2114.49,1445.72 2117.95,1445.72 2121.4,1445.72 2124.85,1445.72 2128.31,1445.72 2131.76,1445.72 2135.21,1445.72 2138.67,1445.72 2142.12,1445.72 2145.57,1445.72 2149.02,1445.72 2152.48,1445.72 2155.93,1445.72 2159.38,1445.72 2162.84,1445.72 2166.29,1445.72 2169.74,1445.72 2173.2,1445.72 2176.65,1445.72 2180.1,1445.72 2183.56,1445.72 2187.01,1445.72 2190.46,1445.72 2193.91,1445.72 2197.37,1445.72 2200.82,1445.72 2204.27,1445.72 2207.73,1445.72 2211.18,1445.72 2214.63,1445.72 2218.09,1445.72 2221.54,1445.72 2224.99,1445.72 2228.45,1445.72 2231.9,1445.72 2235.35,1445.72 2238.8,1445.72 2242.26,1445.72 2245.71,1445.72 2249.16,1445.72 2252.62,1445.72 2256.07,1445.72 2259.52,1445.72 2262.98,1445.72 2266.43,1445.72 2269.88,1445.72 2273.34,1445.72 2276.79,1445.72 2280.24,1445.72 2283.69,1445.72 2287.15,1445.72 2290.6,1445.72 "/>
<polyline clip-path="url(#clip352)" style="stroke:#008000; stroke-linecap:round; stroke-linejoin:round; stroke-width:4; stroke-opacity:1; fill:none" points="1822.66,2925.65 1822.66,-1391.96 "/>
<path clip-path="url(#clip350)" d="M229.803 425.553 L736.29 425.553 L736.29 95.2176 L229.803 95.2176  Z" fill="#ffffff" fill-rule="evenodd" fill-opacity="1"/>
<polyline clip-path="url(#clip350)" style="stroke:#000000; stroke-linecap:round; stroke-linejoin:round; stroke-width:4; stroke-opacity:1; fill:none" points="229.803,425.553 736.29,425.553 736.29,95.2176 229.803,95.2176 229.803,425.553 "/>
<polyline clip-path="url(#clip350)" style="stroke:#009af9; stroke-linecap:round; stroke-linejoin:round; stroke-width:4; stroke-opacity:1; fill:none" points="254.205,150.273 400.616,150.273 "/>
<path clip-path="url(#clip350)" d="M465.398 127.26 Q465.398 127.939 465.093 128.08 Q464.812 128.22 463.782 128.22 Q462.025 128.22 461.229 128.454 Q460.456 128.665 460.221 129.04 Q460.011 129.391 459.753 130.422 L453.265 156.327 Q453.265 156.351 453.195 156.678 Q453.124 156.983 453.124 157.147 Q453.124 157.451 453.312 157.639 Q453.523 157.826 454.038 157.92 Q454.553 157.99 454.951 158.014 Q455.373 158.014 456.24 158.014 Q457.317 158.014 457.481 158.201 Q457.575 158.318 457.575 158.529 Q457.575 158.974 457.387 159.208 Q457.223 159.419 457.059 159.466 Q456.919 159.489 456.638 159.489 Q456.146 159.489 455.092 159.442 Q454.038 159.395 453.499 159.395 L450.431 159.349 L444.341 159.489 Q443.685 159.489 443.685 158.95 Q443.685 158.482 443.849 158.271 Q444.013 158.06 444.177 158.037 Q444.364 158.014 444.833 158.014 Q447.245 158.014 448.042 157.779 Q448.862 157.522 449.189 156.421 L452.492 143.187 L437.876 143.187 L434.597 156.327 Q434.597 156.351 434.527 156.678 Q434.457 156.983 434.457 157.147 Q434.457 157.451 434.644 157.639 Q434.855 157.826 435.37 157.92 Q435.886 157.99 436.284 158.014 Q436.705 158.014 437.572 158.014 Q438.649 158.014 438.837 158.201 Q438.93 158.318 438.93 158.529 Q438.93 158.857 438.837 159.091 Q438.766 159.302 438.579 159.372 Q438.415 159.442 438.298 159.466 Q438.181 159.489 437.97 159.489 Q437.478 159.489 436.424 159.442 Q435.394 159.395 434.855 159.395 L431.787 159.349 L425.697 159.489 Q425.018 159.489 425.018 158.95 Q425.018 158.482 425.181 158.295 Q425.345 158.084 425.556 158.06 Q425.767 158.014 426.306 158.014 Q427.477 158.014 428.18 157.943 Q428.882 157.873 429.327 157.779 Q429.796 157.662 430.03 157.334 Q430.288 157.006 430.405 156.725 Q430.522 156.421 430.686 155.742 L437.103 129.977 Q437.291 129.204 437.291 129.087 Q437.291 128.642 437.01 128.525 Q436.752 128.384 436.003 128.314 L434.176 128.22 Q433.614 128.22 433.379 128.197 Q433.169 128.173 433.005 128.056 Q432.841 127.939 432.841 127.681 Q432.841 127.354 432.911 127.143 Q433.005 126.908 433.169 126.838 Q433.332 126.768 433.45 126.745 Q433.567 126.721 433.754 126.721 L439.938 126.862 L446.074 126.721 Q446.754 126.721 446.754 127.26 Q446.754 127.939 446.449 128.08 Q446.145 128.22 445.114 128.22 Q443.404 128.22 442.608 128.454 Q441.811 128.665 441.554 129.04 Q441.32 129.415 441.085 130.422 L438.251 141.688 L452.89 141.688 L455.771 129.977 Q455.959 129.134 455.959 129.087 Q455.959 128.642 455.677 128.525 Q455.42 128.384 454.67 128.314 L452.843 128.22 Q452.281 128.22 452.047 128.197 Q451.836 128.173 451.649 128.056 Q451.485 127.939 451.485 127.681 Q451.485 127.354 451.555 127.143 Q451.649 126.908 451.813 126.838 Q451.977 126.768 452.094 126.745 Q452.211 126.721 452.398 126.721 L458.582 126.862 L464.742 126.721 Q465.398 126.721 465.398 127.26 Z" fill="#000000" fill-rule="nonzero" fill-opacity="1" /><path clip-path="url(#clip350)" d="M470.122 162.039 Q470.122 157.104 471.368 154.415 Q473.106 150.414 477.205 150.414 Q478.074 150.414 478.976 150.66 Q479.894 150.89 481.041 151.792 Q482.206 152.693 482.911 154.169 Q484.255 157.022 484.255 162.039 Q484.255 166.941 483.009 169.614 Q481.189 173.516 477.172 173.516 Q475.664 173.516 474.122 172.745 Q472.598 171.975 471.63 170.122 Q470.122 167.351 470.122 162.039 M472.909 161.629 Q472.909 166.695 473.27 168.712 Q473.68 170.893 474.795 171.844 Q475.926 172.778 477.172 172.778 Q478.516 172.778 479.631 171.778 Q480.763 170.762 481.107 168.581 Q481.484 166.433 481.468 161.629 Q481.468 156.956 481.14 155.087 Q480.697 152.907 479.517 152.038 Q478.353 151.152 477.172 151.152 Q476.729 151.152 476.254 151.283 Q475.795 151.415 475.123 151.792 Q474.45 152.169 473.926 153.103 Q473.417 154.038 473.171 155.448 Q472.909 157.268 472.909 161.629 Z" fill="#000000" fill-rule="nonzero" fill-opacity="1" /><circle clip-path="url(#clip350)" cx="327.41" cy="205.329" r="20.9455" fill="#000000" fill-rule="evenodd" fill-opacity="0.5" stroke="none"/>
<path clip-path="url(#clip350)" d="M448.908 195.743 Q448.908 197.054 448.089 197.804 Q447.269 198.53 446.332 198.53 Q445.442 198.53 444.973 198.015 Q444.505 197.499 444.505 196.844 Q444.505 195.954 445.161 195.181 Q445.817 194.408 446.8 194.244 Q445.84 193.635 444.411 193.635 Q443.474 193.635 442.655 194.127 Q441.858 194.618 441.366 195.251 Q440.898 195.883 440.476 196.797 Q440.078 197.687 439.914 198.226 Q439.774 198.741 439.657 199.303 L438.017 205.861 Q437.221 208.976 437.221 210.077 Q437.221 211.436 437.876 212.349 Q438.532 213.239 439.844 213.239 Q440.359 213.239 440.945 213.099 Q441.53 212.935 442.28 212.513 Q443.053 212.068 443.732 211.412 Q444.435 210.733 445.114 209.585 Q445.793 208.438 446.238 206.962 Q446.379 206.447 446.847 206.447 Q447.433 206.447 447.433 206.915 Q447.433 207.313 447.105 208.157 Q446.8 208.976 446.121 210.054 Q445.465 211.108 444.599 212.068 Q443.732 213.005 442.444 213.661 Q441.156 214.317 439.75 214.317 Q437.736 214.317 436.401 213.239 Q435.066 212.162 434.574 210.663 Q434.457 210.874 434.293 211.155 Q434.129 211.436 433.637 212.068 Q433.169 212.677 432.63 213.146 Q432.091 213.591 431.248 213.942 Q430.428 214.317 429.538 214.317 Q428.414 214.317 427.407 213.989 Q426.423 213.661 425.72 212.911 Q425.018 212.162 425.018 211.131 Q425.018 209.984 425.79 209.187 Q426.587 208.367 427.664 208.367 Q428.343 208.367 428.882 208.766 Q429.444 209.164 429.444 210.03 Q429.444 210.991 428.789 211.717 Q428.133 212.443 427.196 212.63 Q428.156 213.239 429.585 213.239 Q431.131 213.239 432.349 211.881 Q433.567 210.522 434.152 208.25 Q435.604 202.793 436.167 200.357 Q436.729 197.898 436.729 196.844 Q436.729 195.86 436.471 195.181 Q436.213 194.501 435.768 194.197 Q435.347 193.869 434.949 193.752 Q434.574 193.635 434.152 193.635 Q433.45 193.635 432.653 193.916 Q431.88 194.197 430.943 194.853 Q430.03 195.485 429.163 196.797 Q428.297 198.108 427.711 199.912 Q427.594 200.451 427.079 200.451 Q426.517 200.427 426.517 199.959 Q426.517 199.561 426.821 198.741 Q427.149 197.898 427.805 196.844 Q428.484 195.79 429.351 194.853 Q430.241 193.892 431.529 193.237 Q432.841 192.581 434.246 192.581 Q434.878 192.581 435.487 192.721 Q436.12 192.838 436.869 193.19 Q437.642 193.541 438.321 194.314 Q439.001 195.087 439.422 196.211 Q439.703 195.672 440.078 195.157 Q440.476 194.642 441.085 194.009 Q441.718 193.354 442.584 192.979 Q443.474 192.581 444.458 192.581 Q445.418 192.581 446.355 192.838 Q447.292 193.073 448.089 193.846 Q448.908 194.595 448.908 195.743 Z" fill="#000000" fill-rule="nonzero" fill-opacity="1" /><path clip-path="url(#clip350)" d="M456.007 226.346 Q453.794 224.149 453.794 220.968 Q453.794 217.771 455.958 215.443 Q458.139 213.098 461.254 213.098 Q464.303 213.098 466.484 215.427 Q468.681 217.738 468.681 220.968 Q468.681 224.133 466.468 226.33 Q464.271 228.527 461.221 228.527 Q458.237 228.527 456.007 226.346 M456.581 220.69 Q456.581 223.952 457.434 225.428 Q458.745 227.674 461.254 227.674 Q462.5 227.674 463.533 227.002 Q464.582 226.33 465.156 225.198 Q465.894 223.723 465.894 220.69 Q465.894 217.46 465.008 216.033 Q463.697 213.853 461.221 213.853 Q460.139 213.853 459.073 214.426 Q458.024 214.984 457.384 216.099 Q456.581 217.574 456.581 220.69 Z" fill="#000000" fill-rule="nonzero" fill-opacity="1" /><path clip-path="url(#clip350)" d="M470.419 206.261 L470.419 205.212 L475.255 204.851 L475.255 215.492 Q477.207 213.311 479.863 213.311 Q482.748 213.311 484.863 215.525 Q486.978 217.738 486.978 220.903 Q486.978 224.1 484.765 226.313 Q482.552 228.527 479.486 228.527 Q476.698 228.527 475.092 226.067 Q473.911 228.117 473.878 228.15 L473.042 228.15 L473.042 208.13 Q473.042 206.884 472.599 206.573 Q472.157 206.261 470.419 206.261 M475.354 224.329 Q475.354 225.034 475.829 225.739 Q477.157 227.772 479.322 227.772 Q479.338 227.772 479.354 227.772 Q481.699 227.772 483.158 225.625 Q484.191 224.018 484.191 220.87 Q484.191 217.755 483.224 216.197 Q481.879 214.049 479.699 214.049 Q477.239 214.049 475.731 216.197 Q475.354 216.738 475.354 217.41 L475.354 224.329 Z" fill="#000000" fill-rule="nonzero" fill-opacity="1" /><path clip-path="url(#clip350)" d="M488.862 227.707 L488.862 223.28 Q488.862 222.903 488.879 222.772 Q488.895 222.641 488.993 222.542 Q489.092 222.444 489.288 222.444 Q489.518 222.444 489.6 222.542 Q489.698 222.641 489.764 223.018 Q490.272 225.33 491.354 226.559 Q492.453 227.772 494.437 227.772 Q496.322 227.772 497.273 226.936 Q498.224 226.1 498.224 224.723 Q498.224 222.264 494.732 221.64 Q492.715 221.231 491.879 220.968 Q491.043 220.69 490.305 220.083 Q488.862 218.902 488.862 217.23 Q488.862 215.558 490.125 214.328 Q491.403 213.098 494.224 213.098 Q496.109 213.098 497.388 214.049 Q497.765 213.754 497.962 213.508 Q498.404 213.098 498.634 213.098 Q498.896 213.098 498.945 213.279 Q498.995 213.443 498.995 213.918 L498.995 217.296 Q498.995 217.673 498.978 217.804 Q498.962 217.935 498.863 218.033 Q498.765 218.115 498.552 218.115 Q498.175 218.115 498.158 217.804 Q497.896 213.738 494.224 213.738 Q492.24 213.738 491.354 214.508 Q490.469 215.263 490.469 216.295 Q490.469 216.869 490.731 217.312 Q491.01 217.738 491.354 218.001 Q491.715 218.247 492.371 218.493 Q493.027 218.722 493.42 218.804 Q493.83 218.886 494.601 219.05 Q497.29 219.558 498.421 220.657 Q499.831 222.067 499.831 223.854 Q499.831 225.838 498.486 227.182 Q497.142 228.527 494.437 228.527 Q492.256 228.527 490.731 227.067 Q490.534 227.264 490.387 227.445 Q490.239 227.609 490.174 227.674 Q490.125 227.74 490.108 227.789 Q490.092 227.822 490.059 227.854 Q489.387 228.527 489.223 228.527 Q488.96 228.527 488.911 228.346 Q488.862 228.182 488.862 227.707 Z" fill="#000000" fill-rule="nonzero" fill-opacity="1" /><path clip-path="url(#clip350)" d="M520.373 206.494 Q520.419 205.908 521.333 205.908 L550.728 205.908 Q552.11 205.908 552.133 206.447 Q552.133 207.032 550.822 207.009 L521.661 207.009 Q520.373 207.032 520.373 206.494 M520.373 197.125 Q520.373 196.539 521.38 196.563 L550.681 196.563 Q552.11 196.563 552.133 197.125 Q552.133 197.663 550.915 197.663 L521.333 197.663 Q520.373 197.663 520.373 197.125 Z" fill="#000000" fill-rule="nonzero" fill-opacity="1" /><path clip-path="url(#clip350)" d="M570.624 207.313 Q570.624 205.885 571.444 205.205 Q572.264 204.526 573.318 204.526 Q574.419 204.526 575.192 205.252 Q575.988 205.955 575.988 207.196 Q575.988 208.531 575.051 209.281 Q574.138 210.03 572.826 209.843 Q573.974 211.764 576.082 212.63 Q578.213 213.497 580.181 213.497 Q582.242 213.497 583.905 211.717 Q585.591 209.937 585.591 205.58 Q585.591 201.879 584.139 199.748 Q582.71 197.617 579.876 197.617 L577.768 197.617 Q577.042 197.617 576.831 197.546 Q576.62 197.476 576.62 197.078 Q576.62 196.609 577.346 196.516 Q578.073 196.516 579.22 196.375 Q582.008 196.281 583.483 193.869 Q584.818 191.62 584.818 188.412 Q584.818 185.484 583.413 184.266 Q582.031 183.024 580.227 183.024 Q578.541 183.024 576.691 183.727 Q574.84 184.43 573.833 185.999 Q576.808 185.999 576.808 188.412 Q576.808 189.466 576.129 190.168 Q575.473 190.847 574.372 190.847 Q573.318 190.847 572.615 190.192 Q571.912 189.512 571.912 188.365 Q571.912 185.624 574.348 183.727 Q576.808 181.83 580.415 181.83 Q583.975 181.83 586.598 183.704 Q589.245 185.577 589.245 188.458 Q589.245 191.292 587.371 193.611 Q585.497 195.93 582.523 196.89 Q586.177 197.617 588.355 200.099 Q590.533 202.559 590.533 205.58 Q590.533 209.328 587.582 212.092 Q584.631 214.832 580.321 214.832 Q576.339 214.832 573.482 212.677 Q570.624 210.522 570.624 207.313 Z" fill="#000000" fill-rule="nonzero" fill-opacity="1" /><path clip-path="url(#clip350)" d="M595.1 213.005 Q594.374 212.232 594.374 211.225 Q594.374 210.218 595.1 209.492 Q595.826 208.742 596.927 208.742 Q597.981 208.742 598.684 209.445 Q599.41 210.124 599.41 211.248 Q599.41 212.349 598.637 213.075 Q597.888 213.778 596.927 213.778 Q595.826 213.778 595.1 213.005 Z" fill="#000000" fill-rule="nonzero" fill-opacity="1" /><path clip-path="url(#clip350)" d="M607.571 198.436 Q607.571 191.386 609.351 187.545 Q611.834 181.83 617.69 181.83 Q618.931 181.83 620.219 182.181 Q621.531 182.509 623.171 183.797 Q624.834 185.086 625.841 187.194 Q627.761 191.269 627.761 198.436 Q627.761 205.44 625.981 209.257 Q623.381 214.832 617.643 214.832 Q615.488 214.832 613.286 213.731 Q611.108 212.63 609.726 209.984 Q607.571 206.025 607.571 198.436 M611.553 197.851 Q611.553 205.088 612.068 207.969 Q612.654 211.084 614.247 212.443 Q615.863 213.778 617.643 213.778 Q619.564 213.778 621.156 212.349 Q622.772 210.897 623.264 207.782 Q623.803 204.714 623.78 197.851 Q623.78 191.175 623.311 188.505 Q622.679 185.39 620.992 184.149 Q619.329 182.884 617.643 182.884 Q617.01 182.884 616.331 183.071 Q615.675 183.259 614.715 183.797 Q613.755 184.336 613.005 185.671 Q612.279 187.006 611.928 189.02 Q611.553 191.62 611.553 197.851 Z" fill="#000000" fill-rule="nonzero" fill-opacity="1" /><path clip-path="url(#clip350)" d="M631.513 213.778 Q631.513 212.911 631.584 212.654 Q631.677 212.396 632.052 211.998 L641.257 201.739 Q646.293 196.071 646.293 191.129 Q646.293 187.92 644.606 185.624 Q642.943 183.329 639.875 183.329 Q637.767 183.329 635.987 184.617 Q634.207 185.905 633.387 188.201 Q633.528 188.154 634.019 188.154 Q635.214 188.154 635.87 188.903 Q636.549 189.653 636.549 190.66 Q636.549 191.948 635.706 192.581 Q634.886 193.19 634.066 193.19 Q633.738 193.19 633.293 193.119 Q632.872 193.049 632.193 192.393 Q631.513 191.714 631.513 190.52 Q631.513 187.17 634.043 184.5 Q636.596 181.83 640.484 181.83 Q644.887 181.83 647.768 184.453 Q650.673 187.053 650.673 191.129 Q650.673 192.557 650.228 193.869 Q649.806 195.157 649.221 196.164 Q648.658 197.172 647.113 198.788 Q645.567 200.404 644.325 201.552 Q643.084 202.699 640.297 205.135 L635.214 210.077 L643.857 210.077 Q648.073 210.077 648.401 209.703 Q648.869 209.023 649.455 205.44 L650.673 205.44 L649.314 213.778 L631.513 213.778 Z" fill="#000000" fill-rule="nonzero" fill-opacity="1" /><path clip-path="url(#clip350)" d="M254.205 282.408 L400.616 282.408 L400.616 238.363 L254.205 238.363 L254.205 282.408  Z" fill="#009af9" fill-rule="evenodd" fill-opacity="0.2"/>
<polyline clip-path="url(#clip350)" style="stroke:#009af9; stroke-linecap:round; stroke-linejoin:round; stroke-width:4; stroke-opacity:1; fill:none" points="254.205,238.363 400.616,238.363 "/>
<path clip-path="url(#clip350)" d="M451.93 257.319 Q451.883 257.553 451.789 257.975 Q451.696 258.373 451.274 259.638 Q450.852 260.903 450.29 262.191 Q449.752 263.456 448.698 265.236 Q447.667 266.993 446.402 268.585 Q446.051 269.007 445.981 269.264 Q445.934 269.499 445.934 270.272 Q445.934 275.144 447.409 275.144 Q447.48 275.144 447.597 275.144 Q447.737 275.12 448.089 275.003 Q448.463 274.862 448.791 274.652 Q449.119 274.417 449.494 273.949 Q449.869 273.457 450.103 272.801 Q450.314 272.333 450.735 272.333 Q451.297 272.333 451.297 272.801 Q451.297 273.644 450.126 274.933 Q448.955 276.221 447.269 276.221 Q445.653 276.221 444.505 275.167 Q443.381 274.09 442.912 272.169 Q437.853 276.221 432.794 276.221 Q429.234 276.221 427.126 273.902 Q425.018 271.56 425.018 268.093 Q425.018 264.767 426.844 261.605 Q428.695 258.443 431.693 256.476 Q434.714 254.485 437.923 254.485 Q439.048 254.485 440.125 254.789 Q441.202 255.07 442.28 255.797 Q443.357 256.523 444.154 257.624 Q444.95 258.724 445.442 260.458 Q445.934 262.191 445.934 264.369 L445.934 267.344 Q449.026 263.432 450.642 257.834 Q450.876 256.991 451.016 256.897 Q451.11 256.827 451.344 256.827 Q451.579 256.827 451.719 256.968 Q451.883 257.085 451.906 257.202 L451.93 257.319 M442.725 270.927 Q442.631 270.108 442.631 265.564 Q442.631 264.697 442.631 264.229 Q442.631 263.737 442.584 262.8 Q442.537 261.863 442.444 261.277 Q442.374 260.692 442.21 259.849 Q442.046 259.005 441.811 258.467 Q441.577 257.928 441.202 257.319 Q440.851 256.71 440.383 256.359 Q439.938 256.007 439.282 255.773 Q438.649 255.539 437.876 255.539 Q436.916 255.539 435.909 255.89 Q434.925 256.218 433.66 257.272 Q432.396 258.303 431.342 259.942 Q430.241 261.676 429.398 264.861 Q428.578 268.023 428.578 269.92 Q428.578 272.309 429.679 273.738 Q430.779 275.144 432.887 275.144 Q437.923 275.144 442.725 270.927 Z" fill="#000000" fill-rule="nonzero" fill-opacity="1" /><path clip-path="url(#clip350)" d="M468.706 268.398 Q468.752 267.812 469.666 267.812 L499.061 267.812 Q500.443 267.812 500.466 268.351 Q500.466 268.937 499.155 268.913 L469.994 268.913 Q468.706 268.937 468.706 268.398 M468.706 259.029 Q468.706 258.443 469.713 258.467 L499.014 258.467 Q500.443 258.467 500.466 259.029 Q500.466 259.568 499.248 259.568 L469.666 259.568 Q468.706 259.568 468.706 259.029 Z" fill="#000000" fill-rule="nonzero" fill-opacity="1" /><path clip-path="url(#clip350)" d="M518.957 260.341 Q518.957 253.29 520.737 249.449 Q523.22 243.734 529.076 243.734 Q530.317 243.734 531.605 244.085 Q532.917 244.413 534.557 245.702 Q536.22 246.99 537.227 249.098 Q539.147 253.173 539.147 260.341 Q539.147 267.344 537.367 271.162 Q534.767 276.736 529.029 276.736 Q526.874 276.736 524.672 275.635 Q522.494 274.535 521.112 271.888 Q518.957 267.929 518.957 260.341 M522.939 259.755 Q522.939 266.993 523.454 269.873 Q524.04 272.989 525.633 274.347 Q527.249 275.682 529.029 275.682 Q530.95 275.682 532.542 274.253 Q534.158 272.801 534.65 269.686 Q535.189 266.618 535.166 259.755 Q535.166 253.08 534.697 250.409 Q534.065 247.294 532.378 246.053 Q530.715 244.788 529.029 244.788 Q528.396 244.788 527.717 244.975 Q527.061 245.163 526.101 245.702 Q525.141 246.24 524.391 247.575 Q523.665 248.91 523.314 250.925 Q522.939 253.525 522.939 259.755 Z" fill="#000000" fill-rule="nonzero" fill-opacity="1" /><path clip-path="url(#clip350)" d="M543.433 274.909 Q542.707 274.136 542.707 273.129 Q542.707 272.122 543.433 271.396 Q544.159 270.646 545.26 270.646 Q546.314 270.646 547.017 271.349 Q547.743 272.028 547.743 273.153 Q547.743 274.253 546.97 274.98 Q546.221 275.682 545.26 275.682 Q544.159 275.682 543.433 274.909 Z" fill="#000000" fill-rule="nonzero" fill-opacity="1" /><path clip-path="url(#clip350)" d="M555.904 260.341 Q555.904 253.29 557.684 249.449 Q560.167 243.734 566.023 243.734 Q567.264 243.734 568.552 244.085 Q569.864 244.413 571.504 245.702 Q573.167 246.99 574.174 249.098 Q576.094 253.173 576.094 260.341 Q576.094 267.344 574.314 271.162 Q571.714 276.736 565.976 276.736 Q563.821 276.736 561.619 275.635 Q559.441 274.535 558.059 271.888 Q555.904 267.929 555.904 260.341 M559.886 259.755 Q559.886 266.993 560.401 269.873 Q560.987 272.989 562.58 274.347 Q564.196 275.682 565.976 275.682 Q567.897 275.682 569.489 274.253 Q571.105 272.801 571.597 269.686 Q572.136 266.618 572.113 259.755 Q572.113 253.08 571.644 250.409 Q571.012 247.294 569.325 246.053 Q567.662 244.788 565.976 244.788 Q565.343 244.788 564.664 244.975 Q564.008 245.163 563.048 245.702 Q562.088 246.24 561.338 247.575 Q560.612 248.91 560.261 250.925 Q559.886 253.525 559.886 259.755 Z" fill="#000000" fill-rule="nonzero" fill-opacity="1" /><path clip-path="url(#clip350)" d="M579.846 267.953 Q579.846 266.524 580.619 265.985 Q581.392 265.423 582.212 265.423 Q583.313 265.423 583.945 266.126 Q584.601 266.805 584.601 267.765 Q584.601 268.726 583.945 269.428 Q583.313 270.108 582.212 270.108 Q581.673 270.108 581.392 270.014 Q582.025 272.216 583.945 273.808 Q585.889 275.401 588.442 275.401 Q591.651 275.401 593.572 272.286 Q594.72 270.272 594.72 265.704 Q594.72 261.676 593.853 259.661 Q592.518 256.593 589.777 256.593 Q585.889 256.593 583.594 259.942 Q583.313 260.364 582.985 260.387 Q582.516 260.387 582.399 260.13 Q582.306 259.849 582.306 259.123 L582.306 244.929 Q582.306 243.781 582.774 243.781 Q582.961 243.781 583.36 243.921 Q586.381 245.256 589.731 245.28 Q593.174 245.28 596.265 243.875 Q596.5 243.734 596.64 243.734 Q597.109 243.734 597.132 244.273 Q597.132 244.46 596.734 245.022 Q596.359 245.561 595.539 246.287 Q594.72 246.99 593.665 247.669 Q592.611 248.348 591.066 248.817 Q589.543 249.262 587.857 249.262 Q585.842 249.262 583.781 248.629 L583.781 257.975 Q586.264 255.539 589.871 255.539 Q593.712 255.539 596.359 258.631 Q599.006 261.722 599.006 266.032 Q599.006 270.553 595.867 273.644 Q592.752 276.736 588.536 276.736 Q584.695 276.736 582.259 273.996 Q579.846 271.255 579.846 267.953 Z" fill="#000000" fill-rule="nonzero" fill-opacity="1" /><path clip-path="url(#clip350)" d="M254.205 337.464 L400.616 337.464 L400.616 293.419 L254.205 293.419 L254.205 337.464  Z" fill="#000000" fill-rule="evenodd" fill-opacity="0.2"/>
<polyline clip-path="url(#clip350)" style="stroke:#000000; stroke-linecap:round; stroke-linejoin:round; stroke-width:4; stroke-opacity:1; fill:none" points="254.205,293.419 400.616,293.419 "/>
<path clip-path="url(#clip350)" d="M450.08 306.016 Q450.08 309.435 448.346 312.738 Q446.636 316.041 443.943 318.078 Q441.249 320.093 438.509 320.093 Q436.869 320.093 435.768 319.203 Q434.691 318.289 434.105 317.001 Q433.66 318.594 432.7 322.411 Q431.74 326.229 431.74 326.604 Q431.74 326.815 431.787 326.909 Q431.833 327.002 432.044 327.119 Q432.255 327.26 432.77 327.307 Q433.286 327.377 434.152 327.377 Q434.597 327.377 434.761 327.377 Q434.949 327.4 435.113 327.518 Q435.3 327.635 435.3 327.892 Q435.3 328.853 434.433 328.853 Q433.66 328.853 432.068 328.782 Q430.475 328.712 429.679 328.712 Q428.999 328.712 427.641 328.782 Q426.282 328.853 425.65 328.853 Q425.018 328.853 425.018 328.291 Q425.018 327.963 425.111 327.752 Q425.181 327.564 425.369 327.471 Q425.556 327.4 425.72 327.377 Q425.861 327.377 426.142 327.377 Q427.219 327.377 427.688 327.19 Q428.156 327.026 428.32 326.674 Q428.507 326.346 428.718 325.41 L434.105 304.048 Q434.433 302.62 434.433 301.612 Q434.433 300.348 434.035 299.879 Q433.637 299.411 432.934 299.411 Q431.716 299.411 430.92 300.863 Q430.124 302.315 429.444 305.126 Q429.234 305.899 429.093 306.063 Q428.976 306.227 428.625 306.227 Q428.039 306.203 428.039 305.735 Q428.039 305.618 428.226 304.868 Q428.414 304.095 428.765 302.971 Q429.14 301.823 429.538 301.097 Q429.772 300.605 429.983 300.277 Q430.194 299.949 430.615 299.434 Q431.06 298.919 431.693 298.638 Q432.325 298.357 433.098 298.357 Q434.597 298.357 435.839 299.247 Q437.08 300.137 437.408 301.94 Q438.743 300.371 440.383 299.364 Q442.022 298.357 443.685 298.357 Q446.449 298.357 448.253 300.512 Q450.08 302.643 450.08 306.016 M446.613 303.908 Q446.613 301.776 445.793 300.605 Q444.997 299.411 443.545 299.411 Q441.741 299.411 439.657 301.238 Q437.595 302.971 437.174 304.587 L434.808 313.979 L434.668 314.752 Q434.668 314.893 434.738 315.314 Q434.832 315.713 435.089 316.369 Q435.37 317.024 435.745 317.61 Q436.143 318.172 436.846 318.594 Q437.572 319.015 438.462 319.015 Q439.891 319.015 441.437 317.75 Q443.006 316.486 444.177 314.097 Q444.903 312.551 445.746 309.225 Q446.613 305.875 446.613 303.908 Z" fill="#000000" fill-rule="nonzero" fill-opacity="1" /><path clip-path="url(#clip350)" d="M469.69 330.104 Q469.69 330.53 469.575 331.366 Q469.46 332.203 469.181 333.416 Q468.903 334.629 468.493 335.908 Q468.099 337.187 467.476 338.466 Q466.853 339.728 466.115 340.728 Q465.378 341.728 464.345 342.351 Q463.312 342.974 462.148 342.974 Q461.607 342.974 461.082 342.893 Q460.557 342.811 459.902 342.548 Q459.246 342.286 458.77 341.86 Q458.295 341.417 457.967 340.63 Q457.639 339.843 457.639 338.81 Q457.639 337.744 458.032 336.318 Q458.442 334.875 459.557 331.924 Q460.131 330.399 460.131 329.563 Q460.131 329.186 460.049 328.956 Q459.967 328.71 459.803 328.628 Q459.639 328.53 459.541 328.513 Q459.459 328.497 459.295 328.497 Q458.393 328.497 457.475 329.432 Q456.557 330.366 455.901 332.662 Q455.77 333.071 455.688 333.17 Q455.606 333.268 455.36 333.268 Q454.95 333.252 454.95 332.924 Q454.95 332.826 455.065 332.448 Q455.18 332.055 455.393 331.465 Q455.606 330.858 455.983 330.235 Q456.36 329.596 456.819 329.038 Q457.295 328.481 457.967 328.12 Q458.639 327.759 459.393 327.759 Q460.623 327.759 461.377 328.563 Q462.148 329.35 462.148 330.514 Q462.148 331.153 461.738 332.186 Q461.049 334.055 460.738 334.957 Q460.426 335.859 460.098 337.138 Q459.787 338.416 459.787 339.302 Q459.787 340.646 460.41 341.433 Q461.033 342.22 462.279 342.22 Q463.394 342.22 464.394 341.417 Q465.41 340.597 466.083 339.433 Q466.755 338.253 467.263 336.941 Q467.771 335.613 468.001 334.613 Q468.247 333.596 468.247 333.121 Q468.247 331.465 467.116 330.383 Q466.804 330.071 466.689 329.874 Q466.575 329.678 466.575 329.366 Q466.575 328.792 467.083 328.284 Q467.607 327.759 468.214 327.759 Q468.772 327.759 469.231 328.317 Q469.69 328.874 469.69 330.104 Z" fill="#000000" fill-rule="nonzero" fill-opacity="1" /><path clip-path="url(#clip350)" d="M488.157 337.793 Q487.715 339.909 487.141 341.122 Q486.223 342.974 484.665 342.974 Q483.485 342.974 482.649 342.253 Q481.812 341.532 481.616 340.45 Q479.468 342.974 477.238 342.974 Q475.27 342.974 474.024 341.482 Q472.778 339.974 472.778 337.597 Q472.778 335.203 473.959 332.908 Q475.156 330.612 477.041 329.186 Q478.927 327.759 480.861 327.759 Q482.911 327.759 483.96 329.907 Q484.042 329.317 484.419 328.874 Q484.796 328.432 485.37 328.432 Q485.813 328.432 486.075 328.677 Q486.338 328.907 486.338 329.333 Q486.338 329.546 486.108 330.481 L484.895 335.17 L484.157 338.203 Q483.878 339.318 483.796 339.728 Q483.731 340.138 483.731 340.679 Q483.731 342.22 484.731 342.22 Q485.223 342.22 485.616 341.909 Q486.01 341.597 486.321 340.941 Q486.633 340.286 486.829 339.679 Q487.026 339.056 487.289 338.072 Q487.37 337.679 487.436 337.58 Q487.518 337.466 487.748 337.466 Q488.157 337.466 488.157 337.793 M483.55 331.448 Q483.55 331.301 483.436 330.891 Q483.321 330.481 483.058 329.907 Q482.796 329.333 482.222 328.923 Q481.665 328.497 480.911 328.497 Q479.894 328.497 478.828 329.366 Q477.779 330.235 477.008 331.711 Q476.418 332.891 475.779 335.367 Q475.156 337.843 475.156 339.072 Q475.156 339.827 475.32 340.499 Q475.5 341.155 476.008 341.696 Q476.517 342.22 477.304 342.22 Q479.222 342.22 481.107 339.843 Q481.468 339.433 481.55 339.269 Q481.648 339.089 481.78 338.597 L483.452 332.022 Q483.55 331.53 483.55 331.448 Z" fill="#000000" fill-rule="nonzero" fill-opacity="1" /><path clip-path="url(#clip350)" d="M497.408 319.66 L492.571 339.072 Q492.375 339.843 492.375 340.679 Q492.375 342.22 493.391 342.22 Q493.867 342.22 494.26 341.909 Q494.654 341.581 494.949 340.941 Q495.26 340.286 495.457 339.663 Q495.67 339.04 495.933 338.072 Q496.014 337.695 496.096 337.58 Q496.178 337.466 496.408 337.466 Q496.818 337.466 496.818 337.793 Q496.408 339.81 495.801 341.089 Q494.916 342.974 493.276 342.974 Q492.047 342.974 491.129 342.122 Q490.227 341.253 490.227 339.876 Q490.227 339.351 490.391 338.728 L494.621 321.939 L494.736 321.283 Q494.736 321.103 494.67 321.004 Q494.604 320.906 494.211 320.807 Q493.834 320.709 493.08 320.709 Q492.768 320.709 492.621 320.693 Q492.489 320.676 492.358 320.594 Q492.243 320.512 492.243 320.332 Q492.243 320.037 492.358 319.873 Q492.489 319.709 492.588 319.676 Q492.686 319.643 492.883 319.627 Q493.162 319.611 494.096 319.529 Q495.031 319.43 495.834 319.365 Q496.638 319.299 496.982 319.299 Q497.179 319.299 497.277 319.397 Q497.392 319.479 497.408 319.578 L497.408 319.66 Z" fill="#000000" fill-rule="nonzero" fill-opacity="1" /><path clip-path="url(#clip350)" d="M517.126 337.793 Q516.7 339.909 516.126 341.122 Q515.192 342.974 513.634 342.974 Q512.552 342.974 511.732 342.368 Q510.929 341.745 510.65 340.712 Q510.338 341.122 510.06 341.401 Q509.797 341.679 509.289 342.106 Q508.781 342.515 508.092 342.745 Q507.42 342.974 506.649 342.974 Q506.059 342.974 505.518 342.86 Q504.977 342.761 504.403 342.483 Q503.846 342.188 503.436 341.745 Q503.042 341.302 502.78 340.581 Q502.518 339.859 502.518 338.941 Q502.518 337.793 502.96 336.236 Q503.419 334.678 504.469 331.891 Q505.043 330.415 505.043 329.596 Q505.043 329.218 504.961 328.973 Q504.879 328.727 504.715 328.645 Q504.567 328.546 504.469 328.53 Q504.37 328.497 504.206 328.497 Q503.19 328.497 502.305 329.53 Q501.419 330.563 500.813 332.662 Q500.681 333.071 500.599 333.17 Q500.517 333.268 500.271 333.268 Q499.862 333.252 499.862 332.924 Q499.862 332.793 500.009 332.284 Q500.157 331.76 500.501 330.989 Q500.862 330.202 501.354 329.497 Q501.845 328.776 502.616 328.268 Q503.403 327.759 504.305 327.759 Q505.534 327.759 506.289 328.563 Q507.059 329.35 507.059 330.514 Q507.059 331.235 506.485 332.629 Q504.666 337.466 504.666 339.482 Q504.666 342.22 506.748 342.22 Q507.436 342.22 508.076 341.942 Q508.732 341.663 509.158 341.269 Q509.584 340.876 509.912 340.45 Q510.256 340.023 510.404 339.745 Q510.568 339.466 510.584 339.4 L513.093 329.3 Q513.191 328.907 513.372 328.645 Q513.568 328.366 513.798 328.268 Q514.027 328.169 514.159 328.153 Q514.29 328.12 514.405 328.12 Q514.814 328.12 515.093 328.366 Q515.388 328.612 515.388 329.038 Q515.388 329.12 515.29 329.514 Q515.208 329.891 515.077 330.448 Q514.946 330.989 514.88 331.284 Q514.355 333.35 514.306 333.563 L513.372 337.187 Q513.322 337.4 513.158 338.089 Q513.011 338.777 512.929 339.138 Q512.847 339.482 512.765 339.958 Q512.699 340.417 512.699 340.679 Q512.699 341.499 512.945 341.86 Q513.191 342.22 513.732 342.22 Q514.241 342.22 514.634 341.876 Q515.044 341.515 515.356 340.827 Q515.667 340.122 515.847 339.548 Q516.028 338.974 516.257 338.072 Q516.339 337.679 516.405 337.58 Q516.487 337.466 516.716 337.466 Q517.126 337.466 517.126 337.793 Z" fill="#000000" fill-rule="nonzero" fill-opacity="1" /><path clip-path="url(#clip350)" d="M531.914 338.712 Q532.045 338.859 532.045 339.007 Q532.045 339.154 531.717 339.581 Q531.406 340.007 530.734 340.581 Q530.062 341.155 529.193 341.696 Q528.324 342.237 527.045 342.597 Q525.766 342.974 524.421 342.974 Q522.011 342.974 520.568 341.253 Q519.142 339.531 519.142 336.892 Q519.142 335.203 519.699 333.711 Q520.257 332.203 521.159 331.137 Q522.077 330.071 523.224 329.3 Q524.389 328.513 525.602 328.136 Q526.815 327.759 527.946 327.759 Q529.602 327.759 530.57 328.595 Q531.537 329.432 531.537 330.612 Q531.537 330.891 531.455 331.235 Q531.39 331.579 531.16 332.121 Q530.947 332.662 530.389 333.203 Q529.832 333.727 529.012 334.072 Q527.192 334.842 523.88 334.842 L522.093 334.842 Q521.569 336.957 521.569 338.335 Q521.569 338.876 521.667 339.433 Q521.765 339.974 522.028 340.663 Q522.306 341.351 522.929 341.794 Q523.569 342.22 524.487 342.22 Q524.782 342.22 525.094 342.204 Q525.422 342.188 526.241 342.007 Q527.077 341.827 527.815 341.515 Q528.553 341.204 529.488 340.532 Q530.439 339.843 531.193 338.908 Q531.455 338.564 531.635 338.564 Q531.783 338.564 531.914 338.712 M530.422 330.612 Q530.422 329.71 529.75 329.104 Q529.094 328.497 527.946 328.497 Q527.586 328.497 527.143 328.579 Q526.7 328.661 525.963 329.005 Q525.241 329.35 524.602 329.924 Q523.962 330.481 523.323 331.579 Q522.683 332.662 522.306 334.104 L523.684 334.104 Q524.159 334.104 524.503 334.104 Q524.848 334.088 525.602 334.022 Q526.372 333.957 526.93 333.842 Q527.487 333.711 528.192 333.449 Q528.897 333.186 529.34 332.842 Q529.799 332.481 530.111 331.907 Q530.422 331.334 530.422 330.612 Z" fill="#000000" fill-rule="nonzero" fill-opacity="1" /><path clip-path="url(#clip350)" d="M553.055 312.27 Q553.102 311.684 554.016 311.684 L583.411 311.684 Q584.793 311.684 584.816 312.223 Q584.816 312.808 583.504 312.785 L554.343 312.785 Q553.055 312.808 553.055 312.27 M553.055 302.901 Q553.055 302.315 554.062 302.338 L583.364 302.338 Q584.793 302.338 584.816 302.901 Q584.816 303.439 583.598 303.439 L554.016 303.439 Q553.055 303.439 553.055 302.901 Z" fill="#000000" fill-rule="nonzero" fill-opacity="1" /><path clip-path="url(#clip350)" d="M603.307 304.212 Q603.307 297.162 605.087 293.321 Q607.57 287.606 613.425 287.606 Q614.667 287.606 615.955 287.957 Q617.267 288.285 618.906 289.573 Q620.569 290.861 621.576 292.969 Q623.497 297.045 623.497 304.212 Q623.497 311.216 621.717 315.033 Q619.117 320.608 613.379 320.608 Q611.224 320.608 609.022 319.507 Q606.844 318.406 605.462 315.76 Q603.307 311.801 603.307 304.212 M607.289 303.627 Q607.289 310.864 607.804 313.745 Q608.39 316.86 609.982 318.219 Q611.598 319.554 613.379 319.554 Q615.299 319.554 616.892 318.125 Q618.508 316.673 619 313.558 Q619.539 310.489 619.515 303.627 Q619.515 296.951 619.047 294.281 Q618.414 291.166 616.728 289.925 Q615.065 288.66 613.379 288.66 Q612.746 288.66 612.067 288.847 Q611.411 289.035 610.451 289.573 Q609.49 290.112 608.741 291.447 Q608.015 292.782 607.663 294.796 Q607.289 297.396 607.289 303.627 Z" fill="#000000" fill-rule="nonzero" fill-opacity="1" /><path clip-path="url(#clip350)" d="M627.783 318.781 Q627.057 318.008 627.057 317.001 Q627.057 315.994 627.783 315.268 Q628.509 314.518 629.61 314.518 Q630.664 314.518 631.367 315.221 Q632.093 315.9 632.093 317.024 Q632.093 318.125 631.32 318.851 Q630.57 319.554 629.61 319.554 Q628.509 319.554 627.783 318.781 Z" fill="#000000" fill-rule="nonzero" fill-opacity="1" /><path clip-path="url(#clip350)" d="M640.254 304.212 Q640.254 297.162 642.034 293.321 Q644.517 287.606 650.372 287.606 Q651.614 287.606 652.902 287.957 Q654.214 288.285 655.853 289.573 Q657.516 290.861 658.523 292.969 Q660.444 297.045 660.444 304.212 Q660.444 311.216 658.664 315.033 Q656.064 320.608 650.326 320.608 Q648.171 320.608 645.969 319.507 Q643.791 318.406 642.409 315.76 Q640.254 311.801 640.254 304.212 M644.236 303.627 Q644.236 310.864 644.751 313.745 Q645.337 316.86 646.929 318.219 Q648.545 319.554 650.326 319.554 Q652.246 319.554 653.839 318.125 Q655.455 316.673 655.947 313.558 Q656.486 310.489 656.462 303.627 Q656.462 296.951 655.994 294.281 Q655.361 291.166 653.675 289.925 Q652.012 288.66 650.326 288.66 Q649.693 288.66 649.014 288.847 Q648.358 289.035 647.398 289.573 Q646.437 290.112 645.688 291.447 Q644.962 292.782 644.61 294.796 Q644.236 297.396 644.236 303.627 Z" fill="#000000" fill-rule="nonzero" fill-opacity="1" /><path clip-path="url(#clip350)" d="M664.196 319.554 Q664.196 318.687 664.266 318.43 Q664.36 318.172 664.735 317.774 L673.94 307.515 Q678.975 301.847 678.975 296.904 Q678.975 293.696 677.289 291.4 Q675.626 289.105 672.558 289.105 Q670.45 289.105 668.67 290.393 Q666.89 291.681 666.07 293.977 Q666.21 293.93 666.702 293.93 Q667.897 293.93 668.552 294.679 Q669.232 295.429 669.232 296.436 Q669.232 297.724 668.389 298.357 Q667.569 298.966 666.749 298.966 Q666.421 298.966 665.976 298.895 Q665.554 298.825 664.875 298.169 Q664.196 297.49 664.196 296.295 Q664.196 292.946 666.726 290.276 Q669.279 287.606 673.167 287.606 Q677.57 287.606 680.451 290.229 Q683.355 292.829 683.355 296.904 Q683.355 298.333 682.91 299.645 Q682.489 300.933 681.903 301.94 Q681.341 302.947 679.795 304.564 Q678.249 306.18 677.008 307.327 Q675.767 308.475 672.979 310.911 L667.897 315.853 L676.54 315.853 Q680.756 315.853 681.084 315.478 Q681.552 314.799 682.138 311.216 L683.355 311.216 L681.997 319.554 L664.196 319.554 Z" fill="#000000" fill-rule="nonzero" fill-opacity="1" /><path clip-path="url(#clip350)" d="M688.138 298.403 Q688.138 295.85 688.887 294.117 Q689.637 292.361 691.206 290.627 Q694.087 287.606 698.256 287.606 Q700.037 287.606 701.606 288.355 Q703.199 289.105 704.698 290.815 Q706.22 292.501 707.134 295.85 Q708.047 299.176 708.047 303.767 Q708.047 311.192 704.44 315.9 Q700.856 320.608 696.008 320.608 Q692.94 320.608 691.136 319.226 Q689.332 317.821 689.332 315.432 Q689.332 314.19 690.035 313.675 Q690.738 313.136 691.534 313.136 Q692.401 313.136 693.08 313.722 Q693.759 314.284 693.759 315.338 Q693.759 316.205 693.197 316.884 Q692.658 317.54 691.253 317.54 Q692.635 319.273 695.961 319.273 Q697.156 319.273 698.35 318.734 Q699.545 318.172 700.833 316.837 Q702.145 315.478 702.941 312.644 Q703.737 309.81 703.737 305.828 L703.737 304.306 Q701.817 309.108 697.741 309.108 Q693.712 309.108 690.925 306.016 Q688.138 302.924 688.138 298.403 M692.448 298.45 Q692.448 303.205 693.314 304.962 Q694.79 307.983 697.788 307.983 Q700.716 307.983 702.168 305.383 Q703.644 302.76 703.644 299.364 Q703.644 294.656 702.871 292.595 Q701.442 288.8 698.256 288.8 Q695.094 288.8 693.455 291.822 Q692.448 293.602 692.448 298.45 Z" fill="#000000" fill-rule="nonzero" fill-opacity="1" /><polyline clip-path="url(#clip350)" style="stroke:#008000; stroke-linecap:round; stroke-linejoin:round; stroke-width:4; stroke-opacity:1; fill:none" points="254.205,370.497 400.616,370.497 "/>
<path clip-path="url(#clip350)" d="M439.75 361.316 Q439.75 361.972 439.446 362.136 Q439.141 362.276 438.298 362.276 L433.801 362.276 L430.241 376.423 Q429.96 377.665 429.96 378.719 Q429.96 379.89 430.311 380.405 Q430.686 380.921 431.459 380.921 Q432.981 380.921 434.621 379.539 Q436.284 378.157 437.689 374.784 Q437.876 374.339 437.97 374.245 Q438.087 374.128 438.392 374.128 Q438.977 374.128 438.977 374.596 Q438.977 374.76 438.649 375.51 Q438.345 376.259 437.666 377.36 Q437.01 378.461 436.143 379.492 Q435.3 380.522 434.012 381.272 Q432.723 381.998 431.342 381.998 Q429.398 381.998 428.156 380.757 Q426.938 379.515 426.938 377.571 Q426.938 376.939 427.43 374.924 Q427.922 372.887 430.592 362.276 L426.353 362.276 Q425.767 362.276 425.533 362.253 Q425.322 362.229 425.158 362.112 Q425.018 361.972 425.018 361.691 Q425.018 361.246 425.205 361.058 Q425.392 360.848 425.626 360.824 Q425.884 360.777 426.47 360.777 L430.967 360.777 L432.841 353.165 Q433.028 352.415 433.496 351.994 Q433.988 351.549 434.269 351.502 Q434.55 351.432 434.761 351.432 Q435.394 351.432 435.768 351.783 Q436.143 352.111 436.143 352.72 Q436.143 353.048 434.176 360.777 L438.392 360.777 Q438.93 360.777 439.141 360.801 Q439.375 360.824 439.563 360.941 Q439.75 361.058 439.75 361.316 Z" fill="#000000" fill-rule="nonzero" fill-opacity="1" /><path clip-path="url(#clip350)" d="M463.554 377.95 Q463.522 378.114 463.456 378.409 Q463.39 378.688 463.095 379.573 Q462.8 380.458 462.407 381.36 Q462.03 382.245 461.292 383.491 Q460.57 384.721 459.685 385.836 Q459.439 386.131 459.39 386.312 Q459.357 386.475 459.357 387.017 Q459.357 390.427 460.39 390.427 Q460.439 390.427 460.521 390.427 Q460.619 390.41 460.865 390.328 Q461.128 390.23 461.357 390.083 Q461.587 389.919 461.849 389.591 Q462.111 389.246 462.275 388.787 Q462.423 388.459 462.718 388.459 Q463.112 388.459 463.112 388.787 Q463.112 389.378 462.292 390.279 Q461.472 391.181 460.292 391.181 Q459.16 391.181 458.357 390.443 Q457.57 389.689 457.242 388.345 Q453.7 391.181 450.159 391.181 Q447.667 391.181 446.191 389.558 Q444.716 387.918 444.716 385.492 Q444.716 383.164 445.994 380.95 Q447.29 378.737 449.388 377.359 Q451.503 375.966 453.75 375.966 Q454.537 375.966 455.291 376.179 Q456.045 376.376 456.799 376.884 Q457.553 377.392 458.111 378.163 Q458.668 378.933 459.013 380.147 Q459.357 381.36 459.357 382.885 L459.357 384.967 Q461.521 382.229 462.653 378.31 Q462.816 377.72 462.915 377.655 Q462.98 377.605 463.144 377.605 Q463.308 377.605 463.407 377.704 Q463.522 377.786 463.538 377.868 L463.554 377.95 M457.111 387.476 Q457.045 386.902 457.045 383.721 Q457.045 383.114 457.045 382.786 Q457.045 382.442 457.012 381.786 Q456.98 381.13 456.914 380.721 Q456.865 380.311 456.75 379.72 Q456.635 379.13 456.471 378.753 Q456.307 378.376 456.045 377.95 Q455.799 377.523 455.471 377.277 Q455.16 377.032 454.701 376.868 Q454.258 376.704 453.717 376.704 Q453.045 376.704 452.34 376.95 Q451.651 377.179 450.766 377.917 Q449.88 378.638 449.142 379.786 Q448.372 380.999 447.782 383.229 Q447.208 385.443 447.208 386.771 Q447.208 388.443 447.978 389.443 Q448.749 390.427 450.225 390.427 Q453.75 390.427 457.111 387.476 Z" fill="#000000" fill-rule="nonzero" fill-opacity="1" /><path clip-path="url(#clip350)" d="M484.409 374.175 Q484.455 373.589 485.369 373.589 L514.764 373.589 Q516.146 373.589 516.169 374.128 Q516.169 374.714 514.858 374.69 L485.697 374.69 Q484.409 374.714 484.409 374.175 M484.409 364.806 Q484.409 364.22 485.416 364.244 L514.717 364.244 Q516.146 364.244 516.169 364.806 Q516.169 365.345 514.952 365.345 L485.369 365.345 Q484.409 365.345 484.409 364.806 Z" fill="#000000" fill-rule="nonzero" fill-opacity="1" /><path clip-path="url(#clip350)" d="M534.66 381.459 Q534.66 380.593 534.731 380.335 Q534.824 380.077 535.199 379.679 L544.404 369.42 Q549.44 363.752 549.44 358.81 Q549.44 355.601 547.754 353.305 Q546.091 351.01 543.022 351.01 Q540.914 351.01 539.134 352.298 Q537.354 353.587 536.534 355.882 Q536.675 355.835 537.167 355.835 Q538.361 355.835 539.017 356.585 Q539.696 357.334 539.696 358.341 Q539.696 359.63 538.853 360.262 Q538.033 360.871 537.213 360.871 Q536.885 360.871 536.44 360.801 Q536.019 360.73 535.34 360.075 Q534.66 359.395 534.66 358.201 Q534.66 354.851 537.19 352.181 Q539.743 349.511 543.631 349.511 Q548.035 349.511 550.916 352.134 Q553.82 354.734 553.82 358.81 Q553.82 360.239 553.375 361.55 Q552.953 362.838 552.368 363.846 Q551.806 364.853 550.26 366.469 Q548.714 368.085 547.472 369.233 Q546.231 370.38 543.444 372.816 L538.361 377.759 L547.004 377.759 Q551.22 377.759 551.548 377.384 Q552.016 376.705 552.602 373.121 L553.82 373.121 L552.461 381.459 L534.66 381.459 Z" fill="#000000" fill-rule="nonzero" fill-opacity="1" /><path clip-path="url(#clip350)" d="M559.136 380.686 Q558.41 379.913 558.41 378.906 Q558.41 377.899 559.136 377.173 Q559.863 376.423 560.963 376.423 Q562.017 376.423 562.72 377.126 Q563.446 377.805 563.446 378.93 Q563.446 380.031 562.673 380.757 Q561.924 381.459 560.963 381.459 Q559.863 381.459 559.136 380.686 Z" fill="#000000" fill-rule="nonzero" fill-opacity="1" /><path clip-path="url(#clip350)" d="M571.607 374.222 Q571.607 368.858 578.517 365.391 Q575.542 363.377 575.004 362.792 Q572.896 360.449 572.896 357.522 Q572.896 354.172 575.425 351.853 Q577.978 349.511 581.585 349.511 Q585.028 349.511 587.628 351.502 Q590.228 353.493 590.228 356.655 Q590.228 361.105 584.419 364.103 Q588.261 366.492 589.174 367.499 Q591.516 370.099 591.516 373.402 Q591.516 377.243 588.565 379.89 Q585.614 382.513 581.538 382.513 Q577.557 382.513 574.582 380.194 Q571.607 377.876 571.607 374.222 M573.996 374.222 Q573.996 377.196 576.222 379.187 Q578.47 381.178 581.585 381.178 Q584.607 381.178 586.855 379.445 Q589.127 377.712 589.127 375.135 Q589.127 374.128 588.776 373.261 Q588.448 372.395 587.769 371.716 Q587.113 371.013 586.691 370.708 Q586.293 370.38 585.52 369.842 L579.618 366.118 Q573.996 369.233 573.996 374.222 M575.004 355.648 Q575.004 357.943 577.416 359.536 L583.365 363.377 Q588.12 360.59 588.12 356.655 Q588.12 354.102 586.176 352.415 Q584.232 350.706 581.538 350.706 Q578.892 350.706 576.948 352.111 Q575.004 353.493 575.004 355.648 Z" fill="#000000" fill-rule="nonzero" fill-opacity="1" /><path clip-path="url(#clip350)" d="M595.549 381.459 Q595.549 380.593 595.62 380.335 Q595.713 380.077 596.088 379.679 L605.293 369.42 Q610.329 363.752 610.329 358.81 Q610.329 355.601 608.643 353.305 Q606.98 351.01 603.911 351.01 Q601.803 351.01 600.023 352.298 Q598.243 353.587 597.423 355.882 Q597.564 355.835 598.056 355.835 Q599.25 355.835 599.906 356.585 Q600.585 357.334 600.585 358.341 Q600.585 359.63 599.742 360.262 Q598.922 360.871 598.102 360.871 Q597.775 360.871 597.329 360.801 Q596.908 360.73 596.229 360.075 Q595.549 359.395 595.549 358.201 Q595.549 354.851 598.079 352.181 Q600.632 349.511 604.52 349.511 Q608.924 349.511 611.805 352.134 Q614.709 354.734 614.709 358.81 Q614.709 360.239 614.264 361.55 Q613.842 362.838 613.257 363.846 Q612.695 364.853 611.149 366.469 Q609.603 368.085 608.361 369.233 Q607.12 370.38 604.333 372.816 L599.25 377.759 L607.893 377.759 Q612.109 377.759 612.437 377.384 Q612.905 376.705 613.491 373.121 L614.709 373.121 L613.35 381.459 L595.549 381.459 Z" fill="#000000" fill-rule="nonzero" fill-opacity="1" /></svg>
