<?xml version="1.0" encoding="utf-8"?>
<svg xmlns="http://www.w3.org/2000/svg" xmlns:xlink="http://www.w3.org/1999/xlink" width="600" height="400" viewBox="0 0 2400 1600">
<defs>
  <clipPath id="clip660">
    <rect x="0" y="0" width="2400" height="1600"/>
  </clipPath>
</defs>
<path clip-path="url(#clip660)" d="M0 1600 L2400 1600 L2400 0 L0 0  Z" fill="#ffffff" fill-rule="evenodd" fill-opacity="1"/>
<defs>
  <clipPath id="clip661">
    <rect x="480" y="0" width="1681" height="1600"/>
  </clipPath>
</defs>
<path clip-path="url(#clip660)" d="M186.274 719.602 L2352.76 719.602 L2352.76 123.472 L186.274 123.472  Z" fill="#ffffff" fill-rule="evenodd" fill-opacity="1"/>
<defs>
  <clipPath id="clip662">
    <rect x="186" y="123" width="2167" height="597"/>
  </clipPath>
</defs>
<polyline clip-path="url(#clip662)" style="stroke:#000000; stroke-linecap:round; stroke-linejoin:round; stroke-width:2; stroke-opacity:0.1; fill:none" points="247.59,719.602 247.59,123.472 "/>
<polyline clip-path="url(#clip662)" style="stroke:#000000; stroke-linecap:round; stroke-linejoin:round; stroke-width:2; stroke-opacity:0.1; fill:none" points="758.552,719.602 758.552,123.472 "/>
<polyline clip-path="url(#clip662)" style="stroke:#000000; stroke-linecap:round; stroke-linejoin:round; stroke-width:2; stroke-opacity:0.1; fill:none" points="1269.51,719.602 1269.51,123.472 "/>
<polyline clip-path="url(#clip662)" style="stroke:#000000; stroke-linecap:round; stroke-linejoin:round; stroke-width:2; stroke-opacity:0.1; fill:none" points="1780.48,719.602 1780.48,123.472 "/>
<polyline clip-path="url(#clip662)" style="stroke:#000000; stroke-linecap:round; stroke-linejoin:round; stroke-width:2; stroke-opacity:0.1; fill:none" points="2291.44,719.602 2291.44,123.472 "/>
<polyline clip-path="url(#clip662)" style="stroke:#000000; stroke-linecap:round; stroke-linejoin:round; stroke-width:2; stroke-opacity:0.1; fill:none" points="186.274,702.73 2352.76,702.73 "/>
<polyline clip-path="url(#clip662)" style="stroke:#000000; stroke-linecap:round; stroke-linejoin:round; stroke-width:2; stroke-opacity:0.1; fill:none" points="186.274,562.134 2352.76,562.134 "/>
<polyline clip-path="url(#clip662)" style="stroke:#000000; stroke-linecap:round; stroke-linejoin:round; stroke-width:2; stroke-opacity:0.1; fill:none" points="186.274,421.537 2352.76,421.537 "/>
<polyline clip-path="url(#clip662)" style="stroke:#000000; stroke-linecap:round; stroke-linejoin:round; stroke-width:2; stroke-opacity:0.1; fill:none" points="186.274,280.94 2352.76,280.94 "/>
<polyline clip-path="url(#clip662)" style="stroke:#000000; stroke-linecap:round; stroke-linejoin:round; stroke-width:2; stroke-opacity:0.1; fill:none" points="186.274,140.344 2352.76,140.344 "/>
<polyline clip-path="url(#clip660)" style="stroke:#000000; stroke-linecap:round; stroke-linejoin:round; stroke-width:4; stroke-opacity:1; fill:none" points="186.274,719.602 2352.76,719.602 "/>
<polyline clip-path="url(#clip660)" style="stroke:#000000; stroke-linecap:round; stroke-linejoin:round; stroke-width:4; stroke-opacity:1; fill:none" points="247.59,719.602 247.59,700.704 "/>
<polyline clip-path="url(#clip660)" style="stroke:#000000; stroke-linecap:round; stroke-linejoin:round; stroke-width:4; stroke-opacity:1; fill:none" points="758.552,719.602 758.552,700.704 "/>
<polyline clip-path="url(#clip660)" style="stroke:#000000; stroke-linecap:round; stroke-linejoin:round; stroke-width:4; stroke-opacity:1; fill:none" points="1269.51,719.602 1269.51,700.704 "/>
<polyline clip-path="url(#clip660)" style="stroke:#000000; stroke-linecap:round; stroke-linejoin:round; stroke-width:4; stroke-opacity:1; fill:none" points="1780.48,719.602 1780.48,700.704 "/>
<polyline clip-path="url(#clip660)" style="stroke:#000000; stroke-linecap:round; stroke-linejoin:round; stroke-width:4; stroke-opacity:1; fill:none" points="2291.44,719.602 2291.44,700.704 "/>
<path clip-path="url(#clip660)" d="M247.59 750.521 Q243.978 750.521 242.15 754.085 Q240.344 757.627 240.344 764.757 Q240.344 771.863 242.15 775.428 Q243.978 778.969 247.59 778.969 Q251.224 778.969 253.029 775.428 Q254.858 771.863 254.858 764.757 Q254.858 757.627 253.029 754.085 Q251.224 750.521 247.59 750.521 M247.59 746.817 Q253.4 746.817 256.455 751.423 Q259.534 756.007 259.534 764.757 Q259.534 773.483 256.455 778.09 Q253.4 782.673 247.59 782.673 Q241.779 782.673 238.701 778.09 Q235.645 773.483 235.645 764.757 Q235.645 756.007 238.701 751.423 Q241.779 746.817 247.59 746.817 Z" fill="#000000" fill-rule="nonzero" fill-opacity="1" /><path clip-path="url(#clip660)" d="M748.934 778.067 L756.573 778.067 L756.573 751.701 L748.263 753.368 L748.263 749.109 L756.527 747.442 L761.203 747.442 L761.203 778.067 L768.842 778.067 L768.842 782.002 L748.934 782.002 L748.934 778.067 Z" fill="#000000" fill-rule="nonzero" fill-opacity="1" /><path clip-path="url(#clip660)" d="M1264.17 778.067 L1280.49 778.067 L1280.49 782.002 L1258.54 782.002 L1258.54 778.067 Q1261.2 775.312 1265.79 770.683 Q1270.39 766.03 1271.58 764.687 Q1273.82 762.164 1274.7 760.428 Q1275.6 758.669 1275.6 756.979 Q1275.6 754.224 1273.66 752.488 Q1271.74 750.752 1268.64 750.752 Q1266.44 750.752 1263.98 751.516 Q1261.55 752.28 1258.77 753.831 L1258.77 749.109 Q1261.6 747.974 1264.05 747.396 Q1266.51 746.817 1268.54 746.817 Q1273.91 746.817 1277.11 749.502 Q1280.3 752.187 1280.3 756.678 Q1280.3 758.808 1279.49 760.729 Q1278.7 762.627 1276.6 765.22 Q1276.02 765.891 1272.92 769.108 Q1269.82 772.303 1264.17 778.067 Z" fill="#000000" fill-rule="nonzero" fill-opacity="1" /><path clip-path="url(#clip660)" d="M1784.73 763.368 Q1788.08 764.085 1789.96 766.354 Q1791.85 768.622 1791.85 771.956 Q1791.85 777.071 1788.34 779.872 Q1784.82 782.673 1778.34 782.673 Q1776.16 782.673 1773.85 782.233 Q1771.55 781.817 1769.1 780.96 L1769.1 776.446 Q1771.04 777.581 1773.36 778.159 Q1775.67 778.738 1778.2 778.738 Q1782.6 778.738 1784.89 777.002 Q1787.2 775.266 1787.2 771.956 Q1787.2 768.9 1785.05 767.187 Q1782.92 765.451 1779.1 765.451 L1775.07 765.451 L1775.07 761.608 L1779.29 761.608 Q1782.73 761.608 1784.56 760.243 Q1786.39 758.854 1786.39 756.261 Q1786.39 753.599 1784.49 752.187 Q1782.62 750.752 1779.1 750.752 Q1777.18 750.752 1774.98 751.169 Q1772.78 751.585 1770.14 752.465 L1770.14 748.298 Q1772.8 747.558 1775.12 747.187 Q1777.46 746.817 1779.52 746.817 Q1784.84 746.817 1787.94 749.247 Q1791.04 751.655 1791.04 755.775 Q1791.04 758.646 1789.4 760.636 Q1787.76 762.604 1784.73 763.368 Z" fill="#000000" fill-rule="nonzero" fill-opacity="1" /><path clip-path="url(#clip660)" d="M2294.45 751.516 L2282.64 769.965 L2294.45 769.965 L2294.45 751.516 M2293.22 747.442 L2299.1 747.442 L2299.1 769.965 L2304.03 769.965 L2304.03 773.854 L2299.1 773.854 L2299.1 782.002 L2294.45 782.002 L2294.45 773.854 L2278.85 773.854 L2278.85 769.34 L2293.22 747.442 Z" fill="#000000" fill-rule="nonzero" fill-opacity="1" /><polyline clip-path="url(#clip660)" style="stroke:#000000; stroke-linecap:round; stroke-linejoin:round; stroke-width:4; stroke-opacity:1; fill:none" points="186.274,719.602 186.274,123.472 "/>
<polyline clip-path="url(#clip660)" style="stroke:#000000; stroke-linecap:round; stroke-linejoin:round; stroke-width:4; stroke-opacity:1; fill:none" points="186.274,702.73 205.172,702.73 "/>
<polyline clip-path="url(#clip660)" style="stroke:#000000; stroke-linecap:round; stroke-linejoin:round; stroke-width:4; stroke-opacity:1; fill:none" points="186.274,562.134 205.172,562.134 "/>
<polyline clip-path="url(#clip660)" style="stroke:#000000; stroke-linecap:round; stroke-linejoin:round; stroke-width:4; stroke-opacity:1; fill:none" points="186.274,421.537 205.172,421.537 "/>
<polyline clip-path="url(#clip660)" style="stroke:#000000; stroke-linecap:round; stroke-linejoin:round; stroke-width:4; stroke-opacity:1; fill:none" points="186.274,280.94 205.172,280.94 "/>
<polyline clip-path="url(#clip660)" style="stroke:#000000; stroke-linecap:round; stroke-linejoin:round; stroke-width:4; stroke-opacity:1; fill:none" points="186.274,140.344 205.172,140.344 "/>
<path clip-path="url(#clip660)" d="M62.9365 688.529 Q59.3254 688.529 57.4967 692.094 Q55.6912 695.635 55.6912 702.765 Q55.6912 709.871 57.4967 713.436 Q59.3254 716.978 62.9365 716.978 Q66.5707 716.978 68.3763 713.436 Q70.205 709.871 70.205 702.765 Q70.205 695.635 68.3763 692.094 Q66.5707 688.529 62.9365 688.529 M62.9365 684.825 Q68.7467 684.825 71.8022 689.432 Q74.8809 694.015 74.8809 702.765 Q74.8809 711.492 71.8022 716.098 Q68.7467 720.682 62.9365 720.682 Q57.1264 720.682 54.0477 716.098 Q50.9921 711.492 50.9921 702.765 Q50.9921 694.015 54.0477 689.432 Q57.1264 684.825 62.9365 684.825 Z" fill="#000000" fill-rule="nonzero" fill-opacity="1" /><path clip-path="url(#clip660)" d="M83.0984 714.131 L87.9827 714.131 L87.9827 720.01 L83.0984 720.01 L83.0984 714.131 Z" fill="#000000" fill-rule="nonzero" fill-opacity="1" /><path clip-path="url(#clip660)" d="M108.168 688.529 Q104.557 688.529 102.728 692.094 Q100.922 695.635 100.922 702.765 Q100.922 709.871 102.728 713.436 Q104.557 716.978 108.168 716.978 Q111.802 716.978 113.608 713.436 Q115.436 709.871 115.436 702.765 Q115.436 695.635 113.608 692.094 Q111.802 688.529 108.168 688.529 M108.168 684.825 Q113.978 684.825 117.033 689.432 Q120.112 694.015 120.112 702.765 Q120.112 711.492 117.033 716.098 Q113.978 720.682 108.168 720.682 Q102.358 720.682 99.2789 716.098 Q96.2234 711.492 96.2234 702.765 Q96.2234 694.015 99.2789 689.432 Q102.358 684.825 108.168 684.825 Z" fill="#000000" fill-rule="nonzero" fill-opacity="1" /><path clip-path="url(#clip660)" d="M138.33 688.529 Q134.719 688.529 132.89 692.094 Q131.084 695.635 131.084 702.765 Q131.084 709.871 132.89 713.436 Q134.719 716.978 138.33 716.978 Q141.964 716.978 143.769 713.436 Q145.598 709.871 145.598 702.765 Q145.598 695.635 143.769 692.094 Q141.964 688.529 138.33 688.529 M138.33 684.825 Q144.14 684.825 147.195 689.432 Q150.274 694.015 150.274 702.765 Q150.274 711.492 147.195 716.098 Q144.14 720.682 138.33 720.682 Q132.519 720.682 129.441 716.098 Q126.385 711.492 126.385 702.765 Q126.385 694.015 129.441 689.432 Q132.519 684.825 138.33 684.825 Z" fill="#000000" fill-rule="nonzero" fill-opacity="1" /><path clip-path="url(#clip660)" d="M63.9319 547.932 Q60.3208 547.932 58.4921 551.497 Q56.6865 555.039 56.6865 562.168 Q56.6865 569.275 58.4921 572.84 Q60.3208 576.381 63.9319 576.381 Q67.5661 576.381 69.3717 572.84 Q71.2004 569.275 71.2004 562.168 Q71.2004 555.039 69.3717 551.497 Q67.5661 547.932 63.9319 547.932 M63.9319 544.229 Q69.742 544.229 72.7976 548.835 Q75.8763 553.418 75.8763 562.168 Q75.8763 570.895 72.7976 575.502 Q69.742 580.085 63.9319 580.085 Q58.1217 580.085 55.043 575.502 Q51.9875 570.895 51.9875 562.168 Q51.9875 553.418 55.043 548.835 Q58.1217 544.229 63.9319 544.229 Z" fill="#000000" fill-rule="nonzero" fill-opacity="1" /><path clip-path="url(#clip660)" d="M84.0938 573.534 L88.978 573.534 L88.978 579.414 L84.0938 579.414 L84.0938 573.534 Z" fill="#000000" fill-rule="nonzero" fill-opacity="1" /><path clip-path="url(#clip660)" d="M103.191 575.478 L119.51 575.478 L119.51 579.414 L97.566 579.414 L97.566 575.478 Q100.228 572.724 104.811 568.094 Q109.418 563.442 110.598 562.099 Q112.844 559.576 113.723 557.84 Q114.626 556.08 114.626 554.391 Q114.626 551.636 112.682 549.9 Q110.76 548.164 107.658 548.164 Q105.459 548.164 103.006 548.928 Q100.575 549.692 97.7974 551.243 L97.7974 546.52 Q100.621 545.386 103.075 544.807 Q105.529 544.229 107.566 544.229 Q112.936 544.229 116.131 546.914 Q119.325 549.599 119.325 554.09 Q119.325 556.219 118.515 558.141 Q117.728 560.039 115.621 562.631 Q115.043 563.303 111.941 566.52 Q108.839 569.715 103.191 575.478 Z" fill="#000000" fill-rule="nonzero" fill-opacity="1" /><path clip-path="url(#clip660)" d="M129.371 544.854 L147.728 544.854 L147.728 548.789 L133.654 548.789 L133.654 557.261 Q134.672 556.914 135.691 556.752 Q136.709 556.567 137.728 556.567 Q143.515 556.567 146.894 559.738 Q150.274 562.909 150.274 568.326 Q150.274 573.904 146.802 577.006 Q143.33 580.085 137.01 580.085 Q134.834 580.085 132.566 579.715 Q130.32 579.344 127.913 578.603 L127.913 573.904 Q129.996 575.039 132.219 575.594 Q134.441 576.15 136.918 576.15 Q140.922 576.15 143.26 574.043 Q145.598 571.937 145.598 568.326 Q145.598 564.715 143.26 562.608 Q140.922 560.502 136.918 560.502 Q135.043 560.502 133.168 560.918 Q131.316 561.335 129.371 562.215 L129.371 544.854 Z" fill="#000000" fill-rule="nonzero" fill-opacity="1" /><path clip-path="url(#clip660)" d="M62.9365 407.336 Q59.3254 407.336 57.4967 410.9 Q55.6912 414.442 55.6912 421.572 Q55.6912 428.678 57.4967 432.243 Q59.3254 435.785 62.9365 435.785 Q66.5707 435.785 68.3763 432.243 Q70.205 428.678 70.205 421.572 Q70.205 414.442 68.3763 410.9 Q66.5707 407.336 62.9365 407.336 M62.9365 403.632 Q68.7467 403.632 71.8022 408.238 Q74.8809 412.822 74.8809 421.572 Q74.8809 430.299 71.8022 434.905 Q68.7467 439.488 62.9365 439.488 Q57.1264 439.488 54.0477 434.905 Q50.9921 430.299 50.9921 421.572 Q50.9921 412.822 54.0477 408.238 Q57.1264 403.632 62.9365 403.632 Z" fill="#000000" fill-rule="nonzero" fill-opacity="1" /><path clip-path="url(#clip660)" d="M83.0984 432.937 L87.9827 432.937 L87.9827 438.817 L83.0984 438.817 L83.0984 432.937 Z" fill="#000000" fill-rule="nonzero" fill-opacity="1" /><path clip-path="url(#clip660)" d="M98.2141 404.257 L116.57 404.257 L116.57 408.192 L102.496 408.192 L102.496 416.664 Q103.515 416.317 104.534 416.155 Q105.552 415.97 106.571 415.97 Q112.358 415.97 115.737 419.141 Q119.117 422.312 119.117 427.729 Q119.117 433.308 115.645 436.41 Q112.172 439.488 105.853 439.488 Q103.677 439.488 101.409 439.118 Q99.1632 438.748 96.7558 438.007 L96.7558 433.308 Q98.8391 434.442 101.061 434.998 Q103.284 435.553 105.76 435.553 Q109.765 435.553 112.103 433.447 Q114.441 431.34 114.441 427.729 Q114.441 424.118 112.103 422.012 Q109.765 419.905 105.76 419.905 Q103.885 419.905 102.01 420.322 Q100.159 420.738 98.2141 421.618 L98.2141 404.257 Z" fill="#000000" fill-rule="nonzero" fill-opacity="1" /><path clip-path="url(#clip660)" d="M138.33 407.336 Q134.719 407.336 132.89 410.9 Q131.084 414.442 131.084 421.572 Q131.084 428.678 132.89 432.243 Q134.719 435.785 138.33 435.785 Q141.964 435.785 143.769 432.243 Q145.598 428.678 145.598 421.572 Q145.598 414.442 143.769 410.9 Q141.964 407.336 138.33 407.336 M138.33 403.632 Q144.14 403.632 147.195 408.238 Q150.274 412.822 150.274 421.572 Q150.274 430.299 147.195 434.905 Q144.14 439.488 138.33 439.488 Q132.519 439.488 129.441 434.905 Q126.385 430.299 126.385 421.572 Q126.385 412.822 129.441 408.238 Q132.519 403.632 138.33 403.632 Z" fill="#000000" fill-rule="nonzero" fill-opacity="1" /><path clip-path="url(#clip660)" d="M63.9319 266.739 Q60.3208 266.739 58.4921 270.304 Q56.6865 273.845 56.6865 280.975 Q56.6865 288.082 58.4921 291.646 Q60.3208 295.188 63.9319 295.188 Q67.5661 295.188 69.3717 291.646 Q71.2004 288.082 71.2004 280.975 Q71.2004 273.845 69.3717 270.304 Q67.5661 266.739 63.9319 266.739 M63.9319 263.035 Q69.742 263.035 72.7976 267.642 Q75.8763 272.225 75.8763 280.975 Q75.8763 289.702 72.7976 294.308 Q69.742 298.892 63.9319 298.892 Q58.1217 298.892 55.043 294.308 Q51.9875 289.702 51.9875 280.975 Q51.9875 272.225 55.043 267.642 Q58.1217 263.035 63.9319 263.035 Z" fill="#000000" fill-rule="nonzero" fill-opacity="1" /><path clip-path="url(#clip660)" d="M84.0938 292.341 L88.978 292.341 L88.978 298.22 L84.0938 298.22 L84.0938 292.341 Z" fill="#000000" fill-rule="nonzero" fill-opacity="1" /><path clip-path="url(#clip660)" d="M97.9826 263.66 L120.205 263.66 L120.205 265.651 L107.658 298.22 L102.774 298.22 L114.58 267.596 L97.9826 267.596 L97.9826 263.66 Z" fill="#000000" fill-rule="nonzero" fill-opacity="1" /><path clip-path="url(#clip660)" d="M129.371 263.66 L147.728 263.66 L147.728 267.596 L133.654 267.596 L133.654 276.068 Q134.672 275.72 135.691 275.558 Q136.709 275.373 137.728 275.373 Q143.515 275.373 146.894 278.545 Q150.274 281.716 150.274 287.132 Q150.274 292.711 146.802 295.813 Q143.33 298.892 137.01 298.892 Q134.834 298.892 132.566 298.521 Q130.32 298.151 127.913 297.41 L127.913 292.711 Q129.996 293.845 132.219 294.401 Q134.441 294.956 136.918 294.956 Q140.922 294.956 143.26 292.85 Q145.598 290.744 145.598 287.132 Q145.598 283.521 143.26 281.415 Q140.922 279.308 136.918 279.308 Q135.043 279.308 133.168 279.725 Q131.316 280.142 129.371 281.021 L129.371 263.66 Z" fill="#000000" fill-rule="nonzero" fill-opacity="1" /><path clip-path="url(#clip660)" d="M53.7467 153.689 L61.3856 153.689 L61.3856 127.323 L53.0754 128.99 L53.0754 124.73 L61.3393 123.064 L66.0152 123.064 L66.0152 153.689 L73.654 153.689 L73.654 157.624 L53.7467 157.624 L53.7467 153.689 Z" fill="#000000" fill-rule="nonzero" fill-opacity="1" /><path clip-path="url(#clip660)" d="M83.0984 151.744 L87.9827 151.744 L87.9827 157.624 L83.0984 157.624 L83.0984 151.744 Z" fill="#000000" fill-rule="nonzero" fill-opacity="1" /><path clip-path="url(#clip660)" d="M108.168 126.142 Q104.557 126.142 102.728 129.707 Q100.922 133.249 100.922 140.378 Q100.922 147.485 102.728 151.05 Q104.557 154.591 108.168 154.591 Q111.802 154.591 113.608 151.05 Q115.436 147.485 115.436 140.378 Q115.436 133.249 113.608 129.707 Q111.802 126.142 108.168 126.142 M108.168 122.439 Q113.978 122.439 117.033 127.045 Q120.112 131.628 120.112 140.378 Q120.112 149.105 117.033 153.712 Q113.978 158.295 108.168 158.295 Q102.358 158.295 99.2789 153.712 Q96.2234 149.105 96.2234 140.378 Q96.2234 131.628 99.2789 127.045 Q102.358 122.439 108.168 122.439 Z" fill="#000000" fill-rule="nonzero" fill-opacity="1" /><path clip-path="url(#clip660)" d="M138.33 126.142 Q134.719 126.142 132.89 129.707 Q131.084 133.249 131.084 140.378 Q131.084 147.485 132.89 151.05 Q134.719 154.591 138.33 154.591 Q141.964 154.591 143.769 151.05 Q145.598 147.485 145.598 140.378 Q145.598 133.249 143.769 129.707 Q141.964 126.142 138.33 126.142 M138.33 122.439 Q144.14 122.439 147.195 127.045 Q150.274 131.628 150.274 140.378 Q150.274 149.105 147.195 153.712 Q144.14 158.295 138.33 158.295 Q132.519 158.295 129.441 153.712 Q126.385 149.105 126.385 140.378 Q126.385 131.628 129.441 127.045 Q132.519 122.439 138.33 122.439 Z" fill="#000000" fill-rule="nonzero" fill-opacity="1" /><path clip-path="url(#clip660)" d="M1011.22 21.4656 L1011.22 44.1911 L1021.51 44.1911 Q1027.22 44.1911 1030.34 41.234 Q1033.46 38.2768 1033.46 32.8081 Q1033.46 27.3799 1030.34 24.4227 Q1027.22 21.4656 1021.51 21.4656 L1011.22 21.4656 M1003.04 14.7411 L1021.51 14.7411 Q1031.68 14.7411 1036.86 19.3591 Q1042.09 23.9366 1042.09 32.8081 Q1042.09 41.7606 1036.86 46.3381 Q1031.68 50.9156 1021.51 50.9156 L1011.22 50.9156 L1011.22 75.2211 L1003.04 75.2211 L1003.04 14.7411 Z" fill="#000000" fill-rule="nonzero" fill-opacity="1" /><path clip-path="url(#clip660)" d="M1061.25 21.4656 L1061.25 68.4966 L1071.14 68.4966 Q1083.65 68.4966 1089.45 62.8253 Q1095.28 57.154 1095.28 44.9203 Q1095.28 32.7676 1089.45 27.1368 Q1083.65 21.4656 1071.14 21.4656 L1061.25 21.4656 M1053.07 14.7411 L1069.88 14.7411 Q1087.46 14.7411 1095.68 22.0732 Q1103.91 29.3648 1103.91 44.9203 Q1103.91 60.5568 1095.64 67.8889 Q1087.38 75.2211 1069.88 75.2211 L1053.07 75.2211 L1053.07 14.7411 Z" fill="#000000" fill-rule="nonzero" fill-opacity="1" /><path clip-path="url(#clip660)" d="M1116.95 14.7411 L1151.71 14.7411 L1151.71 21.6276 L1125.13 21.6276 L1125.13 39.4516 L1149.12 39.4516 L1149.12 46.3381 L1125.13 46.3381 L1125.13 75.2211 L1116.95 75.2211 L1116.95 14.7411 Z" fill="#000000" fill-rule="nonzero" fill-opacity="1" /><path clip-path="url(#clip660)" d="M1208.3 35.0766 Q1202.3 35.0766 1198.82 39.7757 Q1195.34 44.4342 1195.34 52.5765 Q1195.34 60.7188 1198.78 65.4179 Q1202.26 70.0764 1208.3 70.0764 Q1214.25 70.0764 1217.74 65.3774 Q1221.22 60.6783 1221.22 52.5765 Q1221.22 44.5152 1217.74 39.8162 Q1214.25 35.0766 1208.3 35.0766 M1208.3 28.7572 Q1218.02 28.7572 1223.57 35.0766 Q1229.12 41.396 1229.12 52.5765 Q1229.12 63.7165 1223.57 70.0764 Q1218.02 76.3958 1208.3 76.3958 Q1198.54 76.3958 1192.99 70.0764 Q1187.48 63.7165 1187.48 52.5765 Q1187.48 41.396 1192.99 35.0766 Q1198.54 28.7572 1208.3 28.7572 Z" fill="#000000" fill-rule="nonzero" fill-opacity="1" /><path clip-path="url(#clip660)" d="M1264.44 12.189 L1264.44 18.3869 L1257.31 18.3869 Q1253.3 18.3869 1251.72 20.0072 Q1250.19 21.6276 1250.19 25.8405 L1250.19 29.8509 L1262.46 29.8509 L1262.46 35.6437 L1250.19 35.6437 L1250.19 75.2211 L1242.69 75.2211 L1242.69 35.6437 L1235.56 35.6437 L1235.56 29.8509 L1242.69 29.8509 L1242.69 26.6912 Q1242.69 19.116 1246.22 15.6728 Q1249.74 12.189 1257.4 12.189 L1264.44 12.189 Z" fill="#000000" fill-rule="nonzero" fill-opacity="1" /><path clip-path="url(#clip660)" d="M1289.24 75.2211 L1289.24 72.6387 L1291.24 72.6387 Q1295.79 72.6387 1296.82 71.9009 Q1297.88 71.1221 1297.88 68.6628 L1297.88 24.6813 Q1297.88 22.2629 1296.82 21.5251 Q1295.75 20.7463 1291.24 20.7463 L1289.24 20.7463 L1289.24 18.123 L1336.5 18.123 L1338.83 37.0191 L1336.74 37.0191 Q1336.17 32.2233 1335.39 29.477 Q1334.65 26.6898 1332.81 24.5583 Q1331 22.4269 1328.01 21.6071 Q1325.06 20.7463 1320.26 20.7463 L1309.44 20.7463 Q1306.57 20.7463 1305.96 21.3612 Q1305.34 21.935 1305.34 24.1074 L1305.34 44.2332 L1312.89 44.2332 Q1318.67 44.2332 1320.31 42.2247 Q1321.95 40.2162 1321.95 34.4367 L1324.08 34.4367 L1324.08 56.6529 L1321.95 56.6529 Q1321.95 50.9554 1320.31 48.9059 Q1318.67 46.8565 1312.89 46.8565 L1305.34 46.8565 L1305.34 69.2776 Q1305.34 71.45 1305.96 72.0649 Q1306.62 72.6387 1309.44 72.6387 L1320.63 72.6387 Q1324.24 72.6387 1326.86 72.1879 Q1329.53 71.696 1331.37 70.5483 Q1333.22 69.3596 1334.45 68.0069 Q1335.72 66.6543 1336.58 64.2359 Q1337.48 61.7766 1337.97 59.5222 Q1338.5 57.2678 1339.08 53.5787 L1341.17 53.5787 L1337.64 75.2211 L1289.24 75.2211 Z" fill="#000000" fill-rule="nonzero" fill-opacity="1" /><path clip-path="url(#clip660)" d="M1348.77 75.2211 L1348.77 72.6387 Q1355.33 72.6387 1359.51 67.5971 Q1359.51 67.5971 1367.38 57.5957 L1359.06 46.7745 Q1356.11 43.0035 1354.79 42.3477 Q1353.52 41.6508 1349.18 41.6508 L1349.18 39.0275 Q1352.62 39.2735 1357.13 39.2735 Q1359.63 39.2735 1366.23 39.0275 L1366.23 41.6508 Q1363.28 41.8148 1363.28 43.7413 Q1363.28 44.3971 1364.02 45.2579 L1370.58 53.7427 L1375.78 47.1844 Q1377.05 45.6678 1377.05 44.2332 Q1377.05 41.8968 1374.59 41.6508 L1374.59 39.0275 Q1377.87 39.2735 1382.67 39.2735 Q1386.27 39.2735 1389.55 39.0275 L1389.55 41.6508 Q1383.16 41.8148 1379.55 45.9957 Q1377.95 47.7582 1371.85 55.5052 L1383.08 70.0154 Q1384.43 71.778 1385.95 72.2288 Q1387.46 72.6387 1391.07 72.6387 L1391.07 75.2211 Q1387.3 74.9751 1383 74.9751 Q1381.48 74.9751 1373.94 75.2211 L1373.94 72.6387 Q1375.45 72.5568 1376.19 71.9009 Q1376.97 71.2041 1376.97 70.5073 Q1376.97 70.1794 1375.21 67.761 L1368.81 59.3582 Q1362.42 66.9002 1361.6 68.6628 Q1361.27 69.4006 1361.27 70.0154 Q1361.27 72.2698 1363.69 72.6387 L1363.69 75.2211 Q1357.66 74.9751 1355.74 74.9751 Q1352.05 74.9751 1348.77 75.2211 Z" fill="#000000" fill-rule="nonzero" fill-opacity="1" /><path clip-path="url(#clip660)" d="M1386.86 88.9115 Q1391.33 88.9115 1392.35 88.3376 Q1393.42 87.8048 1393.42 85.1405 L1393.42 45.8318 Q1393.42 43.0445 1392.35 42.3477 Q1391.33 41.6508 1386.86 41.6508 L1386.86 39.0275 L1398.95 38.1258 L1398.95 43.6593 Q1403.99 38.1258 1410.72 38.1258 Q1417.85 38.1258 1423.05 43.6593 Q1428.26 49.1929 1428.26 57.1038 Q1428.26 65.0967 1422.73 70.6303 Q1417.19 76.1638 1409.53 76.1638 Q1405.35 76.1638 1402.52 74.0324 Q1399.73 71.8599 1399.2 70.2614 L1399.2 71.0402 L1399.2 85.1405 Q1399.2 87.8458 1400.26 88.3786 Q1401.33 88.9115 1405.76 88.9115 L1405.76 91.4938 Q1396.94 91.2479 1396.29 91.2479 Q1395.47 91.2479 1386.86 91.4938 L1386.86 88.9115 M1399.2 65.6706 Q1399.2 66.9412 1399.36 67.3921 Q1399.57 67.843 1400.39 69.1956 Q1403.71 74.2783 1409.12 74.2783 Q1409.16 74.2783 1409.2 74.2783 Q1414 74.2783 1417.64 69.4006 Q1421.29 64.4819 1421.29 57.1038 Q1421.29 50.0536 1417.97 45.1349 Q1414.65 40.2162 1410.06 40.2162 Q1406.78 40.2162 1403.91 41.9788 Q1401.04 43.7413 1399.2 46.9385 L1399.2 65.6706 Z" fill="#000000" fill-rule="nonzero" fill-opacity="1" /><path clip-path="url(#clip660)" d="M1432.98 54.2346 Q1432.98 40.0523 1438.27 28.6163 Q1440.52 23.8205 1443.68 19.8036 Q1446.83 15.7866 1448.92 14.0241 Q1451.01 12.2615 1451.59 12.2615 Q1452.41 12.2615 1452.45 13.0813 Q1452.45 13.4912 1451.34 14.5159 Q1437.81 28.2883 1437.86 54.2346 Q1437.86 80.2627 1451.01 93.5023 Q1452.45 94.9369 1452.45 95.3878 Q1452.45 96.2076 1451.59 96.2076 Q1451.01 96.2076 1449 94.527 Q1447 92.8465 1443.88 88.9935 Q1440.77 85.1405 1438.51 80.4267 Q1432.98 68.9907 1432.98 54.2346 Z" fill="#000000" fill-rule="nonzero" fill-opacity="1" /><path clip-path="url(#clip660)" d="M1463.53 27.3046 L1463.53 24.6813 Q1473.61 24.6813 1478.82 19.3117 Q1480.25 19.3117 1480.5 19.6396 Q1480.75 19.9675 1480.75 21.4841 L1480.75 68.5808 Q1480.75 71.0811 1481.98 71.8599 Q1483.21 72.6387 1488.58 72.6387 L1491.24 72.6387 L1491.24 75.2211 Q1488.29 74.9751 1477.63 74.9751 Q1466.97 74.9751 1464.06 75.2211 L1464.06 72.6387 L1466.73 72.6387 Q1472.02 72.6387 1473.29 71.9009 Q1474.56 71.1221 1474.56 68.5808 L1474.56 25.0912 Q1470.17 27.3046 1463.53 27.3046 Z" fill="#000000" fill-rule="nonzero" fill-opacity="1" /><path clip-path="url(#clip660)" d="M1503.76 95.3878 Q1503.76 94.9779 1504.82 93.9532 Q1518.35 80.1808 1518.35 54.2346 Q1518.35 28.2064 1505.36 15.0488 Q1503.76 13.5322 1503.76 13.0813 Q1503.76 12.2615 1504.58 12.2615 Q1505.15 12.2615 1507.16 13.9421 Q1509.21 15.6227 1512.28 19.4756 Q1515.4 23.3286 1517.69 28.0424 Q1523.23 39.4784 1523.23 54.2346 Q1523.23 68.4168 1517.94 79.8529 Q1515.69 84.6486 1512.53 88.6655 Q1509.37 92.6825 1507.28 94.445 Q1505.19 96.2076 1504.58 96.2076 Q1503.76 96.2076 1503.76 95.3878 Z" fill="#000000" fill-rule="nonzero" fill-opacity="1" /><polyline clip-path="url(#clip662)" style="stroke:#009af9; stroke-linecap:round; stroke-linejoin:round; stroke-width:4; stroke-opacity:1; fill:none" points="247.59,140.344 268.028,162.395 288.467,183.582 308.905,203.938 329.344,223.496 349.782,242.287 370.221,260.341 390.659,277.688 411.098,294.354 431.536,310.366 451.975,325.751 472.413,340.533 492.852,354.735 513.29,368.38 533.729,381.49 554.167,394.086 574.606,406.188 595.044,417.816 615.483,428.987 635.921,439.721 656.36,450.034 676.798,459.942 697.237,469.462 717.675,478.609 738.114,487.396 758.552,495.84 778.991,503.952 799.429,511.746 819.868,519.235 840.306,526.43 860.745,533.343 881.183,539.984 901.622,546.366 922.06,552.497 942.499,558.388 962.937,564.047 983.376,569.485 1003.81,574.71 1024.25,579.73 1044.69,584.553 1065.13,589.186 1085.57,593.639 1106.01,597.916 1126.45,602.026 1146.88,605.975 1167.32,609.768 1187.76,613.414 1208.2,616.916 1228.64,620.281 1249.08,623.513 1269.51,626.62 1289.95,629.604 1310.39,632.471 1330.83,635.226 1351.27,637.873 1371.71,640.416 1392.15,642.859 1412.58,645.207 1433.02,647.463 1453.46,649.63 1473.9,651.712 1494.34,653.712 1514.78,655.634 1535.22,657.481 1555.65,659.255 1576.09,660.96 1596.53,662.598 1616.97,664.171 1637.41,665.683 1657.85,667.136 1678.29,668.532 1698.72,669.872 1719.16,671.161 1739.6,672.399 1760.04,673.588 1780.48,674.731 1800.92,675.829 1821.35,676.883 1841.79,677.897 1862.23,678.871 1882.67,679.806 1903.11,680.705 1923.55,681.569 1943.99,682.398 1964.42,683.196 1984.86,683.962 2005.3,684.698 2025.74,685.405 2046.18,686.084 2066.62,686.737 2087.06,687.364 2107.49,687.966 2127.93,688.545 2148.37,689.101 2168.81,689.636 2189.25,690.149 2209.69,690.643 2230.12,691.117 2250.56,691.572 2271,692.009 2291.44,692.43 "/>
<path clip-path="url(#clip662)" d="M247.59 702.73 L268.028 702.73 L288.467 702.73 L308.905 702.73 L329.344 702.73 L349.782 702.73 L370.221 702.73 L390.659 702.73 L411.098 702.73 L431.536 702.73 L451.975 702.73 L472.413 702.73 L492.852 702.73 L513.29 702.73 L533.729 702.73 L554.167 702.73 L574.606 702.73 L595.044 702.73 L595.044 417.816 L574.606 406.188 L554.167 394.086 L533.729 381.49 L513.29 368.38 L492.852 354.735 L472.413 340.533 L451.975 325.751 L431.536 310.366 L411.098 294.354 L390.659 277.688 L370.221 260.341 L349.782 242.287 L329.344 223.496 L308.905 203.938 L288.467 183.582 L268.028 162.395 L247.59 140.344  Z" fill="#009af9" fill-rule="evenodd" fill-opacity="0.2"/>
<polyline clip-path="url(#clip662)" style="stroke:#009af9; stroke-linecap:round; stroke-linejoin:round; stroke-width:4; stroke-opacity:1; fill:none" points="247.59,702.73 268.028,702.73 288.467,702.73 308.905,702.73 329.344,702.73 349.782,702.73 370.221,702.73 390.659,702.73 411.098,702.73 431.536,702.73 451.975,702.73 472.413,702.73 492.852,702.73 513.29,702.73 533.729,702.73 554.167,702.73 574.606,702.73 595.044,702.73 "/>
<path clip-path="url(#clip660)" d="M1595.96 247.023 L2280.54 247.023 L2280.54 143.343 L1595.96 143.343  Z" fill="#ffffff" fill-rule="evenodd" fill-opacity="1"/>
<polyline clip-path="url(#clip660)" style="stroke:#000000; stroke-linecap:round; stroke-linejoin:round; stroke-width:4; stroke-opacity:1; fill:none" points="1595.96,247.023 2280.54,247.023 2280.54,143.343 1595.96,143.343 1595.96,247.023 "/>
<path clip-path="url(#clip660)" d="M1620.04 215.919 L1764.47 215.919 L1764.47 174.447 L1620.04 174.447 L1620.04 215.919  Z" fill="#009af9" fill-rule="evenodd" fill-opacity="0.2"/>
<polyline clip-path="url(#clip660)" style="stroke:#009af9; stroke-linecap:round; stroke-linejoin:round; stroke-width:4; stroke-opacity:1; fill:none" points="1620.04,174.447 1764.47,174.447 "/>
<path clip-path="url(#clip660)" d="M1815.45 187.046 Q1815.41 187.281 1815.31 187.702 Q1815.22 188.1 1814.8 189.365 Q1814.38 190.63 1813.81 191.918 Q1813.27 193.183 1812.22 194.963 Q1811.19 196.72 1809.93 198.313 Q1809.57 198.734 1809.5 198.992 Q1809.46 199.226 1809.46 199.999 Q1809.46 204.871 1810.93 204.871 Q1811 204.871 1811.12 204.871 Q1811.26 204.848 1811.61 204.73 Q1811.99 204.59 1812.31 204.379 Q1812.64 204.145 1813.02 203.676 Q1813.39 203.185 1813.63 202.529 Q1813.84 202.06 1814.26 202.06 Q1814.82 202.06 1814.82 202.529 Q1814.82 203.372 1813.65 204.66 Q1812.48 205.948 1810.79 205.948 Q1809.18 205.948 1808.03 204.894 Q1806.9 203.817 1806.44 201.896 Q1801.38 205.948 1796.32 205.948 Q1792.76 205.948 1790.65 203.63 Q1788.54 201.287 1788.54 197.821 Q1788.54 194.495 1790.37 191.333 Q1792.22 188.171 1795.22 186.203 Q1798.24 184.212 1801.45 184.212 Q1802.57 184.212 1803.65 184.517 Q1804.73 184.798 1805.8 185.524 Q1806.88 186.25 1807.68 187.351 Q1808.47 188.452 1808.96 190.185 Q1809.46 191.918 1809.46 194.097 L1809.46 197.071 Q1812.55 193.16 1814.16 187.562 Q1814.4 186.719 1814.54 186.625 Q1814.63 186.555 1814.87 186.555 Q1815.1 186.555 1815.24 186.695 Q1815.41 186.812 1815.43 186.929 L1815.45 187.046 M1806.25 200.655 Q1806.15 199.835 1806.15 195.291 Q1806.15 194.425 1806.15 193.956 Q1806.15 193.464 1806.11 192.527 Q1806.06 191.59 1805.97 191.005 Q1805.9 190.419 1805.73 189.576 Q1805.57 188.733 1805.33 188.194 Q1805.1 187.655 1804.73 187.046 Q1804.37 186.438 1803.91 186.086 Q1803.46 185.735 1802.8 185.501 Q1802.17 185.266 1801.4 185.266 Q1800.44 185.266 1799.43 185.618 Q1798.45 185.946 1797.18 187 Q1795.92 188.03 1794.86 189.67 Q1793.76 191.403 1792.92 194.589 Q1792.1 197.751 1792.1 199.648 Q1792.1 202.037 1793.2 203.466 Q1794.3 204.871 1796.41 204.871 Q1801.45 204.871 1806.25 200.655 Z" fill="#000000" fill-rule="nonzero" fill-opacity="1" /><path clip-path="url(#clip660)" d="M1839.02 183.882 L1868.69 183.882 L1868.69 187.771 L1839.02 187.771 L1839.02 183.882 M1839.02 193.326 L1868.69 193.326 L1868.69 197.262 L1839.02 197.262 L1839.02 193.326 Z" fill="#000000" fill-rule="nonzero" fill-opacity="1" /><path clip-path="url(#clip660)" d="M1904.99 175.456 L1898.65 192.655 L1911.35 192.655 L1904.99 175.456 M1902.35 170.85 L1907.65 170.85 L1920.82 205.41 L1915.96 205.41 L1912.81 196.544 L1897.23 196.544 L1894.09 205.41 L1889.15 205.41 L1902.35 170.85 Z" fill="#000000" fill-rule="nonzero" fill-opacity="1" /><path clip-path="url(#clip660)" d="M1940.71 183.465 Q1939.99 183.049 1939.13 182.864 Q1938.3 182.655 1937.28 182.655 Q1933.67 182.655 1931.72 185.016 Q1929.8 187.354 1929.8 191.752 L1929.8 205.41 L1925.52 205.41 L1925.52 179.484 L1929.8 179.484 L1929.8 183.512 Q1931.15 181.151 1933.3 180.016 Q1935.45 178.859 1938.53 178.859 Q1938.97 178.859 1939.5 178.928 Q1940.03 178.975 1940.68 179.09 L1940.71 183.465 Z" fill="#000000" fill-rule="nonzero" fill-opacity="1" /><path clip-path="url(#clip660)" d="M1966.31 191.382 L1966.31 193.465 L1946.72 193.465 Q1947 197.863 1949.36 200.178 Q1951.75 202.47 1955.98 202.47 Q1958.44 202.47 1960.73 201.868 Q1963.04 201.266 1965.31 200.062 L1965.31 204.09 Q1963.02 205.062 1960.61 205.572 Q1958.21 206.081 1955.73 206.081 Q1949.53 206.081 1945.89 202.47 Q1942.28 198.859 1942.28 192.701 Q1942.28 186.336 1945.71 182.609 Q1949.15 178.859 1954.99 178.859 Q1960.22 178.859 1963.25 182.239 Q1966.31 185.595 1966.31 191.382 M1962.05 190.132 Q1962 186.637 1960.08 184.553 Q1958.18 182.47 1955.03 182.47 Q1951.47 182.47 1949.32 184.484 Q1947.19 186.498 1946.86 190.155 L1962.05 190.132 Z" fill="#000000" fill-rule="nonzero" fill-opacity="1" /><path clip-path="url(#clip660)" d="M1985.08 192.377 Q1979.92 192.377 1977.93 193.558 Q1975.94 194.738 1975.94 197.586 Q1975.94 199.854 1977.42 201.197 Q1978.92 202.516 1981.49 202.516 Q1985.03 202.516 1987.16 200.016 Q1989.32 197.493 1989.32 193.326 L1989.32 192.377 L1985.08 192.377 M1993.58 190.618 L1993.58 205.41 L1989.32 205.41 L1989.32 201.475 Q1987.86 203.836 1985.68 204.97 Q1983.51 206.081 1980.36 206.081 Q1976.38 206.081 1974.02 203.859 Q1971.68 201.613 1971.68 197.863 Q1971.68 193.488 1974.59 191.266 Q1977.53 189.044 1983.34 189.044 L1989.32 189.044 L1989.32 188.627 Q1989.32 185.688 1987.37 184.09 Q1985.45 182.47 1981.96 182.47 Q1979.73 182.47 1977.63 183.002 Q1975.52 183.535 1973.58 184.6 L1973.58 180.664 Q1975.91 179.762 1978.11 179.322 Q1980.31 178.859 1982.4 178.859 Q1988.02 178.859 1990.8 181.776 Q1993.58 184.692 1993.58 190.618 Z" fill="#000000" fill-rule="nonzero" fill-opacity="1" /><path clip-path="url(#clip660)" d="M2016.98 195.178 L2016.98 179.484 L2021.24 179.484 L2021.24 195.016 Q2021.24 198.697 2022.67 200.549 Q2024.11 202.377 2026.98 202.377 Q2030.43 202.377 2032.42 200.178 Q2034.43 197.979 2034.43 194.183 L2034.43 179.484 L2038.69 179.484 L2038.69 205.41 L2034.43 205.41 L2034.43 201.428 Q2032.88 203.789 2030.82 204.947 Q2028.78 206.081 2026.08 206.081 Q2021.61 206.081 2019.29 203.303 Q2016.98 200.525 2016.98 195.178 M2027.7 178.859 L2027.7 178.859 Z" fill="#000000" fill-rule="nonzero" fill-opacity="1" /><path clip-path="url(#clip660)" d="M2069.02 189.762 L2069.02 205.41 L2064.76 205.41 L2064.76 189.901 Q2064.76 186.22 2063.32 184.391 Q2061.89 182.563 2059.02 182.563 Q2055.57 182.563 2053.58 184.762 Q2051.58 186.961 2051.58 190.757 L2051.58 205.41 L2047.3 205.41 L2047.3 179.484 L2051.58 179.484 L2051.58 183.512 Q2053.11 181.174 2055.17 180.016 Q2057.26 178.859 2059.96 178.859 Q2064.43 178.859 2066.72 181.637 Q2069.02 184.391 2069.02 189.762 Z" fill="#000000" fill-rule="nonzero" fill-opacity="1" /><path clip-path="url(#clip660)" d="M2094.57 183.419 L2094.57 169.391 L2098.83 169.391 L2098.83 205.41 L2094.57 205.41 L2094.57 201.521 Q2093.23 203.836 2091.17 204.97 Q2089.13 206.081 2086.26 206.081 Q2081.56 206.081 2078.6 202.331 Q2075.66 198.581 2075.66 192.47 Q2075.66 186.359 2078.6 182.609 Q2081.56 178.859 2086.26 178.859 Q2089.13 178.859 2091.17 179.993 Q2093.23 181.104 2094.57 183.419 M2080.06 192.47 Q2080.06 197.169 2081.98 199.854 Q2083.92 202.516 2087.3 202.516 Q2090.68 202.516 2092.63 199.854 Q2094.57 197.169 2094.57 192.47 Q2094.57 187.771 2092.63 185.109 Q2090.68 182.424 2087.3 182.424 Q2083.92 182.424 2081.98 185.109 Q2080.06 187.771 2080.06 192.47 Z" fill="#000000" fill-rule="nonzero" fill-opacity="1" /><path clip-path="url(#clip660)" d="M2129.78 191.382 L2129.78 193.465 L2110.2 193.465 Q2110.47 197.863 2112.83 200.178 Q2115.22 202.47 2119.45 202.47 Q2121.91 202.47 2124.2 201.868 Q2126.51 201.266 2128.78 200.062 L2128.78 204.09 Q2126.49 205.062 2124.08 205.572 Q2121.68 206.081 2119.2 206.081 Q2113 206.081 2109.36 202.47 Q2105.75 198.859 2105.75 192.701 Q2105.75 186.336 2109.18 182.609 Q2112.63 178.859 2118.46 178.859 Q2123.69 178.859 2126.72 182.239 Q2129.78 185.595 2129.78 191.382 M2125.52 190.132 Q2125.47 186.637 2123.55 184.553 Q2121.65 182.47 2118.51 182.47 Q2114.94 182.47 2112.79 184.484 Q2110.66 186.498 2110.33 190.155 L2125.52 190.132 Z" fill="#000000" fill-rule="nonzero" fill-opacity="1" /><path clip-path="url(#clip660)" d="M2151.79 183.465 Q2151.07 183.049 2150.22 182.864 Q2149.39 182.655 2148.37 182.655 Q2144.76 182.655 2142.81 185.016 Q2140.89 187.354 2140.89 191.752 L2140.89 205.41 L2136.61 205.41 L2136.61 179.484 L2140.89 179.484 L2140.89 183.512 Q2142.23 181.151 2144.39 180.016 Q2146.54 178.859 2149.62 178.859 Q2150.06 178.859 2150.59 178.928 Q2151.12 178.975 2151.77 179.09 L2151.79 183.465 Z" fill="#000000" fill-rule="nonzero" fill-opacity="1" /><path clip-path="url(#clip660)" d="M2176.19 174.692 L2176.19 187.678 L2182.07 187.678 Q2185.33 187.678 2187.12 185.988 Q2188.9 184.299 2188.9 181.174 Q2188.9 178.072 2187.12 176.382 Q2185.33 174.692 2182.07 174.692 L2176.19 174.692 M2171.51 170.85 L2182.07 170.85 Q2187.88 170.85 2190.84 173.489 Q2193.83 176.104 2193.83 181.174 Q2193.83 186.289 2190.84 188.905 Q2187.88 191.521 2182.07 191.521 L2176.19 191.521 L2176.19 205.41 L2171.51 205.41 L2171.51 170.85 Z" fill="#000000" fill-rule="nonzero" fill-opacity="1" /><path clip-path="url(#clip660)" d="M2204.78 174.692 L2204.78 201.567 L2210.43 201.567 Q2217.58 201.567 2220.89 198.326 Q2224.22 195.086 2224.22 188.095 Q2224.22 181.151 2220.89 177.933 Q2217.58 174.692 2210.43 174.692 L2204.78 174.692 M2200.1 170.85 L2209.71 170.85 Q2219.76 170.85 2224.45 175.039 Q2229.15 179.206 2229.15 188.095 Q2229.15 197.03 2224.43 201.22 Q2219.71 205.41 2209.71 205.41 L2200.1 205.41 L2200.1 170.85 Z" fill="#000000" fill-rule="nonzero" fill-opacity="1" /><path clip-path="url(#clip660)" d="M2236.61 170.85 L2256.47 170.85 L2256.47 174.785 L2241.28 174.785 L2241.28 184.97 L2254.99 184.97 L2254.99 188.905 L2241.28 188.905 L2241.28 205.41 L2236.61 205.41 L2236.61 170.85 Z" fill="#000000" fill-rule="nonzero" fill-opacity="1" /><path clip-path="url(#clip660)" d="M110.881 1552.76 L2352.76 1552.76 L2352.76 956.626 L110.881 956.626  Z" fill="#ffffff" fill-rule="evenodd" fill-opacity="1"/>
<defs>
  <clipPath id="clip663">
    <rect x="110" y="956" width="2243" height="597"/>
  </clipPath>
</defs>
<polyline clip-path="url(#clip663)" style="stroke:#000000; stroke-linecap:round; stroke-linejoin:round; stroke-width:2; stroke-opacity:0.1; fill:none" points="110.881,1552.76 2352.76,1552.76 "/>
<polyline clip-path="url(#clip663)" style="stroke:#000000; stroke-linecap:round; stroke-linejoin:round; stroke-width:2; stroke-opacity:0.1; fill:none" points="110.881,956.626 2352.76,956.626 "/>
<polyline clip-path="url(#clip660)" style="stroke:#000000; stroke-linecap:round; stroke-linejoin:round; stroke-width:4; stroke-opacity:1; fill:none" points="110.881,1552.76 2352.76,1552.76 "/>
<polyline clip-path="url(#clip660)" style="stroke:#000000; stroke-linecap:round; stroke-linejoin:round; stroke-width:4; stroke-opacity:1; fill:none" points="110.881,1552.76 110.881,956.626 "/>
<polyline clip-path="url(#clip660)" style="stroke:#000000; stroke-linecap:round; stroke-linejoin:round; stroke-width:4; stroke-opacity:1; fill:none" points="110.881,1552.76 129.779,1552.76 "/>
<polyline clip-path="url(#clip660)" style="stroke:#000000; stroke-linecap:round; stroke-linejoin:round; stroke-width:4; stroke-opacity:1; fill:none" points="110.881,956.626 129.779,956.626 "/>
<path clip-path="url(#clip660)" d="M62.9365 1538.55 Q59.3254 1538.55 57.4967 1542.12 Q55.6912 1545.66 55.6912 1552.79 Q55.6912 1559.9 57.4967 1563.46 Q59.3254 1567 62.9365 1567 Q66.5707 1567 68.3763 1563.46 Q70.205 1559.9 70.205 1552.79 Q70.205 1545.66 68.3763 1542.12 Q66.5707 1538.55 62.9365 1538.55 M62.9365 1534.85 Q68.7467 1534.85 71.8022 1539.46 Q74.8809 1544.04 74.8809 1552.79 Q74.8809 1561.52 71.8022 1566.12 Q68.7467 1570.71 62.9365 1570.71 Q57.1264 1570.71 54.0477 1566.12 Q50.9921 1561.52 50.9921 1552.79 Q50.9921 1544.04 54.0477 1539.46 Q57.1264 1534.85 62.9365 1534.85 Z" fill="#000000" fill-rule="nonzero" fill-opacity="1" /><path clip-path="url(#clip660)" d="M54.9736 969.971 L62.6124 969.971 L62.6124 943.605 L54.3023 945.272 L54.3023 941.013 L62.5661 939.346 L67.242 939.346 L67.242 969.971 L74.8809 969.971 L74.8809 973.906 L54.9736 973.906 L54.9736 969.971 Z" fill="#000000" fill-rule="nonzero" fill-opacity="1" /><path clip-path="url(#clip660)" d="M1008.42 852.554 L1008.42 861.182 Q1004.29 857.334 999.593 855.43 Q994.935 853.526 989.669 853.526 Q979.298 853.526 973.789 859.886 Q968.28 866.205 968.28 878.196 Q968.28 890.146 973.789 896.506 Q979.298 902.825 989.669 902.825 Q994.935 902.825 999.593 900.921 Q1004.29 899.017 1008.42 895.169 L1008.42 903.717 Q1004.13 906.633 999.31 908.092 Q994.53 909.55 989.182 909.55 Q975.45 909.55 967.551 901.164 Q959.651 892.739 959.651 878.196 Q959.651 863.613 967.551 855.227 Q975.45 846.801 989.182 846.801 Q994.611 846.801 999.391 848.26 Q1004.21 849.677 1008.42 852.554 Z" fill="#000000" fill-rule="nonzero" fill-opacity="1" /><path clip-path="url(#clip660)" d="M1029.25 854.62 L1029.25 901.651 L1039.13 901.651 Q1051.65 901.651 1057.44 895.979 Q1063.27 890.308 1063.27 878.074 Q1063.27 865.922 1057.44 860.291 Q1051.65 854.62 1039.13 854.62 L1029.25 854.62 M1021.06 847.895 L1037.87 847.895 Q1055.46 847.895 1063.68 855.227 Q1071.9 862.519 1071.9 878.074 Q1071.9 893.711 1063.64 901.043 Q1055.37 908.375 1037.87 908.375 L1021.06 908.375 L1021.06 847.895 Z" fill="#000000" fill-rule="nonzero" fill-opacity="1" /><path clip-path="url(#clip660)" d="M1084.95 847.895 L1119.7 847.895 L1119.7 854.782 L1093.13 854.782 L1093.13 872.606 L1117.11 872.606 L1117.11 879.492 L1093.13 879.492 L1093.13 908.375 L1084.95 908.375 L1084.95 847.895 Z" fill="#000000" fill-rule="nonzero" fill-opacity="1" /><path clip-path="url(#clip660)" d="M1176.29 868.231 Q1170.3 868.231 1166.81 872.93 Q1163.33 877.588 1163.33 885.731 Q1163.33 893.873 1166.77 898.572 Q1170.26 903.23 1176.29 903.23 Q1182.25 903.23 1185.73 898.531 Q1189.22 893.832 1189.22 885.731 Q1189.22 877.669 1185.73 872.97 Q1182.25 868.231 1176.29 868.231 M1176.29 861.911 Q1186.02 861.911 1191.57 868.231 Q1197.12 874.55 1197.12 885.731 Q1197.12 896.871 1191.57 903.23 Q1186.02 909.55 1176.29 909.55 Q1166.53 909.55 1160.98 903.23 Q1155.47 896.871 1155.47 885.731 Q1155.47 874.55 1160.98 868.231 Q1166.53 861.911 1176.29 861.911 Z" fill="#000000" fill-rule="nonzero" fill-opacity="1" /><path clip-path="url(#clip660)" d="M1232.44 845.343 L1232.44 851.541 L1225.31 851.541 Q1221.3 851.541 1219.72 853.161 Q1218.18 854.782 1218.18 858.995 L1218.18 863.005 L1230.45 863.005 L1230.45 868.798 L1218.18 868.798 L1218.18 908.375 L1210.69 908.375 L1210.69 868.798 L1203.56 868.798 L1203.56 863.005 L1210.69 863.005 L1210.69 859.845 Q1210.69 852.27 1214.21 848.827 Q1217.73 845.343 1225.39 845.343 L1232.44 845.343 Z" fill="#000000" fill-rule="nonzero" fill-opacity="1" /><path clip-path="url(#clip660)" d="M1257.23 908.375 L1257.23 905.793 L1259.24 905.793 Q1263.79 905.793 1264.81 905.055 Q1265.88 904.276 1265.88 901.817 L1265.88 857.835 Q1265.88 855.417 1264.81 854.679 Q1263.75 853.9 1259.24 853.9 L1257.23 853.9 L1257.23 851.277 L1304.49 851.277 L1306.83 870.173 L1304.74 870.173 Q1304.16 865.377 1303.38 862.631 Q1302.65 859.844 1300.8 857.712 Q1299 855.581 1296.01 854.761 Q1293.06 853.9 1288.26 853.9 L1277.44 853.9 Q1274.57 853.9 1273.95 854.515 Q1273.34 855.089 1273.34 857.261 L1273.34 877.387 L1280.88 877.387 Q1286.66 877.387 1288.3 875.379 Q1289.94 873.37 1289.94 867.591 L1292.07 867.591 L1292.07 889.807 L1289.94 889.807 Q1289.94 884.109 1288.3 882.06 Q1286.66 880.01 1280.88 880.01 L1273.34 880.01 L1273.34 902.432 Q1273.34 904.604 1273.95 905.219 Q1274.61 905.793 1277.44 905.793 L1288.63 905.793 Q1292.24 905.793 1294.86 905.342 Q1297.52 904.85 1299.37 903.702 Q1301.21 902.514 1302.44 901.161 Q1303.71 899.808 1304.57 897.39 Q1305.48 894.931 1305.97 892.676 Q1306.5 890.422 1307.07 886.733 L1309.16 886.733 L1305.64 908.375 L1257.23 908.375 Z" fill="#000000" fill-rule="nonzero" fill-opacity="1" /><path clip-path="url(#clip660)" d="M1316.76 908.375 L1316.76 905.793 Q1323.32 905.793 1327.5 900.751 Q1327.5 900.751 1335.37 890.75 L1327.05 879.929 Q1324.1 876.158 1322.79 875.502 Q1321.52 874.805 1317.17 874.805 L1317.17 872.182 Q1320.62 872.427 1325.13 872.427 Q1327.63 872.427 1334.23 872.182 L1334.23 874.805 Q1331.27 874.969 1331.27 876.895 Q1331.27 877.551 1332.01 878.412 L1338.57 886.897 L1343.78 880.338 Q1345.05 878.822 1345.05 877.387 Q1345.05 875.051 1342.59 874.805 L1342.59 872.182 Q1345.87 872.427 1350.66 872.427 Q1354.27 872.427 1357.55 872.182 L1357.55 874.805 Q1351.15 874.969 1347.55 879.15 Q1345.95 880.912 1339.84 888.659 L1351.07 903.169 Q1352.43 904.932 1353.94 905.383 Q1355.46 905.793 1359.07 905.793 L1359.07 908.375 Q1355.29 908.129 1350.99 908.129 Q1349.47 908.129 1341.93 908.375 L1341.93 905.793 Q1343.45 905.711 1344.19 905.055 Q1344.97 904.358 1344.97 903.661 Q1344.97 903.333 1343.2 900.915 L1336.81 892.512 Q1330.41 900.054 1329.59 901.817 Q1329.27 902.555 1329.27 903.169 Q1329.27 905.424 1331.68 905.793 L1331.68 908.375 Q1325.66 908.129 1323.73 908.129 Q1320.04 908.129 1316.76 908.375 Z" fill="#000000" fill-rule="nonzero" fill-opacity="1" /><path clip-path="url(#clip660)" d="M1354.86 922.065 Q1359.32 922.065 1360.35 921.492 Q1361.41 920.959 1361.41 918.294 L1361.41 878.986 Q1361.41 876.198 1360.35 875.502 Q1359.32 874.805 1354.86 874.805 L1354.86 872.182 L1366.95 871.28 L1366.95 876.813 Q1371.99 871.28 1378.71 871.28 Q1385.84 871.28 1391.05 876.813 Q1396.25 882.347 1396.25 890.258 Q1396.25 898.251 1390.72 903.784 Q1385.19 909.318 1377.52 909.318 Q1373.34 909.318 1370.51 907.186 Q1367.73 905.014 1367.19 903.415 L1367.19 904.194 L1367.19 918.294 Q1367.19 921 1368.26 921.533 Q1369.32 922.065 1373.75 922.065 L1373.75 924.648 Q1364.94 924.402 1364.28 924.402 Q1363.46 924.402 1354.86 924.648 L1354.86 922.065 M1367.19 898.825 Q1367.19 900.095 1367.36 900.546 Q1367.56 900.997 1368.38 902.35 Q1371.7 907.432 1377.11 907.432 Q1377.15 907.432 1377.19 907.432 Q1381.99 907.432 1385.64 902.555 Q1389.29 897.636 1389.29 890.258 Q1389.29 883.208 1385.97 878.289 Q1382.65 873.37 1378.06 873.37 Q1374.78 873.37 1371.91 875.133 Q1369.04 876.895 1367.19 880.092 L1367.19 898.825 Z" fill="#000000" fill-rule="nonzero" fill-opacity="1" /><path clip-path="url(#clip660)" d="M1400.97 887.389 Q1400.97 873.206 1406.26 861.77 Q1408.51 856.975 1411.67 852.958 Q1414.83 848.941 1416.92 847.178 Q1419.01 845.416 1419.58 845.416 Q1420.4 845.416 1420.44 846.235 Q1420.44 846.645 1419.34 847.67 Q1405.81 861.442 1405.85 887.389 Q1405.85 913.417 1419.01 926.656 Q1420.44 928.091 1420.44 928.542 Q1420.44 929.362 1419.58 929.362 Q1419.01 929.362 1417 927.681 Q1414.99 926 1411.88 922.147 Q1408.76 918.294 1406.51 913.581 Q1400.97 902.145 1400.97 887.389 Z" fill="#000000" fill-rule="nonzero" fill-opacity="1" /><path clip-path="url(#clip660)" d="M1431.53 860.459 L1431.53 857.835 Q1441.61 857.835 1446.81 852.466 Q1448.25 852.466 1448.5 852.794 Q1448.74 853.122 1448.74 854.638 L1448.74 901.735 Q1448.74 904.235 1449.97 905.014 Q1451.2 905.793 1456.57 905.793 L1459.23 905.793 L1459.23 908.375 Q1456.28 908.129 1445.63 908.129 Q1434.97 908.129 1432.06 908.375 L1432.06 905.793 L1434.72 905.793 Q1440.01 905.793 1441.28 905.055 Q1442.55 904.276 1442.55 901.735 L1442.55 858.245 Q1438.17 860.459 1431.53 860.459 Z" fill="#000000" fill-rule="nonzero" fill-opacity="1" /><path clip-path="url(#clip660)" d="M1471.75 928.542 Q1471.75 928.132 1472.82 927.107 Q1486.34 913.335 1486.34 887.389 Q1486.34 861.36 1473.35 848.203 Q1471.75 846.686 1471.75 846.235 Q1471.75 845.416 1472.57 845.416 Q1473.15 845.416 1475.15 847.096 Q1477.2 848.777 1480.28 852.63 Q1483.39 856.483 1485.69 861.196 Q1491.22 872.632 1491.22 887.389 Q1491.22 901.571 1485.93 913.007 Q1483.68 917.803 1480.52 921.82 Q1477.37 925.837 1475.28 927.599 Q1473.19 929.362 1472.57 929.362 Q1471.75 929.362 1471.75 928.542 Z" fill="#000000" fill-rule="nonzero" fill-opacity="1" /><polyline clip-path="url(#clip663)" style="stroke:#009af9; stroke-linecap:round; stroke-linejoin:round; stroke-width:4; stroke-opacity:1; fill:none" points="174.33,1552.76 195.48,1529.38 216.63,1506.92 237.779,1485.35 258.929,1464.61 280.079,1444.7 301.229,1425.56 322.379,1407.17 343.528,1389.51 364.678,1372.53 385.828,1356.22 406.978,1340.56 428.127,1325.5 449.277,1311.04 470.427,1297.14 491.577,1283.79 512.726,1270.96 533.876,1258.64 555.026,1246.79 576.176,1235.42 597.325,1224.48 618.475,1213.98 639.625,1203.89 660.775,1194.2 681.925,1184.88 703.074,1175.93 724.224,1167.33 745.374,1159.07 766.524,1151.13 787.673,1143.5 808.823,1136.18 829.973,1129.14 851.123,1122.37 872.272,1115.87 893.422,1109.63 914.572,1103.63 935.722,1097.87 956.871,1092.33 978.021,1087.01 999.171,1081.89 1020.32,1076.98 1041.47,1072.26 1062.62,1067.73 1083.77,1063.37 1104.92,1059.19 1126.07,1055.17 1147.22,1051.3 1168.37,1047.59 1189.52,1044.02 1210.67,1040.6 1231.82,1037.3 1252.97,1034.14 1274.12,1031.1 1295.27,1028.18 1316.42,1025.37 1337.57,1022.68 1358.72,1020.09 1379.87,1017.6 1401.02,1015.21 1422.17,1012.91 1443.32,1010.71 1464.47,1008.59 1485.62,1006.55 1506.77,1004.59 1527.92,1002.71 1549.06,1000.9 1570.21,999.167 1591.36,997.499 1612.51,995.896 1633.66,994.356 1654.81,992.877 1675.96,991.455 1697.11,990.09 1718.26,988.778 1739.41,987.517 1760.56,986.306 1781.71,985.142 1802.86,984.024 1824.01,982.95 1845.16,981.917 1866.31,980.926 1887.46,979.973 1908.61,979.057 1929.76,978.178 1950.91,977.333 1972.06,976.521 1993.21,975.741 2014.36,974.991 2035.51,974.271 2056.66,973.579 2077.81,972.915 2098.96,972.276 2120.11,971.662 2141.26,971.073 2162.41,970.506 2183.56,969.962 2204.71,969.439 2225.86,968.937 2247.01,968.454 2268.16,967.99 2289.31,967.545 "/>
<polyline clip-path="url(#clip663)" style="stroke:#008000; stroke-linecap:round; stroke-linejoin:round; stroke-width:4; stroke-opacity:1; fill:none" points="174.33,1252.9 544.01,1252.9 "/>
<polyline clip-path="url(#clip663)" style="stroke:#008000; stroke-linecap:round; stroke-linejoin:round; stroke-width:4; stroke-opacity:1; fill:none" points="544.01,1552.76 544.01,1252.9 "/>
<path clip-path="url(#clip660)" d="M1815.56 1183.86 L2278.03 1183.86 L2278.03 976.497 L1815.56 976.497  Z" fill="#ffffff" fill-rule="evenodd" fill-opacity="1"/>
<polyline clip-path="url(#clip660)" style="stroke:#000000; stroke-linecap:round; stroke-linejoin:round; stroke-width:4; stroke-opacity:1; fill:none" points="1815.56,1183.86 2278.03,1183.86 2278.03,976.497 1815.56,976.497 1815.56,1183.86 "/>
<polyline clip-path="url(#clip660)" style="stroke:#008000; stroke-linecap:round; stroke-linejoin:round; stroke-width:4; stroke-opacity:1; fill:none" points="1840.47,1080.18 1989.93,1080.18 "/>
<path clip-path="url(#clip660)" d="M2041.75 1051.19 Q2041.7 1051.43 2041.61 1051.85 Q2041.52 1052.24 2041.1 1053.51 Q2040.67 1054.77 2040.11 1056.06 Q2039.57 1057.33 2038.52 1059.11 Q2037.49 1060.86 2036.22 1062.46 Q2035.87 1062.88 2035.8 1063.14 Q2035.76 1063.37 2035.76 1064.14 Q2035.76 1069.02 2037.23 1069.02 Q2037.3 1069.02 2037.42 1069.02 Q2037.56 1068.99 2037.91 1068.87 Q2038.29 1068.73 2038.61 1068.52 Q2038.94 1068.29 2039.32 1067.82 Q2039.69 1067.33 2039.92 1066.67 Q2040.14 1066.2 2040.56 1066.2 Q2041.12 1066.2 2041.12 1066.67 Q2041.12 1067.52 2039.95 1068.8 Q2038.78 1070.09 2037.09 1070.09 Q2035.47 1070.09 2034.33 1069.04 Q2033.2 1067.96 2032.73 1066.04 Q2027.67 1070.09 2022.62 1070.09 Q2019.06 1070.09 2016.95 1067.77 Q2014.84 1065.43 2014.84 1061.97 Q2014.84 1058.64 2016.67 1055.48 Q2018.52 1052.32 2021.51 1050.35 Q2024.54 1048.36 2027.75 1048.36 Q2028.87 1048.36 2029.95 1048.66 Q2031.02 1048.94 2032.1 1049.67 Q2033.18 1050.39 2033.98 1051.5 Q2034.77 1052.6 2035.26 1054.33 Q2035.76 1056.06 2035.76 1058.24 L2035.76 1061.22 Q2038.85 1057.3 2040.46 1051.71 Q2040.7 1050.86 2040.84 1050.77 Q2040.93 1050.7 2041.17 1050.7 Q2041.4 1050.7 2041.54 1050.84 Q2041.7 1050.96 2041.73 1051.07 L2041.75 1051.19 M2032.55 1064.8 Q2032.45 1063.98 2032.45 1059.44 Q2032.45 1058.57 2032.45 1058.1 Q2032.45 1057.61 2032.41 1056.67 Q2032.36 1055.73 2032.27 1055.15 Q2032.2 1054.56 2032.03 1053.72 Q2031.87 1052.88 2031.63 1052.34 Q2031.4 1051.8 2031.02 1051.19 Q2030.67 1050.58 2030.2 1050.23 Q2029.76 1049.88 2029.1 1049.64 Q2028.47 1049.41 2027.7 1049.41 Q2026.74 1049.41 2025.73 1049.76 Q2024.75 1050.09 2023.48 1051.14 Q2022.22 1052.17 2021.16 1053.81 Q2020.06 1055.55 2019.22 1058.73 Q2018.4 1061.89 2018.4 1063.79 Q2018.4 1066.18 2019.5 1067.61 Q2020.6 1069.02 2022.71 1069.02 Q2027.75 1069.02 2032.55 1064.8 Z" fill="#000000" fill-rule="nonzero" fill-opacity="1" /><path clip-path="url(#clip660)" d="M2058.53 1062.27 Q2058.57 1061.68 2059.49 1061.68 L2088.88 1061.68 Q2090.26 1061.68 2090.29 1062.22 Q2090.29 1062.81 2088.98 1062.78 L2059.82 1062.78 Q2058.53 1062.81 2058.53 1062.27 M2058.53 1052.9 Q2058.53 1052.32 2059.53 1052.34 L2088.84 1052.34 Q2090.26 1052.34 2090.29 1052.9 Q2090.29 1053.44 2089.07 1053.44 L2059.49 1053.44 Q2058.53 1053.44 2058.53 1052.9 Z" fill="#000000" fill-rule="nonzero" fill-opacity="1" /><path clip-path="url(#clip660)" d="M2108.78 1054.21 Q2108.78 1047.16 2110.56 1043.32 Q2113.04 1037.61 2118.9 1037.61 Q2120.14 1037.61 2121.43 1037.96 Q2122.74 1038.29 2124.38 1039.57 Q2126.04 1040.86 2127.05 1042.97 Q2128.97 1047.05 2128.97 1054.21 Q2128.97 1061.22 2127.19 1065.03 Q2124.59 1070.61 2118.85 1070.61 Q2116.7 1070.61 2114.49 1069.51 Q2112.32 1068.41 2110.93 1065.76 Q2108.78 1061.8 2108.78 1054.21 M2112.76 1053.63 Q2112.76 1060.86 2113.28 1063.75 Q2113.86 1066.86 2115.45 1068.22 Q2117.07 1069.55 2118.85 1069.55 Q2120.77 1069.55 2122.36 1068.13 Q2123.98 1066.67 2124.47 1063.56 Q2125.01 1060.49 2124.99 1053.63 Q2124.99 1046.95 2124.52 1044.28 Q2123.89 1041.17 2122.2 1039.92 Q2120.54 1038.66 2118.85 1038.66 Q2118.22 1038.66 2117.54 1038.85 Q2116.88 1039.03 2115.92 1039.57 Q2114.96 1040.11 2114.21 1041.45 Q2113.49 1042.78 2113.14 1044.8 Q2112.76 1047.4 2112.76 1053.63 Z" fill="#000000" fill-rule="nonzero" fill-opacity="1" /><path clip-path="url(#clip660)" d="M2133.26 1068.78 Q2132.53 1068.01 2132.53 1067 Q2132.53 1065.99 2133.26 1065.27 Q2133.98 1064.52 2135.08 1064.52 Q2136.14 1064.52 2136.84 1065.22 Q2137.56 1065.9 2137.56 1067.02 Q2137.56 1068.13 2136.79 1068.85 Q2136.04 1069.55 2135.08 1069.55 Q2133.98 1069.55 2133.26 1068.78 Z" fill="#000000" fill-rule="nonzero" fill-opacity="1" /><path clip-path="url(#clip660)" d="M2145.73 1061.82 Q2145.73 1060.4 2146.5 1059.86 Q2147.27 1059.29 2148.09 1059.29 Q2149.19 1059.29 2149.83 1060 Q2150.48 1060.68 2150.48 1061.64 Q2150.48 1062.6 2149.83 1063.3 Q2149.19 1063.98 2148.09 1063.98 Q2147.55 1063.98 2147.27 1063.89 Q2147.9 1066.09 2149.83 1067.68 Q2151.77 1069.27 2154.32 1069.27 Q2157.53 1069.27 2159.45 1066.16 Q2160.6 1064.14 2160.6 1059.58 Q2160.6 1055.55 2159.73 1053.53 Q2158.4 1050.46 2155.66 1050.46 Q2151.77 1050.46 2149.47 1053.81 Q2149.19 1054.24 2148.86 1054.26 Q2148.4 1054.26 2148.28 1054 Q2148.19 1053.72 2148.19 1052.99 L2148.19 1038.8 Q2148.19 1037.65 2148.65 1037.65 Q2148.84 1037.65 2149.24 1037.79 Q2152.26 1039.13 2155.61 1039.15 Q2159.05 1039.15 2162.15 1037.75 Q2162.38 1037.61 2162.52 1037.61 Q2162.99 1037.61 2163.01 1038.14 Q2163.01 1038.33 2162.61 1038.89 Q2162.24 1039.43 2161.42 1040.16 Q2160.6 1040.86 2159.55 1041.54 Q2158.49 1042.22 2156.95 1042.69 Q2155.42 1043.13 2153.74 1043.13 Q2151.72 1043.13 2149.66 1042.5 L2149.66 1051.85 Q2152.14 1049.41 2155.75 1049.41 Q2159.59 1049.41 2162.24 1052.5 Q2164.89 1055.59 2164.89 1059.9 Q2164.89 1064.42 2161.75 1067.52 Q2158.63 1070.61 2154.42 1070.61 Q2150.57 1070.61 2148.14 1067.87 Q2145.73 1065.13 2145.73 1061.82 Z" fill="#000000" fill-rule="nonzero" fill-opacity="1" /><path clip-path="url(#clip660)" d="M2169.67 1054.21 Q2169.67 1047.16 2171.45 1043.32 Q2173.93 1037.61 2179.79 1037.61 Q2181.03 1037.61 2182.32 1037.96 Q2183.63 1038.29 2185.27 1039.57 Q2186.93 1040.86 2187.94 1042.97 Q2189.86 1047.05 2189.86 1054.21 Q2189.86 1061.22 2188.08 1065.03 Q2185.48 1070.61 2179.74 1070.61 Q2177.58 1070.61 2175.38 1069.51 Q2173.2 1068.41 2171.82 1065.76 Q2169.67 1061.8 2169.67 1054.21 M2173.65 1053.63 Q2173.65 1060.86 2174.17 1063.75 Q2174.75 1066.86 2176.34 1068.22 Q2177.96 1069.55 2179.74 1069.55 Q2181.66 1069.55 2183.25 1068.13 Q2184.87 1066.67 2185.36 1063.56 Q2185.9 1060.49 2185.88 1053.63 Q2185.88 1046.95 2185.41 1044.28 Q2184.78 1041.17 2183.09 1039.92 Q2181.43 1038.66 2179.74 1038.66 Q2179.11 1038.66 2178.43 1038.85 Q2177.77 1039.03 2176.81 1039.57 Q2175.85 1040.11 2175.1 1041.45 Q2174.38 1042.78 2174.02 1044.8 Q2173.65 1047.4 2173.65 1053.63 Z" fill="#000000" fill-rule="nonzero" fill-opacity="1" /><path clip-path="url(#clip660)" d="M2193.61 1063.09 Q2193.61 1061.66 2194.43 1060.98 Q2195.25 1060.3 2196.3 1060.3 Q2197.4 1060.3 2198.18 1061.03 Q2198.97 1061.73 2198.97 1062.97 Q2198.97 1064.31 2198.04 1065.06 Q2197.12 1065.81 2195.81 1065.62 Q2196.96 1067.54 2199.07 1068.41 Q2201.2 1069.27 2203.17 1069.27 Q2205.23 1069.27 2206.89 1067.49 Q2208.58 1065.71 2208.58 1061.36 Q2208.58 1057.66 2207.12 1055.52 Q2205.7 1053.39 2202.86 1053.39 L2200.75 1053.39 Q2200.03 1053.39 2199.82 1053.32 Q2199.61 1053.25 2199.61 1052.85 Q2199.61 1052.39 2200.33 1052.29 Q2201.06 1052.29 2202.21 1052.15 Q2204.99 1052.06 2206.47 1049.64 Q2207.8 1047.4 2207.8 1044.19 Q2207.8 1041.26 2206.4 1040.04 Q2205.02 1038.8 2203.21 1038.8 Q2201.53 1038.8 2199.68 1039.5 Q2197.83 1040.21 2196.82 1041.77 Q2199.79 1041.77 2199.79 1044.19 Q2199.79 1045.24 2199.11 1045.94 Q2198.46 1046.62 2197.36 1046.62 Q2196.3 1046.62 2195.6 1045.97 Q2194.9 1045.29 2194.9 1044.14 Q2194.9 1041.4 2197.33 1039.5 Q2199.79 1037.61 2203.4 1037.61 Q2206.96 1037.61 2209.58 1039.48 Q2212.23 1041.35 2212.23 1044.23 Q2212.23 1047.07 2210.36 1049.39 Q2208.48 1051.71 2205.51 1052.67 Q2209.16 1053.39 2211.34 1055.88 Q2213.52 1058.33 2213.52 1061.36 Q2213.52 1065.1 2210.57 1067.87 Q2207.62 1070.61 2203.31 1070.61 Q2199.33 1070.61 2196.47 1068.45 Q2193.61 1066.3 2193.61 1063.09 Z" fill="#000000" fill-rule="nonzero" fill-opacity="1" /><path clip-path="url(#clip660)" d="M2049.68 1092.04 L2043.05 1118.72 Q2042.86 1119.56 2042.86 1119.77 Q2042.86 1120.05 2042.93 1120.17 Q2043.03 1120.31 2043.54 1120.43 Q2044.08 1120.55 2045.16 1120.55 Q2045.55 1120.55 2045.7 1120.55 Q2045.84 1120.55 2046.05 1120.59 Q2046.26 1120.64 2046.33 1120.76 Q2046.4 1120.87 2046.4 1121.06 Q2046.4 1122.02 2045.55 1122.02 Q2044.76 1122.02 2043.1 1121.95 Q2041.43 1121.88 2040.61 1121.88 Q2039.82 1121.88 2038.2 1121.95 Q2036.58 1122.02 2035.81 1122.02 Q2035.53 1122.02 2035.37 1121.88 Q2035.2 1121.76 2035.2 1121.62 L2035.18 1121.51 Q2035.18 1120.85 2035.44 1120.69 Q2035.69 1120.55 2036.28 1120.55 Q2038.29 1120.52 2038.88 1120.24 Q2039.47 1119.96 2039.75 1118.95 L2041.9 1110.38 Q2039.02 1113.26 2036.23 1113.26 Q2033.54 1113.26 2031.71 1111.15 Q2029.91 1109.02 2029.91 1105.58 Q2029.91 1103.03 2030.92 1100.45 Q2031.95 1097.87 2033.54 1095.93 Q2035.16 1093.99 2037.26 1092.77 Q2039.37 1091.53 2041.46 1091.53 Q2042.79 1091.53 2043.99 1092.3 Q2045.2 1093.07 2045.93 1094.88 Q2046.54 1093.84 2047.66 1092.72 Q2048.79 1091.57 2049.19 1091.57 Q2049.42 1091.57 2049.54 1091.74 Q2049.68 1091.88 2049.68 1092.04 M2045.25 1096.8 Q2045.25 1096.56 2045.06 1095.98 Q2044.9 1095.39 2044.52 1094.59 Q2044.17 1093.77 2043.35 1093.19 Q2042.53 1092.58 2041.46 1092.58 Q2039.91 1092.58 2038.25 1094.08 Q2036.61 1095.55 2035.53 1098.13 Q2034.85 1099.82 2034.08 1102.96 Q2033.31 1106.09 2033.31 1107.69 Q2033.31 1108.06 2033.33 1108.48 Q2033.38 1108.91 2033.56 1109.61 Q2033.75 1110.31 2034.03 1110.85 Q2034.34 1111.39 2034.94 1111.79 Q2035.55 1112.18 2036.37 1112.18 Q2038.15 1112.18 2039.93 1110.66 Q2041.71 1109.14 2042.46 1107.78 Q2042.56 1107.64 2043.89 1102.32 Q2045.25 1097.01 2045.25 1096.8 Z" fill="#000000" fill-rule="nonzero" fill-opacity="1" /><path clip-path="url(#clip660)" d="M2073.43 1117.89 Q2073.4 1118.05 2073.33 1118.34 Q2073.27 1118.62 2072.97 1119.51 Q2072.68 1120.39 2072.28 1121.3 Q2071.91 1122.18 2071.17 1123.43 Q2070.45 1124.66 2069.56 1125.77 Q2069.31 1126.07 2069.27 1126.25 Q2069.23 1126.41 2069.23 1126.95 Q2069.23 1130.36 2070.27 1130.36 Q2070.31 1130.36 2070.4 1130.36 Q2070.5 1130.35 2070.74 1130.26 Q2071 1130.17 2071.23 1130.02 Q2071.46 1129.85 2071.72 1129.53 Q2071.99 1129.18 2072.15 1128.72 Q2072.3 1128.4 2072.59 1128.4 Q2072.99 1128.4 2072.99 1128.72 Q2072.99 1129.31 2072.17 1130.22 Q2071.35 1131.12 2070.17 1131.12 Q2069.04 1131.12 2068.23 1130.38 Q2067.45 1129.62 2067.12 1128.28 Q2063.58 1131.12 2060.03 1131.12 Q2057.54 1131.12 2056.07 1129.49 Q2054.59 1127.85 2054.59 1125.43 Q2054.59 1123.1 2055.87 1120.89 Q2057.17 1118.67 2059.26 1117.3 Q2061.38 1115.9 2063.63 1115.9 Q2064.41 1115.9 2065.17 1116.11 Q2065.92 1116.31 2066.67 1116.82 Q2067.43 1117.33 2067.99 1118.1 Q2068.54 1118.87 2068.89 1120.08 Q2069.23 1121.3 2069.23 1122.82 L2069.23 1124.9 Q2071.4 1122.16 2072.53 1118.25 Q2072.69 1117.66 2072.79 1117.59 Q2072.86 1117.54 2073.02 1117.54 Q2073.18 1117.54 2073.28 1117.64 Q2073.4 1117.72 2073.41 1117.8 L2073.43 1117.89 M2066.99 1127.41 Q2066.92 1126.84 2066.92 1123.66 Q2066.92 1123.05 2066.92 1122.72 Q2066.92 1122.38 2066.89 1121.72 Q2066.86 1121.07 2066.79 1120.66 Q2066.74 1120.25 2066.63 1119.66 Q2066.51 1119.07 2066.35 1118.69 Q2066.18 1118.31 2065.92 1117.89 Q2065.67 1117.46 2065.35 1117.21 Q2065.04 1116.97 2064.58 1116.8 Q2064.13 1116.64 2063.59 1116.64 Q2062.92 1116.64 2062.22 1116.89 Q2061.53 1117.11 2060.64 1117.85 Q2059.76 1118.57 2059.02 1119.72 Q2058.25 1120.94 2057.66 1123.16 Q2057.08 1125.38 2057.08 1126.71 Q2057.08 1128.38 2057.85 1129.38 Q2058.62 1130.36 2060.1 1130.36 Q2063.63 1130.36 2066.99 1127.41 Z" fill="#000000" fill-rule="nonzero" fill-opacity="1" /><path clip-path="url(#clip660)" d="M2094.28 1105.44 Q2094.33 1104.85 2095.24 1104.85 L2124.64 1104.85 Q2126.02 1104.85 2126.05 1105.39 Q2126.05 1105.98 2124.73 1105.95 L2095.57 1105.95 Q2094.28 1105.98 2094.28 1105.44 M2094.28 1096.07 Q2094.28 1095.48 2095.29 1095.51 L2124.59 1095.51 Q2126.02 1095.51 2126.05 1096.07 Q2126.05 1096.61 2124.83 1096.61 L2095.24 1096.61 Q2094.28 1096.61 2094.28 1096.07 Z" fill="#000000" fill-rule="nonzero" fill-opacity="1" /><path clip-path="url(#clip660)" d="M2144.54 1097.38 Q2144.54 1090.33 2146.32 1086.49 Q2148.8 1080.78 2154.65 1080.78 Q2155.9 1080.78 2157.18 1081.13 Q2158.5 1081.45 2160.14 1082.74 Q2161.8 1084.03 2162.81 1086.14 Q2164.73 1090.21 2164.73 1097.38 Q2164.73 1104.38 2162.95 1108.2 Q2160.35 1113.78 2154.61 1113.78 Q2152.45 1113.78 2150.25 1112.68 Q2148.07 1111.58 2146.69 1108.93 Q2144.54 1104.97 2144.54 1097.38 M2148.52 1096.8 Q2148.52 1104.03 2149.03 1106.91 Q2149.62 1110.03 2151.21 1111.39 Q2152.83 1112.72 2154.61 1112.72 Q2156.53 1112.72 2158.12 1111.29 Q2159.74 1109.84 2160.23 1106.73 Q2160.77 1103.66 2160.74 1096.8 Q2160.74 1090.12 2160.28 1087.45 Q2159.64 1084.34 2157.96 1083.09 Q2156.29 1081.83 2154.61 1081.83 Q2153.98 1081.83 2153.3 1082.02 Q2152.64 1082.2 2151.68 1082.74 Q2150.72 1083.28 2149.97 1084.62 Q2149.24 1085.95 2148.89 1087.97 Q2148.52 1090.57 2148.52 1096.8 Z" fill="#000000" fill-rule="nonzero" fill-opacity="1" /><path clip-path="url(#clip660)" d="M2169.01 1111.95 Q2168.29 1111.18 2168.29 1110.17 Q2168.29 1109.16 2169.01 1108.44 Q2169.74 1107.69 2170.84 1107.69 Q2171.89 1107.69 2172.6 1108.39 Q2173.32 1109.07 2173.32 1110.19 Q2173.32 1111.29 2172.55 1112.02 Q2171.8 1112.72 2170.84 1112.72 Q2169.74 1112.72 2169.01 1111.95 Z" fill="#000000" fill-rule="nonzero" fill-opacity="1" /><path clip-path="url(#clip660)" d="M2181.48 1097.57 Q2181.48 1090.03 2185.32 1085.41 Q2189.17 1080.78 2194.11 1080.78 Q2196.99 1080.78 2198.58 1082.25 Q2200.2 1083.7 2200.2 1085.95 Q2200.2 1087.19 2199.47 1087.73 Q2198.75 1088.27 2198 1088.27 Q2197.13 1088.27 2196.45 1087.68 Q2195.77 1087.1 2195.77 1086.05 Q2195.77 1083.89 2198.42 1083.89 Q2197.18 1081.97 2194.2 1081.97 Q2193.29 1081.97 2192.35 1082.25 Q2191.41 1082.51 2190.2 1083.4 Q2188.98 1084.29 2188.04 1085.69 Q2187.1 1087.1 2186.45 1089.75 Q2185.79 1092.39 2185.79 1095.84 L2185.79 1096.98 Q2187.76 1092.23 2191.79 1092.25 Q2195.82 1092.25 2198.6 1095.32 Q2201.39 1098.39 2201.39 1102.93 Q2201.39 1107.59 2198.49 1110.69 Q2195.58 1113.78 2191.51 1113.78 Q2189.68 1113.78 2188.02 1113 Q2186.38 1112.25 2184.83 1110.52 Q2183.31 1108.79 2182.4 1105.46 Q2181.48 1102.14 2181.48 1097.57 M2185.89 1101.88 Q2185.89 1106.59 2186.75 1108.84 Q2186.89 1109.21 2187.2 1109.73 Q2187.53 1110.24 2188.06 1110.92 Q2188.63 1111.58 2189.54 1112.02 Q2190.45 1112.44 2191.51 1112.44 Q2194.72 1112.44 2196.26 1109.33 Q2197.08 1107.59 2197.08 1102.89 Q2197.08 1098.08 2196.22 1096.33 Q2194.74 1093.35 2191.74 1093.35 Q2189.73 1093.35 2188.32 1094.73 Q2186.94 1096.12 2186.4 1097.97 Q2185.89 1099.82 2185.89 1101.88 Z" fill="#000000" fill-rule="nonzero" fill-opacity="1" /><path clip-path="url(#clip660)" d="M2205.43 1091.57 Q2205.43 1089.02 2206.17 1087.29 Q2206.92 1085.53 2208.49 1083.8 Q2211.37 1080.78 2215.54 1080.78 Q2217.32 1080.78 2218.89 1081.52 Q2220.49 1082.27 2221.98 1083.98 Q2223.51 1085.67 2224.42 1089.02 Q2225.33 1092.35 2225.33 1096.94 Q2225.33 1104.36 2221.73 1109.07 Q2218.14 1113.78 2213.29 1113.78 Q2210.23 1113.78 2208.42 1112.4 Q2206.62 1110.99 2206.62 1108.6 Q2206.62 1107.36 2207.32 1106.84 Q2208.02 1106.31 2208.82 1106.31 Q2209.69 1106.31 2210.37 1106.89 Q2211.05 1107.45 2211.05 1108.51 Q2211.05 1109.37 2210.48 1110.05 Q2209.95 1110.71 2208.54 1110.71 Q2209.92 1112.44 2213.25 1112.44 Q2214.44 1112.44 2215.64 1111.9 Q2216.83 1111.34 2218.12 1110.01 Q2219.43 1108.65 2220.23 1105.81 Q2221.02 1102.98 2221.02 1099 L2221.02 1097.48 Q2219.1 1102.28 2215.03 1102.28 Q2211 1102.28 2208.21 1099.19 Q2205.43 1096.09 2205.43 1091.57 M2209.73 1091.62 Q2209.73 1096.37 2210.6 1098.13 Q2212.08 1101.15 2215.08 1101.15 Q2218 1101.15 2219.46 1098.55 Q2220.93 1095.93 2220.93 1092.53 Q2220.93 1087.83 2220.16 1085.76 Q2218.73 1081.97 2215.54 1081.97 Q2212.38 1081.97 2210.74 1084.99 Q2209.73 1086.77 2209.73 1091.62 Z" fill="#000000" fill-rule="nonzero" fill-opacity="1" /><path clip-path="url(#clip660)" d="M2229.37 1091.57 Q2229.37 1089.02 2230.12 1087.29 Q2230.87 1085.53 2232.44 1083.8 Q2235.32 1080.78 2239.49 1080.78 Q2241.27 1080.78 2242.83 1081.52 Q2244.43 1082.27 2245.93 1083.98 Q2247.45 1085.67 2248.36 1089.02 Q2249.28 1092.35 2249.28 1096.94 Q2249.28 1104.36 2245.67 1109.07 Q2242.09 1113.78 2237.24 1113.78 Q2234.17 1113.78 2232.37 1112.4 Q2230.56 1110.99 2230.56 1108.6 Q2230.56 1107.36 2231.26 1106.84 Q2231.97 1106.31 2232.76 1106.31 Q2233.63 1106.31 2234.31 1106.89 Q2234.99 1107.45 2234.99 1108.51 Q2234.99 1109.37 2234.43 1110.05 Q2233.89 1110.71 2232.48 1110.71 Q2233.86 1112.44 2237.19 1112.44 Q2238.38 1112.44 2239.58 1111.9 Q2240.77 1111.34 2242.06 1110.01 Q2243.37 1108.65 2244.17 1105.81 Q2244.97 1102.98 2244.97 1099 L2244.97 1097.48 Q2243.05 1102.28 2238.97 1102.28 Q2234.94 1102.28 2232.15 1099.19 Q2229.37 1096.09 2229.37 1091.57 M2233.68 1091.62 Q2233.68 1096.37 2234.54 1098.13 Q2236.02 1101.15 2239.02 1101.15 Q2241.94 1101.15 2243.4 1098.55 Q2244.87 1095.93 2244.87 1092.53 Q2244.87 1087.83 2244.1 1085.76 Q2242.67 1081.97 2239.49 1081.97 Q2236.32 1081.97 2234.68 1084.99 Q2233.68 1086.77 2233.68 1091.62 Z" fill="#000000" fill-rule="nonzero" fill-opacity="1" /><path clip-path="url(#clip660)" d="M459.209 1179.05 Q459.127 1179.46 458.963 1180.2 Q458.799 1180.9 458.061 1183.11 Q457.323 1185.32 456.339 1187.58 Q455.397 1189.79 453.552 1192.91 Q451.748 1195.98 449.535 1198.77 Q448.92 1199.51 448.797 1199.96 Q448.715 1200.37 448.715 1201.72 Q448.715 1210.25 451.298 1210.25 Q451.421 1210.25 451.626 1210.25 Q451.871 1210.2 452.486 1210 Q453.142 1209.75 453.716 1209.38 Q454.29 1208.97 454.946 1208.15 Q455.601 1207.29 456.011 1206.15 Q456.38 1205.33 457.118 1205.33 Q458.102 1205.33 458.102 1206.15 Q458.102 1207.62 456.052 1209.88 Q454.003 1212.13 451.052 1212.13 Q448.223 1212.13 446.215 1210.29 Q444.247 1208.4 443.428 1205.04 Q434.574 1212.13 425.72 1212.13 Q419.49 1212.13 415.801 1208.07 Q412.112 1203.97 412.112 1197.91 Q412.112 1192.09 415.309 1186.55 Q418.547 1181.02 423.794 1177.58 Q429.081 1174.09 434.697 1174.09 Q436.664 1174.09 438.55 1174.63 Q440.435 1175.12 442.321 1176.39 Q444.206 1177.66 445.6 1179.59 Q446.994 1181.51 447.854 1184.55 Q448.715 1187.58 448.715 1191.39 L448.715 1196.6 Q454.126 1189.75 456.954 1179.95 Q457.364 1178.48 457.61 1178.31 Q457.774 1178.19 458.184 1178.19 Q458.594 1178.19 458.84 1178.44 Q459.127 1178.64 459.168 1178.85 L459.209 1179.05 M443.1 1202.87 Q442.936 1201.43 442.936 1193.48 Q442.936 1191.96 442.936 1191.14 Q442.936 1190.28 442.854 1188.64 Q442.772 1187 442.608 1185.98 Q442.485 1184.95 442.198 1183.48 Q441.911 1182 441.501 1181.06 Q441.091 1180.12 440.435 1179.05 Q439.821 1177.99 439.001 1177.37 Q438.222 1176.76 437.074 1176.35 Q435.968 1175.94 434.615 1175.94 Q432.934 1175.94 431.172 1176.55 Q429.45 1177.13 427.237 1178.97 Q425.023 1180.77 423.179 1183.64 Q421.252 1186.68 419.777 1192.25 Q418.342 1197.78 418.342 1201.1 Q418.342 1205.29 420.269 1207.79 Q422.195 1210.25 425.884 1210.25 Q434.697 1210.25 443.1 1202.87 Z" fill="#000000" fill-rule="nonzero" fill-opacity="1" /><path clip-path="url(#clip660)" d="M639.655 1459.22 L628.055 1505.91 Q627.727 1507.38 627.727 1507.75 Q627.727 1508.24 627.85 1508.45 Q628.014 1508.69 628.916 1508.9 Q629.859 1509.1 631.744 1509.1 Q632.441 1509.1 632.687 1509.1 Q632.933 1509.1 633.302 1509.19 Q633.671 1509.27 633.794 1509.47 Q633.917 1509.68 633.917 1510.01 Q633.917 1511.69 632.441 1511.69 Q631.047 1511.69 628.137 1511.56 Q625.227 1511.44 623.792 1511.44 Q622.399 1511.44 619.57 1511.56 Q616.742 1511.69 615.39 1511.69 Q614.898 1511.69 614.611 1511.44 Q614.324 1511.23 614.324 1510.99 L614.283 1510.78 Q614.283 1509.64 614.734 1509.35 Q615.185 1509.1 616.209 1509.1 Q619.734 1509.06 620.759 1508.57 Q621.784 1508.08 622.276 1506.32 L626.047 1491.31 Q621.005 1496.36 616.127 1496.36 Q611.414 1496.36 608.216 1492.67 Q605.06 1488.94 605.06 1482.91 Q605.06 1478.44 606.823 1473.93 Q608.626 1469.43 611.414 1466.02 Q614.242 1462.62 617.931 1460.49 Q621.62 1458.32 625.268 1458.32 Q627.604 1458.32 629.695 1459.67 Q631.826 1461.02 633.097 1464.18 Q634.163 1462.38 636.13 1460.41 Q638.098 1458.4 638.794 1458.4 Q639.204 1458.4 639.409 1458.69 Q639.655 1458.93 639.655 1459.22 M631.908 1467.54 Q631.908 1467.13 631.58 1466.11 Q631.293 1465.08 630.638 1463.69 Q630.023 1462.25 628.588 1461.23 Q627.153 1460.16 625.268 1460.16 Q622.563 1460.16 619.652 1462.79 Q616.783 1465.37 614.898 1469.88 Q613.709 1472.83 612.356 1478.32 Q611.004 1483.81 611.004 1486.6 Q611.004 1487.26 611.045 1487.99 Q611.127 1488.73 611.455 1489.96 Q611.782 1491.19 612.274 1492.13 Q612.807 1493.08 613.873 1493.77 Q614.939 1494.47 616.373 1494.47 Q619.488 1494.47 622.604 1491.81 Q625.719 1489.14 627.03 1486.76 Q627.194 1486.52 629.531 1477.21 Q631.908 1467.91 631.908 1467.54 Z" fill="#000000" fill-rule="nonzero" fill-opacity="1" /><path clip-path="url(#clip660)" d="M681.238 1504.46 Q681.181 1504.74 681.066 1505.26 Q680.951 1505.75 680.435 1507.3 Q679.918 1508.85 679.229 1510.42 Q678.57 1511.97 677.278 1514.15 Q676.016 1516.31 674.466 1518.26 Q674.036 1518.77 673.95 1519.09 Q673.893 1519.38 673.893 1520.32 Q673.893 1526.29 675.7 1526.29 Q675.786 1526.29 675.93 1526.29 Q676.102 1526.26 676.532 1526.12 Q676.991 1525.95 677.393 1525.69 Q677.795 1525.4 678.254 1524.83 Q678.713 1524.23 679 1523.42 Q679.258 1522.85 679.775 1522.85 Q680.463 1522.85 680.463 1523.42 Q680.463 1524.45 679.029 1526.03 Q677.594 1527.61 675.528 1527.61 Q673.548 1527.61 672.142 1526.32 Q670.765 1525 670.191 1522.65 Q663.994 1527.61 657.796 1527.61 Q653.435 1527.61 650.853 1524.77 Q648.27 1521.9 648.27 1517.65 Q648.27 1513.58 650.508 1509.71 Q652.775 1505.83 656.448 1503.42 Q660.149 1500.98 664.08 1500.98 Q665.457 1500.98 666.777 1501.36 Q668.097 1501.7 669.417 1502.59 Q670.736 1503.48 671.712 1504.83 Q672.688 1506.18 673.29 1508.3 Q673.893 1510.42 673.893 1513.09 L673.893 1516.74 Q677.68 1511.94 679.66 1505.09 Q679.947 1504.05 680.119 1503.94 Q680.234 1503.85 680.521 1503.85 Q680.808 1503.85 680.98 1504.03 Q681.181 1504.17 681.209 1504.31 L681.238 1504.46 M669.962 1521.13 Q669.847 1520.12 669.847 1514.56 Q669.847 1513.49 669.847 1512.92 Q669.847 1512.32 669.79 1511.17 Q669.732 1510.02 669.617 1509.31 Q669.531 1508.59 669.331 1507.55 Q669.13 1506.52 668.843 1505.86 Q668.556 1505.2 668.097 1504.46 Q667.666 1503.71 667.093 1503.28 Q666.547 1502.85 665.744 1502.56 Q664.969 1502.28 664.022 1502.28 Q662.846 1502.28 661.612 1502.71 Q660.407 1503.11 658.858 1504.4 Q657.308 1505.66 656.017 1507.67 Q654.669 1509.79 653.636 1513.69 Q652.631 1517.57 652.631 1519.89 Q652.631 1522.82 653.98 1524.57 Q655.329 1526.29 657.911 1526.29 Q664.08 1526.29 669.962 1521.13 Z" fill="#000000" fill-rule="nonzero" fill-opacity="1" /></svg>
