<?xml version="1.0" encoding="utf-8"?>
<svg xmlns="http://www.w3.org/2000/svg" xmlns:xlink="http://www.w3.org/1999/xlink" width="600" height="400" viewBox="0 0 2400 1600">
<defs>
  <clipPath id="clip420">
    <rect x="0" y="0" width="2400" height="1600"/>
  </clipPath>
</defs>
<path clip-path="url(#clip420)" d="M0 1600 L2400 1600 L2400 0 L0 0  Z" fill="#ffffff" fill-rule="evenodd" fill-opacity="1"/>
<defs>
  <clipPath id="clip421">
    <rect x="480" y="0" width="1681" height="1600"/>
  </clipPath>
</defs>
<path clip-path="url(#clip420)" d="M186.274 719.602 L2352.76 719.602 L2352.76 123.472 L186.274 123.472  Z" fill="#ffffff" fill-rule="evenodd" fill-opacity="1"/>
<defs>
  <clipPath id="clip422">
    <rect x="186" y="123" width="2167" height="597"/>
  </clipPath>
</defs>
<polyline clip-path="url(#clip422)" style="stroke:#000000; stroke-linecap:round; stroke-linejoin:round; stroke-width:2; stroke-opacity:0.1; fill:none" points="247.59,719.602 247.59,123.472 "/>
<polyline clip-path="url(#clip422)" style="stroke:#000000; stroke-linecap:round; stroke-linejoin:round; stroke-width:2; stroke-opacity:0.1; fill:none" points="758.552,719.602 758.552,123.472 "/>
<polyline clip-path="url(#clip422)" style="stroke:#000000; stroke-linecap:round; stroke-linejoin:round; stroke-width:2; stroke-opacity:0.1; fill:none" points="1269.51,719.602 1269.51,123.472 "/>
<polyline clip-path="url(#clip422)" style="stroke:#000000; stroke-linecap:round; stroke-linejoin:round; stroke-width:2; stroke-opacity:0.1; fill:none" points="1780.48,719.602 1780.48,123.472 "/>
<polyline clip-path="url(#clip422)" style="stroke:#000000; stroke-linecap:round; stroke-linejoin:round; stroke-width:2; stroke-opacity:0.1; fill:none" points="2291.44,719.602 2291.44,123.472 "/>
<polyline clip-path="url(#clip422)" style="stroke:#000000; stroke-linecap:round; stroke-linejoin:round; stroke-width:2; stroke-opacity:0.1; fill:none" points="186.274,702.73 2352.76,702.73 "/>
<polyline clip-path="url(#clip422)" style="stroke:#000000; stroke-linecap:round; stroke-linejoin:round; stroke-width:2; stroke-opacity:0.1; fill:none" points="186.274,558.799 2352.76,558.799 "/>
<polyline clip-path="url(#clip422)" style="stroke:#000000; stroke-linecap:round; stroke-linejoin:round; stroke-width:2; stroke-opacity:0.1; fill:none" points="186.274,414.868 2352.76,414.868 "/>
<polyline clip-path="url(#clip422)" style="stroke:#000000; stroke-linecap:round; stroke-linejoin:round; stroke-width:2; stroke-opacity:0.1; fill:none" points="186.274,270.937 2352.76,270.937 "/>
<polyline clip-path="url(#clip422)" style="stroke:#000000; stroke-linecap:round; stroke-linejoin:round; stroke-width:2; stroke-opacity:0.1; fill:none" points="186.274,127.007 2352.76,127.007 "/>
<polyline clip-path="url(#clip420)" style="stroke:#000000; stroke-linecap:round; stroke-linejoin:round; stroke-width:4; stroke-opacity:1; fill:none" points="186.274,719.602 2352.76,719.602 "/>
<polyline clip-path="url(#clip420)" style="stroke:#000000; stroke-linecap:round; stroke-linejoin:round; stroke-width:4; stroke-opacity:1; fill:none" points="247.59,719.602 247.59,700.704 "/>
<polyline clip-path="url(#clip420)" style="stroke:#000000; stroke-linecap:round; stroke-linejoin:round; stroke-width:4; stroke-opacity:1; fill:none" points="758.552,719.602 758.552,700.704 "/>
<polyline clip-path="url(#clip420)" style="stroke:#000000; stroke-linecap:round; stroke-linejoin:round; stroke-width:4; stroke-opacity:1; fill:none" points="1269.51,719.602 1269.51,700.704 "/>
<polyline clip-path="url(#clip420)" style="stroke:#000000; stroke-linecap:round; stroke-linejoin:round; stroke-width:4; stroke-opacity:1; fill:none" points="1780.48,719.602 1780.48,700.704 "/>
<polyline clip-path="url(#clip420)" style="stroke:#000000; stroke-linecap:round; stroke-linejoin:round; stroke-width:4; stroke-opacity:1; fill:none" points="2291.44,719.602 2291.44,700.704 "/>
<path clip-path="url(#clip420)" d="M247.59 750.521 Q243.978 750.521 242.15 754.085 Q240.344 757.627 240.344 764.757 Q240.344 771.863 242.15 775.428 Q243.978 778.969 247.59 778.969 Q251.224 778.969 253.029 775.428 Q254.858 771.863 254.858 764.757 Q254.858 757.627 253.029 754.085 Q251.224 750.521 247.59 750.521 M247.59 746.817 Q253.4 746.817 256.455 751.423 Q259.534 756.007 259.534 764.757 Q259.534 773.483 256.455 778.09 Q253.4 782.673 247.59 782.673 Q241.779 782.673 238.701 778.09 Q235.645 773.483 235.645 764.757 Q235.645 756.007 238.701 751.423 Q241.779 746.817 247.59 746.817 Z" fill="#000000" fill-rule="nonzero" fill-opacity="1" /><path clip-path="url(#clip420)" d="M748.934 778.067 L756.573 778.067 L756.573 751.701 L748.263 753.368 L748.263 749.109 L756.527 747.442 L761.203 747.442 L761.203 778.067 L768.842 778.067 L768.842 782.002 L748.934 782.002 L748.934 778.067 Z" fill="#000000" fill-rule="nonzero" fill-opacity="1" /><path clip-path="url(#clip420)" d="M1264.17 778.067 L1280.49 778.067 L1280.49 782.002 L1258.54 782.002 L1258.54 778.067 Q1261.2 775.312 1265.79 770.683 Q1270.39 766.03 1271.58 764.687 Q1273.82 762.164 1274.7 760.428 Q1275.6 758.669 1275.6 756.979 Q1275.6 754.224 1273.66 752.488 Q1271.74 750.752 1268.64 750.752 Q1266.44 750.752 1263.98 751.516 Q1261.55 752.28 1258.77 753.831 L1258.77 749.109 Q1261.6 747.974 1264.05 747.396 Q1266.51 746.817 1268.54 746.817 Q1273.91 746.817 1277.11 749.502 Q1280.3 752.187 1280.3 756.678 Q1280.3 758.808 1279.49 760.729 Q1278.7 762.627 1276.6 765.22 Q1276.02 765.891 1272.92 769.108 Q1269.82 772.303 1264.17 778.067 Z" fill="#000000" fill-rule="nonzero" fill-opacity="1" /><path clip-path="url(#clip420)" d="M1784.73 763.368 Q1788.08 764.085 1789.96 766.354 Q1791.85 768.622 1791.85 771.956 Q1791.85 777.071 1788.34 779.872 Q1784.82 782.673 1778.34 782.673 Q1776.16 782.673 1773.85 782.233 Q1771.55 781.817 1769.1 780.96 L1769.1 776.446 Q1771.04 777.581 1773.36 778.159 Q1775.67 778.738 1778.2 778.738 Q1782.6 778.738 1784.89 777.002 Q1787.2 775.266 1787.2 771.956 Q1787.2 768.9 1785.05 767.187 Q1782.92 765.451 1779.1 765.451 L1775.07 765.451 L1775.07 761.608 L1779.29 761.608 Q1782.73 761.608 1784.56 760.243 Q1786.39 758.854 1786.39 756.261 Q1786.39 753.599 1784.49 752.187 Q1782.62 750.752 1779.1 750.752 Q1777.18 750.752 1774.98 751.169 Q1772.78 751.585 1770.14 752.465 L1770.14 748.298 Q1772.8 747.558 1775.12 747.187 Q1777.46 746.817 1779.52 746.817 Q1784.84 746.817 1787.94 749.247 Q1791.04 751.655 1791.04 755.775 Q1791.04 758.646 1789.4 760.636 Q1787.76 762.604 1784.73 763.368 Z" fill="#000000" fill-rule="nonzero" fill-opacity="1" /><path clip-path="url(#clip420)" d="M2294.45 751.516 L2282.64 769.965 L2294.45 769.965 L2294.45 751.516 M2293.22 747.442 L2299.1 747.442 L2299.1 769.965 L2304.03 769.965 L2304.03 773.854 L2299.1 773.854 L2299.1 782.002 L2294.45 782.002 L2294.45 773.854 L2278.85 773.854 L2278.85 769.34 L2293.22 747.442 Z" fill="#000000" fill-rule="nonzero" fill-opacity="1" /><polyline clip-path="url(#clip420)" style="stroke:#000000; stroke-linecap:round; stroke-linejoin:round; stroke-width:4; stroke-opacity:1; fill:none" points="186.274,719.602 186.274,123.472 "/>
<polyline clip-path="url(#clip420)" style="stroke:#000000; stroke-linecap:round; stroke-linejoin:round; stroke-width:4; stroke-opacity:1; fill:none" points="186.274,702.73 205.172,702.73 "/>
<polyline clip-path="url(#clip420)" style="stroke:#000000; stroke-linecap:round; stroke-linejoin:round; stroke-width:4; stroke-opacity:1; fill:none" points="186.274,558.799 205.172,558.799 "/>
<polyline clip-path="url(#clip420)" style="stroke:#000000; stroke-linecap:round; stroke-linejoin:round; stroke-width:4; stroke-opacity:1; fill:none" points="186.274,414.868 205.172,414.868 "/>
<polyline clip-path="url(#clip420)" style="stroke:#000000; stroke-linecap:round; stroke-linejoin:round; stroke-width:4; stroke-opacity:1; fill:none" points="186.274,270.937 205.172,270.937 "/>
<polyline clip-path="url(#clip420)" style="stroke:#000000; stroke-linecap:round; stroke-linejoin:round; stroke-width:4; stroke-opacity:1; fill:none" points="186.274,127.007 205.172,127.007 "/>
<path clip-path="url(#clip420)" d="M62.9365 688.529 Q59.3254 688.529 57.4967 692.094 Q55.6912 695.635 55.6912 702.765 Q55.6912 709.871 57.4967 713.436 Q59.3254 716.978 62.9365 716.978 Q66.5707 716.978 68.3763 713.436 Q70.205 709.871 70.205 702.765 Q70.205 695.635 68.3763 692.094 Q66.5707 688.529 62.9365 688.529 M62.9365 684.825 Q68.7467 684.825 71.8022 689.432 Q74.8809 694.015 74.8809 702.765 Q74.8809 711.492 71.8022 716.098 Q68.7467 720.682 62.9365 720.682 Q57.1264 720.682 54.0477 716.098 Q50.9921 711.492 50.9921 702.765 Q50.9921 694.015 54.0477 689.432 Q57.1264 684.825 62.9365 684.825 Z" fill="#000000" fill-rule="nonzero" fill-opacity="1" /><path clip-path="url(#clip420)" d="M83.0984 714.131 L87.9827 714.131 L87.9827 720.01 L83.0984 720.01 L83.0984 714.131 Z" fill="#000000" fill-rule="nonzero" fill-opacity="1" /><path clip-path="url(#clip420)" d="M108.168 688.529 Q104.557 688.529 102.728 692.094 Q100.922 695.635 100.922 702.765 Q100.922 709.871 102.728 713.436 Q104.557 716.978 108.168 716.978 Q111.802 716.978 113.608 713.436 Q115.436 709.871 115.436 702.765 Q115.436 695.635 113.608 692.094 Q111.802 688.529 108.168 688.529 M108.168 684.825 Q113.978 684.825 117.033 689.432 Q120.112 694.015 120.112 702.765 Q120.112 711.492 117.033 716.098 Q113.978 720.682 108.168 720.682 Q102.358 720.682 99.2789 716.098 Q96.2234 711.492 96.2234 702.765 Q96.2234 694.015 99.2789 689.432 Q102.358 684.825 108.168 684.825 Z" fill="#000000" fill-rule="nonzero" fill-opacity="1" /><path clip-path="url(#clip420)" d="M138.33 688.529 Q134.719 688.529 132.89 692.094 Q131.084 695.635 131.084 702.765 Q131.084 709.871 132.89 713.436 Q134.719 716.978 138.33 716.978 Q141.964 716.978 143.769 713.436 Q145.598 709.871 145.598 702.765 Q145.598 695.635 143.769 692.094 Q141.964 688.529 138.33 688.529 M138.33 684.825 Q144.14 684.825 147.195 689.432 Q150.274 694.015 150.274 702.765 Q150.274 711.492 147.195 716.098 Q144.14 720.682 138.33 720.682 Q132.519 720.682 129.441 716.098 Q126.385 711.492 126.385 702.765 Q126.385 694.015 129.441 689.432 Q132.519 684.825 138.33 684.825 Z" fill="#000000" fill-rule="nonzero" fill-opacity="1" /><path clip-path="url(#clip420)" d="M63.9319 544.598 Q60.3208 544.598 58.4921 548.163 Q56.6865 551.704 56.6865 558.834 Q56.6865 565.941 58.4921 569.505 Q60.3208 573.047 63.9319 573.047 Q67.5661 573.047 69.3717 569.505 Q71.2004 565.941 71.2004 558.834 Q71.2004 551.704 69.3717 548.163 Q67.5661 544.598 63.9319 544.598 M63.9319 540.894 Q69.742 540.894 72.7976 545.501 Q75.8763 550.084 75.8763 558.834 Q75.8763 567.561 72.7976 572.167 Q69.742 576.751 63.9319 576.751 Q58.1217 576.751 55.043 572.167 Q51.9875 567.561 51.9875 558.834 Q51.9875 550.084 55.043 545.501 Q58.1217 540.894 63.9319 540.894 Z" fill="#000000" fill-rule="nonzero" fill-opacity="1" /><path clip-path="url(#clip420)" d="M84.0938 570.2 L88.978 570.2 L88.978 576.079 L84.0938 576.079 L84.0938 570.2 Z" fill="#000000" fill-rule="nonzero" fill-opacity="1" /><path clip-path="url(#clip420)" d="M103.191 572.144 L119.51 572.144 L119.51 576.079 L97.566 576.079 L97.566 572.144 Q100.228 569.39 104.811 564.76 Q109.418 560.107 110.598 558.765 Q112.844 556.242 113.723 554.505 Q114.626 552.746 114.626 551.056 Q114.626 548.302 112.682 546.566 Q110.76 544.83 107.658 544.83 Q105.459 544.83 103.006 545.593 Q100.575 546.357 97.7974 547.908 L97.7974 543.186 Q100.621 542.052 103.075 541.473 Q105.529 540.894 107.566 540.894 Q112.936 540.894 116.131 543.58 Q119.325 546.265 119.325 550.755 Q119.325 552.885 118.515 554.806 Q117.728 556.704 115.621 559.297 Q115.043 559.968 111.941 563.186 Q108.839 566.38 103.191 572.144 Z" fill="#000000" fill-rule="nonzero" fill-opacity="1" /><path clip-path="url(#clip420)" d="M129.371 541.519 L147.728 541.519 L147.728 545.455 L133.654 545.455 L133.654 553.927 Q134.672 553.579 135.691 553.417 Q136.709 553.232 137.728 553.232 Q143.515 553.232 146.894 556.404 Q150.274 559.575 150.274 564.991 Q150.274 570.57 146.802 573.672 Q143.33 576.751 137.01 576.751 Q134.834 576.751 132.566 576.38 Q130.32 576.01 127.913 575.269 L127.913 570.57 Q129.996 571.704 132.219 572.26 Q134.441 572.815 136.918 572.815 Q140.922 572.815 143.26 570.709 Q145.598 568.603 145.598 564.991 Q145.598 561.38 143.26 559.274 Q140.922 557.167 136.918 557.167 Q135.043 557.167 133.168 557.584 Q131.316 558.001 129.371 558.88 L129.371 541.519 Z" fill="#000000" fill-rule="nonzero" fill-opacity="1" /><path clip-path="url(#clip420)" d="M62.9365 400.667 Q59.3254 400.667 57.4967 404.232 Q55.6912 407.774 55.6912 414.903 Q55.6912 422.01 57.4967 425.574 Q59.3254 429.116 62.9365 429.116 Q66.5707 429.116 68.3763 425.574 Q70.205 422.01 70.205 414.903 Q70.205 407.774 68.3763 404.232 Q66.5707 400.667 62.9365 400.667 M62.9365 396.963 Q68.7467 396.963 71.8022 401.57 Q74.8809 406.153 74.8809 414.903 Q74.8809 423.63 71.8022 428.236 Q68.7467 432.82 62.9365 432.82 Q57.1264 432.82 54.0477 428.236 Q50.9921 423.63 50.9921 414.903 Q50.9921 406.153 54.0477 401.57 Q57.1264 396.963 62.9365 396.963 Z" fill="#000000" fill-rule="nonzero" fill-opacity="1" /><path clip-path="url(#clip420)" d="M83.0984 426.269 L87.9827 426.269 L87.9827 432.148 L83.0984 432.148 L83.0984 426.269 Z" fill="#000000" fill-rule="nonzero" fill-opacity="1" /><path clip-path="url(#clip420)" d="M98.2141 397.588 L116.57 397.588 L116.57 401.524 L102.496 401.524 L102.496 409.996 Q103.515 409.649 104.534 409.487 Q105.552 409.301 106.571 409.301 Q112.358 409.301 115.737 412.473 Q119.117 415.644 119.117 421.061 Q119.117 426.639 115.645 429.741 Q112.172 432.82 105.853 432.82 Q103.677 432.82 101.409 432.449 Q99.1632 432.079 96.7558 431.338 L96.7558 426.639 Q98.8391 427.773 101.061 428.329 Q103.284 428.885 105.76 428.885 Q109.765 428.885 112.103 426.778 Q114.441 424.672 114.441 421.061 Q114.441 417.449 112.103 415.343 Q109.765 413.236 105.76 413.236 Q103.885 413.236 102.01 413.653 Q100.159 414.07 98.2141 414.949 L98.2141 397.588 Z" fill="#000000" fill-rule="nonzero" fill-opacity="1" /><path clip-path="url(#clip420)" d="M138.33 400.667 Q134.719 400.667 132.89 404.232 Q131.084 407.774 131.084 414.903 Q131.084 422.01 132.89 425.574 Q134.719 429.116 138.33 429.116 Q141.964 429.116 143.769 425.574 Q145.598 422.01 145.598 414.903 Q145.598 407.774 143.769 404.232 Q141.964 400.667 138.33 400.667 M138.33 396.963 Q144.14 396.963 147.195 401.57 Q150.274 406.153 150.274 414.903 Q150.274 423.63 147.195 428.236 Q144.14 432.82 138.33 432.82 Q132.519 432.82 129.441 428.236 Q126.385 423.63 126.385 414.903 Q126.385 406.153 129.441 401.57 Q132.519 396.963 138.33 396.963 Z" fill="#000000" fill-rule="nonzero" fill-opacity="1" /><path clip-path="url(#clip420)" d="M63.9319 256.736 Q60.3208 256.736 58.4921 260.301 Q56.6865 263.843 56.6865 270.972 Q56.6865 278.079 58.4921 281.643 Q60.3208 285.185 63.9319 285.185 Q67.5661 285.185 69.3717 281.643 Q71.2004 278.079 71.2004 270.972 Q71.2004 263.843 69.3717 260.301 Q67.5661 256.736 63.9319 256.736 M63.9319 253.032 Q69.742 253.032 72.7976 257.639 Q75.8763 262.222 75.8763 270.972 Q75.8763 279.699 72.7976 284.305 Q69.742 288.889 63.9319 288.889 Q58.1217 288.889 55.043 284.305 Q51.9875 279.699 51.9875 270.972 Q51.9875 262.222 55.043 257.639 Q58.1217 253.032 63.9319 253.032 Z" fill="#000000" fill-rule="nonzero" fill-opacity="1" /><path clip-path="url(#clip420)" d="M84.0938 282.338 L88.978 282.338 L88.978 288.217 L84.0938 288.217 L84.0938 282.338 Z" fill="#000000" fill-rule="nonzero" fill-opacity="1" /><path clip-path="url(#clip420)" d="M97.9826 253.657 L120.205 253.657 L120.205 255.648 L107.658 288.217 L102.774 288.217 L114.58 257.593 L97.9826 257.593 L97.9826 253.657 Z" fill="#000000" fill-rule="nonzero" fill-opacity="1" /><path clip-path="url(#clip420)" d="M129.371 253.657 L147.728 253.657 L147.728 257.593 L133.654 257.593 L133.654 266.065 Q134.672 265.718 135.691 265.556 Q136.709 265.37 137.728 265.37 Q143.515 265.37 146.894 268.542 Q150.274 271.713 150.274 277.13 Q150.274 282.708 146.802 285.81 Q143.33 288.889 137.01 288.889 Q134.834 288.889 132.566 288.518 Q130.32 288.148 127.913 287.407 L127.913 282.708 Q129.996 283.843 132.219 284.398 Q134.441 284.954 136.918 284.954 Q140.922 284.954 143.26 282.847 Q145.598 280.741 145.598 277.13 Q145.598 273.518 143.26 271.412 Q140.922 269.306 136.918 269.306 Q135.043 269.306 133.168 269.722 Q131.316 270.139 129.371 271.019 L129.371 253.657 Z" fill="#000000" fill-rule="nonzero" fill-opacity="1" /><path clip-path="url(#clip420)" d="M53.7467 140.351 L61.3856 140.351 L61.3856 113.986 L53.0754 115.652 L53.0754 111.393 L61.3393 109.727 L66.0152 109.727 L66.0152 140.351 L73.654 140.351 L73.654 144.287 L53.7467 144.287 L53.7467 140.351 Z" fill="#000000" fill-rule="nonzero" fill-opacity="1" /><path clip-path="url(#clip420)" d="M83.0984 138.407 L87.9827 138.407 L87.9827 144.287 L83.0984 144.287 L83.0984 138.407 Z" fill="#000000" fill-rule="nonzero" fill-opacity="1" /><path clip-path="url(#clip420)" d="M108.168 112.805 Q104.557 112.805 102.728 116.37 Q100.922 119.912 100.922 127.041 Q100.922 134.148 102.728 137.713 Q104.557 141.254 108.168 141.254 Q111.802 141.254 113.608 137.713 Q115.436 134.148 115.436 127.041 Q115.436 119.912 113.608 116.37 Q111.802 112.805 108.168 112.805 M108.168 109.102 Q113.978 109.102 117.033 113.708 Q120.112 118.291 120.112 127.041 Q120.112 135.768 117.033 140.375 Q113.978 144.958 108.168 144.958 Q102.358 144.958 99.2789 140.375 Q96.2234 135.768 96.2234 127.041 Q96.2234 118.291 99.2789 113.708 Q102.358 109.102 108.168 109.102 Z" fill="#000000" fill-rule="nonzero" fill-opacity="1" /><path clip-path="url(#clip420)" d="M138.33 112.805 Q134.719 112.805 132.89 116.37 Q131.084 119.912 131.084 127.041 Q131.084 134.148 132.89 137.713 Q134.719 141.254 138.33 141.254 Q141.964 141.254 143.769 137.713 Q145.598 134.148 145.598 127.041 Q145.598 119.912 143.769 116.37 Q141.964 112.805 138.33 112.805 M138.33 109.102 Q144.14 109.102 147.195 113.708 Q150.274 118.291 150.274 127.041 Q150.274 135.768 147.195 140.375 Q144.14 144.958 138.33 144.958 Q132.519 144.958 129.441 140.375 Q126.385 135.768 126.385 127.041 Q126.385 118.291 129.441 113.708 Q132.519 109.102 138.33 109.102 Z" fill="#000000" fill-rule="nonzero" fill-opacity="1" /><path clip-path="url(#clip420)" d="M982.636 21.4656 L982.636 44.1911 L992.926 44.1911 Q998.638 44.1911 1001.76 41.234 Q1004.88 38.2768 1004.88 32.8081 Q1004.88 27.3799 1001.76 24.4227 Q998.638 21.4656 992.926 21.4656 L982.636 21.4656 M974.454 14.7411 L992.926 14.7411 Q1003.09 14.7411 1008.28 19.3591 Q1013.5 23.9366 1013.5 32.8081 Q1013.5 41.7606 1008.28 46.3381 Q1003.09 50.9156 992.926 50.9156 L982.636 50.9156 L982.636 75.2211 L974.454 75.2211 L974.454 14.7411 Z" fill="#000000" fill-rule="nonzero" fill-opacity="1" /><path clip-path="url(#clip420)" d="M1032.67 21.4656 L1032.67 68.4966 L1042.55 68.4966 Q1055.07 68.4966 1060.86 62.8253 Q1066.69 57.154 1066.69 44.9203 Q1066.69 32.7676 1060.86 27.1368 Q1055.07 21.4656 1042.55 21.4656 L1032.67 21.4656 M1024.48 14.7411 L1041.29 14.7411 Q1058.87 14.7411 1067.1 22.0732 Q1075.32 29.3648 1075.32 44.9203 Q1075.32 60.5568 1067.06 67.8889 Q1058.79 75.2211 1041.29 75.2211 L1024.48 75.2211 L1024.48 14.7411 Z" fill="#000000" fill-rule="nonzero" fill-opacity="1" /><path clip-path="url(#clip420)" d="M1088.37 14.7411 L1123.12 14.7411 L1123.12 21.6276 L1096.55 21.6276 L1096.55 39.4516 L1120.53 39.4516 L1120.53 46.3381 L1096.55 46.3381 L1096.55 75.2211 L1088.37 75.2211 L1088.37 14.7411 Z" fill="#000000" fill-rule="nonzero" fill-opacity="1" /><path clip-path="url(#clip420)" d="M1179.71 35.0766 Q1173.72 35.0766 1170.23 39.7757 Q1166.75 44.4342 1166.75 52.5765 Q1166.75 60.7188 1170.19 65.4179 Q1173.68 70.0764 1179.71 70.0764 Q1185.67 70.0764 1189.15 65.3774 Q1192.64 60.6783 1192.64 52.5765 Q1192.64 44.5152 1189.15 39.8162 Q1185.67 35.0766 1179.71 35.0766 M1179.71 28.7572 Q1189.44 28.7572 1194.98 35.0766 Q1200.53 41.396 1200.53 52.5765 Q1200.53 63.7165 1194.98 70.0764 Q1189.44 76.3958 1179.71 76.3958 Q1169.95 76.3958 1164.4 70.0764 Q1158.89 63.7165 1158.89 52.5765 Q1158.89 41.396 1164.4 35.0766 Q1169.95 28.7572 1179.71 28.7572 Z" fill="#000000" fill-rule="nonzero" fill-opacity="1" /><path clip-path="url(#clip420)" d="M1235.86 12.189 L1235.86 18.3869 L1228.73 18.3869 Q1224.72 18.3869 1223.14 20.0072 Q1221.6 21.6276 1221.6 25.8405 L1221.6 29.8509 L1233.87 29.8509 L1233.87 35.6437 L1221.6 35.6437 L1221.6 75.2211 L1214.11 75.2211 L1214.11 35.6437 L1206.98 35.6437 L1206.98 29.8509 L1214.11 29.8509 L1214.11 26.6912 Q1214.11 19.116 1217.63 15.6728 Q1221.15 12.189 1228.81 12.189 L1235.86 12.189 Z" fill="#000000" fill-rule="nonzero" fill-opacity="1" /><path clip-path="url(#clip420)" d="M1260.65 75.2211 L1260.65 72.6387 L1261.88 72.6387 Q1266.35 72.6387 1267.74 72.0239 Q1269.18 71.3681 1269.3 68.9907 L1269.3 24.1894 Q1269.22 22.017 1267.82 21.3612 Q1266.43 20.6643 1261.88 20.6643 L1260.65 20.6643 L1260.65 18.123 Q1264.59 18.287 1272.45 18.287 Q1275.65 18.287 1278.4 18.205 Q1281.19 18.123 1281.64 18.123 L1304.47 18.123 L1306.8 37.0191 L1304.63 37.0191 Q1303.98 31.8954 1303.24 29.2311 Q1302.54 26.5258 1300.82 24.3534 Q1299.1 22.1809 1296.23 21.4431 Q1293.36 20.6643 1288.52 20.6643 L1281.35 20.6643 Q1278.64 20.6643 1277.7 21.1972 Q1276.76 21.7301 1276.76 23.9435 L1276.76 68.7448 Q1276.76 71.3271 1278.48 71.9829 Q1280.2 72.6387 1285.98 72.6387 L1287.5 72.6387 L1287.5 75.2211 Q1280.37 74.9751 1273.15 74.9751 L1272.62 74.9751 Q1267.37 74.9751 1260.65 75.2211 Z" fill="#000000" fill-rule="nonzero" fill-opacity="1" /><path clip-path="url(#clip420)" d="M1318.66 54.2346 Q1318.66 40.0523 1323.95 28.6163 Q1326.2 23.8205 1329.36 19.8036 Q1332.52 15.7866 1334.61 14.0241 Q1336.7 12.2615 1337.27 12.2615 Q1338.09 12.2615 1338.13 13.0813 Q1338.13 13.4912 1337.02 14.5159 Q1323.5 28.2883 1323.54 54.2346 Q1323.54 80.2627 1336.7 93.5023 Q1338.13 94.9369 1338.13 95.3878 Q1338.13 96.2076 1337.27 96.2076 Q1336.7 96.2076 1334.69 94.527 Q1332.68 92.8465 1329.56 88.9935 Q1326.45 85.1405 1324.19 80.4267 Q1318.66 68.9907 1318.66 54.2346 Z" fill="#000000" fill-rule="nonzero" fill-opacity="1" /><path clip-path="url(#clip420)" d="M1346.19 61.6946 Q1346.19 59.1943 1347.54 58.2515 Q1348.9 57.2678 1350.33 57.2678 Q1352.26 57.2678 1353.36 58.4974 Q1354.51 59.6861 1354.51 61.3667 Q1354.51 63.0472 1353.36 64.2769 Q1352.26 65.4656 1350.33 65.4656 Q1349.39 65.4656 1348.9 65.3017 Q1350 69.1546 1353.36 71.9419 Q1356.77 74.7292 1361.23 74.7292 Q1366.85 74.7292 1370.21 69.2776 Q1372.22 65.7525 1372.22 57.7596 Q1372.22 50.7095 1370.7 47.1844 Q1368.37 41.8148 1363.57 41.8148 Q1356.77 41.8148 1352.75 47.6763 Q1352.26 48.4141 1351.68 48.4551 Q1350.86 48.4551 1350.66 48.0042 Q1350.49 47.5123 1350.49 46.2416 L1350.49 21.4021 Q1350.49 19.3937 1351.31 19.3937 Q1351.64 19.3937 1352.34 19.6396 Q1357.63 21.976 1363.49 22.017 Q1369.51 22.017 1374.92 19.5576 Q1375.33 19.3117 1375.58 19.3117 Q1376.4 19.3117 1376.44 20.2544 Q1376.44 20.5824 1375.74 21.5661 Q1375.09 22.5089 1373.65 23.7795 Q1372.22 25.0092 1370.37 26.1979 Q1368.53 27.3866 1365.82 28.2064 Q1363.16 28.9852 1360.21 28.9852 Q1356.68 28.9852 1353.08 27.8784 L1353.08 44.2332 Q1357.42 39.9703 1363.73 39.9703 Q1370.46 39.9703 1375.09 45.3809 Q1379.72 50.7915 1379.72 58.3335 Q1379.72 66.2444 1374.23 71.655 Q1368.78 77.0656 1361.4 77.0656 Q1354.67 77.0656 1350.41 72.2698 Q1346.19 67.4741 1346.19 61.6946 Z" fill="#000000" fill-rule="nonzero" fill-opacity="1" /><path clip-path="url(#clip420)" d="M1388.95 73.8684 Q1387.76 72.5158 1387.76 70.7532 Q1387.76 68.9907 1388.91 67.679 Q1390.1 66.3264 1392.23 66.3264 Q1394.73 66.3264 1396.16 68.7448 Q1397.6 71.1221 1397.6 75.1391 Q1397.6 79.4839 1395.84 83.5009 Q1394.07 87.5588 1392.35 89.4853 Q1390.63 91.4118 1389.93 91.4118 Q1389.11 91.4118 1389.11 90.5101 Q1389.11 90.1821 1389.69 89.5673 Q1395.71 83.091 1395.75 75.1391 Q1395.75 73.8684 1395.59 73.8684 L1395.38 74.0324 Q1393.95 75.2211 1392.23 75.2211 Q1390.14 75.2211 1388.95 73.8684 Z" fill="#000000" fill-rule="nonzero" fill-opacity="1" /><path clip-path="url(#clip420)" d="M1424.09 48.3731 Q1424.09 36.0353 1427.2 29.3131 Q1431.55 19.3117 1441.79 19.3117 Q1443.97 19.3117 1446.22 19.9265 Q1448.52 20.5004 1451.39 22.7548 Q1454.3 25.0092 1456.06 28.6982 Q1459.42 35.8304 1459.42 48.3731 Q1459.42 60.6289 1456.3 67.3101 Q1451.76 77.0656 1441.71 77.0656 Q1437.94 77.0656 1434.09 75.1391 Q1430.28 73.2126 1427.86 68.5808 Q1424.09 61.6536 1424.09 48.3731 M1431.06 47.3484 Q1431.06 60.014 1431.96 65.0557 Q1432.98 70.5073 1435.77 72.8847 Q1438.6 75.2211 1441.71 75.2211 Q1445.07 75.2211 1447.86 72.7207 Q1450.69 70.1794 1451.55 64.7278 Q1452.49 59.3582 1452.45 47.3484 Q1452.45 35.6664 1451.63 30.9936 Q1450.53 25.5421 1447.57 23.3696 Q1444.66 21.1562 1441.71 21.1562 Q1440.61 21.1562 1439.42 21.4841 Q1438.27 21.812 1436.59 22.7548 Q1434.91 23.6975 1433.6 26.0339 Q1432.33 28.3703 1431.71 31.8954 Q1431.06 36.4452 1431.06 47.3484 Z" fill="#000000" fill-rule="nonzero" fill-opacity="1" /><path clip-path="url(#clip420)" d="M1466.93 73.8684 Q1465.66 72.5158 1465.66 70.7532 Q1465.66 68.9907 1466.93 67.72 Q1468.2 66.4084 1470.13 66.4084 Q1471.97 66.4084 1473.2 67.638 Q1474.47 68.8267 1474.47 70.7942 Q1474.47 72.7207 1473.12 73.9914 Q1471.81 75.2211 1470.13 75.2211 Q1468.2 75.2211 1466.93 73.8684 Z" fill="#000000" fill-rule="nonzero" fill-opacity="1" /><path clip-path="url(#clip420)" d="M1488.76 75.2211 Q1488.76 73.7045 1488.88 73.2536 Q1489.04 72.8027 1489.7 72.1059 L1505.81 54.1526 Q1514.62 44.2332 1514.62 35.5844 Q1514.62 29.9689 1511.67 25.952 Q1508.76 21.935 1503.39 21.935 Q1499.7 21.935 1496.59 24.1894 Q1493.47 26.4438 1492.04 30.4608 Q1492.28 30.3788 1493.14 30.3788 Q1495.23 30.3788 1496.38 31.6904 Q1497.57 33.0021 1497.57 34.7646 Q1497.57 37.0191 1496.09 38.1258 Q1494.66 39.1915 1493.22 39.1915 Q1492.65 39.1915 1491.87 39.0685 Q1491.13 38.9456 1489.95 37.7979 Q1488.76 36.6092 1488.76 34.5187 Q1488.76 28.6572 1493.18 23.9845 Q1497.65 19.3117 1504.46 19.3117 Q1512.16 19.3117 1517.2 23.9025 Q1522.29 28.4523 1522.29 35.5844 Q1522.29 38.0848 1521.51 40.3802 Q1520.77 42.6346 1519.74 44.3971 Q1518.76 46.1597 1516.06 48.9879 Q1513.35 51.8162 1511.18 53.8247 Q1509.01 55.8331 1504.13 60.096 L1495.23 68.7448 L1510.36 68.7448 Q1517.74 68.7448 1518.31 68.0889 Q1519.13 66.9002 1520.15 60.6289 L1522.29 60.6289 L1519.91 75.2211 L1488.76 75.2211 Z" fill="#000000" fill-rule="nonzero" fill-opacity="1" /><path clip-path="url(#clip420)" d="M1532.34 95.3878 Q1532.34 94.9779 1533.41 93.9532 Q1546.94 80.1808 1546.94 54.2346 Q1546.94 28.2064 1533.94 15.0488 Q1532.34 13.5322 1532.34 13.0813 Q1532.34 12.2615 1533.16 12.2615 Q1533.74 12.2615 1535.75 13.9421 Q1537.79 15.6227 1540.87 19.4756 Q1543.98 23.3286 1546.28 28.0424 Q1551.81 39.4784 1551.81 54.2346 Q1551.81 68.4168 1546.53 79.8529 Q1544.27 84.6486 1541.11 88.6655 Q1537.96 92.6825 1535.87 94.445 Q1533.78 96.2076 1533.16 96.2076 Q1532.34 96.2076 1532.34 95.3878 Z" fill="#000000" fill-rule="nonzero" fill-opacity="1" /><polyline clip-path="url(#clip422)" style="stroke:#009af9; stroke-linecap:round; stroke-linejoin:round; stroke-width:4; stroke-opacity:1; fill:none" points="247.59,702.73 268.028,702.573 288.467,700.672 308.905,694.199 329.344,680.655 349.782,658.606 370.221,627.819 390.659,589.106 411.098,544.029 431.536,494.601 451.975,443.011 472.413,391.404 492.852,341.727 513.29,295.631 533.729,254.418 554.167,219.032 574.606,190.069 595.044,167.812 615.483,152.274 635.921,143.246 656.36,140.344 676.798,143.059 697.237,150.795 717.675,162.909 738.114,178.739 758.552,197.627 778.991,218.942 799.429,242.094 819.868,266.54 840.306,291.792 860.745,317.42 881.183,343.052 901.622,368.375 922.06,393.127 942.499,417.099 962.937,440.125 983.376,462.082 1003.81,482.883 1024.25,502.473 1044.69,520.821 1065.13,537.923 1085.57,553.79 1106.01,568.449 1126.45,581.939 1146.88,594.31 1167.32,605.614 1187.76,615.911 1208.2,625.263 1228.64,633.733 1249.08,641.384 1269.51,648.277 1289.95,654.472 1310.39,660.029 1330.83,665.001 1351.27,669.442 1371.71,673.401 1392.15,676.923 1412.58,680.051 1433.02,682.824 1453.46,685.279 1473.9,687.449 1494.34,689.364 1514.78,691.051 1535.22,692.536 1555.65,693.841 1576.09,694.987 1596.53,695.992 1616.97,696.871 1637.41,697.64 1657.85,698.312 1678.29,698.899 1698.72,699.41 1719.16,699.856 1739.6,700.243 1760.04,700.58 1780.48,700.873 1800.92,701.127 1821.35,701.347 1841.79,701.538 1862.23,701.703 1882.67,701.846 1903.11,701.969 1923.55,702.076 1943.99,702.168 1964.42,702.247 1984.86,702.316 2005.3,702.374 2025.74,702.425 2046.18,702.469 2066.62,702.506 2087.06,702.539 2107.49,702.566 2127.93,702.59 2148.37,702.61 2168.81,702.628 2189.25,702.643 2209.69,702.656 2230.12,702.666 2250.56,702.676 2271,702.684 2291.44,702.691 "/>
<path clip-path="url(#clip422)" d="M247.59 702.73 L268.028 702.73 L288.467 702.73 L308.905 702.73 L329.344 702.73 L349.782 702.73 L370.221 702.73 L390.659 702.73 L411.098 702.73 L431.536 702.73 L451.975 702.73 L472.413 702.73 L492.852 702.73 L513.29 702.73 L533.729 702.73 L554.167 702.73 L574.606 702.73 L595.044 702.73 L615.483 702.73 L635.921 702.73 L635.921 143.246 L615.483 152.274 L595.044 167.812 L574.606 190.069 L554.167 219.032 L533.729 254.418 L513.29 295.631 L492.852 341.727 L472.413 391.404 L451.975 443.011 L431.536 494.601 L411.098 544.029 L390.659 589.106 L370.221 627.819 L349.782 658.606 L329.344 680.655 L308.905 694.199 L288.467 700.672 L268.028 702.573 L247.59 702.73  Z" fill="#009af9" fill-rule="evenodd" fill-opacity="0.2"/>
<polyline clip-path="url(#clip422)" style="stroke:#009af9; stroke-linecap:round; stroke-linejoin:round; stroke-width:4; stroke-opacity:1; fill:none" points="247.59,702.73 268.028,702.73 288.467,702.73 308.905,702.73 329.344,702.73 349.782,702.73 370.221,702.73 390.659,702.73 411.098,702.73 431.536,702.73 451.975,702.73 472.413,702.73 492.852,702.73 513.29,702.73 533.729,702.73 554.167,702.73 574.606,702.73 595.044,702.73 615.483,702.73 635.921,702.73 "/>
<path clip-path="url(#clip420)" d="M1595.96 247.023 L2280.54 247.023 L2280.54 143.343 L1595.96 143.343  Z" fill="#ffffff" fill-rule="evenodd" fill-opacity="1"/>
<polyline clip-path="url(#clip420)" style="stroke:#000000; stroke-linecap:round; stroke-linejoin:round; stroke-width:4; stroke-opacity:1; fill:none" points="1595.96,247.023 2280.54,247.023 2280.54,143.343 1595.96,143.343 1595.96,247.023 "/>
<path clip-path="url(#clip420)" d="M1620.04 215.919 L1764.47 215.919 L1764.47 174.447 L1620.04 174.447 L1620.04 215.919  Z" fill="#009af9" fill-rule="evenodd" fill-opacity="0.2"/>
<polyline clip-path="url(#clip420)" style="stroke:#009af9; stroke-linecap:round; stroke-linejoin:round; stroke-width:4; stroke-opacity:1; fill:none" points="1620.04,174.447 1764.47,174.447 "/>
<path clip-path="url(#clip420)" d="M1815.45 187.046 Q1815.41 187.281 1815.31 187.702 Q1815.22 188.1 1814.8 189.365 Q1814.38 190.63 1813.81 191.918 Q1813.27 193.183 1812.22 194.963 Q1811.19 196.72 1809.93 198.313 Q1809.57 198.734 1809.5 198.992 Q1809.46 199.226 1809.46 199.999 Q1809.46 204.871 1810.93 204.871 Q1811 204.871 1811.12 204.871 Q1811.26 204.848 1811.61 204.73 Q1811.99 204.59 1812.31 204.379 Q1812.64 204.145 1813.02 203.676 Q1813.39 203.185 1813.63 202.529 Q1813.84 202.06 1814.26 202.06 Q1814.82 202.06 1814.82 202.529 Q1814.82 203.372 1813.65 204.66 Q1812.48 205.948 1810.79 205.948 Q1809.18 205.948 1808.03 204.894 Q1806.9 203.817 1806.44 201.896 Q1801.38 205.948 1796.32 205.948 Q1792.76 205.948 1790.65 203.63 Q1788.54 201.287 1788.54 197.821 Q1788.54 194.495 1790.37 191.333 Q1792.22 188.171 1795.22 186.203 Q1798.24 184.212 1801.45 184.212 Q1802.57 184.212 1803.65 184.517 Q1804.73 184.798 1805.8 185.524 Q1806.88 186.25 1807.68 187.351 Q1808.47 188.452 1808.96 190.185 Q1809.46 191.918 1809.46 194.097 L1809.46 197.071 Q1812.55 193.16 1814.16 187.562 Q1814.4 186.719 1814.54 186.625 Q1814.63 186.555 1814.87 186.555 Q1815.1 186.555 1815.24 186.695 Q1815.41 186.812 1815.43 186.929 L1815.45 187.046 M1806.25 200.655 Q1806.15 199.835 1806.15 195.291 Q1806.15 194.425 1806.15 193.956 Q1806.15 193.464 1806.11 192.527 Q1806.06 191.59 1805.97 191.005 Q1805.9 190.419 1805.73 189.576 Q1805.57 188.733 1805.33 188.194 Q1805.1 187.655 1804.73 187.046 Q1804.37 186.438 1803.91 186.086 Q1803.46 185.735 1802.8 185.501 Q1802.17 185.266 1801.4 185.266 Q1800.44 185.266 1799.43 185.618 Q1798.45 185.946 1797.18 187 Q1795.92 188.03 1794.86 189.67 Q1793.76 191.403 1792.92 194.589 Q1792.1 197.751 1792.1 199.648 Q1792.1 202.037 1793.2 203.466 Q1794.3 204.871 1796.41 204.871 Q1801.45 204.871 1806.25 200.655 Z" fill="#000000" fill-rule="nonzero" fill-opacity="1" /><path clip-path="url(#clip420)" d="M1839.02 183.882 L1868.69 183.882 L1868.69 187.771 L1839.02 187.771 L1839.02 183.882 M1839.02 193.326 L1868.69 193.326 L1868.69 197.262 L1839.02 197.262 L1839.02 193.326 Z" fill="#000000" fill-rule="nonzero" fill-opacity="1" /><path clip-path="url(#clip420)" d="M1904.99 175.456 L1898.65 192.655 L1911.35 192.655 L1904.99 175.456 M1902.35 170.85 L1907.65 170.85 L1920.82 205.41 L1915.96 205.41 L1912.81 196.544 L1897.23 196.544 L1894.09 205.41 L1889.15 205.41 L1902.35 170.85 Z" fill="#000000" fill-rule="nonzero" fill-opacity="1" /><path clip-path="url(#clip420)" d="M1940.71 183.465 Q1939.99 183.049 1939.13 182.864 Q1938.3 182.655 1937.28 182.655 Q1933.67 182.655 1931.72 185.016 Q1929.8 187.354 1929.8 191.752 L1929.8 205.41 L1925.52 205.41 L1925.52 179.484 L1929.8 179.484 L1929.8 183.512 Q1931.15 181.151 1933.3 180.016 Q1935.45 178.859 1938.53 178.859 Q1938.97 178.859 1939.5 178.928 Q1940.03 178.975 1940.68 179.09 L1940.71 183.465 Z" fill="#000000" fill-rule="nonzero" fill-opacity="1" /><path clip-path="url(#clip420)" d="M1966.31 191.382 L1966.31 193.465 L1946.72 193.465 Q1947 197.863 1949.36 200.178 Q1951.75 202.47 1955.98 202.47 Q1958.44 202.47 1960.73 201.868 Q1963.04 201.266 1965.31 200.062 L1965.31 204.09 Q1963.02 205.062 1960.61 205.572 Q1958.21 206.081 1955.73 206.081 Q1949.53 206.081 1945.89 202.47 Q1942.28 198.859 1942.28 192.701 Q1942.28 186.336 1945.71 182.609 Q1949.15 178.859 1954.99 178.859 Q1960.22 178.859 1963.25 182.239 Q1966.31 185.595 1966.31 191.382 M1962.05 190.132 Q1962 186.637 1960.08 184.553 Q1958.18 182.47 1955.03 182.47 Q1951.47 182.47 1949.32 184.484 Q1947.19 186.498 1946.86 190.155 L1962.05 190.132 Z" fill="#000000" fill-rule="nonzero" fill-opacity="1" /><path clip-path="url(#clip420)" d="M1985.08 192.377 Q1979.92 192.377 1977.93 193.558 Q1975.94 194.738 1975.94 197.586 Q1975.94 199.854 1977.42 201.197 Q1978.92 202.516 1981.49 202.516 Q1985.03 202.516 1987.16 200.016 Q1989.32 197.493 1989.32 193.326 L1989.32 192.377 L1985.08 192.377 M1993.58 190.618 L1993.58 205.41 L1989.32 205.41 L1989.32 201.475 Q1987.86 203.836 1985.68 204.97 Q1983.51 206.081 1980.36 206.081 Q1976.38 206.081 1974.02 203.859 Q1971.68 201.613 1971.68 197.863 Q1971.68 193.488 1974.59 191.266 Q1977.53 189.044 1983.34 189.044 L1989.32 189.044 L1989.32 188.627 Q1989.32 185.688 1987.37 184.09 Q1985.45 182.47 1981.96 182.47 Q1979.73 182.47 1977.63 183.002 Q1975.52 183.535 1973.58 184.6 L1973.58 180.664 Q1975.91 179.762 1978.11 179.322 Q1980.31 178.859 1982.4 178.859 Q1988.02 178.859 1990.8 181.776 Q1993.58 184.692 1993.58 190.618 Z" fill="#000000" fill-rule="nonzero" fill-opacity="1" /><path clip-path="url(#clip420)" d="M2016.98 195.178 L2016.98 179.484 L2021.24 179.484 L2021.24 195.016 Q2021.24 198.697 2022.67 200.549 Q2024.11 202.377 2026.98 202.377 Q2030.43 202.377 2032.42 200.178 Q2034.43 197.979 2034.43 194.183 L2034.43 179.484 L2038.69 179.484 L2038.69 205.41 L2034.43 205.41 L2034.43 201.428 Q2032.88 203.789 2030.82 204.947 Q2028.78 206.081 2026.08 206.081 Q2021.61 206.081 2019.29 203.303 Q2016.98 200.525 2016.98 195.178 M2027.7 178.859 L2027.7 178.859 Z" fill="#000000" fill-rule="nonzero" fill-opacity="1" /><path clip-path="url(#clip420)" d="M2069.02 189.762 L2069.02 205.41 L2064.76 205.41 L2064.76 189.901 Q2064.76 186.22 2063.32 184.391 Q2061.89 182.563 2059.02 182.563 Q2055.57 182.563 2053.58 184.762 Q2051.58 186.961 2051.58 190.757 L2051.58 205.41 L2047.3 205.41 L2047.3 179.484 L2051.58 179.484 L2051.58 183.512 Q2053.11 181.174 2055.17 180.016 Q2057.26 178.859 2059.96 178.859 Q2064.43 178.859 2066.72 181.637 Q2069.02 184.391 2069.02 189.762 Z" fill="#000000" fill-rule="nonzero" fill-opacity="1" /><path clip-path="url(#clip420)" d="M2094.57 183.419 L2094.57 169.391 L2098.83 169.391 L2098.83 205.41 L2094.57 205.41 L2094.57 201.521 Q2093.23 203.836 2091.17 204.97 Q2089.13 206.081 2086.26 206.081 Q2081.56 206.081 2078.6 202.331 Q2075.66 198.581 2075.66 192.47 Q2075.66 186.359 2078.6 182.609 Q2081.56 178.859 2086.26 178.859 Q2089.13 178.859 2091.17 179.993 Q2093.23 181.104 2094.57 183.419 M2080.06 192.47 Q2080.06 197.169 2081.98 199.854 Q2083.92 202.516 2087.3 202.516 Q2090.68 202.516 2092.63 199.854 Q2094.57 197.169 2094.57 192.47 Q2094.57 187.771 2092.63 185.109 Q2090.68 182.424 2087.3 182.424 Q2083.92 182.424 2081.98 185.109 Q2080.06 187.771 2080.06 192.47 Z" fill="#000000" fill-rule="nonzero" fill-opacity="1" /><path clip-path="url(#clip420)" d="M2129.78 191.382 L2129.78 193.465 L2110.2 193.465 Q2110.47 197.863 2112.83 200.178 Q2115.22 202.47 2119.45 202.47 Q2121.91 202.47 2124.2 201.868 Q2126.51 201.266 2128.78 200.062 L2128.78 204.09 Q2126.49 205.062 2124.08 205.572 Q2121.68 206.081 2119.2 206.081 Q2113 206.081 2109.36 202.47 Q2105.75 198.859 2105.75 192.701 Q2105.75 186.336 2109.18 182.609 Q2112.63 178.859 2118.46 178.859 Q2123.69 178.859 2126.72 182.239 Q2129.78 185.595 2129.78 191.382 M2125.52 190.132 Q2125.47 186.637 2123.55 184.553 Q2121.65 182.47 2118.51 182.47 Q2114.94 182.47 2112.79 184.484 Q2110.66 186.498 2110.33 190.155 L2125.52 190.132 Z" fill="#000000" fill-rule="nonzero" fill-opacity="1" /><path clip-path="url(#clip420)" d="M2151.79 183.465 Q2151.07 183.049 2150.22 182.864 Q2149.39 182.655 2148.37 182.655 Q2144.76 182.655 2142.81 185.016 Q2140.89 187.354 2140.89 191.752 L2140.89 205.41 L2136.61 205.41 L2136.61 179.484 L2140.89 179.484 L2140.89 183.512 Q2142.23 181.151 2144.39 180.016 Q2146.54 178.859 2149.62 178.859 Q2150.06 178.859 2150.59 178.928 Q2151.12 178.975 2151.77 179.09 L2151.79 183.465 Z" fill="#000000" fill-rule="nonzero" fill-opacity="1" /><path clip-path="url(#clip420)" d="M2176.19 174.692 L2176.19 187.678 L2182.07 187.678 Q2185.33 187.678 2187.12 185.988 Q2188.9 184.299 2188.9 181.174 Q2188.9 178.072 2187.12 176.382 Q2185.33 174.692 2182.07 174.692 L2176.19 174.692 M2171.51 170.85 L2182.07 170.85 Q2187.88 170.85 2190.84 173.489 Q2193.83 176.104 2193.83 181.174 Q2193.83 186.289 2190.84 188.905 Q2187.88 191.521 2182.07 191.521 L2176.19 191.521 L2176.19 205.41 L2171.51 205.41 L2171.51 170.85 Z" fill="#000000" fill-rule="nonzero" fill-opacity="1" /><path clip-path="url(#clip420)" d="M2204.78 174.692 L2204.78 201.567 L2210.43 201.567 Q2217.58 201.567 2220.89 198.326 Q2224.22 195.086 2224.22 188.095 Q2224.22 181.151 2220.89 177.933 Q2217.58 174.692 2210.43 174.692 L2204.78 174.692 M2200.1 170.85 L2209.71 170.85 Q2219.76 170.85 2224.45 175.039 Q2229.15 179.206 2229.15 188.095 Q2229.15 197.03 2224.43 201.22 Q2219.71 205.41 2209.71 205.41 L2200.1 205.41 L2200.1 170.85 Z" fill="#000000" fill-rule="nonzero" fill-opacity="1" /><path clip-path="url(#clip420)" d="M2236.61 170.85 L2256.47 170.85 L2256.47 174.785 L2241.28 174.785 L2241.28 184.97 L2254.99 184.97 L2254.99 188.905 L2241.28 188.905 L2241.28 205.41 L2236.61 205.41 L2236.61 170.85 Z" fill="#000000" fill-rule="nonzero" fill-opacity="1" /><path clip-path="url(#clip420)" d="M110.881 1552.76 L2352.76 1552.76 L2352.76 956.626 L110.881 956.626  Z" fill="#ffffff" fill-rule="evenodd" fill-opacity="1"/>
<defs>
  <clipPath id="clip423">
    <rect x="110" y="956" width="2243" height="597"/>
  </clipPath>
</defs>
<polyline clip-path="url(#clip423)" style="stroke:#000000; stroke-linecap:round; stroke-linejoin:round; stroke-width:2; stroke-opacity:0.1; fill:none" points="110.881,1552.76 2352.76,1552.76 "/>
<polyline clip-path="url(#clip423)" style="stroke:#000000; stroke-linecap:round; stroke-linejoin:round; stroke-width:2; stroke-opacity:0.1; fill:none" points="110.881,956.626 2352.76,956.626 "/>
<polyline clip-path="url(#clip420)" style="stroke:#000000; stroke-linecap:round; stroke-linejoin:round; stroke-width:4; stroke-opacity:1; fill:none" points="110.881,1552.76 2352.76,1552.76 "/>
<polyline clip-path="url(#clip420)" style="stroke:#000000; stroke-linecap:round; stroke-linejoin:round; stroke-width:4; stroke-opacity:1; fill:none" points="110.881,1552.76 110.881,956.626 "/>
<polyline clip-path="url(#clip420)" style="stroke:#000000; stroke-linecap:round; stroke-linejoin:round; stroke-width:4; stroke-opacity:1; fill:none" points="110.881,1552.76 129.779,1552.76 "/>
<polyline clip-path="url(#clip420)" style="stroke:#000000; stroke-linecap:round; stroke-linejoin:round; stroke-width:4; stroke-opacity:1; fill:none" points="110.881,956.626 129.779,956.626 "/>
<path clip-path="url(#clip420)" d="M62.9365 1538.55 Q59.3254 1538.55 57.4967 1542.12 Q55.6912 1545.66 55.6912 1552.79 Q55.6912 1559.9 57.4967 1563.46 Q59.3254 1567 62.9365 1567 Q66.5707 1567 68.3763 1563.46 Q70.205 1559.9 70.205 1552.79 Q70.205 1545.66 68.3763 1542.12 Q66.5707 1538.55 62.9365 1538.55 M62.9365 1534.85 Q68.7467 1534.85 71.8022 1539.46 Q74.8809 1544.04 74.8809 1552.79 Q74.8809 1561.52 71.8022 1566.12 Q68.7467 1570.71 62.9365 1570.71 Q57.1264 1570.71 54.0477 1566.12 Q50.9921 1561.52 50.9921 1552.79 Q50.9921 1544.04 54.0477 1539.46 Q57.1264 1534.85 62.9365 1534.85 Z" fill="#000000" fill-rule="nonzero" fill-opacity="1" /><path clip-path="url(#clip420)" d="M54.9736 969.971 L62.6124 969.971 L62.6124 943.605 L54.3023 945.272 L54.3023 941.013 L62.5661 939.346 L67.242 939.346 L67.242 969.971 L74.8809 969.971 L74.8809 973.906 L54.9736 973.906 L54.9736 969.971 Z" fill="#000000" fill-rule="nonzero" fill-opacity="1" /><path clip-path="url(#clip420)" d="M979.838 852.554 L979.838 861.182 Q975.707 857.334 971.007 855.43 Q966.349 853.526 961.083 853.526 Q950.712 853.526 945.203 859.886 Q939.694 866.205 939.694 878.196 Q939.694 890.146 945.203 896.506 Q950.712 902.825 961.083 902.825 Q966.349 902.825 971.007 900.921 Q975.707 899.017 979.838 895.169 L979.838 903.717 Q975.545 906.633 970.724 908.092 Q965.944 909.55 960.597 909.55 Q946.864 909.55 938.965 901.164 Q931.066 892.739 931.066 878.196 Q931.066 863.613 938.965 855.227 Q946.864 846.801 960.597 846.801 Q966.025 846.801 970.805 848.26 Q975.626 849.677 979.838 852.554 Z" fill="#000000" fill-rule="nonzero" fill-opacity="1" /><path clip-path="url(#clip420)" d="M1000.66 854.62 L1000.66 901.651 L1010.54 901.651 Q1023.06 901.651 1028.85 895.979 Q1034.69 890.308 1034.69 878.074 Q1034.69 865.922 1028.85 860.291 Q1023.06 854.62 1010.54 854.62 L1000.66 854.62 M992.477 847.895 L1009.29 847.895 Q1026.87 847.895 1035.09 855.227 Q1043.32 862.519 1043.32 878.074 Q1043.32 893.711 1035.05 901.043 Q1026.79 908.375 1009.29 908.375 L992.477 908.375 L992.477 847.895 Z" fill="#000000" fill-rule="nonzero" fill-opacity="1" /><path clip-path="url(#clip420)" d="M1056.36 847.895 L1091.12 847.895 L1091.12 854.782 L1064.54 854.782 L1064.54 872.606 L1088.52 872.606 L1088.52 879.492 L1064.54 879.492 L1064.54 908.375 L1056.36 908.375 L1056.36 847.895 Z" fill="#000000" fill-rule="nonzero" fill-opacity="1" /><path clip-path="url(#clip420)" d="M1147.71 868.231 Q1141.71 868.231 1138.23 872.93 Q1134.75 877.588 1134.75 885.731 Q1134.75 893.873 1138.19 898.572 Q1141.67 903.23 1147.71 903.23 Q1153.66 903.23 1157.15 898.531 Q1160.63 893.832 1160.63 885.731 Q1160.63 877.669 1157.15 872.97 Q1153.66 868.231 1147.71 868.231 M1147.71 861.911 Q1157.43 861.911 1162.98 868.231 Q1168.53 874.55 1168.53 885.731 Q1168.53 896.871 1162.98 903.23 Q1157.43 909.55 1147.71 909.55 Q1137.95 909.55 1132.4 903.23 Q1126.89 896.871 1126.89 885.731 Q1126.89 874.55 1132.4 868.231 Q1137.95 861.911 1147.71 861.911 Z" fill="#000000" fill-rule="nonzero" fill-opacity="1" /><path clip-path="url(#clip420)" d="M1203.85 845.343 L1203.85 851.541 L1196.72 851.541 Q1192.71 851.541 1191.13 853.161 Q1189.59 854.782 1189.59 858.995 L1189.59 863.005 L1201.87 863.005 L1201.87 868.798 L1189.59 868.798 L1189.59 908.375 L1182.1 908.375 L1182.1 868.798 L1174.97 868.798 L1174.97 863.005 L1182.1 863.005 L1182.1 859.845 Q1182.1 852.27 1185.62 848.827 Q1189.15 845.343 1196.8 845.343 L1203.85 845.343 Z" fill="#000000" fill-rule="nonzero" fill-opacity="1" /><path clip-path="url(#clip420)" d="M1228.65 908.375 L1228.65 905.793 L1229.87 905.793 Q1234.34 905.793 1235.74 905.178 Q1237.17 904.522 1237.29 902.145 L1237.29 857.343 Q1237.21 855.171 1235.82 854.515 Q1234.42 853.818 1229.87 853.818 L1228.65 853.818 L1228.65 851.277 Q1232.58 851.441 1240.45 851.441 Q1243.65 851.441 1246.39 851.359 Q1249.18 851.277 1249.63 851.277 L1272.46 851.277 L1274.8 870.173 L1272.63 870.173 Q1271.97 865.049 1271.23 862.385 Q1270.54 859.68 1268.81 857.507 Q1267.09 855.335 1264.22 854.597 Q1261.35 853.818 1256.52 853.818 L1249.34 853.818 Q1246.64 853.818 1245.7 854.351 Q1244.75 854.884 1244.75 857.097 L1244.75 901.899 Q1244.75 904.481 1246.48 905.137 Q1248.2 905.793 1253.98 905.793 L1255.49 905.793 L1255.49 908.375 Q1248.36 908.129 1241.15 908.129 L1240.61 908.129 Q1235.37 908.129 1228.65 908.375 Z" fill="#000000" fill-rule="nonzero" fill-opacity="1" /><path clip-path="url(#clip420)" d="M1286.66 887.389 Q1286.66 873.206 1291.94 861.77 Q1294.2 856.975 1297.35 852.958 Q1300.51 848.941 1302.6 847.178 Q1304.69 845.416 1305.27 845.416 Q1306.08 845.416 1306.13 846.235 Q1306.13 846.645 1305.02 847.67 Q1291.49 861.442 1291.53 887.389 Q1291.53 913.417 1304.69 926.656 Q1306.13 928.091 1306.13 928.542 Q1306.13 929.362 1305.27 929.362 Q1304.69 929.362 1302.68 927.681 Q1300.67 926 1297.56 922.147 Q1294.44 918.294 1292.19 913.581 Q1286.66 902.145 1286.66 887.389 Z" fill="#000000" fill-rule="nonzero" fill-opacity="1" /><path clip-path="url(#clip420)" d="M1314.19 894.849 Q1314.19 892.348 1315.54 891.406 Q1316.89 890.422 1318.33 890.422 Q1320.25 890.422 1321.36 891.651 Q1322.51 892.84 1322.51 894.521 Q1322.51 896.201 1321.36 897.431 Q1320.25 898.62 1318.33 898.62 Q1317.38 898.62 1316.89 898.456 Q1318 902.309 1321.36 905.096 Q1324.76 907.883 1329.23 907.883 Q1334.84 907.883 1338.2 902.432 Q1340.21 898.907 1340.21 890.914 Q1340.21 883.863 1338.7 880.338 Q1336.36 874.969 1331.56 874.969 Q1324.76 874.969 1320.74 880.83 Q1320.25 881.568 1319.68 881.609 Q1318.86 881.609 1318.65 881.158 Q1318.49 880.666 1318.49 879.396 L1318.49 854.556 Q1318.49 852.548 1319.31 852.548 Q1319.64 852.548 1320.33 852.794 Q1325.62 855.13 1331.48 855.171 Q1337.51 855.171 1342.92 852.712 Q1343.33 852.466 1343.57 852.466 Q1344.39 852.466 1344.44 853.408 Q1344.44 853.736 1343.74 854.72 Q1343.08 855.663 1341.65 856.934 Q1340.21 858.163 1338.37 859.352 Q1336.52 860.541 1333.82 861.36 Q1331.15 862.139 1328.2 862.139 Q1324.68 862.139 1321.07 861.032 L1321.07 877.387 Q1325.42 873.124 1331.73 873.124 Q1338.45 873.124 1343.08 878.535 Q1347.71 883.945 1347.71 891.487 Q1347.71 899.398 1342.22 904.809 Q1336.77 910.22 1329.39 910.22 Q1322.67 910.22 1318.41 905.424 Q1314.19 900.628 1314.19 894.849 Z" fill="#000000" fill-rule="nonzero" fill-opacity="1" /><path clip-path="url(#clip420)" d="M1356.94 907.022 Q1355.76 905.67 1355.76 903.907 Q1355.76 902.145 1356.9 900.833 Q1358.09 899.48 1360.22 899.48 Q1362.72 899.48 1364.16 901.899 Q1365.59 904.276 1365.59 908.293 Q1365.59 912.638 1363.83 916.655 Q1362.07 920.713 1360.35 922.639 Q1358.62 924.566 1357.93 924.566 Q1357.11 924.566 1357.11 923.664 Q1357.11 923.336 1357.68 922.721 Q1363.71 916.245 1363.75 908.293 Q1363.75 907.022 1363.58 907.022 L1363.38 907.186 Q1361.94 908.375 1360.22 908.375 Q1358.13 908.375 1356.94 907.022 Z" fill="#000000" fill-rule="nonzero" fill-opacity="1" /><path clip-path="url(#clip420)" d="M1392.08 881.527 Q1392.08 869.189 1395.2 862.467 Q1399.54 852.466 1409.79 852.466 Q1411.96 852.466 1414.22 853.081 Q1416.51 853.654 1419.38 855.909 Q1422.29 858.163 1424.05 861.852 Q1427.41 868.984 1427.41 881.527 Q1427.41 893.783 1424.3 900.464 Q1419.75 910.22 1409.71 910.22 Q1405.94 910.22 1402.08 908.293 Q1398.27 906.367 1395.85 901.735 Q1392.08 894.808 1392.08 881.527 M1399.05 880.502 Q1399.05 893.168 1399.95 898.21 Q1400.98 903.661 1403.76 906.039 Q1406.59 908.375 1409.71 908.375 Q1413.07 908.375 1415.86 905.875 Q1418.68 903.333 1419.55 897.882 Q1420.49 892.512 1420.45 880.502 Q1420.45 868.82 1419.63 864.148 Q1418.52 858.696 1415.57 856.524 Q1412.66 854.31 1409.71 854.31 Q1408.6 854.31 1407.41 854.638 Q1406.26 854.966 1404.58 855.909 Q1402.9 856.852 1401.59 859.188 Q1400.32 861.524 1399.71 865.049 Q1399.05 869.599 1399.05 880.502 Z" fill="#000000" fill-rule="nonzero" fill-opacity="1" /><path clip-path="url(#clip420)" d="M1434.92 907.022 Q1433.65 905.67 1433.65 903.907 Q1433.65 902.145 1434.92 900.874 Q1436.19 899.562 1438.12 899.562 Q1439.96 899.562 1441.19 900.792 Q1442.47 901.981 1442.47 903.948 Q1442.47 905.875 1441.11 907.145 Q1439.8 908.375 1438.12 908.375 Q1436.19 908.375 1434.92 907.022 Z" fill="#000000" fill-rule="nonzero" fill-opacity="1" /><path clip-path="url(#clip420)" d="M1456.75 908.375 Q1456.75 906.858 1456.87 906.408 Q1457.04 905.957 1457.69 905.26 L1473.8 887.307 Q1482.62 877.387 1482.62 868.738 Q1482.62 863.123 1479.66 859.106 Q1476.75 855.089 1471.38 855.089 Q1467.7 855.089 1464.58 857.343 Q1461.47 859.598 1460.03 863.615 Q1460.28 863.533 1461.14 863.533 Q1463.23 863.533 1464.38 864.844 Q1465.56 866.156 1465.56 867.919 Q1465.56 870.173 1464.09 871.28 Q1462.65 872.346 1461.22 872.346 Q1460.65 872.346 1459.87 872.223 Q1459.13 872.1 1457.94 870.952 Q1456.75 869.763 1456.75 867.673 Q1456.75 861.811 1461.18 857.138 Q1465.65 852.466 1472.45 852.466 Q1480.16 852.466 1485.2 857.057 Q1490.28 861.606 1490.28 868.738 Q1490.28 871.239 1489.5 873.534 Q1488.76 875.789 1487.74 877.551 Q1486.76 879.314 1484.05 882.142 Q1481.35 884.97 1479.17 886.979 Q1477 888.987 1472.12 893.25 L1463.23 901.899 L1478.35 901.899 Q1485.73 901.899 1486.3 901.243 Q1487.12 900.054 1488.15 893.783 L1490.28 893.783 L1487.9 908.375 L1456.75 908.375 Z" fill="#000000" fill-rule="nonzero" fill-opacity="1" /><path clip-path="url(#clip420)" d="M1500.34 928.542 Q1500.34 928.132 1501.4 927.107 Q1514.93 913.335 1514.93 887.389 Q1514.93 861.36 1501.94 848.203 Q1500.34 846.686 1500.34 846.235 Q1500.34 845.416 1501.16 845.416 Q1501.73 845.416 1503.74 847.096 Q1505.79 848.777 1508.86 852.63 Q1511.98 856.483 1514.27 861.196 Q1519.81 872.632 1519.81 887.389 Q1519.81 901.571 1514.52 913.007 Q1512.27 917.803 1509.11 921.82 Q1505.95 925.837 1503.86 927.599 Q1501.77 929.362 1501.16 929.362 Q1500.34 929.362 1500.34 928.542 Z" fill="#000000" fill-rule="nonzero" fill-opacity="1" /><polyline clip-path="url(#clip423)" style="stroke:#009af9; stroke-linecap:round; stroke-linejoin:round; stroke-width:4; stroke-opacity:1; fill:none" points="174.33,1552.76 195.48,1552.75 216.63,1552.72 237.779,1552.52 258.929,1551.91 280.079,1550.57 301.229,1548.14 322.379,1544.26 343.528,1538.64 364.678,1531.05 385.828,1521.37 406.978,1509.54 428.127,1495.61 449.277,1479.68 470.427,1461.95 491.577,1442.63 512.726,1421.97 533.876,1400.25 555.026,1377.76 576.176,1354.75 597.325,1331.49 618.475,1308.24 639.625,1285.2 660.775,1262.58 681.925,1240.54 703.074,1219.22 724.224,1198.73 745.374,1179.17 766.524,1160.59 787.673,1143.05 808.823,1126.56 829.973,1111.13 851.123,1096.76 872.272,1083.43 893.422,1071.1 914.572,1059.75 935.722,1049.33 956.871,1039.8 978.021,1031.11 999.171,1023.2 1020.32,1016.02 1041.47,1009.53 1062.62,1003.67 1083.77,998.387 1104.92,993.644 1126.07,989.392 1147.22,985.586 1168.37,982.187 1189.52,979.157 1210.67,976.46 1231.82,974.065 1252.97,971.94 1274.12,970.058 1295.27,968.395 1316.42,966.926 1337.57,965.63 1358.72,964.49 1379.87,963.487 1401.02,962.606 1422.17,961.834 1443.32,961.157 1464.47,960.565 1485.62,960.047 1506.77,959.594 1527.92,959.2 1549.06,958.856 1570.21,958.556 1591.36,958.296 1612.51,958.069 1633.66,957.873 1654.81,957.702 1675.96,957.554 1697.11,957.426 1718.26,957.316 1739.41,957.22 1760.56,957.137 1781.71,957.065 1802.86,957.004 1824.01,956.95 1845.16,956.904 1866.31,956.865 1887.46,956.831 1908.61,956.802 1929.76,956.776 1950.91,956.755 1972.06,956.736 1993.21,956.72 2014.36,956.707 2035.51,956.695 2056.66,956.685 2077.81,956.676 2098.96,956.669 2120.11,956.663 2141.26,956.657 2162.41,956.653 2183.56,956.649 2204.71,956.645 2225.86,956.643 2247.01,956.64 2268.16,956.638 2289.31,956.636 "/>
<polyline clip-path="url(#clip423)" style="stroke:#008000; stroke-linecap:round; stroke-linejoin:round; stroke-width:4; stroke-opacity:1; fill:none" points="174.33,1342.32 587.491,1342.32 "/>
<polyline clip-path="url(#clip423)" style="stroke:#008000; stroke-linecap:round; stroke-linejoin:round; stroke-width:4; stroke-opacity:1; fill:none" points="587.491,1552.76 587.491,1342.32 "/>
<path clip-path="url(#clip420)" d="M1821.17 1183.86 L2278.03 1183.86 L2278.03 976.497 L1821.17 976.497  Z" fill="#ffffff" fill-rule="evenodd" fill-opacity="1"/>
<polyline clip-path="url(#clip420)" style="stroke:#000000; stroke-linecap:round; stroke-linejoin:round; stroke-width:4; stroke-opacity:1; fill:none" points="1821.17,1183.86 2278.03,1183.86 2278.03,976.497 1821.17,976.497 1821.17,1183.86 "/>
<polyline clip-path="url(#clip420)" style="stroke:#008000; stroke-linecap:round; stroke-linejoin:round; stroke-width:4; stroke-opacity:1; fill:none" points="1846.08,1080.18 1995.54,1080.18 "/>
<path clip-path="url(#clip420)" d="M2047.36 1051.19 Q2047.31 1051.43 2047.22 1051.85 Q2047.12 1052.24 2046.7 1053.51 Q2046.28 1054.77 2045.72 1056.06 Q2045.18 1057.33 2044.13 1059.11 Q2043.1 1060.86 2041.83 1062.46 Q2041.48 1062.88 2041.41 1063.14 Q2041.36 1063.37 2041.36 1064.14 Q2041.36 1069.02 2042.84 1069.02 Q2042.91 1069.02 2043.03 1069.02 Q2043.17 1068.99 2043.52 1068.87 Q2043.89 1068.73 2044.22 1068.52 Q2044.55 1068.29 2044.92 1067.82 Q2045.3 1067.33 2045.53 1066.67 Q2045.74 1066.2 2046.16 1066.2 Q2046.73 1066.2 2046.73 1066.67 Q2046.73 1067.52 2045.56 1068.8 Q2044.38 1070.09 2042.7 1070.09 Q2041.08 1070.09 2039.93 1069.04 Q2038.81 1067.96 2038.34 1066.04 Q2033.28 1070.09 2028.22 1070.09 Q2024.66 1070.09 2022.55 1067.77 Q2020.45 1065.43 2020.45 1061.97 Q2020.45 1058.64 2022.27 1055.48 Q2024.12 1052.32 2027.12 1050.35 Q2030.14 1048.36 2033.35 1048.36 Q2034.48 1048.36 2035.55 1048.66 Q2036.63 1048.94 2037.71 1049.67 Q2038.79 1050.39 2039.58 1051.5 Q2040.38 1052.6 2040.87 1054.33 Q2041.36 1056.06 2041.36 1058.24 L2041.36 1061.22 Q2044.45 1057.3 2046.07 1051.71 Q2046.3 1050.86 2046.45 1050.77 Q2046.54 1050.7 2046.77 1050.7 Q2047.01 1050.7 2047.15 1050.84 Q2047.31 1050.96 2047.34 1051.07 L2047.36 1051.19 M2038.15 1064.8 Q2038.06 1063.98 2038.06 1059.44 Q2038.06 1058.57 2038.06 1058.1 Q2038.06 1057.61 2038.01 1056.67 Q2037.97 1055.73 2037.87 1055.15 Q2037.8 1054.56 2037.64 1053.72 Q2037.47 1052.88 2037.24 1052.34 Q2037.01 1051.8 2036.63 1051.19 Q2036.28 1050.58 2035.81 1050.23 Q2035.37 1049.88 2034.71 1049.64 Q2034.08 1049.41 2033.31 1049.41 Q2032.35 1049.41 2031.34 1049.76 Q2030.35 1050.09 2029.09 1051.14 Q2027.82 1052.17 2026.77 1053.81 Q2025.67 1055.55 2024.83 1058.73 Q2024.01 1061.89 2024.01 1063.79 Q2024.01 1066.18 2025.11 1067.61 Q2026.21 1069.02 2028.32 1069.02 Q2033.35 1069.02 2038.15 1064.8 Z" fill="#000000" fill-rule="nonzero" fill-opacity="1" /><path clip-path="url(#clip420)" d="M2064.13 1062.27 Q2064.18 1061.68 2065.09 1061.68 L2094.49 1061.68 Q2095.87 1061.68 2095.9 1062.22 Q2095.9 1062.81 2094.58 1062.78 L2065.42 1062.78 Q2064.13 1062.81 2064.13 1062.27 M2064.13 1052.9 Q2064.13 1052.32 2065.14 1052.34 L2094.44 1052.34 Q2095.87 1052.34 2095.9 1052.9 Q2095.9 1053.44 2094.68 1053.44 L2065.09 1053.44 Q2064.13 1053.44 2064.13 1052.9 Z" fill="#000000" fill-rule="nonzero" fill-opacity="1" /><path clip-path="url(#clip420)" d="M2114.39 1054.21 Q2114.39 1047.16 2116.17 1043.32 Q2118.65 1037.61 2124.5 1037.61 Q2125.75 1037.61 2127.03 1037.96 Q2128.35 1038.29 2129.99 1039.57 Q2131.65 1040.86 2132.66 1042.97 Q2134.58 1047.05 2134.58 1054.21 Q2134.58 1061.22 2132.8 1065.03 Q2130.2 1070.61 2124.46 1070.61 Q2122.3 1070.61 2120.1 1069.51 Q2117.92 1068.41 2116.54 1065.76 Q2114.39 1061.8 2114.39 1054.21 M2118.37 1053.63 Q2118.37 1060.86 2118.88 1063.75 Q2119.47 1066.86 2121.06 1068.22 Q2122.68 1069.55 2124.46 1069.55 Q2126.38 1069.55 2127.97 1068.13 Q2129.59 1066.67 2130.08 1063.56 Q2130.62 1060.49 2130.59 1053.63 Q2130.59 1046.95 2130.13 1044.28 Q2129.49 1041.17 2127.81 1039.92 Q2126.14 1038.66 2124.46 1038.66 Q2123.83 1038.66 2123.15 1038.85 Q2122.49 1039.03 2121.53 1039.57 Q2120.57 1040.11 2119.82 1041.45 Q2119.09 1042.78 2118.74 1044.8 Q2118.37 1047.4 2118.37 1053.63 Z" fill="#000000" fill-rule="nonzero" fill-opacity="1" /><path clip-path="url(#clip420)" d="M2138.86 1068.78 Q2138.14 1068.01 2138.14 1067 Q2138.14 1065.99 2138.86 1065.27 Q2139.59 1064.52 2140.69 1064.52 Q2141.74 1064.52 2142.45 1065.22 Q2143.17 1065.9 2143.17 1067.02 Q2143.17 1068.13 2142.4 1068.85 Q2141.65 1069.55 2140.69 1069.55 Q2139.59 1069.55 2138.86 1068.78 Z" fill="#000000" fill-rule="nonzero" fill-opacity="1" /><path clip-path="url(#clip420)" d="M2151.33 1063.09 Q2151.33 1061.66 2152.15 1060.98 Q2152.97 1060.3 2154.03 1060.3 Q2155.13 1060.3 2155.9 1061.03 Q2156.7 1061.73 2156.7 1062.97 Q2156.7 1064.31 2155.76 1065.06 Q2154.85 1065.81 2153.53 1065.62 Q2154.68 1067.54 2156.79 1068.41 Q2158.92 1069.27 2160.89 1069.27 Q2162.95 1069.27 2164.61 1067.49 Q2166.3 1065.71 2166.3 1061.36 Q2166.3 1057.66 2164.85 1055.52 Q2163.42 1053.39 2160.59 1053.39 L2158.48 1053.39 Q2157.75 1053.39 2157.54 1053.32 Q2157.33 1053.25 2157.33 1052.85 Q2157.33 1052.39 2158.06 1052.29 Q2158.78 1052.29 2159.93 1052.15 Q2162.72 1052.06 2164.19 1049.64 Q2165.53 1047.4 2165.53 1044.19 Q2165.53 1041.26 2164.12 1040.04 Q2162.74 1038.8 2160.94 1038.8 Q2159.25 1038.8 2157.4 1039.5 Q2155.55 1040.21 2154.54 1041.77 Q2157.52 1041.77 2157.52 1044.19 Q2157.52 1045.24 2156.84 1045.94 Q2156.18 1046.62 2155.08 1046.62 Q2154.03 1046.62 2153.32 1045.97 Q2152.62 1045.29 2152.62 1044.14 Q2152.62 1041.4 2155.06 1039.5 Q2157.52 1037.61 2161.12 1037.61 Q2164.68 1037.61 2167.31 1039.48 Q2169.95 1041.35 2169.95 1044.23 Q2169.95 1047.07 2168.08 1049.39 Q2166.21 1051.71 2163.23 1052.67 Q2166.89 1053.39 2169.06 1055.88 Q2171.24 1058.33 2171.24 1061.36 Q2171.24 1065.1 2168.29 1067.87 Q2165.34 1070.61 2161.03 1070.61 Q2157.05 1070.61 2154.19 1068.45 Q2151.33 1066.3 2151.33 1063.09 Z" fill="#000000" fill-rule="nonzero" fill-opacity="1" /><path clip-path="url(#clip420)" d="M2175.28 1061.82 Q2175.28 1060.4 2176.05 1059.86 Q2176.82 1059.29 2177.64 1059.29 Q2178.74 1059.29 2179.37 1060 Q2180.03 1060.68 2180.03 1061.64 Q2180.03 1062.6 2179.37 1063.3 Q2178.74 1063.98 2177.64 1063.98 Q2177.1 1063.98 2176.82 1063.89 Q2177.45 1066.09 2179.37 1067.68 Q2181.32 1069.27 2183.87 1069.27 Q2187.08 1069.27 2189 1066.16 Q2190.15 1064.14 2190.15 1059.58 Q2190.15 1055.55 2189.28 1053.53 Q2187.95 1050.46 2185.21 1050.46 Q2181.32 1050.46 2179.02 1053.81 Q2178.74 1054.24 2178.41 1054.26 Q2177.95 1054.26 2177.83 1054 Q2177.73 1053.72 2177.73 1052.99 L2177.73 1038.8 Q2177.73 1037.65 2178.2 1037.65 Q2178.39 1037.65 2178.79 1037.79 Q2181.81 1039.13 2185.16 1039.15 Q2188.6 1039.15 2191.69 1037.75 Q2191.93 1037.61 2192.07 1037.61 Q2192.54 1037.61 2192.56 1038.14 Q2192.56 1038.33 2192.16 1038.89 Q2191.79 1039.43 2190.97 1040.16 Q2190.15 1040.86 2189.09 1041.54 Q2188.04 1042.22 2186.49 1042.69 Q2184.97 1043.13 2183.29 1043.13 Q2181.27 1043.13 2179.21 1042.5 L2179.21 1051.85 Q2181.69 1049.41 2185.3 1049.41 Q2189.14 1049.41 2191.79 1052.5 Q2194.43 1055.59 2194.43 1059.9 Q2194.43 1064.42 2191.3 1067.52 Q2188.18 1070.61 2183.96 1070.61 Q2180.12 1070.61 2177.69 1067.87 Q2175.28 1065.13 2175.28 1061.82 Z" fill="#000000" fill-rule="nonzero" fill-opacity="1" /><path clip-path="url(#clip420)" d="M2199.22 1063.09 Q2199.22 1061.66 2200.04 1060.98 Q2200.86 1060.3 2201.91 1060.3 Q2203.01 1060.3 2203.78 1061.03 Q2204.58 1061.73 2204.58 1062.97 Q2204.58 1064.31 2203.64 1065.06 Q2202.73 1065.81 2201.42 1065.62 Q2202.57 1067.54 2204.67 1068.41 Q2206.81 1069.27 2208.77 1069.27 Q2210.83 1069.27 2212.5 1067.49 Q2214.18 1065.71 2214.18 1061.36 Q2214.18 1057.66 2212.73 1055.52 Q2211.3 1053.39 2208.47 1053.39 L2206.36 1053.39 Q2205.63 1053.39 2205.42 1053.32 Q2205.21 1053.25 2205.21 1052.85 Q2205.21 1052.39 2205.94 1052.29 Q2206.67 1052.29 2207.81 1052.15 Q2210.6 1052.06 2212.08 1049.64 Q2213.41 1047.4 2213.41 1044.19 Q2213.41 1041.26 2212.01 1040.04 Q2210.62 1038.8 2208.82 1038.8 Q2207.13 1038.8 2205.28 1039.5 Q2203.43 1040.21 2202.43 1041.77 Q2205.4 1041.77 2205.4 1044.19 Q2205.4 1045.24 2204.72 1045.94 Q2204.07 1046.62 2202.96 1046.62 Q2201.91 1046.62 2201.21 1045.97 Q2200.51 1045.29 2200.51 1044.14 Q2200.51 1041.4 2202.94 1039.5 Q2205.4 1037.61 2209.01 1037.61 Q2212.57 1037.61 2215.19 1039.48 Q2217.84 1041.35 2217.84 1044.23 Q2217.84 1047.07 2215.96 1049.39 Q2214.09 1051.71 2211.12 1052.67 Q2214.77 1053.39 2216.95 1055.88 Q2219.13 1058.33 2219.13 1061.36 Q2219.13 1065.1 2216.17 1067.87 Q2213.22 1070.61 2208.91 1070.61 Q2204.93 1070.61 2202.07 1068.45 Q2199.22 1066.3 2199.22 1063.09 Z" fill="#000000" fill-rule="nonzero" fill-opacity="1" /><path clip-path="url(#clip420)" d="M2055.28 1092.27 L2048.66 1118.95 Q2048.47 1119.79 2048.47 1120 Q2048.47 1120.28 2048.54 1120.4 Q2048.63 1120.54 2049.15 1120.66 Q2049.69 1120.77 2050.76 1120.77 Q2051.16 1120.77 2051.3 1120.77 Q2051.44 1120.77 2051.65 1120.82 Q2051.86 1120.87 2051.93 1120.98 Q2052.01 1121.1 2052.01 1121.29 Q2052.01 1122.25 2051.16 1122.25 Q2050.37 1122.25 2048.7 1122.18 Q2047.04 1122.11 2046.22 1122.11 Q2045.42 1122.11 2043.81 1122.18 Q2042.19 1122.25 2041.42 1122.25 Q2041.14 1122.25 2040.97 1122.11 Q2040.81 1121.99 2040.81 1121.85 L2040.79 1121.73 Q2040.79 1121.08 2041.04 1120.91 Q2041.3 1120.77 2041.89 1120.77 Q2043.9 1120.75 2044.49 1120.47 Q2045.07 1120.19 2045.35 1119.18 L2047.51 1110.61 Q2044.63 1113.49 2041.84 1113.49 Q2039.15 1113.49 2037.32 1111.38 Q2035.52 1109.25 2035.52 1105.81 Q2035.52 1103.25 2036.52 1100.68 Q2037.55 1098.1 2039.15 1096.16 Q2040.76 1094.21 2042.87 1092.99 Q2044.98 1091.75 2047.06 1091.75 Q2048.4 1091.75 2049.59 1092.53 Q2050.81 1093.3 2051.54 1095.1 Q2052.15 1094.07 2053.27 1092.95 Q2054.39 1091.8 2054.79 1091.8 Q2055.03 1091.8 2055.14 1091.96 Q2055.28 1092.1 2055.28 1092.27 M2050.86 1097.02 Q2050.86 1096.79 2050.67 1096.2 Q2050.51 1095.62 2050.13 1094.82 Q2049.78 1094 2048.96 1093.42 Q2048.14 1092.81 2047.06 1092.81 Q2045.52 1092.81 2043.85 1094.31 Q2042.21 1095.78 2041.14 1098.36 Q2040.46 1100.04 2039.68 1103.18 Q2038.91 1106.32 2038.91 1107.91 Q2038.91 1108.29 2038.94 1108.71 Q2038.98 1109.13 2039.17 1109.83 Q2039.36 1110.54 2039.64 1111.08 Q2039.94 1111.61 2040.55 1112.01 Q2041.16 1112.41 2041.98 1112.41 Q2043.76 1112.41 2045.54 1110.89 Q2047.32 1109.37 2048.07 1108.01 Q2048.16 1107.87 2049.5 1102.55 Q2050.86 1097.23 2050.86 1097.02 Z" fill="#000000" fill-rule="nonzero" fill-opacity="1" /><path clip-path="url(#clip420)" d="M2079.04 1118.11 Q2079 1118.28 2078.94 1118.57 Q2078.87 1118.85 2078.58 1119.74 Q2078.28 1120.62 2077.89 1121.52 Q2077.51 1122.41 2076.77 1123.65 Q2076.05 1124.88 2075.17 1126 Q2074.92 1126.29 2074.87 1126.47 Q2074.84 1126.64 2074.84 1127.18 Q2074.84 1130.59 2075.87 1130.59 Q2075.92 1130.59 2076 1130.59 Q2076.1 1130.57 2076.35 1130.49 Q2076.61 1130.39 2076.84 1130.24 Q2077.07 1130.08 2077.33 1129.75 Q2077.59 1129.41 2077.76 1128.95 Q2077.91 1128.62 2078.2 1128.62 Q2078.59 1128.62 2078.59 1128.95 Q2078.59 1129.54 2077.77 1130.44 Q2076.95 1131.34 2075.77 1131.34 Q2074.64 1131.34 2073.84 1130.61 Q2073.05 1129.85 2072.72 1128.51 Q2069.18 1131.34 2065.64 1131.34 Q2063.15 1131.34 2061.67 1129.72 Q2060.2 1128.08 2060.2 1125.65 Q2060.2 1123.33 2061.48 1121.11 Q2062.77 1118.9 2064.87 1117.52 Q2066.99 1116.13 2069.23 1116.13 Q2070.02 1116.13 2070.77 1116.34 Q2071.53 1116.54 2072.28 1117.05 Q2073.04 1117.55 2073.59 1118.33 Q2074.15 1119.1 2074.5 1120.31 Q2074.84 1121.52 2074.84 1123.05 L2074.84 1125.13 Q2077 1122.39 2078.14 1118.47 Q2078.3 1117.88 2078.4 1117.82 Q2078.46 1117.77 2078.63 1117.77 Q2078.79 1117.77 2078.89 1117.87 Q2079 1117.95 2079.02 1118.03 L2079.04 1118.11 M2072.59 1127.64 Q2072.53 1127.06 2072.53 1123.88 Q2072.53 1123.28 2072.53 1122.95 Q2072.53 1122.6 2072.5 1121.95 Q2072.46 1121.29 2072.4 1120.88 Q2072.35 1120.47 2072.23 1119.88 Q2072.12 1119.29 2071.95 1118.92 Q2071.79 1118.54 2071.53 1118.11 Q2071.28 1117.69 2070.95 1117.44 Q2070.64 1117.19 2070.18 1117.03 Q2069.74 1116.87 2069.2 1116.87 Q2068.53 1116.87 2067.82 1117.11 Q2067.13 1117.34 2066.25 1118.08 Q2065.36 1118.8 2064.63 1119.95 Q2063.85 1121.16 2063.26 1123.39 Q2062.69 1125.6 2062.69 1126.93 Q2062.69 1128.61 2063.46 1129.61 Q2064.23 1130.59 2065.71 1130.59 Q2069.23 1130.59 2072.59 1127.64 Z" fill="#000000" fill-rule="nonzero" fill-opacity="1" /><path clip-path="url(#clip420)" d="M2099.89 1105.67 Q2099.94 1105.08 2100.85 1105.08 L2130.25 1105.08 Q2131.63 1105.08 2131.65 1105.62 Q2131.65 1106.2 2130.34 1106.18 L2101.18 1106.18 Q2099.89 1106.2 2099.89 1105.67 M2099.89 1096.3 Q2099.89 1095.71 2100.9 1095.73 L2130.2 1095.73 Q2131.63 1095.73 2131.65 1096.3 Q2131.65 1096.84 2130.43 1096.84 L2100.85 1096.84 Q2099.89 1096.84 2099.89 1096.3 Z" fill="#000000" fill-rule="nonzero" fill-opacity="1" /><path clip-path="url(#clip420)" d="M2150.14 1097.61 Q2150.14 1090.56 2151.92 1086.72 Q2154.41 1081 2160.26 1081 Q2161.5 1081 2162.79 1081.35 Q2164.1 1081.68 2165.74 1082.97 Q2167.41 1084.26 2168.41 1086.37 Q2170.33 1090.44 2170.33 1097.61 Q2170.33 1104.61 2168.55 1108.43 Q2165.95 1114 2160.21 1114 Q2158.06 1114 2155.86 1112.9 Q2153.68 1111.8 2152.3 1109.16 Q2150.14 1105.2 2150.14 1097.61 M2154.12 1097.02 Q2154.12 1104.26 2154.64 1107.14 Q2155.23 1110.26 2156.82 1111.61 Q2158.43 1112.95 2160.21 1112.95 Q2162.14 1112.95 2163.73 1111.52 Q2165.34 1110.07 2165.84 1106.95 Q2166.37 1103.89 2166.35 1097.02 Q2166.35 1090.35 2165.88 1087.68 Q2165.25 1084.56 2163.56 1083.32 Q2161.9 1082.06 2160.21 1082.06 Q2159.58 1082.06 2158.9 1082.24 Q2158.25 1082.43 2157.29 1082.97 Q2156.33 1083.51 2155.58 1084.84 Q2154.85 1086.18 2154.5 1088.19 Q2154.12 1090.79 2154.12 1097.02 Z" fill="#000000" fill-rule="nonzero" fill-opacity="1" /><path clip-path="url(#clip420)" d="M2174.62 1112.18 Q2173.89 1111.4 2173.89 1110.4 Q2173.89 1109.39 2174.62 1108.66 Q2175.35 1107.91 2176.45 1107.91 Q2177.5 1107.91 2178.2 1108.62 Q2178.93 1109.3 2178.93 1110.42 Q2178.93 1111.52 2178.16 1112.25 Q2177.41 1112.95 2176.45 1112.95 Q2175.35 1112.95 2174.62 1112.18 Z" fill="#000000" fill-rule="nonzero" fill-opacity="1" /><path clip-path="url(#clip420)" d="M2187.09 1090.39 L2188.66 1080.53 L2189.85 1080.53 Q2189.99 1081.12 2190.23 1081.38 Q2190.49 1081.63 2191.84 1081.84 Q2193.23 1082.06 2196.01 1082.06 L2207.65 1082.06 Q2207.65 1083.16 2207.23 1083.74 L2200.75 1092.85 Q2198.68 1095.73 2197.77 1101.05 Q2197.23 1104.61 2197.26 1108.92 L2197.26 1111.36 Q2197.26 1114 2195.03 1114 Q2192.83 1114 2192.83 1111.36 Q2192.83 1102.2 2198.73 1093.32 Q2199.36 1092.41 2201.68 1089.15 Q2204.02 1085.9 2204.12 1085.76 L2194.19 1085.76 Q2189.83 1085.76 2189.48 1086.04 Q2189.01 1086.46 2188.28 1090.39 L2187.09 1090.39 Z" fill="#000000" fill-rule="nonzero" fill-opacity="1" /><path clip-path="url(#clip420)" d="M2206.82 1105.71 Q2206.82 1100.35 2213.73 1096.88 Q2210.76 1094.87 2210.22 1094.28 Q2208.11 1091.94 2208.11 1089.01 Q2208.11 1085.66 2210.64 1083.34 Q2213.19 1081 2216.8 1081 Q2220.24 1081 2222.84 1082.99 Q2225.44 1084.98 2225.44 1088.15 Q2225.44 1092.6 2219.63 1095.59 Q2223.48 1097.98 2224.39 1098.99 Q2226.73 1101.59 2226.73 1104.89 Q2226.73 1108.73 2223.78 1111.38 Q2220.83 1114 2216.75 1114 Q2212.77 1114 2209.8 1111.68 Q2206.82 1109.37 2206.82 1105.71 M2209.21 1105.71 Q2209.21 1108.69 2211.44 1110.68 Q2213.68 1112.67 2216.8 1112.67 Q2219.82 1112.67 2222.07 1110.94 Q2224.34 1109.2 2224.34 1106.63 Q2224.34 1105.62 2223.99 1104.75 Q2223.66 1103.89 2222.98 1103.21 Q2222.33 1102.5 2221.91 1102.2 Q2221.51 1101.87 2220.73 1101.33 L2214.83 1097.61 Q2209.21 1100.72 2209.21 1105.71 M2210.22 1087.14 Q2210.22 1089.43 2212.63 1091.03 L2218.58 1094.87 Q2223.33 1092.08 2223.33 1088.15 Q2223.33 1085.59 2221.39 1083.91 Q2219.45 1082.2 2216.75 1082.2 Q2214.11 1082.2 2212.16 1083.6 Q2210.22 1084.98 2210.22 1087.14 Z" fill="#000000" fill-rule="nonzero" fill-opacity="1" /><path clip-path="url(#clip420)" d="M2229.37 1085.57 L2229.37 1084.07 Q2235.13 1084.07 2238.1 1081 Q2238.92 1081 2239.06 1081.19 Q2239.2 1081.38 2239.2 1082.24 L2239.2 1109.16 Q2239.2 1110.58 2239.91 1111.03 Q2240.61 1111.47 2243.68 1111.47 L2245.2 1111.47 L2245.2 1112.95 Q2243.51 1112.81 2237.42 1112.81 Q2231.33 1112.81 2229.67 1112.95 L2229.67 1111.47 L2231.19 1111.47 Q2234.22 1111.47 2234.94 1111.05 Q2235.67 1110.61 2235.67 1109.16 L2235.67 1084.3 Q2233.16 1085.57 2229.37 1085.57 Z" fill="#000000" fill-rule="nonzero" fill-opacity="1" /><path clip-path="url(#clip420)" d="M459.209 1268.47 Q459.127 1268.88 458.963 1269.62 Q458.799 1270.32 458.061 1272.53 Q457.323 1274.74 456.339 1277 Q455.397 1279.21 453.552 1282.33 Q451.748 1285.4 449.535 1288.19 Q448.92 1288.93 448.797 1289.38 Q448.715 1289.79 448.715 1291.14 Q448.715 1299.66 451.298 1299.66 Q451.421 1299.66 451.626 1299.66 Q451.871 1299.62 452.486 1299.42 Q453.142 1299.17 453.716 1298.8 Q454.29 1298.39 454.946 1297.57 Q455.601 1296.71 456.011 1295.57 Q456.38 1294.75 457.118 1294.75 Q458.102 1294.75 458.102 1295.57 Q458.102 1297.04 456.052 1299.3 Q454.003 1301.55 451.052 1301.55 Q448.223 1301.55 446.215 1299.71 Q444.247 1297.82 443.428 1294.46 Q434.574 1301.55 425.72 1301.55 Q419.49 1301.55 415.801 1297.49 Q412.112 1293.39 412.112 1287.33 Q412.112 1281.51 415.309 1275.97 Q418.547 1270.44 423.794 1267 Q429.081 1263.51 434.697 1263.51 Q436.664 1263.51 438.55 1264.05 Q440.435 1264.54 442.321 1265.81 Q444.206 1267.08 445.6 1269 Q446.994 1270.93 447.854 1273.96 Q448.715 1277 448.715 1280.81 L448.715 1286.02 Q454.126 1279.17 456.954 1269.37 Q457.364 1267.9 457.61 1267.73 Q457.774 1267.61 458.184 1267.61 Q458.594 1267.61 458.84 1267.86 Q459.127 1268.06 459.168 1268.27 L459.209 1268.47 M443.1 1292.29 Q442.936 1290.85 442.936 1282.9 Q442.936 1281.38 442.936 1280.56 Q442.936 1279.7 442.854 1278.06 Q442.772 1276.42 442.608 1275.4 Q442.485 1274.37 442.198 1272.9 Q441.911 1271.42 441.501 1270.48 Q441.091 1269.54 440.435 1268.47 Q439.821 1267.41 439.001 1266.79 Q438.222 1266.18 437.074 1265.77 Q435.968 1265.36 434.615 1265.36 Q432.934 1265.36 431.172 1265.97 Q429.45 1266.55 427.237 1268.39 Q425.023 1270.19 423.179 1273.06 Q421.252 1276.1 419.777 1281.67 Q418.342 1287.2 418.342 1290.52 Q418.342 1294.71 420.269 1297.21 Q422.195 1299.66 425.884 1299.66 Q434.697 1299.66 443.1 1292.29 Z" fill="#000000" fill-rule="nonzero" fill-opacity="1" /><path clip-path="url(#clip420)" d="M683.136 1459.22 L671.536 1505.91 Q671.208 1507.38 671.208 1507.75 Q671.208 1508.24 671.331 1508.45 Q671.495 1508.69 672.397 1508.9 Q673.34 1509.1 675.225 1509.1 Q675.922 1509.1 676.168 1509.1 Q676.414 1509.1 676.783 1509.19 Q677.152 1509.27 677.275 1509.47 Q677.398 1509.68 677.398 1510.01 Q677.398 1511.69 675.922 1511.69 Q674.528 1511.69 671.618 1511.56 Q668.708 1511.44 667.273 1511.44 Q665.88 1511.44 663.051 1511.56 Q660.223 1511.69 658.87 1511.69 Q658.378 1511.69 658.092 1511.44 Q657.805 1511.23 657.805 1510.99 L657.764 1510.78 Q657.764 1509.64 658.215 1509.35 Q658.665 1509.1 659.69 1509.1 Q663.215 1509.06 664.24 1508.57 Q665.265 1508.08 665.757 1506.32 L669.528 1491.31 Q664.486 1496.36 659.608 1496.36 Q654.894 1496.36 651.697 1492.67 Q648.541 1488.94 648.541 1482.91 Q648.541 1478.44 650.304 1473.93 Q652.107 1469.43 654.894 1466.02 Q657.723 1462.62 661.412 1460.49 Q665.101 1458.32 668.749 1458.32 Q671.085 1458.32 673.176 1459.67 Q675.307 1461.02 676.578 1464.18 Q677.643 1462.38 679.611 1460.41 Q681.578 1458.4 682.275 1458.4 Q682.685 1458.4 682.89 1458.69 Q683.136 1458.93 683.136 1459.22 M675.389 1467.54 Q675.389 1467.13 675.061 1466.11 Q674.774 1465.08 674.118 1463.69 Q673.504 1462.25 672.069 1461.23 Q670.634 1460.16 668.749 1460.16 Q666.043 1460.16 663.133 1462.79 Q660.264 1465.37 658.378 1469.88 Q657.19 1472.83 655.837 1478.32 Q654.485 1483.81 654.485 1486.6 Q654.485 1487.26 654.526 1487.99 Q654.607 1488.73 654.935 1489.96 Q655.263 1491.19 655.755 1492.13 Q656.288 1493.08 657.354 1493.77 Q658.419 1494.47 659.854 1494.47 Q662.969 1494.47 666.084 1491.81 Q669.2 1489.14 670.511 1486.76 Q670.675 1486.52 673.012 1477.21 Q675.389 1467.91 675.389 1467.54 Z" fill="#000000" fill-rule="nonzero" fill-opacity="1" /><path clip-path="url(#clip420)" d="M724.719 1504.46 Q724.661 1504.74 724.547 1505.26 Q724.432 1505.75 723.915 1507.3 Q723.399 1508.85 722.71 1510.42 Q722.05 1511.97 720.759 1514.15 Q719.497 1516.31 717.947 1518.26 Q717.517 1518.77 717.431 1519.09 Q717.373 1519.38 717.373 1520.32 Q717.373 1526.29 719.181 1526.29 Q719.267 1526.29 719.411 1526.29 Q719.583 1526.26 720.013 1526.12 Q720.472 1525.95 720.874 1525.69 Q721.276 1525.4 721.735 1524.83 Q722.194 1524.23 722.481 1523.42 Q722.739 1522.85 723.255 1522.85 Q723.944 1522.85 723.944 1523.42 Q723.944 1524.45 722.509 1526.03 Q721.075 1527.61 719.009 1527.61 Q717.029 1527.61 715.623 1526.32 Q714.246 1525 713.672 1522.65 Q707.475 1527.61 701.277 1527.61 Q696.916 1527.61 694.333 1524.77 Q691.751 1521.9 691.751 1517.65 Q691.751 1513.58 693.989 1509.71 Q696.256 1505.83 699.928 1503.42 Q703.63 1500.98 707.561 1500.98 Q708.938 1500.98 710.258 1501.36 Q711.578 1501.7 712.897 1502.59 Q714.217 1503.48 715.193 1504.83 Q716.168 1506.18 716.771 1508.3 Q717.373 1510.42 717.373 1513.09 L717.373 1516.74 Q721.161 1511.94 723.141 1505.09 Q723.428 1504.05 723.6 1503.94 Q723.715 1503.85 724.001 1503.85 Q724.288 1503.85 724.461 1504.03 Q724.661 1504.17 724.69 1504.31 L724.719 1504.46 M713.443 1521.13 Q713.328 1520.12 713.328 1514.56 Q713.328 1513.49 713.328 1512.92 Q713.328 1512.32 713.27 1511.17 Q713.213 1510.02 713.098 1509.31 Q713.012 1508.59 712.811 1507.55 Q712.611 1506.52 712.324 1505.86 Q712.037 1505.2 711.578 1504.46 Q711.147 1503.71 710.573 1503.28 Q710.028 1502.85 709.225 1502.56 Q708.45 1502.28 707.503 1502.28 Q706.327 1502.28 705.093 1502.71 Q703.888 1503.11 702.339 1504.4 Q700.789 1505.66 699.498 1507.67 Q698.149 1509.79 697.117 1513.69 Q696.112 1517.57 696.112 1519.89 Q696.112 1522.82 697.461 1524.57 Q698.809 1526.29 701.392 1526.29 Q707.561 1526.29 713.443 1521.13 Z" fill="#000000" fill-rule="nonzero" fill-opacity="1" /></svg>
