<?xml version="1.0" encoding="utf-8"?>
<svg xmlns="http://www.w3.org/2000/svg" xmlns:xlink="http://www.w3.org/1999/xlink" width="600" height="400" viewBox="0 0 2400 1600">
<defs>
  <clipPath id="clip620">
    <rect x="0" y="0" width="2400" height="1600"/>
  </clipPath>
</defs>
<path clip-path="url(#clip620)" d="M0 1600 L2400 1600 L2400 0 L0 0  Z" fill="#ffffff" fill-rule="evenodd" fill-opacity="1"/>
<defs>
  <clipPath id="clip621">
    <rect x="480" y="0" width="1681" height="1600"/>
  </clipPath>
</defs>
<path clip-path="url(#clip620)" d="M156.598 719.602 L2352.76 719.602 L2352.76 123.472 L156.598 123.472  Z" fill="#ffffff" fill-rule="evenodd" fill-opacity="1"/>
<defs>
  <clipPath id="clip622">
    <rect x="156" y="123" width="2197" height="597"/>
  </clipPath>
</defs>
<polyline clip-path="url(#clip622)" style="stroke:#000000; stroke-linecap:round; stroke-linejoin:round; stroke-width:2; stroke-opacity:0.1; fill:none" points="218.754,719.602 218.754,123.472 "/>
<polyline clip-path="url(#clip622)" style="stroke:#000000; stroke-linecap:round; stroke-linejoin:round; stroke-width:2; stroke-opacity:0.1; fill:none" points="736.715,719.602 736.715,123.472 "/>
<polyline clip-path="url(#clip622)" style="stroke:#000000; stroke-linecap:round; stroke-linejoin:round; stroke-width:2; stroke-opacity:0.1; fill:none" points="1254.68,719.602 1254.68,123.472 "/>
<polyline clip-path="url(#clip622)" style="stroke:#000000; stroke-linecap:round; stroke-linejoin:round; stroke-width:2; stroke-opacity:0.1; fill:none" points="1772.64,719.602 1772.64,123.472 "/>
<polyline clip-path="url(#clip622)" style="stroke:#000000; stroke-linecap:round; stroke-linejoin:round; stroke-width:2; stroke-opacity:0.1; fill:none" points="2290.6,719.602 2290.6,123.472 "/>
<polyline clip-path="url(#clip622)" style="stroke:#000000; stroke-linecap:round; stroke-linejoin:round; stroke-width:2; stroke-opacity:0.1; fill:none" points="156.598,702.73 2352.76,702.73 "/>
<polyline clip-path="url(#clip622)" style="stroke:#000000; stroke-linecap:round; stroke-linejoin:round; stroke-width:2; stroke-opacity:0.1; fill:none" points="156.598,561.761 2352.76,561.761 "/>
<polyline clip-path="url(#clip622)" style="stroke:#000000; stroke-linecap:round; stroke-linejoin:round; stroke-width:2; stroke-opacity:0.1; fill:none" points="156.598,420.791 2352.76,420.791 "/>
<polyline clip-path="url(#clip622)" style="stroke:#000000; stroke-linecap:round; stroke-linejoin:round; stroke-width:2; stroke-opacity:0.1; fill:none" points="156.598,279.822 2352.76,279.822 "/>
<polyline clip-path="url(#clip622)" style="stroke:#000000; stroke-linecap:round; stroke-linejoin:round; stroke-width:2; stroke-opacity:0.1; fill:none" points="156.598,138.853 2352.76,138.853 "/>
<polyline clip-path="url(#clip620)" style="stroke:#000000; stroke-linecap:round; stroke-linejoin:round; stroke-width:4; stroke-opacity:1; fill:none" points="156.598,719.602 2352.76,719.602 "/>
<polyline clip-path="url(#clip620)" style="stroke:#000000; stroke-linecap:round; stroke-linejoin:round; stroke-width:4; stroke-opacity:1; fill:none" points="218.754,719.602 218.754,700.704 "/>
<polyline clip-path="url(#clip620)" style="stroke:#000000; stroke-linecap:round; stroke-linejoin:round; stroke-width:4; stroke-opacity:1; fill:none" points="736.715,719.602 736.715,700.704 "/>
<polyline clip-path="url(#clip620)" style="stroke:#000000; stroke-linecap:round; stroke-linejoin:round; stroke-width:4; stroke-opacity:1; fill:none" points="1254.68,719.602 1254.68,700.704 "/>
<polyline clip-path="url(#clip620)" style="stroke:#000000; stroke-linecap:round; stroke-linejoin:round; stroke-width:4; stroke-opacity:1; fill:none" points="1772.64,719.602 1772.64,700.704 "/>
<polyline clip-path="url(#clip620)" style="stroke:#000000; stroke-linecap:round; stroke-linejoin:round; stroke-width:4; stroke-opacity:1; fill:none" points="2290.6,719.602 2290.6,700.704 "/>
<path clip-path="url(#clip620)" d="M187.654 765.173 L217.33 765.173 L217.33 769.108 L187.654 769.108 L187.654 765.173 Z" fill="#000000" fill-rule="nonzero" fill-opacity="1" /><path clip-path="url(#clip620)" d="M240.27 751.516 L228.464 769.965 L240.27 769.965 L240.27 751.516 M239.043 747.442 L244.922 747.442 L244.922 769.965 L249.853 769.965 L249.853 773.854 L244.922 773.854 L244.922 782.002 L240.27 782.002 L240.27 773.854 L224.668 773.854 L224.668 769.34 L239.043 747.442 Z" fill="#000000" fill-rule="nonzero" fill-opacity="1" /><path clip-path="url(#clip620)" d="M706.658 765.173 L736.333 765.173 L736.333 769.108 L706.658 769.108 L706.658 765.173 Z" fill="#000000" fill-rule="nonzero" fill-opacity="1" /><path clip-path="url(#clip620)" d="M750.454 778.067 L766.773 778.067 L766.773 782.002 L744.829 782.002 L744.829 778.067 Q747.491 775.312 752.074 770.683 Q756.681 766.03 757.861 764.687 Q760.106 762.164 760.986 760.428 Q761.889 758.669 761.889 756.979 Q761.889 754.224 759.944 752.488 Q758.023 750.752 754.921 750.752 Q752.722 750.752 750.269 751.516 Q747.838 752.28 745.06 753.831 L745.06 749.109 Q747.884 747.974 750.338 747.396 Q752.792 746.817 754.829 746.817 Q760.199 746.817 763.393 749.502 Q766.588 752.187 766.588 756.678 Q766.588 758.808 765.778 760.729 Q764.991 762.627 762.884 765.22 Q762.305 765.891 759.204 769.108 Q756.102 772.303 750.454 778.067 Z" fill="#000000" fill-rule="nonzero" fill-opacity="1" /><path clip-path="url(#clip620)" d="M1254.68 750.521 Q1251.07 750.521 1249.24 754.085 Q1247.43 757.627 1247.43 764.757 Q1247.43 771.863 1249.24 775.428 Q1251.07 778.969 1254.68 778.969 Q1258.31 778.969 1260.12 775.428 Q1261.95 771.863 1261.95 764.757 Q1261.95 757.627 1260.12 754.085 Q1258.31 750.521 1254.68 750.521 M1254.68 746.817 Q1260.49 746.817 1263.54 751.423 Q1266.62 756.007 1266.62 764.757 Q1266.62 773.483 1263.54 778.09 Q1260.49 782.673 1254.68 782.673 Q1248.87 782.673 1245.79 778.09 Q1242.73 773.483 1242.73 764.757 Q1242.73 756.007 1245.79 751.423 Q1248.87 746.817 1254.68 746.817 Z" fill="#000000" fill-rule="nonzero" fill-opacity="1" /><path clip-path="url(#clip620)" d="M1767.29 778.067 L1783.61 778.067 L1783.61 782.002 L1761.67 782.002 L1761.67 778.067 Q1764.33 775.312 1768.91 770.683 Q1773.52 766.03 1774.7 764.687 Q1776.94 762.164 1777.82 760.428 Q1778.73 758.669 1778.73 756.979 Q1778.73 754.224 1776.78 752.488 Q1774.86 750.752 1771.76 750.752 Q1769.56 750.752 1767.11 751.516 Q1764.68 752.28 1761.9 753.831 L1761.9 749.109 Q1764.72 747.974 1767.18 747.396 Q1769.63 746.817 1771.67 746.817 Q1777.04 746.817 1780.23 749.502 Q1783.43 752.187 1783.43 756.678 Q1783.43 758.808 1782.62 760.729 Q1781.83 762.627 1779.72 765.22 Q1779.14 765.891 1776.04 769.108 Q1772.94 772.303 1767.29 778.067 Z" fill="#000000" fill-rule="nonzero" fill-opacity="1" /><path clip-path="url(#clip620)" d="M2293.61 751.516 L2281.8 769.965 L2293.61 769.965 L2293.61 751.516 M2292.38 747.442 L2298.26 747.442 L2298.26 769.965 L2303.19 769.965 L2303.19 773.854 L2298.26 773.854 L2298.26 782.002 L2293.61 782.002 L2293.61 773.854 L2278.01 773.854 L2278.01 769.34 L2292.38 747.442 Z" fill="#000000" fill-rule="nonzero" fill-opacity="1" /><polyline clip-path="url(#clip620)" style="stroke:#000000; stroke-linecap:round; stroke-linejoin:round; stroke-width:4; stroke-opacity:1; fill:none" points="156.598,719.602 156.598,123.472 "/>
<polyline clip-path="url(#clip620)" style="stroke:#000000; stroke-linecap:round; stroke-linejoin:round; stroke-width:4; stroke-opacity:1; fill:none" points="156.598,702.73 175.496,702.73 "/>
<polyline clip-path="url(#clip620)" style="stroke:#000000; stroke-linecap:round; stroke-linejoin:round; stroke-width:4; stroke-opacity:1; fill:none" points="156.598,561.761 175.496,561.761 "/>
<polyline clip-path="url(#clip620)" style="stroke:#000000; stroke-linecap:round; stroke-linejoin:round; stroke-width:4; stroke-opacity:1; fill:none" points="156.598,420.791 175.496,420.791 "/>
<polyline clip-path="url(#clip620)" style="stroke:#000000; stroke-linecap:round; stroke-linejoin:round; stroke-width:4; stroke-opacity:1; fill:none" points="156.598,279.822 175.496,279.822 "/>
<polyline clip-path="url(#clip620)" style="stroke:#000000; stroke-linecap:round; stroke-linejoin:round; stroke-width:4; stroke-opacity:1; fill:none" points="156.598,138.853 175.496,138.853 "/>
<path clip-path="url(#clip620)" d="M63.4226 688.529 Q59.8115 688.529 57.9828 692.094 Q56.1773 695.635 56.1773 702.765 Q56.1773 709.871 57.9828 713.436 Q59.8115 716.978 63.4226 716.978 Q67.0569 716.978 68.8624 713.436 Q70.6911 709.871 70.6911 702.765 Q70.6911 695.635 68.8624 692.094 Q67.0569 688.529 63.4226 688.529 M63.4226 684.825 Q69.2328 684.825 72.2883 689.432 Q75.367 694.015 75.367 702.765 Q75.367 711.492 72.2883 716.098 Q69.2328 720.682 63.4226 720.682 Q57.6125 720.682 54.5338 716.098 Q51.4782 711.492 51.4782 702.765 Q51.4782 694.015 54.5338 689.432 Q57.6125 684.825 63.4226 684.825 Z" fill="#000000" fill-rule="nonzero" fill-opacity="1" /><path clip-path="url(#clip620)" d="M83.5845 714.131 L88.4688 714.131 L88.4688 720.01 L83.5845 720.01 L83.5845 714.131 Z" fill="#000000" fill-rule="nonzero" fill-opacity="1" /><path clip-path="url(#clip620)" d="M108.654 688.529 Q105.043 688.529 103.214 692.094 Q101.409 695.635 101.409 702.765 Q101.409 709.871 103.214 713.436 Q105.043 716.978 108.654 716.978 Q112.288 716.978 114.094 713.436 Q115.922 709.871 115.922 702.765 Q115.922 695.635 114.094 692.094 Q112.288 688.529 108.654 688.529 M108.654 684.825 Q114.464 684.825 117.52 689.432 Q120.598 694.015 120.598 702.765 Q120.598 711.492 117.52 716.098 Q114.464 720.682 108.654 720.682 Q102.844 720.682 99.765 716.098 Q96.7095 711.492 96.7095 702.765 Q96.7095 694.015 99.765 689.432 Q102.844 684.825 108.654 684.825 Z" fill="#000000" fill-rule="nonzero" fill-opacity="1" /><path clip-path="url(#clip620)" d="M64.6495 547.56 Q61.0384 547.56 59.2097 551.124 Q57.4041 554.666 57.4041 561.796 Q57.4041 568.902 59.2097 572.467 Q61.0384 576.008 64.6495 576.008 Q68.2837 576.008 70.0892 572.467 Q71.9179 568.902 71.9179 561.796 Q71.9179 554.666 70.0892 551.124 Q68.2837 547.56 64.6495 547.56 M64.6495 543.856 Q70.4596 543.856 73.5152 548.462 Q76.5938 553.046 76.5938 561.796 Q76.5938 570.522 73.5152 575.129 Q70.4596 579.712 64.6495 579.712 Q58.8393 579.712 55.7606 575.129 Q52.7051 570.522 52.7051 561.796 Q52.7051 553.046 55.7606 548.462 Q58.8393 543.856 64.6495 543.856 Z" fill="#000000" fill-rule="nonzero" fill-opacity="1" /><path clip-path="url(#clip620)" d="M84.8114 573.161 L89.6956 573.161 L89.6956 579.041 L84.8114 579.041 L84.8114 573.161 Z" fill="#000000" fill-rule="nonzero" fill-opacity="1" /><path clip-path="url(#clip620)" d="M100.691 575.106 L108.33 575.106 L108.33 548.74 L100.02 550.407 L100.02 546.148 L108.283 544.481 L112.959 544.481 L112.959 575.106 L120.598 575.106 L120.598 579.041 L100.691 579.041 L100.691 575.106 Z" fill="#000000" fill-rule="nonzero" fill-opacity="1" /><path clip-path="url(#clip620)" d="M65.0198 406.59 Q61.4087 406.59 59.58 410.155 Q57.7745 413.697 57.7745 420.826 Q57.7745 427.933 59.58 431.497 Q61.4087 435.039 65.0198 435.039 Q68.6541 435.039 70.4596 431.497 Q72.2883 427.933 72.2883 420.826 Q72.2883 413.697 70.4596 410.155 Q68.6541 406.59 65.0198 406.59 M65.0198 402.886 Q70.83 402.886 73.8855 407.493 Q76.9642 412.076 76.9642 420.826 Q76.9642 429.553 73.8855 434.159 Q70.83 438.743 65.0198 438.743 Q59.2097 438.743 56.131 434.159 Q53.0754 429.553 53.0754 420.826 Q53.0754 412.076 56.131 407.493 Q59.2097 402.886 65.0198 402.886 Z" fill="#000000" fill-rule="nonzero" fill-opacity="1" /><path clip-path="url(#clip620)" d="M85.1818 432.192 L90.066 432.192 L90.066 438.071 L85.1818 438.071 L85.1818 432.192 Z" fill="#000000" fill-rule="nonzero" fill-opacity="1" /><path clip-path="url(#clip620)" d="M104.279 434.136 L120.598 434.136 L120.598 438.071 L98.6539 438.071 L98.6539 434.136 Q101.316 431.382 105.899 426.752 Q110.506 422.099 111.686 420.757 Q113.932 418.234 114.811 416.498 Q115.714 414.738 115.714 413.048 Q115.714 410.294 113.77 408.558 Q111.848 406.822 108.746 406.822 Q106.547 406.822 104.094 407.586 Q101.663 408.349 98.8854 409.9 L98.8854 405.178 Q101.709 404.044 104.163 403.465 Q106.617 402.886 108.654 402.886 Q114.024 402.886 117.219 405.572 Q120.413 408.257 120.413 412.748 Q120.413 414.877 119.603 416.798 Q118.816 418.697 116.709 421.289 Q116.131 421.96 113.029 425.178 Q109.927 428.372 104.279 434.136 Z" fill="#000000" fill-rule="nonzero" fill-opacity="1" /><path clip-path="url(#clip620)" d="M64.0708 265.621 Q60.4597 265.621 58.631 269.186 Q56.8254 272.727 56.8254 279.857 Q56.8254 286.963 58.631 290.528 Q60.4597 294.07 64.0708 294.07 Q67.705 294.07 69.5105 290.528 Q71.3392 286.963 71.3392 279.857 Q71.3392 272.727 69.5105 269.186 Q67.705 265.621 64.0708 265.621 M64.0708 261.917 Q69.8809 261.917 72.9365 266.524 Q76.0151 271.107 76.0151 279.857 Q76.0151 288.584 72.9365 293.19 Q69.8809 297.773 64.0708 297.773 Q58.2606 297.773 55.1819 293.19 Q52.1264 288.584 52.1264 279.857 Q52.1264 271.107 55.1819 266.524 Q58.2606 261.917 64.0708 261.917 Z" fill="#000000" fill-rule="nonzero" fill-opacity="1" /><path clip-path="url(#clip620)" d="M84.2327 291.222 L89.1169 291.222 L89.1169 297.102 L84.2327 297.102 L84.2327 291.222 Z" fill="#000000" fill-rule="nonzero" fill-opacity="1" /><path clip-path="url(#clip620)" d="M113.469 278.468 Q116.825 279.185 118.7 281.454 Q120.598 283.723 120.598 287.056 Q120.598 292.172 117.08 294.972 Q113.561 297.773 107.08 297.773 Q104.904 297.773 102.589 297.334 Q100.297 296.917 97.8437 296.06 L97.8437 291.547 Q99.7882 292.681 102.103 293.259 Q104.418 293.838 106.941 293.838 Q111.339 293.838 113.631 292.102 Q115.945 290.366 115.945 287.056 Q115.945 284 113.793 282.287 Q111.663 280.551 107.844 280.551 L103.816 280.551 L103.816 276.709 L108.029 276.709 Q111.478 276.709 113.307 275.343 Q115.135 273.954 115.135 271.361 Q115.135 268.699 113.237 267.287 Q111.362 265.852 107.844 265.852 Q105.922 265.852 103.723 266.269 Q101.524 266.686 98.8854 267.565 L98.8854 263.399 Q101.547 262.658 103.862 262.287 Q106.2 261.917 108.26 261.917 Q113.584 261.917 116.686 264.348 Q119.788 266.755 119.788 270.875 Q119.788 273.746 118.145 275.736 Q116.501 277.704 113.469 278.468 Z" fill="#000000" fill-rule="nonzero" fill-opacity="1" /><path clip-path="url(#clip620)" d="M62.9365 124.651 Q59.3254 124.651 57.4967 128.216 Q55.6912 131.758 55.6912 138.887 Q55.6912 145.994 57.4967 149.559 Q59.3254 153.1 62.9365 153.1 Q66.5707 153.1 68.3763 149.559 Q70.205 145.994 70.205 138.887 Q70.205 131.758 68.3763 128.216 Q66.5707 124.651 62.9365 124.651 M62.9365 120.948 Q68.7467 120.948 71.8022 125.554 Q74.8809 130.137 74.8809 138.887 Q74.8809 147.614 71.8022 152.221 Q68.7467 156.804 62.9365 156.804 Q57.1264 156.804 54.0477 152.221 Q50.9921 147.614 50.9921 138.887 Q50.9921 130.137 54.0477 125.554 Q57.1264 120.948 62.9365 120.948 Z" fill="#000000" fill-rule="nonzero" fill-opacity="1" /><path clip-path="url(#clip620)" d="M83.0984 150.253 L87.9827 150.253 L87.9827 156.133 L83.0984 156.133 L83.0984 150.253 Z" fill="#000000" fill-rule="nonzero" fill-opacity="1" /><path clip-path="url(#clip620)" d="M111.015 125.647 L99.2095 144.096 L111.015 144.096 L111.015 125.647 M109.788 121.573 L115.668 121.573 L115.668 144.096 L120.598 144.096 L120.598 147.985 L115.668 147.985 L115.668 156.133 L111.015 156.133 L111.015 147.985 L95.4132 147.985 L95.4132 143.471 L109.788 121.573 Z" fill="#000000" fill-rule="nonzero" fill-opacity="1" /><path clip-path="url(#clip620)" d="M988.964 21.4656 L988.964 44.1911 L999.254 44.1911 Q1004.97 44.1911 1008.08 41.234 Q1011.2 38.2768 1011.2 32.8081 Q1011.2 27.3799 1008.08 24.4227 Q1004.97 21.4656 999.254 21.4656 L988.964 21.4656 M980.781 14.7411 L999.254 14.7411 Q1009.42 14.7411 1014.61 19.3591 Q1019.83 23.9366 1019.83 32.8081 Q1019.83 41.7606 1014.61 46.3381 Q1009.42 50.9156 999.254 50.9156 L988.964 50.9156 L988.964 75.2211 L980.781 75.2211 L980.781 14.7411 Z" fill="#000000" fill-rule="nonzero" fill-opacity="1" /><path clip-path="url(#clip620)" d="M1038.99 21.4656 L1038.99 68.4966 L1048.88 68.4966 Q1061.39 68.4966 1067.19 62.8253 Q1073.02 57.154 1073.02 44.9203 Q1073.02 32.7676 1067.19 27.1368 Q1061.39 21.4656 1048.88 21.4656 L1038.99 21.4656 M1030.81 14.7411 L1047.62 14.7411 Q1065.2 14.7411 1073.43 22.0732 Q1081.65 29.3648 1081.65 44.9203 Q1081.65 60.5568 1073.39 67.8889 Q1065.12 75.2211 1047.62 75.2211 L1030.81 75.2211 L1030.81 14.7411 Z" fill="#000000" fill-rule="nonzero" fill-opacity="1" /><path clip-path="url(#clip620)" d="M1094.69 14.7411 L1129.45 14.7411 L1129.45 21.6276 L1102.88 21.6276 L1102.88 39.4516 L1126.86 39.4516 L1126.86 46.3381 L1102.88 46.3381 L1102.88 75.2211 L1094.69 75.2211 L1094.69 14.7411 Z" fill="#000000" fill-rule="nonzero" fill-opacity="1" /><path clip-path="url(#clip620)" d="M1186.04 35.0766 Q1180.05 35.0766 1176.56 39.7757 Q1173.08 44.4342 1173.08 52.5765 Q1173.08 60.7188 1176.52 65.4179 Q1180 70.0764 1186.04 70.0764 Q1192 70.0764 1195.48 65.3774 Q1198.96 60.6783 1198.96 52.5765 Q1198.96 44.5152 1195.48 39.8162 Q1192 35.0766 1186.04 35.0766 M1186.04 28.7572 Q1195.76 28.7572 1201.31 35.0766 Q1206.86 41.396 1206.86 52.5765 Q1206.86 63.7165 1201.31 70.0764 Q1195.76 76.3958 1186.04 76.3958 Q1176.28 76.3958 1170.73 70.0764 Q1165.22 63.7165 1165.22 52.5765 Q1165.22 41.396 1170.73 35.0766 Q1176.28 28.7572 1186.04 28.7572 Z" fill="#000000" fill-rule="nonzero" fill-opacity="1" /><path clip-path="url(#clip620)" d="M1242.19 12.189 L1242.19 18.3869 L1235.06 18.3869 Q1231.05 18.3869 1229.47 20.0072 Q1227.93 21.6276 1227.93 25.8405 L1227.93 29.8509 L1240.2 29.8509 L1240.2 35.6437 L1227.93 35.6437 L1227.93 75.2211 L1220.43 75.2211 L1220.43 35.6437 L1213.3 35.6437 L1213.3 29.8509 L1220.43 29.8509 L1220.43 26.6912 Q1220.43 19.116 1223.96 15.6728 Q1227.48 12.189 1235.14 12.189 L1242.19 12.189 Z" fill="#000000" fill-rule="nonzero" fill-opacity="1" /><path clip-path="url(#clip620)" d="M1344.98 20.1725 Q1344.61 21.6481 1343.83 22.1809 L1340.8 23.4926 Q1339.28 23.4926 1339.12 23.1647 Q1338.42 22.3039 1338.3 21.4021 Q1338.3 20.7463 1337.93 20.3364 Q1337.6 19.8855 1337.03 19.8855 Q1335.84 19.8855 1335.1 20.5004 Q1333.34 21.894 1332.23 25.1732 Q1331.29 27.8784 1328.63 38.2897 L1320.06 73.2946 L1315.35 75.7949 Q1311.7 61.6536 1307.84 50.4225 Q1303.99 39.1505 1298.99 30.2968 L1295.3 43.4954 Q1290.38 59.1123 1289.44 61.0388 Q1286.53 67.4331 1281.69 71.532 Q1276.9 75.549 1272.39 75.549 Q1269.48 75.549 1268.17 73.7864 Q1266.98 72.3108 1267.43 70.5893 Q1267.76 68.9907 1269.6 67.5151 Q1270.75 66.6543 1271.69 66.6543 Q1273.17 66.6543 1273.74 67.4331 Q1273.82 67.5151 1273.95 67.802 Q1274.07 68.0889 1274.23 68.4988 Q1274.4 68.8677 1274.48 69.0727 Q1274.97 70.2614 1276.57 70.2614 Q1279.19 70.2614 1282.1 67.925 Q1283.21 67.0232 1284.15 65.7115 Q1285.14 64.3589 1285.55 63.5391 Q1286 62.7193 1286.9 60.8748 Q1289.07 55.9151 1291.12 48.0862 L1296.57 26.3618 Q1294.6 23.8205 1292.8 22.5908 Q1290.79 21.2382 1289.15 21.2382 Q1286.08 21.2382 1284.07 23.0007 Q1283 23.8205 1282.02 25.1732 Q1281.08 26.5258 1280.59 27.4686 Q1280.09 28.4113 1279.36 30.1329 L1277.43 30.5427 Q1279.32 23.0417 1283.78 19.3937 Q1287.68 16.3605 1292.8 16.3605 Q1297.72 16.3605 1301.53 21.6481 Q1302.84 23.3286 1304.07 25.706 Q1305.34 28.0424 1305.92 29.477 Q1306.53 30.8707 1307.8 33.9858 L1318.95 64.8098 L1319.81 63.7851 L1326.29 34.9286 Q1327.52 29.764 1329.98 24.5993 Q1331.86 20.4184 1334.08 18.6559 Q1337.4 15.9506 1341.46 15.9506 Q1343.34 15.9506 1344.49 17.2212 Q1345.39 18.3689 1344.98 20.1725 Z" fill="#000000" fill-rule="nonzero" fill-opacity="1" /><path clip-path="url(#clip620)" d="M1350.69 54.2346 Q1350.69 40.0523 1355.97 28.6163 Q1358.23 23.8205 1361.39 19.8036 Q1364.54 15.7866 1366.63 14.0241 Q1368.72 12.2615 1369.3 12.2615 Q1370.12 12.2615 1370.16 13.0813 Q1370.16 13.4912 1369.05 14.5159 Q1355.52 28.2883 1355.56 54.2346 Q1355.56 80.2627 1368.72 93.5023 Q1370.16 94.9369 1370.16 95.3878 Q1370.16 96.2076 1369.3 96.2076 Q1368.72 96.2076 1366.71 94.527 Q1364.71 92.8465 1361.59 88.9935 Q1358.47 85.1405 1356.22 80.4267 Q1350.69 68.9907 1350.69 54.2346 Z" fill="#000000" fill-rule="nonzero" fill-opacity="1" /><path clip-path="url(#clip620)" d="M1378.22 48.3731 Q1378.22 36.0353 1381.33 29.3131 Q1385.68 19.3117 1395.92 19.3117 Q1398.1 19.3117 1400.35 19.9265 Q1402.65 20.5004 1405.51 22.7548 Q1408.43 25.0092 1410.19 28.6982 Q1413.55 35.8304 1413.55 48.3731 Q1413.55 60.6289 1410.43 67.3101 Q1405.88 77.0656 1395.84 77.0656 Q1392.07 77.0656 1388.22 75.1391 Q1384.41 73.2126 1381.99 68.5808 Q1378.22 61.6536 1378.22 48.3731 M1385.18 47.3484 Q1385.18 60.014 1386.09 65.0557 Q1387.11 70.5073 1389.9 72.8847 Q1392.73 75.2211 1395.84 75.2211 Q1399.2 75.2211 1401.99 72.7207 Q1404.82 70.1794 1405.68 64.7278 Q1406.62 59.3582 1406.58 47.3484 Q1406.58 35.6664 1405.76 30.9936 Q1404.65 25.5421 1401.7 23.3696 Q1398.79 21.1562 1395.84 21.1562 Q1394.73 21.1562 1393.55 21.4841 Q1392.4 21.812 1390.72 22.7548 Q1389.04 23.6975 1387.73 26.0339 Q1386.45 28.3703 1385.84 31.8954 Q1385.18 36.4452 1385.18 47.3484 Z" fill="#000000" fill-rule="nonzero" fill-opacity="1" /><path clip-path="url(#clip620)" d="M1420.98 73.8684 Q1419.79 72.5158 1419.79 70.7532 Q1419.79 68.9907 1420.93 67.679 Q1422.12 66.3264 1424.25 66.3264 Q1426.75 66.3264 1428.19 68.7448 Q1429.62 71.1221 1429.62 75.1391 Q1429.62 79.4839 1427.86 83.5009 Q1426.1 87.5588 1424.38 89.4853 Q1422.66 91.4118 1421.96 91.4118 Q1421.14 91.4118 1421.14 90.5101 Q1421.14 90.1821 1421.71 89.5673 Q1427.74 83.091 1427.78 75.1391 Q1427.78 73.8684 1427.62 73.8684 L1427.41 74.0324 Q1425.98 75.2211 1424.25 75.2211 Q1422.16 75.2211 1420.98 73.8684 Z" fill="#000000" fill-rule="nonzero" fill-opacity="1" /><path clip-path="url(#clip620)" d="M1456.11 27.3046 L1456.11 24.6813 Q1466.2 24.6813 1471.4 19.3117 Q1472.84 19.3117 1473.08 19.6396 Q1473.33 19.9675 1473.33 21.4841 L1473.33 68.5808 Q1473.33 71.0811 1474.56 71.8599 Q1475.79 72.6387 1481.16 72.6387 L1483.82 72.6387 L1483.82 75.2211 Q1480.87 74.9751 1470.21 74.9751 Q1459.56 74.9751 1456.65 75.2211 L1456.65 72.6387 L1459.31 72.6387 Q1464.6 72.6387 1465.87 71.9009 Q1467.14 71.1221 1467.14 68.5808 L1467.14 25.0912 Q1462.75 27.3046 1456.11 27.3046 Z" fill="#000000" fill-rule="nonzero" fill-opacity="1" /><path clip-path="url(#clip620)" d="M1496.34 95.3878 Q1496.34 94.9779 1497.41 93.9532 Q1510.93 80.1808 1510.93 54.2346 Q1510.93 28.2064 1497.94 15.0488 Q1496.34 13.5322 1496.34 13.0813 Q1496.34 12.2615 1497.16 12.2615 Q1497.73 12.2615 1499.74 13.9421 Q1501.79 15.6227 1504.87 19.4756 Q1507.98 23.3286 1510.28 28.0424 Q1515.81 39.4784 1515.81 54.2346 Q1515.81 68.4168 1510.52 79.8529 Q1508.27 84.6486 1505.11 88.6655 Q1501.95 92.6825 1499.86 94.445 Q1497.77 96.2076 1497.16 96.2076 Q1496.34 96.2076 1496.34 95.3878 Z" fill="#000000" fill-rule="nonzero" fill-opacity="1" /><polyline clip-path="url(#clip622)" style="stroke:#009af9; stroke-linecap:round; stroke-linejoin:round; stroke-width:4; stroke-opacity:1; fill:none" points="218.754,702.542 229.113,702.509 239.472,702.471 249.831,702.428 260.191,702.377 270.55,702.319 280.909,702.252 291.268,702.174 301.628,702.086 311.987,701.984 322.346,701.868 332.705,701.735 343.064,701.583 353.424,701.411 363.783,701.215 374.142,700.993 384.501,700.742 394.861,700.458 405.22,700.137 415.579,699.776 425.938,699.369 436.298,698.914 446.657,698.403 457.016,697.831 467.375,697.194 477.734,696.483 488.094,695.692 498.453,694.813 508.812,693.84 519.171,692.762 529.531,691.572 539.89,690.259 550.249,688.815 560.608,687.228 570.968,685.488 581.327,683.582 591.686,681.501 602.045,679.231 612.405,676.759 622.764,674.074 633.123,671.161 643.482,668.008 653.841,664.601 664.201,660.926 674.56,656.971 684.919,652.722 695.278,648.165 705.638,643.289 715.997,638.08 726.356,632.527 736.715,626.62 747.075,620.346 757.434,613.699 767.793,606.669 778.152,599.249 788.512,591.435 798.871,583.222 809.23,574.607 819.589,565.592 829.948,556.177 840.308,546.366 850.667,536.165 861.026,525.582 871.385,514.627 881.745,503.315 892.104,491.66 902.463,479.682 912.822,467.4 923.182,454.839 933.541,442.025 943.9,428.987 954.259,415.757 964.619,402.368 974.978,388.857 985.337,375.263 995.696,361.626 1006.06,347.989 1016.41,334.397 1026.77,320.895 1037.13,307.531 1047.49,294.354 1057.85,281.412 1068.21,268.754 1078.57,256.431 1088.93,244.492 1099.29,232.986 1109.65,221.96 1120.01,211.462 1130.37,201.538 1140.73,192.231 1151.08,183.582 1161.44,175.631 1171.8,168.413 1182.16,161.963 1192.52,156.309 1202.88,151.48 1213.24,147.496 1223.6,144.378 1233.96,142.14 1244.32,140.793 1254.68,140.344 1265.04,140.793 1275.4,142.14 1285.75,144.378 1296.11,147.496 1306.47,151.48 1316.83,156.309 1327.19,161.963 1337.55,168.413 1347.91,175.631 1358.27,183.582 1368.63,192.231 1378.99,201.538 1389.35,211.462 1399.71,221.96 1410.07,232.986 1420.42,244.492 1430.78,256.431 1441.14,268.754 1451.5,281.412 1461.86,294.354 1472.22,307.531 1482.58,320.895 1492.94,334.397 1503.3,347.989 1513.66,361.626 1524.02,375.263 1534.38,388.857 1544.74,402.368 1555.09,415.757 1565.45,428.987 1575.81,442.025 1586.17,454.839 1596.53,467.4 1606.89,479.682 1617.25,491.66 1627.61,503.315 1637.97,514.627 1648.33,525.582 1658.69,536.165 1669.05,546.366 1679.41,556.177 1689.76,565.592 1700.12,574.607 1710.48,583.222 1720.84,591.435 1731.2,599.249 1741.56,606.669 1751.92,613.699 1762.28,620.346 1772.64,626.62 1783,632.527 1793.36,638.08 1803.72,643.289 1814.08,648.165 1824.43,652.722 1834.79,656.971 1845.15,660.926 1855.51,664.601 1865.87,668.008 1876.23,671.161 1886.59,674.074 1896.95,676.759 1907.31,679.231 1917.67,681.501 1928.03,683.582 1938.39,685.488 1948.75,687.228 1959.11,688.815 1969.46,690.259 1979.82,691.572 1990.18,692.762 2000.54,693.84 2010.9,694.813 2021.26,695.692 2031.62,696.483 2041.98,697.194 2052.34,697.831 2062.7,698.403 2073.06,698.914 2083.42,699.369 2093.78,699.776 2104.13,700.137 2114.49,700.458 2124.85,700.742 2135.21,700.993 2145.57,701.215 2155.93,701.411 2166.29,701.583 2176.65,701.735 2187.01,701.868 2197.37,701.984 2207.73,702.086 2218.09,702.174 2228.45,702.252 2238.8,702.319 2249.16,702.377 2259.52,702.428 2269.88,702.471 2280.24,702.509 2290.6,702.542 "/>
<path clip-path="url(#clip622)" d="M218.754 702.73 L229.113 702.73 L239.472 702.73 L249.831 702.73 L260.191 702.73 L270.55 702.73 L280.909 702.73 L291.268 702.73 L301.628 702.73 L311.987 702.73 L322.346 702.73 L332.705 702.73 L343.064 702.73 L353.424 702.73 L363.783 702.73 L374.142 702.73 L384.501 702.73 L394.861 702.73 L405.22 702.73 L415.579 702.73 L425.938 702.73 L436.298 702.73 L446.657 702.73 L457.016 702.73 L467.375 702.73 L477.734 702.73 L488.094 702.73 L498.453 702.73 L508.812 702.73 L519.171 702.73 L529.531 702.73 L539.89 702.73 L550.249 702.73 L560.608 702.73 L570.968 702.73 L581.327 702.73 L591.686 702.73 L602.045 702.73 L612.405 702.73 L622.764 702.73 L633.123 702.73 L643.482 702.73 L653.841 702.73 L664.201 702.73 L674.56 702.73 L684.919 702.73 L695.278 702.73 L705.638 702.73 L715.997 702.73 L726.356 702.73 L736.715 702.73 L747.075 702.73 L757.434 702.73 L767.793 702.73 L778.152 702.73 L788.512 702.73 L798.871 702.73 L809.23 702.73 L819.589 702.73 L829.948 702.73 L840.308 702.73 L850.667 702.73 L861.026 702.73 L871.385 702.73 L881.745 702.73 L892.104 702.73 L902.463 702.73 L912.822 702.73 L923.182 702.73 L933.541 702.73 L943.9 702.73 L954.259 702.73 L954.259 415.757 L943.9 428.987 L933.541 442.025 L923.182 454.839 L912.822 467.4 L902.463 479.682 L892.104 491.66 L881.745 503.315 L871.385 514.627 L861.026 525.582 L850.667 536.165 L840.308 546.366 L829.948 556.177 L819.589 565.592 L809.23 574.607 L798.871 583.222 L788.512 591.435 L778.152 599.249 L767.793 606.669 L757.434 613.699 L747.075 620.346 L736.715 626.62 L726.356 632.527 L715.997 638.08 L705.638 643.289 L695.278 648.165 L684.919 652.722 L674.56 656.971 L664.201 660.926 L653.841 664.601 L643.482 668.008 L633.123 671.161 L622.764 674.074 L612.405 676.759 L602.045 679.231 L591.686 681.501 L581.327 683.582 L570.968 685.488 L560.608 687.228 L550.249 688.815 L539.89 690.259 L529.531 691.572 L519.171 692.762 L508.812 693.84 L498.453 694.813 L488.094 695.692 L477.734 696.483 L467.375 697.194 L457.016 697.831 L446.657 698.403 L436.298 698.914 L425.938 699.369 L415.579 699.776 L405.22 700.137 L394.861 700.458 L384.501 700.742 L374.142 700.993 L363.783 701.215 L353.424 701.411 L343.064 701.583 L332.705 701.735 L322.346 701.868 L311.987 701.984 L301.628 702.086 L291.268 702.174 L280.909 702.252 L270.55 702.319 L260.191 702.377 L249.831 702.428 L239.472 702.471 L229.113 702.509 L218.754 702.542  Z" fill="#009af9" fill-rule="evenodd" fill-opacity="0.2"/>
<polyline clip-path="url(#clip622)" style="stroke:#009af9; stroke-linecap:round; stroke-linejoin:round; stroke-width:4; stroke-opacity:1; fill:none" points="218.754,702.73 229.113,702.73 239.472,702.73 249.831,702.73 260.191,702.73 270.55,702.73 280.909,702.73 291.268,702.73 301.628,702.73 311.987,702.73 322.346,702.73 332.705,702.73 343.064,702.73 353.424,702.73 363.783,702.73 374.142,702.73 384.501,702.73 394.861,702.73 405.22,702.73 415.579,702.73 425.938,702.73 436.298,702.73 446.657,702.73 457.016,702.73 467.375,702.73 477.734,702.73 488.094,702.73 498.453,702.73 508.812,702.73 519.171,702.73 529.531,702.73 539.89,702.73 550.249,702.73 560.608,702.73 570.968,702.73 581.327,702.73 591.686,702.73 602.045,702.73 612.405,702.73 622.764,702.73 633.123,702.73 643.482,702.73 653.841,702.73 664.201,702.73 674.56,702.73 684.919,702.73 695.278,702.73 705.638,702.73 715.997,702.73 726.356,702.73 736.715,702.73 747.075,702.73 757.434,702.73 767.793,702.73 778.152,702.73 788.512,702.73 798.871,702.73 809.23,702.73 819.589,702.73 829.948,702.73 840.308,702.73 850.667,702.73 861.026,702.73 871.385,702.73 881.745,702.73 892.104,702.73 902.463,702.73 912.822,702.73 923.182,702.73 933.541,702.73 943.9,702.73 954.259,702.73 "/>
<path clip-path="url(#clip620)" d="M1592.01 247.023 L2279.55 247.023 L2279.55 143.343 L1592.01 143.343  Z" fill="#ffffff" fill-rule="evenodd" fill-opacity="1"/>
<polyline clip-path="url(#clip620)" style="stroke:#000000; stroke-linecap:round; stroke-linejoin:round; stroke-width:4; stroke-opacity:1; fill:none" points="1592.01,247.023 2279.55,247.023 2279.55,143.343 1592.01,143.343 1592.01,247.023 "/>
<path clip-path="url(#clip620)" d="M1616.41 215.919 L1762.82 215.919 L1762.82 174.447 L1616.41 174.447 L1616.41 215.919  Z" fill="#009af9" fill-rule="evenodd" fill-opacity="0.2"/>
<polyline clip-path="url(#clip620)" style="stroke:#009af9; stroke-linecap:round; stroke-linejoin:round; stroke-width:4; stroke-opacity:1; fill:none" points="1616.41,174.447 1762.82,174.447 "/>
<path clip-path="url(#clip620)" d="M1814.13 187.046 Q1814.09 187.281 1813.99 187.702 Q1813.9 188.1 1813.48 189.365 Q1813.06 190.63 1812.49 191.918 Q1811.96 193.183 1810.9 194.963 Q1809.87 196.72 1808.61 198.313 Q1808.26 198.734 1808.18 198.992 Q1808.14 199.226 1808.14 199.999 Q1808.14 204.871 1809.61 204.871 Q1809.68 204.871 1809.8 204.871 Q1809.94 204.848 1810.29 204.73 Q1810.67 204.59 1811 204.379 Q1811.32 204.145 1811.7 203.676 Q1812.07 203.185 1812.31 202.529 Q1812.52 202.06 1812.94 202.06 Q1813.5 202.06 1813.5 202.529 Q1813.5 203.372 1812.33 204.66 Q1811.16 205.948 1809.47 205.948 Q1807.86 205.948 1806.71 204.894 Q1805.58 203.817 1805.12 201.896 Q1800.06 205.948 1795 205.948 Q1791.44 205.948 1789.33 203.63 Q1787.22 201.287 1787.22 197.821 Q1787.22 194.495 1789.05 191.333 Q1790.9 188.171 1793.9 186.203 Q1796.92 184.212 1800.13 184.212 Q1801.25 184.212 1802.33 184.517 Q1803.41 184.798 1804.48 185.524 Q1805.56 186.25 1806.36 187.351 Q1807.15 188.452 1807.65 190.185 Q1808.14 191.918 1808.14 194.097 L1808.14 197.071 Q1811.23 193.16 1812.85 187.562 Q1813.08 186.719 1813.22 186.625 Q1813.31 186.555 1813.55 186.555 Q1813.78 186.555 1813.92 186.695 Q1814.09 186.812 1814.11 186.929 L1814.13 187.046 M1804.93 200.655 Q1804.84 199.835 1804.84 195.291 Q1804.84 194.425 1804.84 193.956 Q1804.84 193.464 1804.79 192.527 Q1804.74 191.59 1804.65 191.005 Q1804.58 190.419 1804.41 189.576 Q1804.25 188.733 1804.02 188.194 Q1803.78 187.655 1803.41 187.046 Q1803.06 186.438 1802.59 186.086 Q1802.14 185.735 1801.49 185.501 Q1800.85 185.266 1800.08 185.266 Q1799.12 185.266 1798.11 185.618 Q1797.13 185.946 1795.86 187 Q1794.6 188.03 1793.55 189.67 Q1792.44 191.403 1791.6 194.589 Q1790.78 197.751 1790.78 199.648 Q1790.78 202.037 1791.88 203.466 Q1792.98 204.871 1795.09 204.871 Q1800.13 204.871 1804.93 200.655 Z" fill="#000000" fill-rule="nonzero" fill-opacity="1" /><path clip-path="url(#clip620)" d="M1837.7 183.882 L1867.37 183.882 L1867.37 187.771 L1837.7 187.771 L1837.7 183.882 M1837.7 193.326 L1867.37 193.326 L1867.37 197.262 L1837.7 197.262 L1837.7 193.326 Z" fill="#000000" fill-rule="nonzero" fill-opacity="1" /><path clip-path="url(#clip620)" d="M1903.67 175.456 L1897.33 192.655 L1910.04 192.655 L1903.67 175.456 M1901.03 170.85 L1906.33 170.85 L1919.5 205.41 L1914.64 205.41 L1911.49 196.544 L1895.91 196.544 L1892.77 205.41 L1887.84 205.41 L1901.03 170.85 Z" fill="#000000" fill-rule="nonzero" fill-opacity="1" /><path clip-path="url(#clip620)" d="M1939.39 183.465 Q1938.67 183.049 1937.81 182.864 Q1936.98 182.655 1935.96 182.655 Q1932.35 182.655 1930.41 185.016 Q1928.48 187.354 1928.48 191.752 L1928.48 205.41 L1924.2 205.41 L1924.2 179.484 L1928.48 179.484 L1928.48 183.512 Q1929.83 181.151 1931.98 180.016 Q1934.13 178.859 1937.21 178.859 Q1937.65 178.859 1938.18 178.928 Q1938.72 178.975 1939.36 179.09 L1939.39 183.465 Z" fill="#000000" fill-rule="nonzero" fill-opacity="1" /><path clip-path="url(#clip620)" d="M1964.99 191.382 L1964.99 193.465 L1945.41 193.465 Q1945.68 197.863 1948.04 200.178 Q1950.43 202.47 1954.66 202.47 Q1957.12 202.47 1959.41 201.868 Q1961.72 201.266 1963.99 200.062 L1963.99 204.09 Q1961.7 205.062 1959.29 205.572 Q1956.89 206.081 1954.41 206.081 Q1948.21 206.081 1944.57 202.47 Q1940.96 198.859 1940.96 192.701 Q1940.96 186.336 1944.39 182.609 Q1947.84 178.859 1953.67 178.859 Q1958.9 178.859 1961.93 182.239 Q1964.99 185.595 1964.99 191.382 M1960.73 190.132 Q1960.68 186.637 1958.76 184.553 Q1956.86 182.47 1953.72 182.47 Q1950.15 182.47 1948 184.484 Q1945.87 186.498 1945.54 190.155 L1960.73 190.132 Z" fill="#000000" fill-rule="nonzero" fill-opacity="1" /><path clip-path="url(#clip620)" d="M1983.76 192.377 Q1978.6 192.377 1976.61 193.558 Q1974.62 194.738 1974.62 197.586 Q1974.62 199.854 1976.1 201.197 Q1977.6 202.516 1980.17 202.516 Q1983.72 202.516 1985.84 200.016 Q1988 197.493 1988 193.326 L1988 192.377 L1983.76 192.377 M1992.26 190.618 L1992.26 205.41 L1988 205.41 L1988 201.475 Q1986.54 203.836 1984.36 204.97 Q1982.19 206.081 1979.04 206.081 Q1975.06 206.081 1972.7 203.859 Q1970.36 201.613 1970.36 197.863 Q1970.36 193.488 1973.28 191.266 Q1976.22 189.044 1982.03 189.044 L1988 189.044 L1988 188.627 Q1988 185.688 1986.05 184.09 Q1984.13 182.47 1980.64 182.47 Q1978.41 182.47 1976.31 183.002 Q1974.2 183.535 1972.26 184.6 L1972.26 180.664 Q1974.59 179.762 1976.79 179.322 Q1978.99 178.859 1981.08 178.859 Q1986.7 178.859 1989.48 181.776 Q1992.26 184.692 1992.26 190.618 Z" fill="#000000" fill-rule="nonzero" fill-opacity="1" /><path clip-path="url(#clip620)" d="M2015.66 195.178 L2015.66 179.484 L2019.92 179.484 L2019.92 195.016 Q2019.92 198.697 2021.35 200.549 Q2022.79 202.377 2025.66 202.377 Q2029.11 202.377 2031.1 200.178 Q2033.11 197.979 2033.11 194.183 L2033.11 179.484 L2037.37 179.484 L2037.37 205.41 L2033.11 205.41 L2033.11 201.428 Q2031.56 203.789 2029.5 204.947 Q2027.46 206.081 2024.76 206.081 Q2020.29 206.081 2017.97 203.303 Q2015.66 200.525 2015.66 195.178 M2026.38 178.859 L2026.38 178.859 Z" fill="#000000" fill-rule="nonzero" fill-opacity="1" /><path clip-path="url(#clip620)" d="M2067.7 189.762 L2067.7 205.41 L2063.44 205.41 L2063.44 189.901 Q2063.44 186.22 2062 184.391 Q2060.57 182.563 2057.7 182.563 Q2054.25 182.563 2052.26 184.762 Q2050.27 186.961 2050.27 190.757 L2050.27 205.41 L2045.98 205.41 L2045.98 179.484 L2050.27 179.484 L2050.27 183.512 Q2051.79 181.174 2053.85 180.016 Q2055.94 178.859 2058.65 178.859 Q2063.11 178.859 2065.4 181.637 Q2067.7 184.391 2067.7 189.762 Z" fill="#000000" fill-rule="nonzero" fill-opacity="1" /><path clip-path="url(#clip620)" d="M2093.25 183.419 L2093.25 169.391 L2097.51 169.391 L2097.51 205.41 L2093.25 205.41 L2093.25 201.521 Q2091.91 203.836 2089.85 204.97 Q2087.81 206.081 2084.94 206.081 Q2080.24 206.081 2077.28 202.331 Q2074.34 198.581 2074.34 192.47 Q2074.34 186.359 2077.28 182.609 Q2080.24 178.859 2084.94 178.859 Q2087.81 178.859 2089.85 179.993 Q2091.91 181.104 2093.25 183.419 M2078.74 192.47 Q2078.74 197.169 2080.66 199.854 Q2082.6 202.516 2085.98 202.516 Q2089.36 202.516 2091.31 199.854 Q2093.25 197.169 2093.25 192.47 Q2093.25 187.771 2091.31 185.109 Q2089.36 182.424 2085.98 182.424 Q2082.6 182.424 2080.66 185.109 Q2078.74 187.771 2078.74 192.47 Z" fill="#000000" fill-rule="nonzero" fill-opacity="1" /><path clip-path="url(#clip620)" d="M2128.46 191.382 L2128.46 193.465 L2108.88 193.465 Q2109.15 197.863 2111.52 200.178 Q2113.9 202.47 2118.14 202.47 Q2120.59 202.47 2122.88 201.868 Q2125.2 201.266 2127.46 200.062 L2127.46 204.09 Q2125.17 205.062 2122.77 205.572 Q2120.36 206.081 2117.88 206.081 Q2111.68 206.081 2108.04 202.47 Q2104.43 198.859 2104.43 192.701 Q2104.43 186.336 2107.86 182.609 Q2111.31 178.859 2117.14 178.859 Q2122.37 178.859 2125.4 182.239 Q2128.46 185.595 2128.46 191.382 M2124.2 190.132 Q2124.15 186.637 2122.23 184.553 Q2120.33 182.47 2117.19 182.47 Q2113.62 182.47 2111.47 184.484 Q2109.34 186.498 2109.02 190.155 L2124.2 190.132 Z" fill="#000000" fill-rule="nonzero" fill-opacity="1" /><path clip-path="url(#clip620)" d="M2150.47 183.465 Q2149.76 183.049 2148.9 182.864 Q2148.07 182.655 2147.05 182.655 Q2143.44 182.655 2141.49 185.016 Q2139.57 187.354 2139.57 191.752 L2139.57 205.41 L2135.29 205.41 L2135.29 179.484 L2139.57 179.484 L2139.57 183.512 Q2140.91 181.151 2143.07 180.016 Q2145.22 178.859 2148.3 178.859 Q2148.74 178.859 2149.27 178.928 Q2149.8 178.975 2150.45 179.09 L2150.47 183.465 Z" fill="#000000" fill-rule="nonzero" fill-opacity="1" /><path clip-path="url(#clip620)" d="M2174.87 174.692 L2174.87 187.678 L2180.75 187.678 Q2184.02 187.678 2185.8 185.988 Q2187.58 184.299 2187.58 181.174 Q2187.58 178.072 2185.8 176.382 Q2184.02 174.692 2180.75 174.692 L2174.87 174.692 M2170.2 170.85 L2180.75 170.85 Q2186.56 170.85 2189.52 173.489 Q2192.51 176.104 2192.51 181.174 Q2192.51 186.289 2189.52 188.905 Q2186.56 191.521 2180.75 191.521 L2174.87 191.521 L2174.87 205.41 L2170.2 205.41 L2170.2 170.85 Z" fill="#000000" fill-rule="nonzero" fill-opacity="1" /><path clip-path="url(#clip620)" d="M2203.46 174.692 L2203.46 201.567 L2209.11 201.567 Q2216.26 201.567 2219.57 198.326 Q2222.9 195.086 2222.9 188.095 Q2222.9 181.151 2219.57 177.933 Q2216.26 174.692 2209.11 174.692 L2203.46 174.692 M2198.78 170.85 L2208.39 170.85 Q2218.44 170.85 2223.14 175.039 Q2227.83 179.206 2227.83 188.095 Q2227.83 197.03 2223.11 201.22 Q2218.39 205.41 2208.39 205.41 L2198.78 205.41 L2198.78 170.85 Z" fill="#000000" fill-rule="nonzero" fill-opacity="1" /><path clip-path="url(#clip620)" d="M2235.29 170.85 L2255.15 170.85 L2255.15 174.785 L2239.96 174.785 L2239.96 184.97 L2253.67 184.97 L2253.67 188.905 L2239.96 188.905 L2239.96 205.41 L2235.29 205.41 L2235.29 170.85 Z" fill="#000000" fill-rule="nonzero" fill-opacity="1" /><path clip-path="url(#clip620)" d="M110.881 1552.76 L2352.76 1552.76 L2352.76 956.626 L110.881 956.626  Z" fill="#ffffff" fill-rule="evenodd" fill-opacity="1"/>
<defs>
  <clipPath id="clip623">
    <rect x="110" y="956" width="2243" height="597"/>
  </clipPath>
</defs>
<polyline clip-path="url(#clip623)" style="stroke:#000000; stroke-linecap:round; stroke-linejoin:round; stroke-width:2; stroke-opacity:0.1; fill:none" points="110.881,1552.76 2352.76,1552.76 "/>
<polyline clip-path="url(#clip623)" style="stroke:#000000; stroke-linecap:round; stroke-linejoin:round; stroke-width:2; stroke-opacity:0.1; fill:none" points="110.881,956.626 2352.76,956.626 "/>
<polyline clip-path="url(#clip620)" style="stroke:#000000; stroke-linecap:round; stroke-linejoin:round; stroke-width:4; stroke-opacity:1; fill:none" points="110.881,1552.76 2352.76,1552.76 "/>
<polyline clip-path="url(#clip620)" style="stroke:#000000; stroke-linecap:round; stroke-linejoin:round; stroke-width:4; stroke-opacity:1; fill:none" points="110.881,1552.76 110.881,956.626 "/>
<polyline clip-path="url(#clip620)" style="stroke:#000000; stroke-linecap:round; stroke-linejoin:round; stroke-width:4; stroke-opacity:1; fill:none" points="110.881,1552.76 129.779,1552.76 "/>
<polyline clip-path="url(#clip620)" style="stroke:#000000; stroke-linecap:round; stroke-linejoin:round; stroke-width:4; stroke-opacity:1; fill:none" points="110.881,956.626 129.779,956.626 "/>
<path clip-path="url(#clip620)" d="M62.9365 1538.55 Q59.3254 1538.55 57.4967 1542.12 Q55.6912 1545.66 55.6912 1552.79 Q55.6912 1559.9 57.4967 1563.46 Q59.3254 1567 62.9365 1567 Q66.5707 1567 68.3763 1563.46 Q70.205 1559.9 70.205 1552.79 Q70.205 1545.66 68.3763 1542.12 Q66.5707 1538.55 62.9365 1538.55 M62.9365 1534.85 Q68.7467 1534.85 71.8022 1539.46 Q74.8809 1544.04 74.8809 1552.79 Q74.8809 1561.52 71.8022 1566.12 Q68.7467 1570.71 62.9365 1570.71 Q57.1264 1570.71 54.0477 1566.12 Q50.9921 1561.52 50.9921 1552.79 Q50.9921 1544.04 54.0477 1539.46 Q57.1264 1534.85 62.9365 1534.85 Z" fill="#000000" fill-rule="nonzero" fill-opacity="1" /><path clip-path="url(#clip620)" d="M54.9736 969.971 L62.6124 969.971 L62.6124 943.605 L54.3023 945.272 L54.3023 941.013 L62.5661 939.346 L67.242 939.346 L67.242 969.971 L74.8809 969.971 L74.8809 973.906 L54.9736 973.906 L54.9736 969.971 Z" fill="#000000" fill-rule="nonzero" fill-opacity="1" /><path clip-path="url(#clip620)" d="M1001 852.554 L1001 861.182 Q996.872 857.334 992.173 855.43 Q987.515 853.526 982.248 853.526 Q971.878 853.526 966.369 859.886 Q960.86 866.205 960.86 878.196 Q960.86 890.146 966.369 896.506 Q971.878 902.825 982.248 902.825 Q987.515 902.825 992.173 900.921 Q996.872 899.017 1001 895.169 L1001 903.717 Q996.71 906.633 991.89 908.092 Q987.11 909.55 981.762 909.55 Q968.03 909.55 960.131 901.164 Q952.231 892.739 952.231 878.196 Q952.231 863.613 960.131 855.227 Q968.03 846.801 981.762 846.801 Q987.191 846.801 991.971 848.26 Q996.791 849.677 1001 852.554 Z" fill="#000000" fill-rule="nonzero" fill-opacity="1" /><path clip-path="url(#clip620)" d="M1021.83 854.62 L1021.83 901.651 L1031.71 901.651 Q1044.23 901.651 1050.02 895.979 Q1055.85 890.308 1055.85 878.074 Q1055.85 865.922 1050.02 860.291 Q1044.23 854.62 1031.71 854.62 L1021.83 854.62 M1013.64 847.895 L1030.45 847.895 Q1048.04 847.895 1056.26 855.227 Q1064.48 862.519 1064.48 878.074 Q1064.48 893.711 1056.22 901.043 Q1047.95 908.375 1030.45 908.375 L1013.64 908.375 L1013.64 847.895 Z" fill="#000000" fill-rule="nonzero" fill-opacity="1" /><path clip-path="url(#clip620)" d="M1077.53 847.895 L1112.28 847.895 L1112.28 854.782 L1085.71 854.782 L1085.71 872.606 L1109.69 872.606 L1109.69 879.492 L1085.71 879.492 L1085.71 908.375 L1077.53 908.375 L1077.53 847.895 Z" fill="#000000" fill-rule="nonzero" fill-opacity="1" /><path clip-path="url(#clip620)" d="M1168.87 868.231 Q1162.88 868.231 1159.39 872.93 Q1155.91 877.588 1155.91 885.731 Q1155.91 893.873 1159.35 898.572 Q1162.84 903.23 1168.87 903.23 Q1174.83 903.23 1178.31 898.531 Q1181.8 893.832 1181.8 885.731 Q1181.8 877.669 1178.31 872.97 Q1174.83 868.231 1168.87 868.231 M1168.87 861.911 Q1178.6 861.911 1184.15 868.231 Q1189.7 874.55 1189.7 885.731 Q1189.7 896.871 1184.15 903.23 Q1178.6 909.55 1168.87 909.55 Q1159.11 909.55 1153.56 903.23 Q1148.05 896.871 1148.05 885.731 Q1148.05 874.55 1153.56 868.231 Q1159.11 861.911 1168.87 861.911 Z" fill="#000000" fill-rule="nonzero" fill-opacity="1" /><path clip-path="url(#clip620)" d="M1225.02 845.343 L1225.02 851.541 L1217.89 851.541 Q1213.88 851.541 1212.3 853.161 Q1210.76 854.782 1210.76 858.995 L1210.76 863.005 L1223.03 863.005 L1223.03 868.798 L1210.76 868.798 L1210.76 908.375 L1203.27 908.375 L1203.27 868.798 L1196.14 868.798 L1196.14 863.005 L1203.27 863.005 L1203.27 859.845 Q1203.27 852.27 1206.79 848.827 Q1210.31 845.343 1217.97 845.343 L1225.02 845.343 Z" fill="#000000" fill-rule="nonzero" fill-opacity="1" /><path clip-path="url(#clip620)" d="M1327.81 853.326 Q1327.44 854.802 1326.67 855.335 L1323.63 856.647 Q1322.12 856.647 1321.95 856.319 Q1321.25 855.458 1321.13 854.556 Q1321.13 853.9 1320.76 853.49 Q1320.44 853.04 1319.86 853.04 Q1318.67 853.04 1317.93 853.654 Q1316.17 855.048 1315.07 858.327 Q1314.12 861.032 1311.46 871.444 L1302.89 906.449 L1298.18 908.949 Q1294.53 894.808 1290.68 883.577 Q1286.82 872.305 1281.82 863.451 L1278.13 876.649 Q1273.22 892.266 1272.27 894.193 Q1269.36 900.587 1264.53 904.686 Q1259.73 908.703 1255.22 908.703 Q1252.31 908.703 1251 906.94 Q1249.81 905.465 1250.26 903.743 Q1250.59 902.145 1252.43 900.669 Q1253.58 899.808 1254.52 899.808 Q1256 899.808 1256.57 900.587 Q1256.66 900.669 1256.78 900.956 Q1256.9 901.243 1257.07 901.653 Q1257.23 902.022 1257.31 902.227 Q1257.8 903.415 1259.4 903.415 Q1262.03 903.415 1264.94 901.079 Q1266.04 900.177 1266.99 898.866 Q1267.97 897.513 1268.38 896.693 Q1268.83 895.873 1269.73 894.029 Q1271.9 889.069 1273.95 881.24 L1279.4 859.516 Q1277.44 856.975 1275.63 855.745 Q1273.63 854.392 1271.99 854.392 Q1268.91 854.392 1266.9 856.155 Q1265.84 856.975 1264.85 858.327 Q1263.91 859.68 1263.42 860.623 Q1262.93 861.565 1262.19 863.287 L1260.26 863.697 Q1262.15 856.196 1266.62 852.548 Q1270.51 849.514 1275.63 849.514 Q1280.55 849.514 1284.36 854.802 Q1285.68 856.483 1286.91 858.86 Q1288.18 861.196 1288.75 862.631 Q1289.37 864.025 1290.64 867.14 L1301.79 897.964 L1302.65 896.939 L1309.12 868.083 Q1310.35 862.918 1312.81 857.753 Q1314.7 853.572 1316.91 851.81 Q1320.23 849.105 1324.29 849.105 Q1326.17 849.105 1327.32 850.375 Q1328.22 851.523 1327.81 853.326 Z" fill="#000000" fill-rule="nonzero" fill-opacity="1" /><path clip-path="url(#clip620)" d="M1333.52 887.389 Q1333.52 873.206 1338.81 861.77 Q1341.06 856.975 1344.22 852.958 Q1347.37 848.941 1349.46 847.178 Q1351.55 845.416 1352.13 845.416 Q1352.95 845.416 1352.99 846.235 Q1352.99 846.645 1351.88 847.67 Q1338.36 861.442 1338.4 887.389 Q1338.4 913.417 1351.55 926.656 Q1352.99 928.091 1352.99 928.542 Q1352.99 929.362 1352.13 929.362 Q1351.55 929.362 1349.55 927.681 Q1347.54 926 1344.42 922.147 Q1341.31 918.294 1339.05 913.581 Q1333.52 902.145 1333.52 887.389 Z" fill="#000000" fill-rule="nonzero" fill-opacity="1" /><path clip-path="url(#clip620)" d="M1361.05 881.527 Q1361.05 869.189 1364.16 862.467 Q1368.51 852.466 1378.76 852.466 Q1380.93 852.466 1383.18 853.081 Q1385.48 853.654 1388.35 855.909 Q1391.26 858.163 1393.02 861.852 Q1396.38 868.984 1396.38 881.527 Q1396.38 893.783 1393.27 900.464 Q1388.72 910.22 1378.67 910.22 Q1374.9 910.22 1371.05 908.293 Q1367.24 906.367 1364.82 901.735 Q1361.05 894.808 1361.05 881.527 M1368.02 880.502 Q1368.02 893.168 1368.92 898.21 Q1369.94 903.661 1372.73 906.039 Q1375.56 908.375 1378.67 908.375 Q1382.04 908.375 1384.82 905.875 Q1387.65 903.333 1388.51 897.882 Q1389.45 892.512 1389.41 880.502 Q1389.41 868.82 1388.59 864.148 Q1387.49 858.696 1384.54 856.524 Q1381.63 854.31 1378.67 854.31 Q1377.57 854.31 1376.38 854.638 Q1375.23 854.966 1373.55 855.909 Q1371.87 856.852 1370.56 859.188 Q1369.29 861.524 1368.67 865.049 Q1368.02 869.599 1368.02 880.502 Z" fill="#000000" fill-rule="nonzero" fill-opacity="1" /><path clip-path="url(#clip620)" d="M1403.81 907.022 Q1402.62 905.67 1402.62 903.907 Q1402.62 902.145 1403.77 900.833 Q1404.96 899.48 1407.09 899.48 Q1409.59 899.48 1411.02 901.899 Q1412.46 904.276 1412.46 908.293 Q1412.46 912.638 1410.69 916.655 Q1408.93 920.713 1407.21 922.639 Q1405.49 924.566 1404.79 924.566 Q1403.97 924.566 1403.97 923.664 Q1403.97 923.336 1404.55 922.721 Q1410.57 916.245 1410.61 908.293 Q1410.61 907.022 1410.45 907.022 L1410.24 907.186 Q1408.81 908.375 1407.09 908.375 Q1405 908.375 1403.81 907.022 Z" fill="#000000" fill-rule="nonzero" fill-opacity="1" /><path clip-path="url(#clip620)" d="M1438.95 860.459 L1438.95 857.835 Q1449.03 857.835 1454.23 852.466 Q1455.67 852.466 1455.92 852.794 Q1456.16 853.122 1456.16 854.638 L1456.16 901.735 Q1456.16 904.235 1457.39 905.014 Q1458.62 905.793 1463.99 905.793 L1466.65 905.793 L1466.65 908.375 Q1463.7 908.129 1453.05 908.129 Q1442.39 908.129 1439.48 908.375 L1439.48 905.793 L1442.14 905.793 Q1447.43 905.793 1448.7 905.055 Q1449.97 904.276 1449.97 901.735 L1449.97 858.245 Q1445.59 860.459 1438.95 860.459 Z" fill="#000000" fill-rule="nonzero" fill-opacity="1" /><path clip-path="url(#clip620)" d="M1479.17 928.542 Q1479.17 928.132 1480.24 927.107 Q1493.76 913.335 1493.76 887.389 Q1493.76 861.36 1480.77 848.203 Q1479.17 846.686 1479.17 846.235 Q1479.17 845.416 1479.99 845.416 Q1480.57 845.416 1482.57 847.096 Q1484.62 848.777 1487.7 852.63 Q1490.81 856.483 1493.11 861.196 Q1498.64 872.632 1498.64 887.389 Q1498.64 901.571 1493.35 913.007 Q1491.1 917.803 1487.94 921.82 Q1484.79 925.837 1482.7 927.599 Q1480.61 929.362 1479.99 929.362 Q1479.17 929.362 1479.17 928.542 Z" fill="#000000" fill-rule="nonzero" fill-opacity="1" /><polyline clip-path="url(#clip623)" style="stroke:#009af9; stroke-linecap:round; stroke-linejoin:round; stroke-width:4; stroke-opacity:1; fill:none" points="174.33,1552.74 184.905,1552.73 195.48,1552.73 206.055,1552.72 216.63,1552.72 227.205,1552.71 237.779,1552.71 248.354,1552.7 258.929,1552.69 269.504,1552.67 280.079,1552.66 290.654,1552.65 301.229,1552.63 311.804,1552.61 322.379,1552.58 332.953,1552.56 343.528,1552.52 354.103,1552.49 364.678,1552.45 375.253,1552.4 385.828,1552.35 396.403,1552.29 406.978,1552.22 417.552,1552.14 428.127,1552.05 438.702,1551.95 449.277,1551.84 459.852,1551.71 470.427,1551.57 481.002,1551.41 491.577,1551.23 502.152,1551.03 512.726,1550.81 523.301,1550.56 533.876,1550.28 544.451,1549.98 555.026,1549.64 565.601,1549.26 576.176,1548.84 586.751,1548.38 597.325,1547.87 607.9,1547.31 618.475,1546.69 629.05,1546.02 639.625,1545.28 650.2,1544.47 660.775,1543.58 671.35,1542.62 681.925,1541.57 692.499,1540.43 703.074,1539.19 713.649,1537.85 724.224,1536.4 734.799,1534.84 745.374,1533.15 755.949,1531.34 766.524,1529.39 777.098,1527.29 787.673,1525.05 798.248,1522.65 808.823,1520.09 819.398,1517.36 829.973,1514.45 840.548,1511.36 851.123,1508.09 861.698,1504.61 872.272,1500.94 882.847,1497.07 893.422,1492.98 903.997,1488.68 914.572,1484.16 925.147,1479.42 935.722,1474.45 946.297,1469.26 956.871,1463.83 967.446,1458.18 978.021,1452.29 988.596,1446.18 999.171,1439.83 1009.75,1433.26 1020.32,1426.46 1030.9,1419.45 1041.47,1412.21 1052.05,1404.77 1062.62,1397.11 1073.2,1389.27 1083.77,1381.23 1094.34,1373 1104.92,1364.61 1115.49,1356.05 1126.07,1347.34 1136.64,1338.49 1147.22,1329.51 1157.79,1320.42 1168.37,1311.22 1178.94,1301.94 1189.52,1292.58 1200.09,1283.16 1210.67,1273.7 1221.24,1264.2 1231.82,1254.69 1242.39,1245.18 1252.97,1235.69 1263.54,1226.22 1274.12,1216.8 1284.69,1207.44 1295.27,1198.16 1305.84,1188.96 1316.42,1179.87 1326.99,1170.89 1337.57,1162.04 1348.14,1153.33 1358.72,1144.77 1369.29,1136.38 1379.87,1128.16 1390.44,1120.12 1401.02,1112.27 1411.59,1104.62 1422.17,1097.17 1432.74,1089.94 1443.32,1082.92 1453.89,1076.12 1464.47,1069.55 1475.04,1063.21 1485.62,1057.09 1496.19,1051.21 1506.77,1045.55 1517.34,1040.13 1527.92,1034.93 1538.49,1029.96 1549.06,1025.22 1559.64,1020.7 1570.21,1016.4 1580.79,1012.32 1591.36,1008.44 1601.94,1004.77 1612.51,1001.3 1623.09,998.019 1633.66,994.931 1644.24,992.024 1654.81,989.294 1665.39,986.732 1675.96,984.333 1686.54,982.091 1697.11,979.997 1707.69,978.045 1718.26,976.229 1728.84,974.542 1739.41,972.977 1749.99,971.528 1760.56,970.188 1771.14,968.951 1781.71,967.811 1792.29,966.762 1802.86,965.798 1813.44,964.914 1824.01,964.105 1834.59,963.365 1845.16,962.689 1855.74,962.073 1866.31,961.513 1876.89,961.004 1887.46,960.542 1898.04,960.124 1908.61,959.746 1919.19,959.405 1929.76,959.097 1940.34,958.821 1950.91,958.572 1961.49,958.349 1972.06,958.149 1982.64,957.971 1993.21,957.811 2003.78,957.669 2014.36,957.543 2024.93,957.431 2035.51,957.331 2046.08,957.243 2056.66,957.165 2067.23,957.096 2077.81,957.036 2088.38,956.982 2098.96,956.936 2109.53,956.894 2120.11,956.858 2130.68,956.827 2141.26,956.8 2151.83,956.776 2162.41,956.755 2172.98,956.737 2183.56,956.721 2194.13,956.707 2204.71,956.696 2215.28,956.686 2225.86,956.677 2236.43,956.669 2247.01,956.663 2257.58,956.657 2268.16,956.653 2278.73,956.648 2289.31,956.645 "/>
<polyline clip-path="url(#clip623)" style="stroke:#008000; stroke-linecap:round; stroke-linejoin:round; stroke-width:4; stroke-opacity:1; fill:none" points="174.33,1475.86 932.779,1475.86 "/>
<polyline clip-path="url(#clip623)" style="stroke:#008000; stroke-linecap:round; stroke-linejoin:round; stroke-width:4; stroke-opacity:1; fill:none" points="932.779,1552.76 932.779,1475.86 "/>
<path clip-path="url(#clip620)" d="M1767.45 1183.86 L2278.03 1183.86 L2278.03 976.497 L1767.45 976.497  Z" fill="#ffffff" fill-rule="evenodd" fill-opacity="1"/>
<polyline clip-path="url(#clip620)" style="stroke:#000000; stroke-linecap:round; stroke-linejoin:round; stroke-width:4; stroke-opacity:1; fill:none" points="1767.45,1183.86 2278.03,1183.86 2278.03,976.497 1767.45,976.497 1767.45,1183.86 "/>
<polyline clip-path="url(#clip620)" style="stroke:#008000; stroke-linecap:round; stroke-linejoin:round; stroke-width:4; stroke-opacity:1; fill:none" points="1792.36,1080.18 1941.82,1080.18 "/>
<path clip-path="url(#clip620)" d="M1993.64 1051.19 Q1993.59 1051.43 1993.5 1051.85 Q1993.4 1052.24 1992.98 1053.51 Q1992.56 1054.77 1992 1056.06 Q1991.46 1057.33 1990.41 1059.11 Q1989.37 1060.86 1988.11 1062.46 Q1987.76 1062.88 1987.69 1063.14 Q1987.64 1063.37 1987.64 1064.14 Q1987.64 1069.02 1989.12 1069.02 Q1989.19 1069.02 1989.3 1069.02 Q1989.44 1068.99 1989.8 1068.87 Q1990.17 1068.73 1990.5 1068.52 Q1990.83 1068.29 1991.2 1067.82 Q1991.58 1067.33 1991.81 1066.67 Q1992.02 1066.2 1992.44 1066.2 Q1993 1066.2 1993 1066.67 Q1993 1067.52 1991.83 1068.8 Q1990.66 1070.09 1988.98 1070.09 Q1987.36 1070.09 1986.21 1069.04 Q1985.09 1067.96 1984.62 1066.04 Q1979.56 1070.09 1974.5 1070.09 Q1970.94 1070.09 1968.83 1067.77 Q1966.72 1065.43 1966.72 1061.97 Q1966.72 1058.64 1968.55 1055.48 Q1970.4 1052.32 1973.4 1050.35 Q1976.42 1048.36 1979.63 1048.36 Q1980.76 1048.36 1981.83 1048.66 Q1982.91 1048.94 1983.99 1049.67 Q1985.06 1050.39 1985.86 1051.5 Q1986.66 1052.6 1987.15 1054.33 Q1987.64 1056.06 1987.64 1058.24 L1987.64 1061.22 Q1990.73 1057.3 1992.35 1051.71 Q1992.58 1050.86 1992.72 1050.77 Q1992.82 1050.7 1993.05 1050.7 Q1993.29 1050.7 1993.43 1050.84 Q1993.59 1050.96 1993.61 1051.07 L1993.64 1051.19 M1984.43 1064.8 Q1984.34 1063.98 1984.34 1059.44 Q1984.34 1058.57 1984.34 1058.1 Q1984.34 1057.61 1984.29 1056.67 Q1984.24 1055.73 1984.15 1055.15 Q1984.08 1054.56 1983.92 1053.72 Q1983.75 1052.88 1983.52 1052.34 Q1983.28 1051.8 1982.91 1051.19 Q1982.56 1050.58 1982.09 1050.23 Q1981.65 1049.88 1980.99 1049.64 Q1980.36 1049.41 1979.58 1049.41 Q1978.62 1049.41 1977.62 1049.76 Q1976.63 1050.09 1975.37 1051.14 Q1974.1 1052.17 1973.05 1053.81 Q1971.95 1055.55 1971.1 1058.73 Q1970.29 1061.89 1970.29 1063.79 Q1970.29 1066.18 1971.39 1067.61 Q1972.49 1069.02 1974.59 1069.02 Q1979.63 1069.02 1984.43 1064.8 Z" fill="#000000" fill-rule="nonzero" fill-opacity="1" /><path clip-path="url(#clip620)" d="M2010.41 1062.27 Q2010.46 1061.68 2011.37 1061.68 L2040.77 1061.68 Q2042.15 1061.68 2042.17 1062.22 Q2042.17 1062.81 2040.86 1062.78 L2011.7 1062.78 Q2010.41 1062.81 2010.41 1062.27 M2010.41 1052.9 Q2010.41 1052.32 2011.42 1052.34 L2040.72 1052.34 Q2042.15 1052.34 2042.17 1052.9 Q2042.17 1053.44 2040.96 1053.44 L2011.37 1053.44 Q2010.41 1053.44 2010.41 1052.9 Z" fill="#000000" fill-rule="nonzero" fill-opacity="1" /><path clip-path="url(#clip620)" d="M2060.66 1054.21 Q2060.66 1047.16 2062.44 1043.32 Q2064.93 1037.61 2070.78 1037.61 Q2072.02 1037.61 2073.31 1037.96 Q2074.62 1038.29 2076.26 1039.57 Q2077.93 1040.86 2078.93 1042.97 Q2080.85 1047.05 2080.85 1054.21 Q2080.85 1061.22 2079.07 1065.03 Q2076.47 1070.61 2070.74 1070.61 Q2068.58 1070.61 2066.38 1069.51 Q2064.2 1068.41 2062.82 1065.76 Q2060.66 1061.8 2060.66 1054.21 M2064.65 1053.63 Q2064.65 1060.86 2065.16 1063.75 Q2065.75 1066.86 2067.34 1068.22 Q2068.96 1069.55 2070.74 1069.55 Q2072.66 1069.55 2074.25 1068.13 Q2075.87 1066.67 2076.36 1063.56 Q2076.9 1060.49 2076.87 1053.63 Q2076.87 1046.95 2076.4 1044.28 Q2075.77 1041.17 2074.09 1039.92 Q2072.42 1038.66 2070.74 1038.66 Q2070.1 1038.66 2069.42 1038.85 Q2068.77 1039.03 2067.81 1039.57 Q2066.85 1040.11 2066.1 1041.45 Q2065.37 1042.78 2065.02 1044.8 Q2064.65 1047.4 2064.65 1053.63 Z" fill="#000000" fill-rule="nonzero" fill-opacity="1" /><path clip-path="url(#clip620)" d="M2085.14 1068.78 Q2084.41 1068.01 2084.41 1067 Q2084.41 1065.99 2085.14 1065.27 Q2085.87 1064.52 2086.97 1064.52 Q2088.02 1064.52 2088.72 1065.22 Q2089.45 1065.9 2089.45 1067.02 Q2089.45 1068.13 2088.68 1068.85 Q2087.93 1069.55 2086.97 1069.55 Q2085.87 1069.55 2085.14 1068.78 Z" fill="#000000" fill-rule="nonzero" fill-opacity="1" /><path clip-path="url(#clip620)" d="M2092.74 1042.17 L2092.74 1040.67 Q2098.5 1040.67 2101.47 1037.61 Q2102.29 1037.61 2102.43 1037.79 Q2102.57 1037.98 2102.57 1038.85 L2102.57 1065.76 Q2102.57 1067.19 2103.28 1067.63 Q2103.98 1068.08 2107.05 1068.08 L2108.57 1068.08 L2108.57 1069.55 Q2106.88 1069.41 2100.79 1069.41 Q2094.7 1069.41 2093.04 1069.55 L2093.04 1068.08 L2094.56 1068.08 Q2097.59 1068.08 2098.31 1067.66 Q2099.04 1067.21 2099.04 1065.76 L2099.04 1040.91 Q2096.53 1042.17 2092.74 1042.17 Z" fill="#000000" fill-rule="nonzero" fill-opacity="1" /><path clip-path="url(#clip620)" d="M2113.08 1069.55 Q2113.08 1068.69 2113.15 1068.43 Q2113.24 1068.17 2113.61 1067.77 L2122.82 1057.51 Q2127.86 1051.85 2127.86 1046.9 Q2127.86 1043.7 2126.17 1041.4 Q2124.51 1039.1 2121.44 1039.1 Q2119.33 1039.1 2117.55 1040.39 Q2115.77 1041.68 2114.95 1043.98 Q2115.09 1043.93 2115.58 1043.93 Q2116.78 1043.93 2117.43 1044.68 Q2118.11 1045.43 2118.11 1046.44 Q2118.11 1047.72 2117.27 1048.36 Q2116.45 1048.97 2115.63 1048.97 Q2115.3 1048.97 2114.86 1048.9 Q2114.43 1048.83 2113.75 1048.17 Q2113.08 1047.49 2113.08 1046.3 Q2113.08 1042.95 2115.61 1040.28 Q2118.16 1037.61 2122.05 1037.61 Q2126.45 1037.61 2129.33 1040.23 Q2132.24 1042.83 2132.24 1046.9 Q2132.24 1048.33 2131.79 1049.64 Q2131.37 1050.93 2130.78 1051.94 Q2130.22 1052.95 2128.68 1054.56 Q2127.13 1056.18 2125.89 1057.33 Q2124.65 1058.48 2121.86 1060.91 L2116.78 1065.85 L2125.42 1065.85 Q2129.64 1065.85 2129.96 1065.48 Q2130.43 1064.8 2131.02 1061.22 L2132.24 1061.22 L2130.88 1069.55 L2113.08 1069.55 Z" fill="#000000" fill-rule="nonzero" fill-opacity="1" /><path clip-path="url(#clip620)" d="M2137.02 1048.4 Q2137.02 1045.85 2137.77 1044.12 Q2138.52 1042.36 2140.09 1040.63 Q2142.97 1037.61 2147.14 1037.61 Q2148.92 1037.61 2150.49 1038.36 Q2152.08 1039.1 2153.58 1040.81 Q2155.1 1042.5 2156.01 1045.85 Q2156.93 1049.18 2156.93 1053.77 Q2156.93 1061.19 2153.32 1065.9 Q2149.74 1070.61 2144.89 1070.61 Q2141.82 1070.61 2140.02 1069.23 Q2138.21 1067.82 2138.21 1065.43 Q2138.21 1064.19 2138.91 1063.67 Q2139.62 1063.14 2140.41 1063.14 Q2141.28 1063.14 2141.96 1063.72 Q2142.64 1064.28 2142.64 1065.34 Q2142.64 1066.2 2142.08 1066.88 Q2141.54 1067.54 2140.13 1067.54 Q2141.51 1069.27 2144.84 1069.27 Q2146.04 1069.27 2147.23 1068.73 Q2148.42 1068.17 2149.71 1066.84 Q2151.02 1065.48 2151.82 1062.64 Q2152.62 1059.81 2152.62 1055.83 L2152.62 1054.31 Q2150.7 1059.11 2146.62 1059.11 Q2142.59 1059.11 2139.8 1056.02 Q2137.02 1052.92 2137.02 1048.4 M2141.33 1048.45 Q2141.33 1053.21 2142.19 1054.96 Q2143.67 1057.98 2146.67 1057.98 Q2149.6 1057.98 2151.05 1055.38 Q2152.52 1052.76 2152.52 1049.36 Q2152.52 1044.66 2151.75 1042.59 Q2150.32 1038.8 2147.14 1038.8 Q2143.97 1038.8 2142.33 1041.82 Q2141.33 1043.6 2141.33 1048.45 Z" fill="#000000" fill-rule="nonzero" fill-opacity="1" /><path clip-path="url(#clip620)" d="M2001.56 1092.04 L1994.93 1118.72 Q1994.75 1119.56 1994.75 1119.77 Q1994.75 1120.05 1994.82 1120.17 Q1994.91 1120.31 1995.43 1120.43 Q1995.96 1120.55 1997.04 1120.55 Q1997.44 1120.55 1997.58 1120.55 Q1997.72 1120.55 1997.93 1120.59 Q1998.14 1120.64 1998.21 1120.76 Q1998.28 1120.87 1998.28 1121.06 Q1998.28 1122.02 1997.44 1122.02 Q1996.64 1122.02 1994.98 1121.95 Q1993.32 1121.88 1992.5 1121.88 Q1991.7 1121.88 1990.09 1121.95 Q1988.47 1122.02 1987.7 1122.02 Q1987.42 1122.02 1987.25 1121.88 Q1987.09 1121.76 1987.09 1121.62 L1987.06 1121.51 Q1987.06 1120.85 1987.32 1120.69 Q1987.58 1120.55 1988.17 1120.55 Q1990.18 1120.52 1990.77 1120.24 Q1991.35 1119.96 1991.63 1118.95 L1993.79 1110.38 Q1990.91 1113.26 1988.12 1113.26 Q1985.42 1113.26 1983.6 1111.15 Q1981.79 1109.02 1981.79 1105.58 Q1981.79 1103.03 1982.8 1100.45 Q1983.83 1097.87 1985.42 1095.93 Q1987.04 1093.99 1989.15 1092.77 Q1991.26 1091.53 1993.34 1091.53 Q1994.68 1091.53 1995.87 1092.3 Q1997.09 1093.07 1997.82 1094.88 Q1998.42 1093.84 1999.55 1092.72 Q2000.67 1091.57 2001.07 1091.57 Q2001.31 1091.57 2001.42 1091.74 Q2001.56 1091.88 2001.56 1092.04 M1997.14 1096.8 Q1997.14 1096.56 1996.95 1095.98 Q1996.78 1095.39 1996.41 1094.59 Q1996.06 1093.77 1995.24 1093.19 Q1994.42 1092.58 1993.34 1092.58 Q1991.8 1092.58 1990.13 1094.08 Q1988.49 1095.55 1987.42 1098.13 Q1986.74 1099.82 1985.96 1102.96 Q1985.19 1106.09 1985.19 1107.69 Q1985.19 1108.06 1985.21 1108.48 Q1985.26 1108.91 1985.45 1109.61 Q1985.64 1110.31 1985.92 1110.85 Q1986.22 1111.39 1986.83 1111.79 Q1987.44 1112.18 1988.26 1112.18 Q1990.04 1112.18 1991.82 1110.66 Q1993.6 1109.14 1994.35 1107.78 Q1994.44 1107.64 1995.78 1102.32 Q1997.14 1097.01 1997.14 1096.8 Z" fill="#000000" fill-rule="nonzero" fill-opacity="1" /><path clip-path="url(#clip620)" d="M2025.32 1117.89 Q2025.28 1118.05 2025.22 1118.34 Q2025.15 1118.62 2024.86 1119.51 Q2024.56 1120.39 2024.17 1121.3 Q2023.79 1122.18 2023.05 1123.43 Q2022.33 1124.66 2021.45 1125.77 Q2021.2 1126.07 2021.15 1126.25 Q2021.12 1126.41 2021.12 1126.95 Q2021.12 1130.36 2022.15 1130.36 Q2022.2 1130.36 2022.28 1130.36 Q2022.38 1130.35 2022.63 1130.26 Q2022.89 1130.17 2023.12 1130.02 Q2023.35 1129.85 2023.61 1129.53 Q2023.87 1129.18 2024.04 1128.72 Q2024.18 1128.4 2024.48 1128.4 Q2024.87 1128.4 2024.87 1128.72 Q2024.87 1129.31 2024.05 1130.22 Q2023.23 1131.12 2022.05 1131.12 Q2020.92 1131.12 2020.12 1130.38 Q2019.33 1129.62 2019 1128.28 Q2015.46 1131.12 2011.92 1131.12 Q2009.43 1131.12 2007.95 1129.49 Q2006.48 1127.85 2006.48 1125.43 Q2006.48 1123.1 2007.76 1120.89 Q2009.05 1118.67 2011.15 1117.3 Q2013.26 1115.9 2015.51 1115.9 Q2016.3 1115.9 2017.05 1116.11 Q2017.81 1116.31 2018.56 1116.82 Q2019.31 1117.33 2019.87 1118.1 Q2020.43 1118.87 2020.77 1120.08 Q2021.12 1121.3 2021.12 1122.82 L2021.12 1124.9 Q2023.28 1122.16 2024.41 1118.25 Q2024.58 1117.66 2024.68 1117.59 Q2024.74 1117.54 2024.91 1117.54 Q2025.07 1117.54 2025.17 1117.64 Q2025.28 1117.72 2025.3 1117.8 L2025.32 1117.89 M2018.87 1127.41 Q2018.81 1126.84 2018.81 1123.66 Q2018.81 1123.05 2018.81 1122.72 Q2018.81 1122.38 2018.77 1121.72 Q2018.74 1121.07 2018.68 1120.66 Q2018.63 1120.25 2018.51 1119.66 Q2018.4 1119.07 2018.23 1118.69 Q2018.07 1118.31 2017.81 1117.89 Q2017.56 1117.46 2017.23 1117.21 Q2016.92 1116.97 2016.46 1116.8 Q2016.02 1116.64 2015.48 1116.64 Q2014.81 1116.64 2014.1 1116.89 Q2013.41 1117.11 2012.53 1117.85 Q2011.64 1118.57 2010.9 1119.72 Q2010.13 1120.94 2009.54 1123.16 Q2008.97 1125.38 2008.97 1126.71 Q2008.97 1128.38 2009.74 1129.38 Q2010.51 1130.36 2011.99 1130.36 Q2015.51 1130.36 2018.87 1127.41 Z" fill="#000000" fill-rule="nonzero" fill-opacity="1" /><path clip-path="url(#clip620)" d="M2046.17 1105.44 Q2046.22 1104.85 2047.13 1104.85 L2076.53 1104.85 Q2077.91 1104.85 2077.93 1105.39 Q2077.93 1105.98 2076.62 1105.95 L2047.46 1105.95 Q2046.17 1105.98 2046.17 1105.44 M2046.17 1096.07 Q2046.17 1095.48 2047.18 1095.51 L2076.48 1095.51 Q2077.91 1095.51 2077.93 1096.07 Q2077.93 1096.61 2076.71 1096.61 L2047.13 1096.61 Q2046.17 1096.61 2046.17 1096.07 Z" fill="#000000" fill-rule="nonzero" fill-opacity="1" /><path clip-path="url(#clip620)" d="M2141.39 1100.05 Q2141.67 1100.33 2141.67 1100.73 Q2141.67 1101.13 2141.39 1101.41 Q2141.11 1101.69 2140.71 1101.69 L2110.69 1101.69 Q2110.29 1101.69 2110.01 1101.41 Q2109.73 1101.13 2109.73 1100.73 Q2109.73 1100.33 2110.01 1100.05 Q2110.29 1099.77 2110.69 1099.77 L2140.71 1099.77 Q2141.11 1099.77 2141.39 1100.05 Z" fill="#000000" fill-rule="nonzero" fill-opacity="1" /><path clip-path="url(#clip620)" d="M2159.98 1085.34 L2159.98 1083.84 Q2165.74 1083.84 2168.71 1080.78 Q2169.53 1080.78 2169.67 1080.96 Q2169.82 1081.15 2169.82 1082.02 L2169.82 1108.93 Q2169.82 1110.36 2170.52 1110.8 Q2171.22 1111.25 2174.29 1111.25 L2175.81 1111.25 L2175.81 1112.72 Q2174.13 1112.58 2168.04 1112.58 Q2161.95 1112.58 2160.28 1112.72 L2160.28 1111.25 L2161.8 1111.25 Q2164.83 1111.25 2165.55 1110.83 Q2166.28 1110.38 2166.28 1108.93 L2166.28 1084.08 Q2163.77 1085.34 2159.98 1085.34 Z" fill="#000000" fill-rule="nonzero" fill-opacity="1" /><path clip-path="url(#clip620)" d="M2179.58 1111.95 Q2178.85 1111.18 2178.85 1110.17 Q2178.85 1109.16 2179.58 1108.44 Q2180.31 1107.69 2181.41 1107.69 Q2182.46 1107.69 2183.16 1108.39 Q2183.89 1109.07 2183.89 1110.19 Q2183.89 1111.29 2183.12 1112.02 Q2182.37 1112.72 2181.41 1112.72 Q2180.31 1112.72 2179.58 1111.95 Z" fill="#000000" fill-rule="nonzero" fill-opacity="1" /><path clip-path="url(#clip620)" d="M2187.18 1085.34 L2187.18 1083.84 Q2192.94 1083.84 2195.91 1080.78 Q2196.73 1080.78 2196.87 1080.96 Q2197.01 1081.15 2197.01 1082.02 L2197.01 1108.93 Q2197.01 1110.36 2197.72 1110.8 Q2198.42 1111.25 2201.49 1111.25 L2203.01 1111.25 L2203.01 1112.72 Q2201.32 1112.58 2195.23 1112.58 Q2189.14 1112.58 2187.48 1112.72 L2187.48 1111.25 L2189 1111.25 Q2192.02 1111.25 2192.75 1110.83 Q2193.48 1110.38 2193.48 1108.93 L2193.48 1084.08 Q2190.97 1085.34 2187.18 1085.34 Z" fill="#000000" fill-rule="nonzero" fill-opacity="1" /><path clip-path="url(#clip620)" d="M2206.7 1106.26 Q2206.7 1104.83 2207.52 1104.15 Q2208.34 1103.47 2209.39 1103.47 Q2210.49 1103.47 2211.26 1104.2 Q2212.06 1104.9 2212.06 1106.14 Q2212.06 1107.48 2211.12 1108.23 Q2210.21 1108.98 2208.9 1108.79 Q2210.05 1110.71 2212.15 1111.58 Q2214.29 1112.44 2216.25 1112.44 Q2218.31 1112.44 2219.98 1110.66 Q2221.66 1108.88 2221.66 1104.53 Q2221.66 1100.82 2220.21 1098.69 Q2218.78 1096.56 2215.95 1096.56 L2213.84 1096.56 Q2213.11 1096.56 2212.9 1096.49 Q2212.69 1096.42 2212.69 1096.02 Q2212.69 1095.55 2213.42 1095.46 Q2214.15 1095.46 2215.29 1095.32 Q2218.08 1095.23 2219.56 1092.81 Q2220.89 1090.57 2220.89 1087.36 Q2220.89 1084.43 2219.49 1083.21 Q2218.1 1081.97 2216.3 1081.97 Q2214.61 1081.97 2212.76 1082.67 Q2210.91 1083.37 2209.91 1084.94 Q2212.88 1084.94 2212.88 1087.36 Q2212.88 1088.41 2212.2 1089.11 Q2211.55 1089.79 2210.44 1089.79 Q2209.39 1089.79 2208.69 1089.14 Q2207.99 1088.46 2207.99 1087.31 Q2207.99 1084.57 2210.42 1082.67 Q2212.88 1080.78 2216.49 1080.78 Q2220.05 1080.78 2222.67 1082.65 Q2225.32 1084.52 2225.32 1087.4 Q2225.32 1090.24 2223.44 1092.56 Q2221.57 1094.88 2218.6 1095.84 Q2222.25 1096.56 2224.43 1099.04 Q2226.61 1101.5 2226.61 1104.53 Q2226.61 1108.27 2223.65 1111.04 Q2220.7 1113.78 2216.39 1113.78 Q2212.41 1113.78 2209.55 1111.62 Q2206.7 1109.47 2206.7 1106.26 Z" fill="#000000" fill-rule="nonzero" fill-opacity="1" /><path clip-path="url(#clip620)" d="M2229.37 1085.34 L2229.37 1083.84 Q2235.13 1083.84 2238.1 1080.78 Q2238.92 1080.78 2239.06 1080.96 Q2239.2 1081.15 2239.2 1082.02 L2239.2 1108.93 Q2239.2 1110.36 2239.91 1110.8 Q2240.61 1111.25 2243.68 1111.25 L2245.2 1111.25 L2245.2 1112.72 Q2243.51 1112.58 2237.42 1112.58 Q2231.33 1112.58 2229.67 1112.72 L2229.67 1111.25 L2231.19 1111.25 Q2234.22 1111.25 2234.94 1110.83 Q2235.67 1110.38 2235.67 1108.93 L2235.67 1084.08 Q2233.16 1085.34 2229.37 1085.34 Z" fill="#000000" fill-rule="nonzero" fill-opacity="1" /><path clip-path="url(#clip620)" d="M327.023 1402.01 Q326.941 1402.41 326.777 1403.15 Q326.613 1403.85 325.875 1406.06 Q325.137 1408.28 324.153 1410.53 Q323.21 1412.74 321.366 1415.86 Q319.562 1418.93 317.349 1421.72 Q316.734 1422.46 316.611 1422.91 Q316.529 1423.32 316.529 1424.67 Q316.529 1433.2 319.112 1433.2 Q319.235 1433.2 319.439 1433.2 Q319.685 1433.16 320.3 1432.95 Q320.956 1432.71 321.53 1432.34 Q322.104 1431.93 322.76 1431.11 Q323.415 1430.25 323.825 1429.1 Q324.194 1428.28 324.932 1428.28 Q325.916 1428.28 325.916 1429.1 Q325.916 1430.57 323.866 1432.83 Q321.817 1435.08 318.866 1435.08 Q316.037 1435.08 314.029 1433.24 Q312.061 1431.35 311.242 1427.99 Q302.388 1435.08 293.534 1435.08 Q287.304 1435.08 283.615 1431.03 Q279.926 1426.93 279.926 1420.86 Q279.926 1415.04 283.123 1409.51 Q286.361 1403.97 291.608 1400.53 Q296.895 1397.05 302.511 1397.05 Q304.478 1397.05 306.364 1397.58 Q308.249 1398.07 310.135 1399.34 Q312.02 1400.61 313.414 1402.54 Q314.808 1404.46 315.668 1407.5 Q316.529 1410.53 316.529 1414.34 L316.529 1419.55 Q321.94 1412.7 324.768 1402.91 Q325.178 1401.43 325.424 1401.27 Q325.588 1401.14 325.998 1401.14 Q326.408 1401.14 326.654 1401.39 Q326.941 1401.6 326.982 1401.8 L327.023 1402.01 M310.914 1425.82 Q310.75 1424.39 310.75 1416.43 Q310.75 1414.92 310.75 1414.1 Q310.75 1413.24 310.668 1411.6 Q310.586 1409.96 310.422 1408.93 Q310.299 1407.91 310.012 1406.43 Q309.725 1404.96 309.315 1404.01 Q308.905 1403.07 308.249 1402.01 Q307.635 1400.94 306.815 1400.32 Q306.036 1399.71 304.888 1399.3 Q303.782 1398.89 302.429 1398.89 Q300.748 1398.89 298.986 1399.5 Q297.264 1400.08 295.051 1401.92 Q292.837 1403.73 290.993 1406.6 Q289.066 1409.63 287.591 1415.2 Q286.156 1420.74 286.156 1424.06 Q286.156 1428.24 288.083 1430.74 Q290.009 1433.2 293.698 1433.2 Q302.511 1433.2 310.914 1425.82 Z" fill="#000000" fill-rule="nonzero" fill-opacity="1" /><path clip-path="url(#clip620)" d="M975.55 1459.22 L963.95 1505.91 Q963.622 1507.38 963.622 1507.75 Q963.622 1508.24 963.745 1508.45 Q963.909 1508.69 964.811 1508.9 Q965.754 1509.1 967.639 1509.1 Q968.336 1509.1 968.582 1509.1 Q968.828 1509.1 969.197 1509.19 Q969.566 1509.27 969.689 1509.47 Q969.812 1509.68 969.812 1510.01 Q969.812 1511.69 968.336 1511.69 Q966.942 1511.69 964.032 1511.56 Q961.122 1511.44 959.687 1511.44 Q958.294 1511.44 955.465 1511.56 Q952.637 1511.69 951.284 1511.69 Q950.793 1511.69 950.506 1511.44 Q950.219 1511.23 950.219 1510.99 L950.178 1510.78 Q950.178 1509.64 950.629 1509.35 Q951.079 1509.1 952.104 1509.1 Q955.629 1509.06 956.654 1508.57 Q957.679 1508.08 958.171 1506.32 L961.942 1491.31 Q956.9 1496.36 952.022 1496.36 Q947.308 1496.36 944.111 1492.67 Q940.955 1488.94 940.955 1482.91 Q940.955 1478.44 942.718 1473.93 Q944.521 1469.43 947.308 1466.02 Q950.137 1462.62 953.826 1460.49 Q957.515 1458.32 961.163 1458.32 Q963.499 1458.32 965.59 1459.67 Q967.721 1461.02 968.992 1464.18 Q970.058 1462.38 972.025 1460.41 Q973.992 1458.4 974.689 1458.4 Q975.099 1458.4 975.304 1458.69 Q975.55 1458.93 975.55 1459.22 M967.803 1467.54 Q967.803 1467.13 967.475 1466.11 Q967.188 1465.08 966.532 1463.69 Q965.918 1462.25 964.483 1461.23 Q963.048 1460.16 961.163 1460.16 Q958.458 1460.16 955.547 1462.79 Q952.678 1465.37 950.793 1469.88 Q949.604 1472.83 948.251 1478.32 Q946.899 1483.81 946.899 1486.6 Q946.899 1487.26 946.94 1487.99 Q947.022 1488.73 947.349 1489.96 Q947.677 1491.19 948.169 1492.13 Q948.702 1493.08 949.768 1493.77 Q950.834 1494.47 952.268 1494.47 Q955.383 1494.47 958.499 1491.81 Q961.614 1489.14 962.925 1486.76 Q963.089 1486.52 965.426 1477.21 Q967.803 1467.91 967.803 1467.54 Z" fill="#000000" fill-rule="nonzero" fill-opacity="1" /><path clip-path="url(#clip620)" d="M1017.13 1504.46 Q1017.08 1504.74 1016.96 1505.26 Q1016.85 1505.75 1016.33 1507.3 Q1015.81 1508.85 1015.12 1510.42 Q1014.46 1511.97 1013.17 1514.15 Q1011.91 1516.31 1010.36 1518.26 Q1009.93 1518.77 1009.84 1519.09 Q1009.79 1519.38 1009.79 1520.32 Q1009.79 1526.29 1011.6 1526.29 Q1011.68 1526.29 1011.82 1526.29 Q1012 1526.26 1012.43 1526.12 Q1012.89 1525.95 1013.29 1525.69 Q1013.69 1525.4 1014.15 1524.83 Q1014.61 1524.23 1014.89 1523.42 Q1015.15 1522.85 1015.67 1522.85 Q1016.36 1522.85 1016.36 1523.42 Q1016.36 1524.45 1014.92 1526.03 Q1013.49 1527.61 1011.42 1527.61 Q1009.44 1527.61 1008.04 1526.32 Q1006.66 1525 1006.09 1522.65 Q999.889 1527.61 993.691 1527.61 Q989.33 1527.61 986.747 1524.77 Q984.165 1521.9 984.165 1517.65 Q984.165 1513.58 986.403 1509.71 Q988.67 1505.83 992.342 1503.42 Q996.044 1500.98 999.975 1500.98 Q1001.35 1500.98 1002.67 1501.36 Q1003.99 1501.7 1005.31 1502.59 Q1006.63 1503.48 1007.61 1504.83 Q1008.58 1506.18 1009.18 1508.3 Q1009.79 1510.42 1009.79 1513.09 L1009.79 1516.74 Q1013.57 1511.94 1015.55 1505.09 Q1015.84 1504.05 1016.01 1503.94 Q1016.13 1503.85 1016.42 1503.85 Q1016.7 1503.85 1016.87 1504.03 Q1017.08 1504.17 1017.1 1504.31 L1017.13 1504.46 M1005.86 1521.13 Q1005.74 1520.12 1005.74 1514.56 Q1005.74 1513.49 1005.74 1512.92 Q1005.74 1512.32 1005.68 1511.17 Q1005.63 1510.02 1005.51 1509.31 Q1005.43 1508.59 1005.23 1507.55 Q1005.02 1506.52 1004.74 1505.86 Q1004.45 1505.2 1003.99 1504.46 Q1003.56 1503.71 1002.99 1503.28 Q1002.44 1502.85 1001.64 1502.56 Q1000.86 1502.28 999.917 1502.28 Q998.741 1502.28 997.507 1502.71 Q996.302 1503.11 994.753 1504.4 Q993.203 1505.66 991.912 1507.67 Q990.564 1509.79 989.531 1513.69 Q988.526 1517.57 988.526 1519.89 Q988.526 1522.82 989.875 1524.57 Q991.223 1526.29 993.806 1526.29 Q999.975 1526.29 1005.86 1521.13 Z" fill="#000000" fill-rule="nonzero" fill-opacity="1" /></svg>
